<svg xmlns="http://www.w3.org/2000/svg" viewBox="0 0 112 120"><path d="M97.65 98.56H83.99v-10.8A42.176 42.176 0 0 1 56 98.56c-23 .12-41.75-18.43-41.87-41.43-.12-23 18.43-41.75 41.43-41.87 23-.12 41.75 18.43 41.87 41.43v41.87h.22ZM56.22.5C25.55.5.69 25.36.69 56.04s24.86 55.53 55.53 55.53c8.05-.06 16.01-1.79 23.36-5.07l3.75 1.54 27.99 11.46V55.81C111.17 25.41 86.62.76 56.22.5Zm-.44 27.99c-15.7 0-28.43 12.73-28.43 28.43s12.73 28.43 28.43 28.43 28.43-12.73 28.43-28.43c.04-15.66-12.63-28.39-28.3-28.43h-.13" fill="#0d0d0d"/></svg>