<svg xmlns="http://www.w3.org/2000/svg" viewBox="0 0 98 120"><path d="M81.44 63.67c-.13-15.04 12.29-22.28 12.84-22.64-5-7.12-13.06-11.48-21.75-11.78-9.25-.95-18.06 5.44-22.75 5.44s-11.96-5.31-19.62-5.15A29.075 29.075 0 0 0 5.54 44.53c-10.48 18.19-2.66 45.14 7.53 59.89 5 7.22 11.01 15.41 18.78 15.06 7.77-.35 10.39-4.89 19.49-4.89s11.65 4.8 19.66 4.65 13.21-7.38 18.21-14.6c3.53-5.22 6.3-10.93 8.21-16.93a26.166 26.166 0 0 1-15.96-24.04M66.47 19.48A26.19 26.19 0 0 0 72.66.5c-6.81.63-13.11 3.86-17.61 9.01a24.998 24.998 0 0 0-6.3 18.41c6.61.51 13.48-3.41 17.61-8.43" fill="#0d0d0d" fill-rule="evenodd"/></svg>