<svg xmlns="http://www.w3.org/2000/svg" viewBox="0 0 72.19 21"><path d="M20.66 3.57a6.923 6.923 0 0 0-7 6.87 6.923 6.923 0 0 0 6.87 7h.15c3.83-.04 6.91-3.18 6.87-7-.04-3.77-3.09-6.82-6.87-6.87Zm30.49 0a6.923 6.923 0 0 0-7 6.87 6.923 6.923 0 0 0 6.87 7h.15c3.83-.04 6.91-3.18 6.87-7-.04-3.77-3.09-6.82-6.87-6.87Zm10.14.16v13.56h2.39v-6.08l5.03 6.07h3.12l-4.06-4.91a4.44 4.44 0 0 0 2.74-5.66 4.439 4.439 0 0 0-4.2-2.99h-5.02Zm-53.22.03v5.51H2.75l-.02-5.49H.35v13.48l2.39.02.02-5.63H8.1v5.65h2.39V3.73h-2.4Zm22.73 0v13.55h2.39l.04-8.42 5.84 8.41 1.88.02V3.73h-2.39l-.04 8.39-5.8-8.38-1.91-.02v.02ZM20.61 6.02a4.527 4.527 0 0 1 4.59 4.47c.03 2.5-1.97 4.56-4.47 4.59h-.12a4.514 4.514 0 0 1-4.47-4.59 4.52 4.52 0 0 1 4.47-4.47Zm30.49 0c2.5-.03 4.56 1.97 4.59 4.47.03 2.5-1.97 4.56-4.47 4.59h-.12c-2.5-.04-4.51-2.08-4.47-4.59a4.523 4.523 0 0 1 4.48-4.47Zm12.56.18h2.69c1.09 0 1.98.89 1.98 1.98s-.89 1.98-1.98 1.98h-2.69V6.19Z" fill="#0d0d0d"/></svg>