<svg xmlns="http://www.w3.org/2000/svg" viewBox="0 0 44.81 21"><path d="M37.53 3.63c-3.79 0-6.87 3.07-6.87 6.87s3.07 6.87 6.87 6.87 6.87-3.07 6.87-6.87c0-3.79-3.08-6.86-6.87-6.87Zm0 10.84c-2.19 0-3.97-1.78-3.97-3.97s1.78-3.97 3.97-3.97 3.97 1.78 3.97 3.97a3.941 3.941 0 0 1-3.91 3.97h-.06ZM22.68 3.63c-2.13.02-4.12 1-5.44 2.67a6.754 6.754 0 0 0-5.44-2.67 6.962 6.962 0 0 0-6.82 6.96v6.45c1.57 0 2.85-1.29 2.86-2.86v-3.64c-.04-2.2 1.72-4.02 3.92-4.06s4.02 1.72 4.06 3.92v3.78c0 1.57 1.29 2.85 2.86 2.86v-6.45c-.04-2.2 1.72-4.02 3.92-4.06s4.02 1.72 4.06 3.92v3.73c0 1.57 1.29 2.85 2.86 2.86v-6.45c0-3.79-3.03-6.89-6.82-6.96ZM3.26 17.1V6.72c0-1.58-1.29-2.85-2.86-2.86v10.33c0 1.59 1.27 2.89 2.86 2.91Z" fill="#0d0d0d"/></svg>