<svg xmlns="http://www.w3.org/2000/svg" viewBox="0 0 192 192"><path d="M96 37.18c19.16 0 21.43.07 29 .42 7 .32 10.8 1.48 13.33 2.47a23.68 23.68 0 0 1 13.61 13.61c1 2.53 2.15 6.33 2.47 13.33.35 7.56.42 9.83.42 29s-.07 21.43-.42 29c-.32 7-1.48 10.8-2.47 13.33a23.68 23.68 0 0 1-13.61 13.61c-2.53 1-6.33 2.15-13.33 2.47-7.56.35-9.83.42-29 .42s-21.43-.07-29-.42c-7-.32-10.8-1.48-13.33-2.47a23.68 23.68 0 0 1-13.61-13.61c-1-2.53-2.15-6.33-2.47-13.33-.35-7.56-.42-9.83-.42-29s.07-21.43.42-29c.32-7 1.48-10.8 2.47-13.33a23.68 23.68 0 0 1 13.62-13.61c2.53-1 6.33-2.15 13.33-2.47 7.56-.35 9.83-.42 29-.42m0-12.93c-19.49 0-21.93.08-29.58.43A52.51 52.51 0 0 0 49 28a36.62 36.62 0 0 0-21 21 52.51 52.51 0 0 0-3.34 17.42c-.35 7.65-.43 10.09-.43 29.58s.08 21.93.43 29.58A52.51 52.51 0 0 0 28 143a36.62 36.62 0 0 0 21 21 52.51 52.51 0 0 0 17.42 3.34c7.65.35 10.09.43 29.58.43s21.93-.08 29.58-.43A52.51 52.51 0 0 0 143 164a36.62 36.62 0 0 0 21-21 52.51 52.51 0 0 0 3.34-17.42c.35-7.65.43-10.09.43-29.58s-.08-21.93-.43-29.58A52.51 52.51 0 0 0 164 49a36.62 36.62 0 0 0-21-21 52.51 52.51 0 0 0-17.42-3.34c-7.65-.35-10.09-.43-29.58-.43Z" fill="#333"/><path d="M96 59.16A36.84 36.84 0 1 0 132.84 96 36.84 36.84 0 0 0 96 59.16Zm0 60.76A23.92 23.92 0 1 1 119.92 96 23.92 23.92 0 0 1 96 119.92Z" fill="#333"/><circle cx="134.3" cy="57.7" r="8.61" fill="#333"/></svg>