<svg xmlns="http://www.w3.org/2000/svg" viewBox="0 0 42.83 21"><path d="M39 7.51c-3.73-4.04-5.53-5.1-7.41-4.77s-3.47 3-5.05 5.3c0 0 0-.05-.09-.16s-.35-.61-.75-1.25c-.61-1.01-2.36-4.1-4.36-3.97h-.07c-1.93.18-3.57 2.96-4.15 3.92-.4.67-.67 1.08-.76 1.27l-.09.15c-1.57-2.27-3.16-4.94-5.05-5.27s-3.69.72-7.41 4.77C.26 11.74.15 15.21.61 16.18c.45.97 1.78 2.7 6.01 1.75 3.35-.76 6.23-2.94 7.88-5.96l-.2-.26c-2.24 2.7-4.64 4.92-7.41 5.3-2.79.37-4.64-.45-4.88-1.72-.02-.09-.03-.19-.04-.29 0 .09.02.18.04.25.26 1.27 2.12 2.09 4.88 1.72 2.77-.37 5.18-2.57 7.41-5.3l.2.26c.09.15.23.35.37.59.88 1.39 2.53 3.89 2.79 4.17.79.88 1.88 1.44 3.05 1.59.29.05.59.07.88.08h.27c1.27-.1 2.45-.68 3.31-1.61.19-.2 1.07-1.51 1.88-2.77.53-.78 1.04-1.55 1.3-1.97 1.66 2.99 4.5 5.13 7.85 5.9 4.24.94 5.56-.77 6.01-1.75.45-.97.37-4.4-3.23-8.64Zm-27.46 6.65c-2.09 1.62-3.49 1.75-3.8 1.78s-1.9-.03-2.36-1.06C4.14 12.1 6.1 8.61 7.13 7.2s2.26-.9 3.15-.44c1.01.55 2.74 3.15 3.88 4.74-.76.99-1.63 1.89-2.61 2.67Zm9.92-9.84c1.72 0 3.92 2.65 4.77 3.86.04.06.08.13.13.18l-.04.05c-.75-1.15-3.1-4.04-4.9-4.04s-3.41 2.11-4.44 3.48c1.02-1.37 2.71-3.54 4.49-3.54Zm-1.1 1.94a4.2 4.2 0 0 1 1.73-.08 7.39 7.39 0 0 1 3.92 2.65l.2-.25-.19.25c-.09.13-.44.59-1.48 2.09-.9 1.28-1.5 2.15-2.21 2.54-.24.11-.48.18-.75.19-1.24.05-1.9-.92-3.22-2.78-1.01-1.44-1.32-1.92-1.46-2.08l-.05-.06c.9-1.15 2.12-2 3.5-2.48v.02Zm-3.69 2-.09.12.09-.12Zm7.03 7.25c-.21.21-.43.36-.68.51.23-.14.44-.3.64-.5.6-.48 6.01-8.5 6.46-9.05.67-.81 1.44-1.54 2.3-2.13.21-.1.45-.15.79-.07-.32-.08-.56-.03-.76.07-.87.6-1.65 1.31-2.3 2.13-.44.55-5.85 8.61-6.46 9.05Zm12.25 1.44c-2.75-.36-5.47-2.75-7.35-5.25l.02-.03c1.82 2.5 4.55 4.9 7.37 5.28.51.07.98.1 1.42.09-.45 0-.94 0-1.46-.09Zm1.55-2.04c-.45 1.03-2.07 1.08-2.36 1.06s-1.74-.14-3.8-1.78c-.99-.76-1.86-1.65-2.6-2.65 1.1-1.61 2.82-4.22 3.83-4.75h.03c.87-.47 2.17-.89 3.15.43.97 1.32 3 4.91 1.75 7.68Z" fill="#0d0d0d"/></svg>