<svg xmlns="http://www.w3.org/2000/svg" viewBox="0 0 120 120"><path d="M42.63 15.55 19.89 89.49h4.1c0-.2.2-.61.2-.82 1.36-5.61 3.21-11.1 5.53-16.39 1.29-3.06 3.25-5.79 5.73-7.99 2.6-2.37 6.21-3.3 9.63-2.46 2.39.77 4.52 2.19 6.14 4.1 2.82 3.42 5.17 7.21 6.96 11.27l1.74 3.69 3.07-6.35a33.41 33.41 0 0 1 7.17-10.24 8.495 8.495 0 0 1 5.94-2.66c3.77-.21 7.42 1.39 9.83 4.3 2.5 2.86 4.38 6.21 5.53 9.83l4.1 12.9c0 .2.41.82.61.82h3.89L77.55 15.55h-.2l-17.2 57.76h-.12l-17.4-57.76ZM63.31.5l5.73.82a58.262 58.262 0 0 1 34.2 18.02 57.447 57.447 0 0 1 15.77 34c2.79 23.51-8.74 46.41-29.29 58.17a56.433 56.433 0 0 1-25.62 7.78c-.41 0-.61.2-1.02.2h-6.55c-.2 0-.41-.2-.82-.2-6.41-.41-12.7-1.87-18.64-4.3C12.41 104.5-2.3 78.92 1.03 52.32a57.685 57.685 0 0 1 15.36-32.57A59.423 59.423 0 0 1 50.8 1.32C52.85.91 54.69.91 56.74.5h6.57Z" fill="#0d0d0d" fill-rule="evenodd"/></svg>