<svg xmlns="http://www.w3.org/2000/svg" viewBox="0 0 82.72 21"><path d="m77.56 17.25-1.22-2.34H68.4l-1.21 2.34h-4.6l7.32-13.44h5.13l7.31 13.43h-4.79M57.71 3.81h4.12v13.43h-4.12V3.81Zm-7.15 0H56l-7.35 6.27 8.3 7.16h-5.83l-7.53-6.97 6.98-6.43m-6.97 0v13.44h-4.12V3.81h4.12m-5.73 9.31c0 1.86-.34 2.5-.87 3.12-.87.87-2.05 1.2-4.36 1.2h-6.79c-2.34 0-3.57-.29-4.41-1.2-.55-.62-.87-1.26-.87-3.12V7.88c0-1.86.34-2.5.87-3.12.87-.91 2.05-1.2 4.41-1.2h6.75c2.34 0 3.57.29 4.41 1.2.54.62.87 1.26.87 3.12v5.23M4.31 17.25H.36V3.81h6.83l7.85 10.03V3.81h3.94v13.44h-6.71L4.31 7.01v10.23m28.1-3.25c.87 0 1.21-.06 1.43-.25s.3-.43.3-1.21V8.45c0-.78-.1-1.02-.3-1.21s-.54-.22-1.43-.22h-6.4c-.87 0-1.22.06-1.44.26s-.29.42-.29 1.21v4.1c0 .78.09 1.02.29 1.21s.54.25 1.44.25h6.4m37.38-2.04h5.13l-2.57-4.86-2.57 4.86" fill="#0d0d0d"/></svg>