<svg xmlns="http://www.w3.org/2000/svg" viewBox="0 0 66.71 21"><path d="M17.15 10.81V3.23h2.38v1.06c.12-.06.23-.13.34-.2a10.13 10.13 0 0 1 7.82-.99c2.45.6 4.24 2.06 4.85 3.98.38 1.12.36 2.34-.07 3.45a5.93 5.93 0 0 1-3.05 3.18 9.77 9.77 0 0 1-4.44.99c-1.32.02-2.62-.2-3.85-.66-.48-.19-.96-.44-1.39-.73l-.27-.2v5.3h-2.38v-7.6h.06Zm8.93 1.79c1.15-.11 2.22-.54 3.11-1.26.6-.51.99-1.22 1.13-1.99.07-.46.07-.93 0-1.39-.2-.9-.71-1.71-1.46-2.25-.43-.26-.86-.48-1.33-.66a8.383 8.383 0 0 0-3.85-.34c-2.2.34-3.71 1.39-4.11 3.05-.18.7-.16 1.43.07 2.13.53 1.52 2.13 2.52 4.31 2.79.71.04 1.42.02 2.13-.07Zm7.82-1.79V3.23h2.38v1.06c.1-.06.19-.12.27-.2.48-.3.99-.53 1.52-.73 2.05-.7 4.25-.82 6.37-.34 3.38.86 5.3 3.11 5.17 6.03-.13 2.2-1.59 3.98-3.98 4.9-.82.35-1.7.55-2.58.6-.84.07-1.68.07-2.52 0-1.4-.16-2.76-.61-3.98-1.33l-.2-.13v5.3H33.9v-7.6Zm9.02 1.79c1.86-.27 3.11-.99 3.78-2.2.4-.72.53-1.57.4-2.38-.34-1.72-1.86-2.92-4.17-3.25a8.045 8.045 0 0 0-4.44.6 3.821 3.821 0 0 0-2.2 2.65c-.07.46-.07.93 0 1.39.19.77.6 1.46 1.2 1.99.94.76 2.11 1.2 3.31 1.26.71.04 1.42.02 2.13-.07ZM7.39 14.57c-1.12-.08-2.21-.33-3.25-.73A5.76 5.76 0 0 1 .43 9.6C.37 9.1.36 8.59.36 8.08c.27-2.25 1.92-4.03 4.51-4.9 1.5-.46 3.09-.6 4.64-.4 2.85.34 4.97 1.66 5.9 3.65.78 1.59.68 3.47-.27 4.97a6.49 6.49 0 0 1-1.79 1.79 8.105 8.105 0 0 1-3.98 1.33c-.66.09-1.33.11-1.99.07Zm1.66-1.95c1.09-.07 2.16-.44 3.05-1.06.62-.44 1.11-1.07 1.39-1.79.12-.37.16-.75.13-1.13.03-.39-.02-.76-.13-1.13a4.527 4.527 0 0 0-3.45-2.72c-1.57-.33-3.2-.21-4.71.34-.91.33-1.68.96-2.2 1.79-.48.87-.58 1.91-.27 2.85a4.22 4.22 0 0 0 2.38 2.38c.72.29 1.48.46 2.25.53.5-.06 1.02-.08 1.52-.07h.02Zm48.66 1.91c-.13 0-.27-.02-.4-.07a8.894 8.894 0 0 1-3.65-1.13 5.756 5.756 0 0 1-2.72-3.18c-.28-.9-.33-1.86-.13-2.79.34-1.4 1.22-2.63 2.45-3.38 2.02-1.21 4.38-1.67 6.69-1.33 1.8.17 3.5.91 4.85 2.13a5.14 5.14 0 0 1 1.52 3.11c.03.43.03.84 0 1.26-.34 2.38-2.25 4.24-5.17 4.97-.8.2-1.62.29-2.45.27-.6.2-.99.2-.99.13Zm1.52-1.93c1.34-.06 2.63-.57 3.65-1.46.53-.51.88-1.2.99-1.93.07-.42.07-.84 0-1.26-.27-1.66-1.79-2.92-3.98-3.25-.48-.08-.97-.12-1.46-.13-2.45 0-4.38.93-5.11 2.52-.22.47-.34 1-.34 1.52 0 .71.2 1.4.6 1.99.73 1.13 2.13 1.79 3.98 1.99h1.67Z" fill="#0d0d0d"/></svg>