<svg xmlns="http://www.w3.org/2000/svg" viewBox="0 0 24 24"><path d="M19.7 11.09a2.84 2.84 0 0 0-1.06-2.18l.05-.22a6.55 6.55 0 0 0 .13-1.25v-.51A3.92 3.92 0 0 0 15.17 3 .25.25 0 0 0 15 3H7.83a1.2 1.2 0 0 0-1.19 1L4.31 18.24a.88.88 0 0 0 .71 1h3.56l-.2 1.25a.44.44 0 0 0 .37.5h2.78a.7.7 0 0 0 .7-.58l.58-3.57a.85.85 0 0 1 .25-.39.82.82 0 0 1 .38-.13h1.62a5.15 5.15 0 0 0 4.64-5.14Zm-9.37 1.53h-.09a1.31 1.31 0 0 0-.68.27 1.52 1.52 0 0 0-.46.73v.05l-.3 1.75-.5 2.84h-3L7.62 4.17A.21.21 0 0 1 7.83 4H15a2.9 2.9 0 0 1 2.79 2.92v.13a10.09 10.09 0 0 1 0 1.1A5.33 5.33 0 0 1 13 12.62Z" fill="#333"/></svg>