<svg xmlns="http://www.w3.org/2000/svg" viewBox="0 0 24 24"><path d="M12 2.22a10 10 0 0 0-3.67 19.24 9.48 9.48 0 0 1 0-2.86c.18-.78 1.17-5 1.17-5a3.6 3.6 0 0 1-.3-1.48c0-1.38.81-2.42 1.81-2.42a1.25 1.25 0 0 1 1.26 1.4 19.52 19.52 0 0 1-.83 3.32A1.45 1.45 0 0 0 13 16.27c1.76 0 3.13-1.87 3.13-4.55a3.93 3.93 0 0 0-4.17-4.05A4.31 4.31 0 0 0 7.41 12a3.89 3.89 0 0 0 .74 2.27.28.28 0 0 1 .06.29c-.07.31-.25 1-.28 1.12s-.14.22-.33.13a4.45 4.45 0 0 1-2-3.86c0-3.14 2.29-6 6.59-6a5.85 5.85 0 0 1 6.14 5.75c0 3.44-2.17 6.2-5.17 6.2a2.6 2.6 0 0 1-2.27-1.15l-.63 2.38A10.67 10.67 0 0 1 9 21.7a10 10 0 1 0 3-19.5Z" fill="#fff"/></svg>