<svg xmlns="http://www.w3.org/2000/svg" viewBox="0 0 24 24"><path d="M12 2.22a10 10 0 0 0-3.67 19.24 9.79 9.79 0 0 1 0-2.86c.18-.78 1.17-5 1.17-5a3.6 3.6 0 0 1-.3-1.48c0-1.38.8-2.42 1.8-2.42a1.25 1.25 0 0 1 1.27 1.23 1 1 0 0 1 0 .17 19.91 19.91 0 0 1-.83 3.32A1.45 1.45 0 0 0 13 16.27c1.76 0 3.13-1.87 3.13-4.55a3.94 3.94 0 0 0-3.8-4.06H12a4.31 4.31 0 0 0-4.54 4.06 2.44 2.44 0 0 0 0 .27 3.85 3.85 0 0 0 .74 2.27.28.28 0 0 1 .06.29c-.07.31-.25 1-.28 1.12a.21.21 0 0 1-.33.13A4.45 4.45 0 0 1 5.6 12c0-3.14 2.29-6 6.59-6a5.85 5.85 0 0 1 6.13 5.55 1.34 1.34 0 0 1 0 .2c0 3.44-2.17 6.2-5.17 6.2a2.59 2.59 0 0 1-2.27-1.15l-.63 2.38A10.76 10.76 0 0 1 9 21.7a10 10 0 0 0 6.24-19A10.16 10.16 0 0 0 12 2.2Z" fill="#333"/></svg>