<svg xmlns="http://www.w3.org/2000/svg" viewBox="0 0 90.97 21"><path d="M3.95 7.35v-.71c.1-.5.61-.92 1.23-.92.61-.1 1.12.41 1.23 1.02v1.02h3.16v-.92c0-2.76-2.55-3.26-4.38-3.26-2.24 0-4.17.71-4.48 2.85-.1.61-.1 1.12 0 1.73.5 2.65 5.09 3.35 5.8 5.09.1.31.1.61 0 .92-.1.61-.71.92-1.23.92-.61.1-1.23-.41-1.33-1.02v-1.42H.49v1.02c0 2.85 2.24 3.77 4.68 3.77s4.17-.82 4.58-2.95c.1-.71.1-1.42 0-2.14-.61-2.65-5.5-3.46-5.8-5Zm41.75 0v-.71c.1-.5.61-.92 1.12-.82.61-.1 1.12.41 1.23 1.02v1.02h3.16v-.92c0-2.75-2.44-3.16-4.27-3.16-2.24 0-4.07.71-4.48 2.85-.1.61-.1 1.12 0 1.73.5 2.65 5.09 3.35 5.71 5 .1.31.1.61 0 .92-.1.41-.41.82-1.23.82-.61.1-1.23-.41-1.23-1.02v-1.42h-3.35v1.02c0 2.85 2.24 3.67 4.58 3.67s4.17-.82 4.48-2.95c.1-.71.1-1.42 0-2.04-.5-2.65-5.39-3.46-5.71-5v-.02Zm29.12 7.03-3.06-10.4h-4.79v12.73h3.16l-.21-10.68 3.26 10.68h4.58V3.99H74.6l.21 10.39ZM14.23 3.99l-2.34 12.83h3.46l1.83-11.91 1.73 11.91h3.46L19.93 3.99h-5.7Zm19.45 0-1.62 10.08-1.62-10.08h-5.19l-.31 12.83h3.16l.1-11.91 2.24 11.91h3.26l2.24-11.91.1 11.91h3.26l-.31-12.83h-5.3Zm29.84 0h-3.26v9.98c-.21.71-.92 1.12-1.62.92-.41-.1-.71-.41-.92-.92V3.99h-3.26v9.98c.21 2.44 2.14 3.16 4.48 3.16s4.27-.82 4.48-3.16v-.82l.1-9.17Zm22.3 5.72v1.83h1.33v2.44c-.21.71-1.02 1.12-1.73.82-.41-.1-.71-.41-.82-.82V7.55c0-.21 0-.41.1-.61.21-.71 1.02-1.12 1.73-.92.41.1.71.5.92.92v1.23h3.16V6.94c-.21-2.44-2.24-3.16-4.48-3.16s-4.17.82-4.48 3.16c0 .21-.1.61-.1.82v5.39c0 .31 0 .61.1.82.21 2.34 2.24 3.16 4.48 3.16s4.27-.82 4.48-3.16V9.7h-4.68Z" fill="#0d0d0d"/></svg>