<svg xmlns="http://www.w3.org/2000/svg" viewBox="0 0 43.41 21"><path d="M.2 4.23V7.9h4.88v9.03h4.41V7.9h4.84V4.23H.2Zm22.67 10.06c-.89.03-1.76-.3-2.42-.91a3.749 3.749 0 0 1-1.08-2.8v-.18c-.03-1.04.36-2.05 1.08-2.8.65-.61 1.53-.94 2.42-.91 2.38 0 2.89 1.47 3.02 2.42h3.88a5.256 5.256 0 0 0-2.25-4.19 7.519 7.519 0 0 0-4.62-1.34c-2.38 0-4.06.56-5.44 1.77a7.01 7.01 0 0 0-2.16 5.14v.09c0 2.11.64 3.72 2.07 5.05 1.34 1.25 3.28 1.81 5.44 1.81 1.94 0 3.59-.48 4.71-1.34 1.33-1 2.13-2.54 2.2-4.19h-3.84c-.04.73-.52 2.38-3.02 2.38m13.47-.86v-9.2h-4.19v12.69H43.2v-3.5h-6.87Z" fill="#0d0d0d" fill-rule="evenodd"/></svg>