<svg xmlns="http://www.w3.org/2000/svg" viewBox="0 0 120 120"><path d="M59.14 119.48c-6.52.09-13.04-.21-19.52-.9a49.639 49.639 0 0 1-19.64-6A35.512 35.512 0 0 1 3.8 91.49a72.13 72.13 0 0 1-2.65-15.97C.77 70.32.7 65.14.72 59.93c-.11-6.8.2-13.6.93-20.36.61-7.09 2.76-13.96 6.29-20.14 4.8-7.8 12.42-13.47 21.29-15.83C34.21 2.19 39.33 1.32 44.5 1 51.11.48 57.71.43 64.34.55c7.54-.09 15.06.59 22.47 2.01a39.516 39.516 0 0 1 20.36 10.61c4.91 5.14 8.3 11.54 9.8 18.48 1.2 5.32 1.9 10.73 2.1 16.18.29 5.77.32 11.61.23 17.4.04 7.04-.56 14.07-1.81 20.99a40.47 40.47 0 0 1-9.5 19.93 37.314 37.314 0 0 1-17.8 10.57 77.018 77.018 0 0 1-15.38 2.44c-5.54.32-11.11.34-15.66.32h-.01ZM24.16 60v21.4c0 .97.46 1.45 1.38 1.45h8.35c.92 0 1.38-.45 1.38-1.36V48.15c0-1.24.2-1.45 1.45-1.45h15.36c1.78-.03 3.56.09 5.32.36 3.64.63 5.59 1.83 6.4 5.93.32 1.82.47 3.67.45 5.52v23.1c0 1.02 0 1.13 1.15 1.15h8.71c1.22 0 1.36-.14 1.36-1.33 0-8.66.14-17.33 0-25.99-.06-2.65-.37-5.28-.9-7.87-.66-4.61-4.16-8.31-8.73-9.23-3.22-.74-6.51-1.11-9.82-1.11H25.41c-1.15 0-1.24 0-1.24 1.29v21.49h-.01Zm59.98-.01v21.67c0 1.02 0 1.15 1.13 1.15h8.89c.97 0 1.18-.18 1.18-1.15V38.4c0-1-.25-1.22-1.22-1.22h-8.73c-1.15 0-1.27.11-1.27 1.29l.02 21.54Zm-28.48 8.77v-12.9c0-.95-.23-1.18-1.18-1.18h-9.32c-.97 0-1.2.25-1.2 1.24v25.61c0 1.02.18 1.2 1.22 1.2h9.23c1.13 0 1.22 0 1.22-1.24l.02-12.74Z" fill="#0d0d0d"/></svg>