<svg xmlns="http://www.w3.org/2000/svg" viewBox="0 0 192 192"><g fill="none"><path vector-effect="non-scaling-stroke" d="M30.8 92.1h130.5c1.5 0 2.8 1.2 2.8 2.8v53.2c0 8.8-7.2 16-16 16H44c-8.8 0-16-7.2-16-16V94.9c0-1.6 1.2-2.8 2.8-2.8zm141.2-8c0 4.4-3.6 8-8 8H28c-4.4 0-8-3.6-8-8v-8c0-4.4 3.6-8 8-8h144v16z"/><path vector-effect="non-scaling-stroke" d="M51.6 32.2H64c11 0 20 9 20 20v16H55.7c-11 0-20-9-20-20 0-8.9 7.1-16 15.9-16zm84.7 35.9H108v-16c0-11 9-20 20-20h12.3c8.8 0 16 7.2 16 16 0 11.1-8.9 20-20 20zM96 44.5c6.6 0 12 5.4 12 12v11.7H84V56.5c0-6.7 5.4-12 12-12z"/><path vector-effect="non-scaling-stroke" d="M84 68.1h24v96H84z"/></g></svg>