<svg xmlns="http://www.w3.org/2000/svg" viewBox="0 0 192 192"><path d="M60 132a6 6 0 0 0 6 6h6v21a9 9 0 0 0 18 0v-21h12v21a9 9 0 0 0 18 0v-21h6a6 6 0 0 0 6-6V72H60ZM45 72a9 9 0 0 0-9 9v42a9 9 0 0 0 18 0V81a9 9 0 0 0-9-9Zm102 0a9 9 0 0 0-9 9v42a9 9 0 0 0 18 0V81a9 9 0 0 0-9-9Zm-29.82-35 7.8-7.8a3 3 0 0 0-4.26-4.26l-8.88 8.88A35 35 0 0 0 96 30a35.54 35.54 0 0 0-16 3.78l-8.9-8.88a3 3 0 0 0-4.26 4.26L74.7 37A35.9 35.9 0 0 0 60 66h72a35.79 35.79 0 0 0-14.82-29ZM84 54h-6v-6h6Zm30 0h-6v-6h6Z" fill="none" vector-effect="non-scaling-stroke"/></svg>