<svg xmlns="http://www.w3.org/2000/svg" viewBox="0 0 24 24"><g fill="none"><path d="M11.5 13.031c-3.387 0-4.922-3.16-4.98-3.304a.428.428 0 0 1 0-.262c.058-.117 1.593-3.277 4.98-3.277 3.387 0 4.922 3.16 4.98 3.304a.44.44 0 0 1 0 .266c-.066.117-1.597 3.273-4.98 3.273Zm0 0" vector-effect="non-scaling-stroke"/><path d="M11.5 11.11a1.5 1.5 0 1 1 .012 0Zm0 0" vector-effect="non-scaling-stroke"/><path d="M15.473 16.52H4.383a1.875 1.875 0 0 1-1.875-1.875V5.406c0-1.035.84-1.875 1.875-1.875h16.101v7.75m-2.863 8.867h1.746" vector-effect="non-scaling-stroke"/><path d="M15.582 14.191v-1.625c0-.578.469-1.05 1.05-1.05H21.5v8.957c0 .578-.469 1.047-1.047 1.047h-3.82c-.582 0-1.051-.47-1.051-1.047V14.19m-2.844.841h-2.547" vector-effect="non-scaling-stroke"/></g></svg>