<svg xmlns="http://www.w3.org/2000/svg" viewBox="0 0 24 24"><g fill="none"><path d="M17.621 20.148h1.746m-3.785-5.957v-1.625c0-.578.469-1.05 1.05-1.05H21.5v8.957c0 .578-.469 1.047-1.047 1.047h-3.82c-.582 0-1.051-.47-1.051-1.047V14.19m-2.844.841h-2.547m-.699-5.078 1.016-.976V7.453m-4.981 1.43 1.075 1.074L7.68 8.883" vector-effect="non-scaling-stroke"/><path d="M7.617 11.465a3.52 3.52 0 1 0-1.027-2.34" vector-effect="non-scaling-stroke"/><path d="M15.473 16.52H4.383a1.875 1.875 0 0 1-1.875-1.875V5.406c0-1.035.84-1.875 1.875-1.875h16.101v7.75" vector-effect="non-scaling-stroke"/></g></svg>