<svg xmlns="http://www.w3.org/2000/svg" viewBox="0 0 192 192"><g fill="none"><path vector-effect="non-scaling-stroke" d="M83.1 142.5H51.6c-2 .1-3.9-.9-5-2.6-1-1.8-.9-3.9.1-5.6l15.7-29.8c1.2-2.6 4.3-3.8 7-2.6 1.1.5 2 1.4 2.6 2.6l16 29.8c1.1 1.7 1.1 3.9.1 5.6-1 1.7-3 2.7-5 2.6zM67.4 85.3c-9.9 0-17.9-8-17.9-17.9 0-9.9 8-17.9 17.9-17.9 9.9 0 17.9 8 17.9 17.9-.1 9.8-8.1 17.8-17.9 17.9zm47.3-35.8h19.9c4.4 0 7.9 3.6 7.9 8v19.9c0 4.4-3.6 7.9-7.9 7.9h-19.9c-4.4 0-7.9-3.6-7.9-7.9v-20c-.1-4.4 3.5-7.9 7.9-7.9z"/><path vector-effect="non-scaling-stroke" d="M44 28h120v120c0 8.8-7.2 16-16 16H44c-8.8 0-16-7.2-16-16V44c0-8.8 7.2-16 16-16z"/><path vector-effect="non-scaling-stroke" d="m124.6 100.5 21.1 16.8-8.5 25.2H112l-8.4-25.2z"/></g></svg>