<svg xmlns="http://www.w3.org/2000/svg" viewBox="0 0 192 192"><path vector-effect="non-scaling-stroke" d="M52 27.7H28v24m0 88v24h24m88 0h24v-24m0-88v-24h-24M84.5 140.9l3.8 2.2 3.9 2.2 3.8 2.2m-43.9-23.2 4.2 2.4 4.2 2.4 4.1 2.3m42.9 9.5-3.8 2.2-3.9 2.2-3.8 2.2m43.8-23.2-4.2 2.1-4.2 2.2-4.3 2.2m-75-63.6 4.2 2.4 4.2 2.4 4.1 2.4 4.2 2.4M127.3 60l4.2 2.4 4.2 2.4 4.2 2.4M96 44.3l3.8 2.2 3.9 2.2 3.8 2.2m-.8 36.1-3.6 2-3.5 2.1-3.6 2M85.4 87l3.5 2 3.6 2.1 3.5 2m43.8-25.9-4.1 2.4-4.2 2.4-4.2 2.4-4.2 2.4M64.7 60l-4.2 2.4-4.2 2.4-4.2 2.4M96 44.3l-3.8 2.2-3.9 2.2-3.8 2.2M96 127.3v20.2m0-54.4v12.7m43.8 5.6v12.9m.1-57.1V80m-87.8 31.6v12.7m0-57.1V80" fill="none"/></svg>