<svg xmlns="http://www.w3.org/2000/svg" viewBox="0 0 192 192"><g fill="none"><path vector-effect="non-scaling-stroke" d="M95.2 94.3c0 33.2 3.7 40.5-22.2 66.3M141.8 47c-26.3-25.7-68.4-25.3-94.2.9-5.9 6-10.6 13.1-13.8 20.8m128 50.7c.2-5 .2-10 .1-15.2 0-3.1-.1-6.4-.1-9.8 0-11.5-3-22.8-8.7-32.8"/><path vector-effect="non-scaling-stroke" d="M132.4 153.9c7-15.9 7.6-30.9 7.3-49.4 0-3-.1-6.2-.1-9.6 0-24.5-20.2-45.1-44.8-44.8-24.3.2-43.9 19.9-44 44.2 0 4.3 0 8.2.1 11.6 0 2 .1 4.2.1 6.3 0 4.7-1.7 9.1-4.9 12.5-1.2 1.3-2.7 2.8-4.5 4.6-1.6 1.6-3.1 3.4-4.5 5.3"/><path vector-effect="non-scaling-stroke" d="M116.8 127.5c.8-6.8.8-14.1.7-22.6 0-3.3-.1-6.8-.1-10.6-.3-12.3-10.4-22-22.7-21.7-11.8.2-21.4 9.8-21.7 21.6 0 4.1 0 7.9.1 11.2.2 11.1.2 16.6-1.2 20.7-1.5 4.5-6 10.2-14.5 18.7-1.7 1.7-3.1 3.7-4.2 5.9M99.9 164c4.9-5.7 9-12.1 12.1-18.9"/></g></svg>