<svg xmlns="http://www.w3.org/2000/svg" viewBox="0 0 192 192"><g fill="none"><path vector-effect="non-scaling-stroke" d="M96.1 46v112.4c0 .2-.1.3-.3.3h-.1c-4.7-.9-50.2-9.2-56.6-10.9-19-5-19-18.2-19-27V62c0-8.8 7.2-16 16-16h7.3m52.7 0v112.4c0 .2.1.3.3.3h.1c4.7-.9 50.2-9.2 56.6-10.9 19-5 19-18.2 19-27V62c0-8.8-7.2-16-16-16h-8.7"/><path vector-effect="non-scaling-stroke" d="M119.4 28.4c-2.8.3-5.5 1.1-8.1 2.2-11.1 4.9-15.2 14.5-15.2 22.2v100.4c0 .2.2.3.4.3.1 0 .2 0 .2-.1 2.1-1.8 9.2-7.9 14.7-10.7 8-4 12-5 21-7 8.8-2 15-8 15-18v-93l-28 3.7zm-41-.6c-11-3-15-3-15-3-6.6 0-20 1-20 19v74c0 6.6 2.1 16.5 12 19 8 2 13 3 21 5 10.1 2.5 17 11.2 19.7 12.2V51.8c-.7-9.9-6.7-21-17.7-24z"/><path vector-effect="non-scaling-stroke" d="M130.1 90.6c-6.3 1.9-12.3 4.6-18 8m18-28c-6.3 1.9-12.3 4.6-18 8m18-28c-6.3 1.9-12.3 4.6-18 8m-32 40c-5.7-3.4-11.7-6.1-18-8m18-12c-5.7-3.4-11.7-6.1-18-8m18-12c-5.7-3.4-11.7-6.1-18-8"/></g></svg>