<svg xmlns="http://www.w3.org/2000/svg" viewBox="0 0 24 24"><g fill="none"><path d="m13.5 11-2.016 2-.984-.977" vector-effect="non-scaling-stroke"/><path d="M14.395 21.5h-4.79a.749.749 0 0 1-.73-.586L8 17.027V7.035l.875-3.918a.744.744 0 0 1 .727-.586H14.5c.36 0 .668.254.734.606L16 7.035v9.992l-.875 3.887a.749.749 0 0 1-.73.586Zm0 0" vector-effect="non-scaling-stroke"/><path d="M8.754 6.535h6.492a.75.75 0 0 1 .75.75v9.492a.75.75 0 0 1-.75.75H8.754a.75.75 0 0 1-.75-.75V7.285a.75.75 0 0 1 .75-.75Zm0 0" vector-effect="non-scaling-stroke"/></g></svg>