<svg xmlns="http://www.w3.org/2000/svg" viewBox="0 0 192 192"><path vector-effect="non-scaling-stroke" d="M76 163.9h95.9M116 140l56-28m-28 16 28 35.9M81.3 75l-6.9 10.8m20.7-10.4-7.2 11.4m21.9-11.5L101.7 88M92 28l36 28m0-28 16 24m6.7 46c5.3-3.3 13.2-9.8 13.3-16.7.2-11.1-13.7-9.6-21.7-8.7-19.2 2.2-38.3 3.8-57.7 2.2l-3.8-.4c-5.1-.6-10.2-3.5-15.2-5-8.8-2.8-8.9 4.8-9.8 10.7-1.4 9.4-9 12.9-17.6 12.4-5.6-.3-14.7-2.4-17.3 4.5-2.1 5.7 1 11.7 2.2 17.2l2.4 7.3c.9 2.5 1.9 4.9 3 7.2 4.7 11.3 9 18.7 21.2 13.6C75 130.5 143.1 104 150.7 98z" fill="none"/></svg>