<svg xmlns="http://www.w3.org/2000/svg" viewBox="0 0 192 192"><g fill="none"><path vector-effect="non-scaling-stroke" d="M64 20.2v24m64-24v24m36 16.3H28m136 95.7c0 8.8-7.2 16-16 16H44c-8.8 0-16-7.2-16-16v-104c0-8.8 7.2-16 16-16h120v120z"/><path vector-effect="non-scaling-stroke" d="M52 84.4h12.6c2.2 0 4 1.8 4 4V101c0 2.2-1.8 4-4 4H52c-2.2 0-4-1.8-4-4V88.4c0-2.2 1.8-4 4-4zm37.4 0H102c2.2 0 4 1.8 4 4V101c0 2.2-1.8 4-4 4H89.4c-2.2 0-4-1.8-4-4V88.4c0-2.2 1.8-4 4-4zm38 0H140c2.2 0 4 1.8 4 4V101c0 2.2-1.8 4-4 4h-12.6c-2.2 0-4-1.8-4-4V88.4c0-2.2 1.8-4 4-4zM52 127.8h12.6c2.2 0 4 1.8 4 4v12.6c0 2.2-1.8 4-4 4H52c-2.2 0-4-1.8-4-4v-12.6c0-2.2 1.8-4 4-4zm37.4 0H102c2.2 0 4 1.8 4 4v12.6c0 2.2-1.8 4-4 4H89.4c-2.2 0-4-1.8-4-4v-12.6c0-2.2 1.8-4 4-4zm38-.1H140c2.2 0 4 1.8 4 4v12.6c0 2.2-1.8 4-4 4h-12.6c-2.2 0-4-1.8-4-4v-12.6c0-2.2 1.8-4 4-4z"/></g></svg>