<svg xmlns="http://www.w3.org/2000/svg" viewBox="0 0 192 192"><g fill="none"><path vector-effect="non-scaling-stroke" d="m67.9 112.3-48.3 48.3.1 11.2 17 .2 2.8-8.6 11.4-5.6 2.8-8.5 25.6-25.6m78.2-55-39 39c-7 7-18.4 7-25.4 0l-8.5-8.5c-7-7-7-18.4 0-25.4L113 45.5c7-7 18.4-7 25.4 0l19.1 23.2zM99 60l33.1 33.1"/><path vector-effect="non-scaling-stroke" d="m140.5 27.6 24.6 24.6c7.8 7.8 7.8 20.5 0 28.3l-42.6 42.6c-10.9 10.9-28.7 10.9-39.6 0l-13.3-13.3c-10.9-10.9-10.9-28.7 0-39.6l42.6-42.6c7.8-7.8 20.5-7.8 28.3 0z"/></g></svg>