<svg xmlns="http://www.w3.org/2000/svg" viewBox="0 0 192 192"><g fill="none"><path vector-effect="non-scaling-stroke" d="M115.9 125.8c3.4.4 5.9 3.5 5.5 6.9-.4 3.1-3 5.5-6.2 5.5"/><path vector-effect="non-scaling-stroke" d="M116.4 125.8s-28.3-5.6-35.3-7.1c-4-.9-8.6-2.2-12-3.3-7.7-2.5-16-1.8-23.2 1.8-7.3 3.8-17.6 14.7-20.5 29.9m41.8-4.1s5.4-4.7 9.6-4.9c5.2-.2 37.5.1 38.4.1"/><path vector-effect="non-scaling-stroke" d="m121 129.7 40.1-18c3.5-1.6 7.6-.4 9.6 2.8 2.2 3.5 1.2 8.2-2.3 10.5-.2.1-.4.3-.7.4-17.8 9-67.5 35-70.6 36.3l-.9.4c-4 1.5-8 1.7-12.4 1.7H42"/><path vector-effect="non-scaling-stroke" d="M154.5 114.7c0-1.7-.4-3.4-1.2-4.9-2.1-3.2-6.2-4.4-9.6-2.8l-36.9 17m23.6-10.9c0-1.7-.4-3.4-1.2-4.9-2.1-3.2-6.2-4.4-9.7-2.8l-32.1 14.7m36.1-35.7c-3.4-19.8-14.7-30.1-27.3-30.1S71.9 64.6 68.5 84.4M96 20.5h16.7v16.7c0 9.2-7.5 16.7-16.7 16.7s-16.7-7.5-16.7-16.7S86.8 20.5 96 20.5zM20 141.8l29.8 29.8"/></g></svg>