<svg xmlns="http://www.w3.org/2000/svg" viewBox="0 0 192 192"><g fill="none"><path vector-effect="non-scaling-stroke" d="M137.7 80.2h-30.3m-15.2 0h-7.6m53.1 19.9h-30.3m30.3 20.1h-30.3m-47.4-8V52c0-.8.3-1.6.9-2.1l28.6-28.6c.6-.6 1.3-.9 2.1-.9H160v132.8c0 6.3-5.1 11.4-11.4 11.4H81.9"/><path vector-effect="non-scaling-stroke" d="M90.4 22.3v30H60.1M61.8 157v-30.4m-15.1 15.2H77m-15.2-30.4c16.8 0 30.4 13.6 30.4 30.3 0 16.8-13.6 30.4-30.3 30.4-16.8 0-30.3-13.6-30.3-30.4-.1-16.7 13.5-30.3 30.2-30.3z"/></g></svg>