<svg xmlns="http://www.w3.org/2000/svg" viewBox="0 0 192 192"><path d="M171.54 109.67a32.3 32.3 0 0 0-4.81-15.36 37.45 37.45 0 0 0-7-8.31l-.12-.1a61.69 61.69 0 0 0-17.9-10h-.15l-2.19-.68a61.15 61.15 0 0 0-37.64 2.31 51.94 51.94 0 0 0-15.11 9.16 40.56 40.56 0 0 0-10.1 13 32.74 32.74 0 0 0-3.27 15.85 32.34 32.34 0 0 0 4.85 15.32 39.48 39.48 0 0 0 11.33 11.8 50.68 50.68 0 0 0 16 7.25 59.65 59.65 0 0 0 18.29 1.89 57.55 57.55 0 0 0 5.67 3.23 53.29 53.29 0 0 0 9 3.38 49.38 49.38 0 0 0 11 1.75h2.13a51.89 51.89 0 0 0 10.62-1.11 3.78 3.78 0 0 0 1.14-7c-3.69-2.15-8.69-6.19-10.33-9.61a48.42 48.42 0 0 0 6.42-5.08 42.12 42.12 0 0 0 6.74-8.14 35.38 35.38 0 0 0 4.2-9.39 32.59 32.59 0 0 0 1.23-10.16Z" fill="none" vector-effect="non-scaling-stroke"/><path d="M78.15 130.94a32.27 32.27 0 0 1-4.85-15.32 32.73 32.73 0 0 1 3.27-15.84 40.56 40.56 0 0 1 10.1-13 52.19 52.19 0 0 1 15.11-9.17 61.22 61.22 0 0 1 37.64-2.3l2.19.68h.15l1.39.52c.87-9.2-4.48-17.44-5.25-18.54a49.21 49.21 0 0 0-14.17-14.64 63.85 63.85 0 0 0-20.1-9.09 77.49 77.49 0 0 0-47.49 2.91 65.47 65.47 0 0 0-19 11.47 50.6 50.6 0 0 0-12.65 16.31 40.55 40.55 0 0 0-4 19.65 39.63 39.63 0 0 0 2.69 12.54 42.81 42.81 0 0 0 6.41 11 50.9 50.9 0 0 0 9.4 9.09 66.62 66.62 0 0 0 11.49 6.12c-5.25 9-14.25 14.5-14.35 14.55a3.78 3.78 0 0 0 1.62 7c1.82.14 3.64.22 5.46.22a66.25 66.25 0 0 0 10.62-.87 64.25 64.25 0 0 0 11.17-2.9c.18-.05 4.25-1.53 15.2-7.5a27.85 27.85 0 0 1-2.05-2.89Z" fill="none" vector-effect="non-scaling-stroke"/></svg>