<svg xmlns="http://www.w3.org/2000/svg" viewBox="0 0 24 24"><path d="M11.38 2.47c7.11 0 8.71 5.45 8.71 10.27a8.73 8.73 0 0 1-17.43.63v-.63c0-4.81 1.55-10.27 8.72-10.27Z" fill="none" vector-effect="non-scaling-stroke"/><path d="M14.28 16.44a3.91 3.91 0 0 1-5.52.41 4.32 4.32 0 0 1-.43-.46m-4.98-7.7L22.8 6.37m-12.67-3.7a7.74 7.74 0 0 1 3.17 4.59" fill="none" vector-effect="non-scaling-stroke"/><circle cx="14.43" cy="12.26" r=".65" fill="none" vector-effect="non-scaling-stroke"/><circle cx="14.43" cy="12.26" r=".16" fill="none" vector-effect="non-scaling-stroke"/><circle cx="8.63" cy="12.26" r=".65" fill="none" vector-effect="non-scaling-stroke"/><circle cx="8.63" cy="12.26" r=".16" fill="none" vector-effect="non-scaling-stroke"/></svg>