<svg xmlns="http://www.w3.org/2000/svg" viewBox="0 0 192 192"><g fill="none"><path vector-effect="non-scaling-stroke" d="M118.3 123.7s22.4.9 31.2-3c12.4-5.6 20.9-17.4 22.3-31 1.3-13.1-4.7-27.5-15.9-34.4-5.6-3.5-12.2-4.8-18.7-5.4-3.7-.1-7.5.1-11.2.5-5.3-16.9-20.3-29-37.9-30.5-13.6-1-26.9 4.6-35.7 15.1-4.2 5.1-7.3 11-8.9 17.5-.4 1.7-1.3 6.4-1.3 6.4-4.4 1.4-8.4 3.7-11.9 6.7-10.5 9.4-13.1 25.5-7.2 38.1 5.3 11.5 16.8 20 29.6 20h21M96 76v95.1"/><path vector-effect="non-scaling-stroke" d="m70 104 26-28 26 28"/></g></svg>