<svg xmlns="http://www.w3.org/2000/svg" viewBox="0 0 192 192"><path fill="none" vector-effect="non-scaling-stroke" d="M134.51 70.96H41.47m93.04 21.47H41.47m93.04 21.47H41.47m28.62 21.47L41.47 164v-28.63"/><path d="M41.47 135.37h-7.16A14.36 14.36 0 0 1 20 121.05V64.23a14.35 14.35 0 0 1 14.28-14.32H156v71.14a14.37 14.37 0 0 1-14.32 14.32H70.09" fill="none" vector-effect="non-scaling-stroke"/><path d="M157.3 120.23a14.78 14.78 0 0 0 14.7-14.74V32.25H46.74A14.78 14.78 0 0 0 32 47v2.92" fill="none" vector-effect="non-scaling-stroke"/></svg>