<svg xmlns="http://www.w3.org/2000/svg" viewBox="0 0 24 24"><g fill="none"><path d="M21.48 12A9.477 9.477 0 0 1 12 21.48 9.477 9.477 0 0 1 2.52 12 9.477 9.477 0 0 1 12 2.52 9.477 9.477 0 0 1 21.48 12Zm0 0" vector-effect="non-scaling-stroke"/><path d="M10.453 10.453 7 17l6.625-3.375L17 7ZM21.48 12h-1.972M4.73 12H2.758m9.359-9.363v1.976m0 14.774v1.976" vector-effect="non-scaling-stroke"/><path d="M12.516 12a.55.55 0 0 1-.547.547.548.548 0 0 1-.547-.547c0-.3.246-.547.547-.547.3 0 .547.246.547.547Zm0 0" vector-effect="non-scaling-stroke"/><path d="M12.168 12a.2.2 0 0 1-.2.2.2.2 0 0 1-.198-.2c0-.11.09-.2.199-.2a.2.2 0 0 1 .199.2Zm0 0" vector-effect="non-scaling-stroke"/></g></svg>