<svg xmlns="http://www.w3.org/2000/svg" viewBox="0 0 192 192"><path d="M110.3 75V61.06a14.35 14.35 0 1 0-28.7 0V75m45.12 0H73.45a8.17 8.17 0 0 0-8.17 8.17v32.61a8.18 8.18 0 0 0 8.13 8.22h45.14a8.17 8.17 0 0 0 8.17-8.17Z" vector-effect="non-scaling-stroke" fill="none"/><path d="M172.1 39.3c0 96.47-62.16 127.19-74.16 132.5a4.78 4.78 0 0 1-3.92 0c-12-5.31-74.12-36-74.12-132.5 0-14.22 27.17 9.92 72.62-18.51a6.6 6.6 0 0 1 7 0c17.82 11.15 32.84 15.26 44.5 15.49h28.08Z" fill="none" vector-effect="non-scaling-stroke"/></svg>