<svg xmlns="http://www.w3.org/2000/svg" viewBox="0 0 192 192"><g fill="none"><path vector-effect="non-scaling-stroke" d="M75.6 128c0 1.3-.1 2.5-.4 3.8-2.1 10.8-12.5 18-23.4 15.9-10.8-2.1-18-12.5-15.9-23.4 1.5-8.1 7.8-14.4 15.9-15.9 1.2-.2 2.5-.3 3.8-.3 11-.1 20 8.9 20 19.9zm80.2 0c0 1.3-.1 2.5-.4 3.8-2.1 10.8-12.6 17.9-23.4 15.9-8-1.5-14.3-7.8-15.9-15.9-.2-1.2-.4-2.5-.4-3.8 0-11 9-20 20-20s20.1 9 20.1 20z"/><path vector-effect="non-scaling-stroke" d="M139 84.9c.3.4.7.6 1.2.7 16.1 3.1 31.5 18.8 31.5 35.8 0 5.7-4.6 10.3-10.3 10.3h-5.9c.2-1.2.4-2.5.4-3.8 0-11-9-20-20-20s-20 9-20 20c0 1.3.1 2.5.4 3.8h-41c.2-1.2.4-2.5.4-3.8 0-11-9-20-20-20s-20 9-20 20c0 1.2.1 2.5.3 3.7-9.1-.6-16.2-8.1-16.2-17.3 0-6.8 2.2-13.4 6.4-18.8 2.1-2.6 4-5.4 5.6-8.3C39.3 73.7 52.3 51.6 82 51.6c24.7.2 37.6 9.7 57 33.3z"/><path vector-effect="non-scaling-stroke" d="M80.7 96.7c6.2-6.2 16.4-6.2 22.6 0M69.4 85.4c12.5-12.5 32.8-12.5 45.2 0"/><circle vector-effect="non-scaling-stroke" cx="92" cy="108" r="1"/><circle vector-effect="non-scaling-stroke" cx="92" cy="108" r=".5"/></g></svg>