<svg xmlns="http://www.w3.org/2000/svg" viewBox="0 0 192 192"><g fill="none"><path vector-effect="non-scaling-stroke" d="M132.7 121.1H84.2m63.9 19.4h7.8m-108.4-.1h7.7m59.9 0H83.6m16.5-17.2v15.3m44.5-54.3h26.8V144c0 6.6-5.4 12-12 12h-14.8c-6.6 0-12-5.4-12-12V96.2c0-6.6 5.4-12 12-12zM32.3 60h51.3v84.3c0 6.6-5.4 12-12 12H32.3c-6.6 0-12-5.4-12-12V72c0-6.6 5.4-12 12-12z"/><path vector-effect="non-scaling-stroke" d="M164.1 84.2V28H45c-9.4 0-17 7.6-17 17v15"/><circle vector-effect="non-scaling-stroke" cx="100.1" cy="108.1" r=".2"/></g></svg>