<svg xmlns="http://www.w3.org/2000/svg" viewBox="0 0 192 192"><g fill="none"><path vector-effect="non-scaling-stroke" d="M144.3 37.3c32.4 26.7 37 74.6 10.3 107s-74.6 37-107 10.3-37-74.6-10.3-107C51.8 30.1 73.3 20 96 20c17.6 0 34.7 6.1 48.3 17.3"/><path vector-effect="non-scaling-stroke" d="M121.3 63c4.6 4.1 8.8 8.7 12.5 13.6 14.7 19.4 22.1 43.3 20.9 67.6M49.6 35.8c19.8.1 39.1 5.4 56.1 15.5m-19.8 94.1c1.6 9.2 4.4 18.1 8.3 26.6m12.9-107.9A100.64 100.64 0 0 0 84.4 126m58-90.2c-7.7 3.9-15 8.8-21.6 14.4m2.6 6.3c14.3 0 28.4 2.7 41.7 7.9m-110 18c13.9-12.3 30.8-20.6 49-24.1m-78.2 67.1c3.8-10.3 9.2-20 15.9-28.8m51 44.6c15.1 8.9 32.1 14.1 49.5 15M52.1 98c6.2 12.1 14.7 22.8 24.9 31.8M39.3 45.4c.1 11.7 1.9 23.4 5.4 34.6"/><circle vector-effect="non-scaling-stroke" cx="48.1" cy="89.2" r="9.8"/><circle vector-effect="non-scaling-stroke" cx="84.7" cy="135.8" r="9.8"/><circle vector-effect="non-scaling-stroke" cx="113.7" cy="56.9" r="9.8"/></g></svg>