<svg xmlns="http://www.w3.org/2000/svg" viewBox="0 0 192 192"><g fill="none"><path vector-effect="non-scaling-stroke" d="M28 105.3V80.2s0-60 68-60 68 60 68 60v19.1m0 13.9s.2 47-44 47"/><path vector-effect="non-scaling-stroke" d="M40 76.3c6.6 0 12 5.4 12 12v23.9c0 6.6-5.4 12-12 12s-12-5.4-12-12V88.3c0-6.6 5.4-12 12-12zm80 83.9c0 6.6-5.4 12-12 12H84c-6.6 0-12-5.4-12-12s5.4-12 12-12h24c6.6 0 12 5.4 12 12zm32-83.9c6.6 0 12 5.4 12 12v23.9c0 6.6-5.4 12-12 12s-12-5.4-12-12V88.3c0-6.6 5.4-12 12-12z"/></g></svg>