<svg xmlns="http://www.w3.org/2000/svg" viewBox="0 0 192 192"><g fill="none"><path vector-effect="non-scaling-stroke" d="M40.6 20.6h127.3v135.7c0 8.8-7.2 16-16 16H40.6c-8.8 0-16-7.2-16-16V36.7c0-8.9 7.2-16.1 16-16.1zm103.9 151.8V20.6m0 31.9h23.4m-23.4 44h23.4m-23.4 44.3h23.4"/><path vector-effect="non-scaling-stroke" d="M117.3 136.6c-3.5-23.7-18-39-32.3-39s-29.2 15.3-32.7 39"/><path vector-effect="non-scaling-stroke" d="M84.2 58.6h20.1v20.1c0 10.5-8.5 19-19 19h-1.1c-10.5 0-19-8.5-19-19v-1.1c0-10.6 8.5-19.1 19-19z"/></g></svg>