<svg xmlns="http://www.w3.org/2000/svg" viewBox="0 0 192 192"><g fill="none"><path vector-effect="non-scaling-stroke" d="M64.9 148h59.6m-82.2-16H140m-44 16v-16m60 20h8m-24-20H42.3M152 96h28v60c0 6.6-5.4 12-12 12h-16c-6.6 0-12-5.4-12-12v-48c0-6.6 5.4-12 12-12zm-46.5 3.9c-5.3-5.2-13.7-5.2-19 0m28.5-12c-10.5-10.5-27.6-10.5-38.1 0m47.6-12c-15.8-15.7-41.3-15.7-57.1 0M96 112z"/><path vector-effect="non-scaling-stroke" d="M28 92.8V61c0-9.4 7.6-17 17-17h119v50.4"/><path vector-effect="non-scaling-stroke" d="m51.2 145.9 6.8-2.3c1.7-.3 3.2 0 4 .9 1.1 1.3 10 12.5 10.8 13.5s.6 3-1.4 4.4-11.6 7.6-14.2 6.7-13.3-4.7-26.9-31.2-10.3-37.1-9.5-39.6 11.3-6.9 13.6-7.6 4.1.4 4.5 1.6 4.2 14.9 4.6 16.5c.3 1.1-.4 2.4-1.7 3.6s-6.2 5.5-6.2 5.5 1 4.4 6 14.2c2.5 4.5 9.6 13.8 9.6 13.8z"/></g></svg>