<svg xmlns="http://www.w3.org/2000/svg" viewBox="0 0 192 192"><path vector-effect="non-scaling-stroke" d="M59.5 116.5H43c-3.4 0-6.2-2.8-6.2-6.2V69.8c0-3.4-2.8-6.2-6.2-6.2h-4.8c-3.4 0-6.2-2.8-6.2-6.2 0-1.7.7-3.3 1.9-4.5l30.8-29.7c7.4-6.3 14.5-3.5 18.2-.4L101.2 53c2.5 2.4 2.6 6.3.2 8.7-1.2 1.2-2.8 1.9-4.5 1.9h-4.8c-3.4 0-6.2 2.8-6.2 6.2v40.5c0 3.4-2.8 6.2-6.2 6.2H59.5zm69.9-40.2h-16.2c-3.3 0-6.1 2.7-6.1 6.1v39.8c0 3.3-2.7 6.1-6.1 6.1h-4.7c-3.4 0-6.1 2.7-6.1 6.1 0 1.6.7 3.2 1.9 4.4l30.3 29.2c7.3 6.2 14.2 3.4 17.9.4l30-29.6c2.4-2.3 2.5-6.2.2-8.6-1.1-1.2-2.7-1.9-4.4-1.9h-4.7c-3.3 0-6.1-2.7-6.1-6.1V76.3h-25.9z" fill="none"/></svg>