<svg xmlns="http://www.w3.org/2000/svg" viewBox="0 0 192 192"><g fill="none"><path vector-effect="non-scaling-stroke" d="m137.6 109.2 17.1 9.9c4.7 2.7 6.4 8.8 3.6 13.5-2.7 4.7-8.8 6.4-13.5 3.6L102 111.5"/><path vector-effect="non-scaling-stroke" d="M136.3 131.3c4.7 2.7 6.4 8.8 3.6 13.5-2.7 4.7-8.8 6.4-13.5 3.6l-34.3-19.8"/><path vector-effect="non-scaling-stroke" d="M117.8 143.5c4.7 2.7 6.3 8.8 3.6 13.5-2.7 4.7-8.8 6.4-13.5 3.6l-1.2-.7-66.3-38.2-1.1-.7c-18.9-10.9-25.4-35.1-14.4-54l9.9-17.1C45.7 31 69.9 24.5 88.9 35.4l3.4 2m72.4 64.6c4.7 2.7 6.4 8.8 3.6 13.5-2.7 4.7-8.8 6.4-13.5 3.6l-42.9-24.8"/><path vector-effect="non-scaling-stroke" d="M165.9 99.8c3.2-5.5 5-11.7 5.3-18.1.6-14.2.3-51.7.3-51.7s-51.1.3-58.3.5c-13.7.5-26.2 8-33 19.8l-26 43.3c-.3.5-.1 1.1.3 1.4.1 0 .1.1.2.1l6 2.2c4.3 1.6 9.1.7 12.5-2.5l17.1-18.6c11.8 5 19.8 1.8 26.4-2l48 27.7 1.2-2.1z"/></g></svg>