<svg xmlns="http://www.w3.org/2000/svg" viewBox="0 0 192 192"><g fill="none"><path vector-effect="non-scaling-stroke" d="M124.7 124h-23.4M116 60h22.1c18.7 0 33.9 15.2 33.9 33.9V112c0 6.6-5.4 12-12 12h-12.7M116 44v80H59.3c-2.2-6.2-9.1-9.5-15.3-7.3-3.4 1.2-6.1 3.9-7.3 7.3-9.3-.3-16.7-8-16.7-17.3V60c0-8.8 7.2-16 16-16h80z"/><path vector-effect="non-scaling-stroke" d="M60 128c0 6.6-5.4 12-12 12s-12-5.4-12-12c0-1.4.2-2.7.7-4 2.2-6.2 9.1-9.5 15.3-7.3 3.4 1.2 6.1 3.9 7.3 7.3.5 1.3.7 2.6.7 4zm88 0c0 6.6-5.4 12-12 12s-12-5.4-12-12c0-1.4.2-2.7.7-4 2.2-6.2 9.1-9.5 15.3-7.3 3.4 1.2 6.1 3.9 7.3 7.3.5 1.3.7 2.6.7 4z"/></g></svg>