<svg xmlns="http://www.w3.org/2000/svg" viewBox="0 0 24 24"><g fill="none"><path d="M9.5 20.555h-6a1 1 0 1 1 0-2h1.05" vector-effect="non-scaling-stroke"/><path d="M10.5 16a3.5 3.5 0 1 1-7 0 3.5 3.5 0 1 1 7 0Zm0 0" vector-effect="non-scaling-stroke"/><path d="M7.477 16a.474.474 0 0 1-.477.477.473.473 0 0 1-.477-.477c0-.266.211-.477.477-.477s.477.211.477.477Zm0 0" vector-effect="non-scaling-stroke"/><path d="M7.152 16a.15.15 0 0 1-.152.152.15.15 0 0 1-.152-.152.15.15 0 0 1 .152-.152.15.15 0 0 1 .152.152Zm0 0" vector-effect="non-scaling-stroke"/><path d="M9.45 18.555h6.3c2.07 0 3.75-1.68 3.75-3.75v-7.5c0-2.07-1.68-3.75-3.75-3.75h-7.5c-2.07 0-3.75 1.68-3.75 3.75v6.02M21.5 11V7.5h-2m0 7h2V11" vector-effect="non-scaling-stroke"/></g></svg>