<svg xmlns="http://www.w3.org/2000/svg" viewBox="0 0 192 192"><g fill="none"><path vector-effect="non-scaling-stroke" d="M60 116.1v26c0 16.6 13.4 30 30 30s30-13.4 30-30v-62c0-11 9-20 20-20s20 9 20 20v32M44 19.9h6.1c1.1 0 2 .9 2 2v.1c0 1.1-.9 2-2 2H44c-1.1 0-2-.9-2-2v-.1c0-1.1.9-2 2-2z"/><path vector-effect="non-scaling-stroke" d="M78.2 22.4c14.3 2.4 23.9 15.2 21.4 28.7l-7.2 33.3c-3.7 18.5-17.6 31.8-32.4 31.8S31.4 103 27.7 84.4l-7.3-33.3c-2.5-13.5 7-26.3 21.4-28.7"/><path vector-effect="non-scaling-stroke" d="M69.9 19.9H76c1.1 0 2 .9 2 2v.1c0 1.1-.9 2-2 2h-6.1c-1.1 0-2-.9-2-2v-.1c.1-1.1 1-2 2-2zm90.1 92.2h12v12c0 6.6-5.4 12-12 12s-12-5.4-12-12 5.4-12 12-12z"/></g></svg>