<svg xmlns="http://www.w3.org/2000/svg" viewBox="0 0 192 192"><g fill="none"><path vector-effect="non-scaling-stroke" d="M36 19.7h136v136c0 8.8-7.2 16-16 16H36c-8.8 0-16-7.2-16-16v-120c0-8.8 7.2-16 16-16z"/><path vector-effect="non-scaling-stroke" d="M95.8 44.1c4.8 0 8.7 3.9 8.7 8.7 0 4.8-3.9 8.7-8.7 8.7-4.8 0-8.7-3.9-8.7-8.7.1-4.8 3.9-8.7 8.7-8.7zm0 28.8c4.8 0 8.7 3.9 8.7 8.7 0 4.8-3.9 8.7-8.7 8.7-4.8 0-8.7-3.9-8.7-8.7.1-4.8 3.9-8.7 8.7-8.7zm0 28.9c4.8 0 8.7 3.9 8.7 8.7 0 4.8-3.9 8.7-8.7 8.7-4.8 0-8.7-3.9-8.7-8.7.1-4.8 3.9-8.7 8.7-8.7zm34.6-57.7c4.8 0 8.7 3.9 8.7 8.7 0 4.8-3.9 8.7-8.7 8.7-4.8 0-8.7-3.9-8.7-8.7.1-4.8 4-8.7 8.7-8.7zm0 28.8c4.8 0 8.7 3.9 8.7 8.7 0 4.8-3.9 8.7-8.7 8.7-4.8 0-8.7-3.9-8.7-8.7.1-4.8 4-8.7 8.7-8.7zm0 28.9c4.8 0 8.7 3.9 8.7 8.7 0 4.8-3.9 8.7-8.7 8.7-4.8 0-8.7-3.9-8.7-8.7.1-4.8 4-8.7 8.7-8.7zM61.2 44.1c4.8 0 8.7 3.9 8.7 8.7 0 4.8-3.9 8.7-8.7 8.7-4.8 0-8.7-3.9-8.7-8.7 0-4.8 3.9-8.7 8.7-8.7zm0 28.8c4.8 0 8.7 3.9 8.7 8.7 0 4.8-3.9 8.7-8.7 8.7-4.8 0-8.7-3.9-8.7-8.7 0-4.8 3.9-8.7 8.7-8.7zm0 28.9c4.8 0 8.7 3.9 8.7 8.7 0 4.8-3.9 8.7-8.7 8.7-4.8 0-8.7-3.9-8.7-8.7 0-4.8 3.9-8.7 8.7-8.7zm34.6 28.9c4.8 0 8.7 3.9 8.7 8.7 0 4.8-3.9 8.7-8.7 8.7-4.8 0-8.7-3.9-8.7-8.7.1-4.9 3.9-8.7 8.7-8.7z"/></g></svg>