<svg xmlns="http://www.w3.org/2000/svg" viewBox="0 0 24 24"><g fill="none"><path d="M5.637 6.543H9.5V2.797" vector-effect="non-scaling-stroke"/><path d="M10.355 2.543a2.15 2.15 0 0 0-1.39.512l-2.703 2.32a2.124 2.124 0 0 0-.742 1.617v12.465c0 1.098.902 2 1.742 2h9.218c1.36 0 2-.902 2-2V2.543Zm1.676 11.917v-2.948" vector-effect="non-scaling-stroke"/><path d="M8.04 14.46v-2.948h.858s.86-.059.86.86c0 .921-.86.862-.86.862H8.04m3.007-1.722h1.969M8.96 13.234l.677 1.227m4.851-.001v-2.948h1.473m-1.473 1.472h1.227" vector-effect="non-scaling-stroke"/></g></svg>