<svg xmlns="http://www.w3.org/2000/svg" viewBox="0 0 24 24"><g fill="none"><path d="M5.637 6.543H9.5V2.797" vector-effect="non-scaling-stroke"/><path d="M10.355 2.543a2.15 2.15 0 0 0-1.39.512l-2.703 2.32a2.124 2.124 0 0 0-.742 1.617v12.465c0 1.098.902 2 1.742 2h9.218c1.36 0 2-.902 2-2V2.543ZM12.16 14.61v-3.141" vector-effect="non-scaling-stroke"/><path d="M14.152 14.61v-3.141h.918s.914-.063.914.918c0 .976-.914.914-.914.914h-.918m-5.816-1.832h2.09l-2.09 3.14h2.09" vector-effect="non-scaling-stroke"/></g></svg>