<svg xmlns="http://www.w3.org/2000/svg" viewBox="0 0 24 24"><g fill="none"><path d="M15.086 14.465v-2.926m-3.906 2.926v-2.926h.855s.856-.062.856.852c0 .914-.856.859-.856.859h-.855m-3.356 1.215v-2.926h.856s.855-.062.855.852c0 .914-.855.859-.855.859h-.856m6.286-1.71h1.953M5.637 6.543H9.5V2.797" vector-effect="non-scaling-stroke"/><path d="M10.355 2.543a2.15 2.15 0 0 0-1.39.512l-2.703 2.32a2.124 2.124 0 0 0-.742 1.617v12.465c0 1.098.902 2 1.742 2h9.218c1.36 0 2-.902 2-2V2.543Zm0 0" vector-effect="non-scaling-stroke"/></g></svg>