<svg xmlns="http://www.w3.org/2000/svg" viewBox="0 0 24 24"><g fill="none"><path d="M10.926 14.61v-3.051h.886s.891-.063.891.89c0 .953-.89.887-.89.887h-.887m-1.91-1.777v2.55a.494.494 0 0 1-.172.391c-.192.164-.547.328-1.098.05m7.809-1.241h.636v1.238s-1.734.59-1.984-.938c-.25-1.546.734-1.867.93-1.91.113-.027.773-.125.988.375M5.637 6.543H9.5V2.797" vector-effect="non-scaling-stroke"/><path d="M10.355 2.543a2.15 2.15 0 0 0-1.39.512l-2.703 2.32a2.124 2.124 0 0 0-.742 1.617v12.465c0 1.098.902 2 1.742 2h9.218c1.36 0 2-.902 2-2V2.543Zm0 0" vector-effect="non-scaling-stroke"/></g></svg>