<svg xmlns="http://www.w3.org/2000/svg" viewBox="0 0 24 24"><g fill="none"><path d="M5.637 6.543H9.5V2.797" vector-effect="non-scaling-stroke"/><path d="M10.355 2.543a2.15 2.15 0 0 0-1.39.512l-2.703 2.32a2.124 2.124 0 0 0-.742 1.617v12.465c0 1.098.902 2 1.742 2h9.218c1.36 0 2-.902 2-2V2.543Zm0 0" vector-effect="non-scaling-stroke"/><path d="M15.598 13.16h.632v1.23s-1.722.59-1.972-.93c-.25-1.538.73-1.855.922-1.901.117-.028.773-.125.988.367m-8.645 2.379s.364.3 1.024.258c.332-.02.797-.231.719-.836a.814.814 0 0 0-.332-.493 3.103 3.103 0 0 0-.918-.437s-.489-.133-.5-.613a.748.748 0 0 1 .703-.793h.047c.336-.036.668.062.933.27m1.449-.111 1.137 2.903 1.07-2.902" vector-effect="non-scaling-stroke"/></g></svg>