<svg xmlns="http://www.w3.org/2000/svg" viewBox="0 0 24 24"><g fill="none"><path d="M14.672 14.496v-2.95h1.473m-4.852.001V14.5s1.781.25 1.781-1.473c0-1.726-1.781-1.48-1.781-1.48ZM7.973 14.5v-2.953h.859s.863-.063.863.86c0 .921-.863.859-.863.859h-.86m6.7-.243h1.226M5.637 6.543H9.5V2.797" vector-effect="non-scaling-stroke"/><path d="M10.355 2.543a2.15 2.15 0 0 0-1.39.512l-2.703 2.32a2.124 2.124 0 0 0-.742 1.617v12.465c0 1.098.902 2 1.742 2h9.218c1.36 0 2-.902 2-2V2.543Zm0 0" vector-effect="non-scaling-stroke"/></g></svg>