<svg xmlns="http://www.w3.org/2000/svg" viewBox="0 0 24 24"><g fill="none"><path d="M7.063 2.555H19V19.18a2.32 2.32 0 0 1-.676 1.64 2.32 2.32 0 0 1-1.64.68H7.059a2.076 2.076 0 0 1-2.07-2.078V4.632c0-1.148.929-2.077 2.074-2.077Zm0 0" vector-effect="non-scaling-stroke"/><path d="M7 5.031h10v10H7Zm0 0" vector-effect="non-scaling-stroke"/><path d="m8.191 14.926.48-.684c.79-1.18 2-1.937 3.356-1.937 1.356 0 2.567.75 3.356 1.937l.433.79M14.453 9.64a2.426 2.426 0 1 1-2.426-2.422h2.426ZM7 18.031h5.508m4.492.035a1.12 1.12 0 1 1-2.24.002 1.12 1.12 0 0 1 2.24-.002Zm0 0" vector-effect="non-scaling-stroke"/></g></svg>