<svg xmlns="http://www.w3.org/2000/svg" viewBox="0 0 192 192"><g fill="none"><path d="m95.87 96 19.62-32.91a5.46 5.46 0 0 1 4.7-2.68h20.74M95.87 96l-19 32.85a5.48 5.48 0 0 1-4.74 2.74H50.79M95.87 96l-19-32.85a5.48 5.48 0 0 0-4.74-2.74H50.79M95.87 96l19.62 32.91a5.46 5.46 0 0 0 4.7 2.68h20.74" vector-effect="non-scaling-stroke"/><path vector-effect="non-scaling-stroke" d="m61.8 49.41-11.01 11L61.8 71.42m68.4 0 11.01-11.01-11.01-11m-68.4 71.17-11.01 11.01 11.01 11m68.4 0 11.01-11-11.01-11.01"/></g><path d="M44 28h120v120a16 16 0 0 1-16 16H44a16 16 0 0 1-16-16V44a16 16 0 0 1 16-16Z" fill="none" vector-effect="non-scaling-stroke"/></svg>