<svg xmlns="http://www.w3.org/2000/svg" viewBox="0 0 192 192"><g fill="none"><path vector-effect="non-scaling-stroke" d="m90.1 72.4 71.3 71.3c4.7 4.7 4.7 12.3 0 17-4.7 4.7-12.3 4.7-17 0L73.1 89.4m-13.2 25.7-28.6 28.6c-4.7 4.7-4.7 12.3 0 17 4.7 4.7 12.3 4.7 17 0l28.6-28.6"/><path vector-effect="non-scaling-stroke" d="m54.1 154.9 22.7-22.7c4.7-4.7 4.7-12.3 0-17-4.7-4.7-12.3-4.7-17 0l-22.6 22.7M48 30.2l15.5 16.2c.7.7 1.1 1.7 1.1 2.8V60c0 2.2-1.8 4-4 4H49.4c-1.1 0-2.1-.4-2.8-1.2L31.1 47.3m0 .1c-6.9 16.3.7 35.1 17 41.9 8 3.4 16.9 3.4 24.9 0"/><path vector-effect="non-scaling-stroke" d="M90 72.4c6.9-16.3-.7-35.1-16.9-42-8-3.4-17-3.4-25 0m57.1 57.1 56-56m-83.9 83.9 10.9-10.9"/></g></svg>