<svg xmlns="http://www.w3.org/2000/svg" viewBox="0 0 192 192"><g fill="none"><path vector-effect="non-scaling-stroke" d="M68.6 109.7 80 57.2c.8-2.8 2.9-4.5 4.3-4.5.2 0 .5 0 .7.1 26.9 10.9 55.3 17.6 84.3 19.9.9.1 3.4.1 3.4.1s-1.1 7.1-1.8 10.4c-2.4 12.1-9.8 41.3-9.8 41.3-4.2 15.1-19.5 30.3-44.1 43.9-9.6 5.2-21.6 2.4-27.8-6.6-13.8-19.9-20.8-37.7-20.6-52.1"/><path vector-effect="non-scaling-stroke" d="M68.6 109.7c-.8-.2-1.6-.5-2.4-.9-6.2-2.9-12-6.2-17.6-10.1-9.8-7-16-14.5-18.4-22.3L20.2 43c-.5-2.2.2-4 1.2-4.6.2-.1.3-.2.5-.2 21.9-3.2 43.3-9.6 63.3-19l2.7-1.2 1.5 4.6 11.2 35.9m-7.1 72.1s2.9 7.9 15.9 11.2 18.8-2.5 18.8-2.5m-23.8-45.5h-8.9m44.8 13.8-6.3-6.4"/></g></svg>