<svg xmlns="http://www.w3.org/2000/svg" viewBox="0 0 192 192"><g fill="none"><path vector-effect="non-scaling-stroke" d="M96 121c-2.2 0-4-1.8-4-4V39c0-2.2 1.8-4 4-4s4 1.8 4 4v78c0 2.2-1.8 4-4 4z"/><path vector-effect="non-scaling-stroke" d="M96 119c-1.4 0-2.5-1.1-2.5-2.5v-77c0-1.4 1.1-2.5 2.5-2.5s2.5 1.1 2.5 2.5v77c0 1.4-1.1 2.5-2.5 2.5z"/><path vector-effect="non-scaling-stroke" d="M96 117c-.6 0-1-.4-1-1V40c0-.6.4-1 1-1s1 .4 1 1v76c0 .6-.4 1-1 1z"/><circle vector-effect="non-scaling-stroke" cx="96" cy="150" r="4"/><circle vector-effect="non-scaling-stroke" cx="96" cy="150" r="6"/><circle vector-effect="non-scaling-stroke" cx="96" cy="150" r="2.5"/><circle vector-effect="non-scaling-stroke" cx="96" cy="150" r="1"/></g></svg>