<svg xmlns="http://www.w3.org/2000/svg" viewBox="0 0 192 192"><path d="M172 65.29v61.42a11.76 11.76 0 0 1-12 11.51H32a11.76 11.76 0 0 1-12-11.51V80.65l28-26.87h112" fill="none" vector-effect="non-scaling-stroke"/><path d="M160 53.78a11.76 11.76 0 0 1 12 11.51m-96.55 48.09s3.62 3 10.26 2.58c3.35-.2 8-2.32 7.24-8.44a7.85 7.85 0 0 0-3.33-4.92 31.1 31.1 0 0 0-9.18-4.4s-4.92-1.35-5-6.15a7.52 7.52 0 0 1 7-8H83a12.89 12.89 0 0 1 9.33 2.71m-33.18 27.07A16.63 16.63 0 0 1 50.6 116c-5.83 0-10.9-5.17-10.9-11.54s4-12.36 10.55-12.36c5.61 0 10.21 4.36 10.21 9.47v1.68H41.91M105.81 84v32m42.74 0-2.11-32-12.48 30.77L121.48 84l-2.1 32" fill="none" vector-effect="non-scaling-stroke"/></svg>