<svg xmlns="http://www.w3.org/2000/svg" viewBox="0 0 24 24"><path d="M19.12 5.55A2.09 2.09 0 1 1 17 3.46h2.09ZM8.74 20.48a1.34 1.34 0 0 1-1.34-1.32 1.41 1.41 0 0 1 .11-.54l1.19-3.1a1.32 1.32 0 0 1 .78-.77l1-.38-1.6-.56-2.34 1.44a1.34 1.34 0 0 1-1.78-2 1.47 1.47 0 0 1 .4-.24l2.89-1.77a1.32 1.32 0 0 1 .69-.24 1.38 1.38 0 0 1 .45.08l2.17.76.94-2m0-.07-1.7-.92A1.18 1.18 0 0 1 10 8l-.4-3.14a1.18 1.18 0 0 1 1-1.32h.16a1.16 1.16 0 0 1 1.16 1L12.23 7a.17.17 0 0 0 .1.12L16.58 9a1.08 1.08 0 0 1 .39.28l2.21 2.44a1.18 1.18 0 0 1 .28 1.12l-.85 3c-.14.5-.44 1-1 1a1.17 1.17 0 0 1-1.17-1.17 1.61 1.61 0 0 1 0-.31l.63-2.24a.28.28 0 0 0-.06-.25l-.79-.87-1.37 3a1.33 1.33 0 0 1-.8.87l-3 1.13a.24.24 0 0 0-.14.14L10 19.62a1.35 1.35 0 0 1-1.26.86" fill="none" vector-effect="non-scaling-stroke"/></svg>