<svg xmlns="http://www.w3.org/2000/svg" viewBox="0 0 192 192"><g fill="none"><path vector-effect="non-scaling-stroke" d="M28 139.7c4.9-29.7 22.3-47.9 44-47.9 6.7 0 13.3 1.8 19.1 5.3l.3.2M121 94c3.5-1.5 7.2-2.2 11-2.2 15.8 0 28.4 12.6 32 33.3m-32.4 30.6c-3.4-19.9-14.8-30.1-27.5-30.1s-24.4 10.2-27.8 30.1M72 35.7h28v28c0 15.5-12.5 28-28 28s-28-12.5-28-28c0-15.4 12.5-28 28-28zm60 16h20v20c0 11-9 20-20 20s-20-9-20-20 9-20 20-20z"/><path vector-effect="non-scaling-stroke" d="M104 91.7h17v17c0 9.4-7.6 17-17 17s-17-7.6-17-17 7.6-17 17-17z"/></g></svg>