<svg xmlns="http://www.w3.org/2000/svg" viewBox="0 0 192 192"><g fill="none"><path vector-effect="non-scaling-stroke" d="M156 80.2c0 40-60 92-60 92s-60-52-60-92c0-33.1 26.9-60 60-60"/><path vector-effect="non-scaling-stroke" d="M95.7 20.2c33.3 0 60.3 27 60.3 60.3M96 116c-3.2-2-6.2-4.2-9.1-6.6-7.7-6.5-15.2-14.2-19.6-23.5-4.1-8.7-5.3-21.9 2.3-29.1 6.7-6.3 17.2-6.1 23.5.6 1.1 1.2 2.1 2.5 2.8 4M96 116c3.2-2 6.2-4.2 9.1-6.6 7.7-6.5 15.2-14.2 19.6-23.5 4.1-8.7 5.3-21.9-2.3-29.1-6.7-6.3-17.2-6.1-23.5.6-1.1 1.2-2.1 2.5-2.8 4m1.5 4.5c-1.5-7.9-8.4-13.7-16.4-13.7"/></g></svg>