<svg xmlns="http://www.w3.org/2000/svg" viewBox="0 0 192 192"><path vector-effect="non-scaling-stroke" d="M64 72.2v24m-12-12h24m20 25.1c3.4 0 6.8.5 10.1 1.3 3.2.9 6.4 2.1 9.3 3.8 2.9 1.6 5.5 3.6 7.9 5.8 2.4 2.3 4.5 4.8 6.3 7.6s3.2 5.8 4.3 9c1.3 3.6 3.8 6.7 7 8.7 3.2 2.1 6.9 3.3 10.7 3.3h.4c6.6 0 12.7-3.2 16.4-8.6 4.7-6.8 3.6-15 2.5-22.7-1.1-7.2-2.9-14.3-5.4-21.1-2.4-6.5-5.5-12.7-9.3-18.6-7.2-11.2-17.1-21.8-28.8-28.3-2.5-1.4-5.3-2.1-8.2-2-8.7.2-14.5 4.5-23.2 4.6-8.6-.1-14.5-4.4-23.2-4.6-2.9-.1-5.7.6-8.2 2C52.8 56 43 66.6 35.8 77.8c-3.8 5.8-6.9 12.1-9.3 18.6-2.5 6.8-4.3 13.9-5.4 21.1-1.1 7.7-2.2 15.9 2.5 22.7 3.8 5.4 9.9 8.6 16.5 8.6h.4c3.8-.1 7.5-1.2 10.7-3.3 3.2-2 5.7-5.1 7-8.7 1.1-3.2 2.5-6.2 4.3-9 1.8-2.8 3.9-5.3 6.3-7.6s5.1-4.2 7.9-5.8c2.9-1.6 6-2.9 9.3-3.8 3.2-.8 6.6-1.3 10-1.3z" fill="none"/><circle cx="116" cy="84.2" r=".4" vector-effect="non-scaling-stroke" fill="none"/><circle cx="140" cy="84.2" r=".4" vector-effect="non-scaling-stroke" fill="none"/><circle cx="127.8" cy="72" r=".4" vector-effect="non-scaling-stroke" fill="none"/><circle cx="128" cy="96.2" r=".4" vector-effect="non-scaling-stroke" fill="none"/></svg>