<svg xmlns="http://www.w3.org/2000/svg" viewBox="0 0 192 192"><path vector-effect="non-scaling-stroke" d="M117.6 39.8h34.6v34.6c0 4.8-3.9 8.6-8.6 8.6h-26c-4.7 0-8.6-3.9-8.6-8.6v-26c0-4.8 3.9-8.6 8.6-8.6zm-69.2 0h26c4.8 0 8.7 3.9 8.7 8.7v26c0 4.8-3.9 8.7-8.7 8.7h-26c-4.8 0-8.7-3.9-8.7-8.7v-26c.1-4.9 3.9-8.7 8.7-8.7zm69.2 69.2h26c4.8 0 8.6 3.9 8.6 8.7v26c0 4.8-3.9 8.6-8.6 8.6h-26c-4.8 0-8.7-3.9-8.7-8.6v-26c.1-4.8 4-8.7 8.7-8.7zm-69.2 0h26c4.8 0 8.7 3.9 8.7 8.7v26c0 4.8-3.9 8.6-8.7 8.6h-26c-4.8 0-8.7-3.9-8.7-8.6v-26c.1-4.8 3.9-8.7 8.7-8.7z" fill="none"/></svg>