<svg xmlns="http://www.w3.org/2000/svg" viewBox="0 0 192 192"><path d="M155.9 60.33V20.5h-19.71" fill="none" vector-effect="non-scaling-stroke"/><path d="M136.19 20.5a12.94 12.94 0 0 0-12.9 12.89v2.52C114.68 29.58 108.35 25 108.35 25c-9.14-7.27-17-5.62-24.15 0 0 0-55.1 40.81-60.82 46.19-8.87 8.34 1.34 20.91 12.07 20.91h4.8v63.64a16.06 16.06 0 0 0 16 16h80a16 16 0 0 0 16-16V92.1h4.84c10.74 0 19.68-13.32 12.08-20.92-2-2-6.95-6-13.27-10.85" fill="none" vector-effect="non-scaling-stroke"/><path d="M96 131.62c-27.1 0-39.36-25.26-39.83-26.43a3.28 3.28 0 0 1 0-2.1c.47-1 12.73-26.21 39.83-26.21s39.36 25.26 39.83 26.43a3.28 3.28 0 0 1 0 2.1c-.47.95-12.73 26.21-39.83 26.21Z" fill="none" vector-effect="non-scaling-stroke"/><path d="M96 119a14.68 14.68 0 1 1 .13 0Z" fill="none" vector-effect="non-scaling-stroke"/></svg>