<svg xmlns="http://www.w3.org/2000/svg" viewBox="0 0 192 192"><g fill="none"><path vector-effect="non-scaling-stroke" d="M146.8 73c0 8.6-2.4 17-6.8 24.4-1.8 3.1-3.8 6-6.1 8.8 0 0-10.7 10.2-10.7 22.9 0 2.2-1.7 3.9-3.9 3.9H72.4c-2.2 0-3.9-1.7-3.9-3.9 0-12.7-10.4-22.9-10.4-22.9-2.2-2.8-4.2-5.7-6.1-8.8-4.4-7.4-6.7-15.8-6.8-24.4v-2.5c1.2-24 20.9-45.7 48.9-46.7h3.6c30.2 0 48.9 26.1 48.9 46.8l.2 2.4z"/><path vector-effect="non-scaling-stroke" d="M65 74.7c0-11.1 5.8-21.3 15.4-26.9m-10 97.1h51.2m-45.4 11.7h39.6m-33.3 11.7H110"/></g></svg>