<svg xmlns="http://www.w3.org/2000/svg" viewBox="0 0 24 24"><g fill="none"><path d="M13.023 6v5.008c.004.012.016.023.028.023h5.008m-5.019-.011 6.483-6.489" vector-effect="non-scaling-stroke"/><path d="M21.492 17.215a.3.3 0 0 1 .016.105 3.412 3.412 0 0 1-.153.97c-.375 1.214-1.386 2.523-2.582 2.874-3.015.898-6.191-.023-9-1.434a12.129 12.129 0 0 1-5.386-5.347c-1.414-2.797-2.34-5.957-1.438-8.957.356-1.188 1.676-2.196 2.895-2.567l.98-.257a.318.318 0 0 1 .383.203L7.98 5.07l1.184 3.305.027.086a.374.374 0 0 1-.125.426 4.425 4.425 0 0 1-1.27.664 7.861 7.861 0 0 1-1.671.324.367.367 0 0 0-.313.473 12.339 12.339 0 0 0 3.012 4.976 12.32 12.32 0 0 0 5 3.004.361.361 0 0 0 .457-.238c.008-.024.012-.047.016-.07a7.632 7.632 0 0 1 .328-1.672 4.26 4.26 0 0 1 .672-1.262.367.367 0 0 1 .426-.125l.086.027 3.316 1.18c.79.277 1.46.559 2.25.84.047.015.094.133.117.207Zm0 0" vector-effect="non-scaling-stroke"/></g></svg>