<svg xmlns="http://www.w3.org/2000/svg" viewBox="0 0 192 192"><path d="M60.24 156c0 9.88 7.89 16 17.76 16s18-6.12 18-16V85c-6.3 0-12.17 1-17.16 4.14l-.58.33a20.64 20.64 0 0 0-6.85 6.26C67.27 89.43 57.82 85 46.82 85c-9.18 0-17.28 3.08-22.12 7.77a71.53 71.53 0 0 1 57-64.43 24.29 24.29 0 0 1 2.95-.34c2.78-.22 7.07-.4 11.35-.44s8.57.22 11.35.44a24.29 24.29 0 0 1 2.93.41 71.53 71.53 0 0 1 57 64.43c-4.82-4.74-12.92-7.84-22.1-7.84-11 0-20.45 4.41-24.59 10.73a20.64 20.64 0 0 0-6.85-6.26l-.58-.33C108.17 86 102.3 85 96 85m0-57.5v-6.89" fill="none" vector-effect="non-scaling-stroke"/></svg>