<svg xmlns="http://www.w3.org/2000/svg" viewBox="0 0 192 192"><g fill="none"><path vector-effect="non-scaling-stroke" d="M102.2 20.2C124.3 39.9 140 66.5 140 96c0 29.1-16.1 56.2-37.8 75.8M89.8 20.2C67.7 39.9 52 66.5 52 96c0 29.1 16.1 56.2 37.8 75.8"/><path vector-effect="non-scaling-stroke" d="M154.3 47.2C137 59.6 117.8 68 96 68c-21.5 0-40.9-8.4-58.2-20.8m0 97.6C55 132.4 74.2 124 96 124c21.5 0 40.9 8.4 58.3 20.8M20 96h152m-76 76V20"/><circle vector-effect="non-scaling-stroke" cx="96" cy="96" r="76"/></g></svg>