<svg xmlns="http://www.w3.org/2000/svg" viewBox="0 0 24 24"><g fill="none"><path d="M15.5 12a3.5 3.5 0 1 1-7 0 3.5 3.5 0 1 1 7 0Zm0 0" vector-effect="non-scaling-stroke"/><path d="M13.5 12.875a1.861 1.861 0 0 1-2.984 0M13.11 11a.13.13 0 1 1-.262 0 .13.13 0 1 1 .261 0Zm0 0" vector-effect="non-scaling-stroke"/><path d="M13.031 11c0 .027-.023.05-.054.05a.052.052 0 0 1-.051-.05.05.05 0 0 1 .05-.05c.032 0 .055.023.055.05Zm-1.898 0a.132.132 0 0 1-.133.133.132.132 0 0 1-.133-.133c0-.074.059-.133.133-.133.074 0 .133.059.133.133Zm0 0" vector-effect="non-scaling-stroke"/><path d="M11.05 11a.05.05 0 0 1-.05.05.052.052 0 0 1-.05-.05.05.05 0 0 1 .05-.05.05.05 0 0 1 .05.05Zm0 0" vector-effect="non-scaling-stroke"/><path d="M8.5 6.5h7.664c.738 0 1.336.598 1.336 1.336V15.5a2 2 0 0 1-2 2h-7a2 2 0 0 1-2-2v-7a2 2 0 0 1 2-2Zm.5 0 .441-3.469a.535.535 0 0 1 .532-.469h4.054c.27 0 .496.2.532.47L15 6.5m0 11.035-.441 3.5a.539.539 0 0 1-.532.469H9.973a.539.539 0 0 1-.532-.469L9 17.535" vector-effect="non-scaling-stroke"/></g></svg>