<svg xmlns="http://www.w3.org/2000/svg" viewBox="0 0 24 24"><g fill="none"><path d="M13.715 16.664a4.234 4.234 0 0 1-.442.512l-2.066 2.066a4.482 4.482 0 0 1-6.32 0l-.125-.125a4.487 4.487 0 0 1 0-6.324l2.062-2.066a4.48 4.48 0 0 1 6.324 0l.125.125c.438.437.778.96 1 1.539" vector-effect="non-scaling-stroke"/><path d="M10.355 7.25a3.93 3.93 0 0 1 .375-.422l2.067-2.066a4.482 4.482 0 0 1 6.32 0l.125.125a4.487 4.487 0 0 1 0 6.324l-2.066 2.062a4.48 4.48 0 0 1-6.324 0l-.125-.125a4.476 4.476 0 0 1-.774-1.035" vector-effect="non-scaling-stroke"/></g></svg>