<svg xmlns="http://www.w3.org/2000/svg" viewBox="0 0 24 24"><g fill="none"><path d="M4.32 17.54a1.999 1.999 0 0 1-1.808-1.993V6.582c0-1.105.894-2 2-2h16v7.809m-3.899 5.156h-2.125m4.102 2h.988" vector-effect="non-scaling-stroke"/><path d="M18.094 12.547h3.394v7.484c0 .395-.156.774-.433 1.051-.282.277-.66.434-1.055.434h-1.906a1.488 1.488 0 0 1-1.48-1.485v-6c.003-.82.663-1.48 1.48-1.484Zm-9.606 5h2m4 .5c0 .828-.668 1.5-1.5 1.5h-7a1.5 1.5 0 0 1-1.5-1.5v-4a1.5 1.5 0 0 1 1.5-1.5h8.5Zm0 0" vector-effect="non-scaling-stroke"/></g></svg>