<svg xmlns="http://www.w3.org/2000/svg" viewBox="0 0 24 24"><g fill="none"><path d="M14 8.031c0 1.106-.895 2-2 2s-2-.894-2-2a1.999 1.999 0 1 1 4 0Zm0 0" vector-effect="non-scaling-stroke"/><path d="M12.238 8.031A.237.237 0 0 1 12 8.27a.237.237 0 0 1-.238-.239c0-.133.105-.238.238-.238s.238.105.238.238Zm0 0" vector-effect="non-scaling-stroke"/><path d="M12.113 8.031a.113.113 0 1 1-.226 0 .113.113 0 0 1 .226 0ZM10 15.5a1.999 1.999 0 1 1-4 0 1.999 1.999 0 1 1 4 0Zm8 0a1.999 1.999 0 1 1-4 0 1.999 1.999 0 1 1 4 0Zm0 0" vector-effect="non-scaling-stroke"/><path d="M5.5 3.5h15v15a2 2 0 0 1-2 2h-13a2 2 0 0 1-2-2v-13a2 2 0 0 1 2-2Zm0 0" vector-effect="non-scaling-stroke"/><path d="M16.238 15.5a.237.237 0 0 1-.238.238.237.237 0 0 1-.238-.238c0-.133.105-.238.238-.238s.238.105.238.238Zm0 0" vector-effect="non-scaling-stroke"/><path d="M16.113 15.5a.113.113 0 1 1-.226 0 .113.113 0 0 1 .226 0Zm-7.875 0a.237.237 0 0 1-.238.238.237.237 0 0 1-.238-.238c0-.133.105-.238.238-.238s.238.105.238.238Zm0 0" vector-effect="non-scaling-stroke"/><path d="M8.113 15.5a.113.113 0 1 1-.226 0 .113.113 0 0 1 .226 0Zm0 0" vector-effect="non-scaling-stroke"/></g></svg>