<svg xmlns="http://www.w3.org/2000/svg" viewBox="0 0 192 192"><g fill="none"><path vector-effect="non-scaling-stroke" d="m111.9 132.8-41.2 39.3c-.4.4-1 .4-1.4 0-.2-.3-.3-.6-.2-1l23.5-80.2"/><path vector-effect="non-scaling-stroke" d="m99.6 90.9 23.5 80.2c.2.5-.2 1.1-.7 1.2-.3.1-.7 0-1-.2l-41.2-39.3m-20.8-91c-20.4 20.4-20.5 53.5-.1 73.9l.1.1"/><path vector-effect="non-scaling-stroke" d="M41.8 26.4c-28.9 28.9-29 75.7-.1 104.7l.1.1m90.9-89.4c20.4 20.4 20.5 53.4.1 73.8l-.1.1"/><path vector-effect="non-scaling-stroke" d="M150.3 26.4c28.9 28.9 29 75.7.1 104.7l-.1.1M96 64.2h13.6v13.6c0 7.5-6.1 13.6-13.6 13.6s-13.6-6.1-13.6-13.6S88.5 64.2 96 64.2z"/></g></svg>