<svg xmlns="http://www.w3.org/2000/svg" viewBox="0 0 192 192"><g fill="none"><path vector-effect="non-scaling-stroke" d="M79.2 152.8v2.4c-.2 9.3 7.1 17 16.4 17.3 9.3.2 17-7.1 17.3-16.4V153M109 37.8V33c0-7.2-5.8-13-13-13-7 0-12.6 5.7-12.6 12.6v5.1"/><path vector-effect="non-scaling-stroke" d="M37.5 152.2c-5.6.1-10.2-4.2-10.7-9.7v-.8c0-4.3 2.3-8.4 6.1-10.5 7.5-4.4 12.6-13.5 12.6-22.8l-.2-21.2c0-27.9 22.6-50.5 50.5-50.5h.8c27.9-.5 50.9 21.7 51.4 49.6v.9l-.2 21.2c0 9.3 5.1 18.5 12.6 22.8 3.8 2.2 6.1 6.2 6.1 10.5v.8c-.5 5.5-5.2 9.7-10.7 9.7H37.5z"/></g><path vector-effect="non-scaling-stroke" fill="none" d="M28.2 164 163.4 28.9"/></svg>