<svg xmlns="http://www.w3.org/2000/svg" viewBox="0 0 192 192"><g fill="none"><path vector-effect="non-scaling-stroke" d="M172.1 39.3c0 96.5-62.2 127.2-74.2 132.5-1.2.6-2.7.6-3.9 0-12-5.3-74.1-36-74.1-132.5 0-14.2 27.2 9.9 72.6-18.5 2.1-1.3 4.9-1.3 7 0 17.8 11.1 32.8 15.3 44.5 15.5h28.1v3z"/><path vector-effect="non-scaling-stroke" d="M62.5 116c4.3-16.7 15.1-26.6 28.2-26.6 4.5 0 8.9 1.2 12.7 3.5l.2.1m27 38.8c-2.3-13.3-9.9-20.1-18.3-20.1s-16.2 6.8-18.5 20.1M90.4 52h19v19c0 10.1-8.2 18.3-18.4 18.3h-.6C80.2 89.3 72 81.1 72 71v-.6C72 60.2 80.2 52 90.4 52c-.1 0-.1 0 0 0z"/><path vector-effect="non-scaling-stroke" d="M112.2 89h11.3v11.3c0 6.3-5.1 11.3-11.3 11.3-6.3 0-11.3-5.1-11.3-11.3 0-6.2 5.1-11.3 11.3-11.3z"/></g></svg>