<svg xmlns="http://www.w3.org/2000/svg" viewBox="0 0 24 24"><g fill="none"><path d="m20.465 7.48.02-3.964H17.69" vector-effect="non-scaling-stroke"/><path d="m17.691 3.516-7.351 7.359a5.02 5.02 0 0 0-5.746 1.55 5.02 5.02 0 0 0-.215 5.954 5.017 5.017 0 0 0 9.156-2.832 4.628 4.628 0 0 0-.328-1.777l1.309-1.27H16.5l-.016-2.082.914-.914 1.102-.012V7.48h1.984" vector-effect="non-scaling-stroke"/><path d="M9.5 16a1.5 1.5 0 1 1-3 0 1.5 1.5 0 0 1 3 0Zm3.5-4.969 3.29-3.289" vector-effect="non-scaling-stroke"/></g></svg>