<svg xmlns="http://www.w3.org/2000/svg" viewBox="0 0 192 192"><g fill="none"><path vector-effect="non-scaling-stroke" d="m118 80-31.8 32L74 100"/><path vector-effect="non-scaling-stroke" d="M164.6 78.7c10 10 9.9 26.2-.1 36.2l-.4.4c3.6 13.7-4.5 27.7-18.2 31.3-.2.1-.4.1-.6.1-1 3.9-3 7.4-5.7 10.4a25.65 25.65 0 0 1-26.3 7.4c-10 10-26.2 9.9-36.2-.1l-.4-.4c-13.7 3.6-27.7-4.5-31.3-18.2-.1-.2-.1-.4-.1-.6-3.9-1-7.4-3-10.4-5.7a25.65 25.65 0 0 1-7.4-26.3c-10-10-9.9-26.2.1-36.2l.4-.4C24.4 63 32.5 49 46.2 45.4c.2 0 .4-.1.5-.1 1-3.9 3-7.4 5.7-10.4 6.6-7.3 16.8-10.2 26.3-7.4 10-10 26.2-9.9 36.2.1l.4.4c13.7-3.6 27.7 4.5 31.3 18.2.1.2.1.4.1.6 3.9 1 7.4 3 10.4 5.7 7.4 6.5 10.2 16.7 7.5 26.2z"/><circle vector-effect="non-scaling-stroke" cx="96" cy="96" r="52"/></g></svg>