<svg xmlns="http://www.w3.org/2000/svg" viewBox="0 0 192 192"><g fill="none"><path vector-effect="non-scaling-stroke" d="M105.5 85c8.4-5.2 10.9-16.3 5.7-24.6-5.2-8.4-16.3-10.9-24.6-5.7S75.7 71 80.9 79.3c1.4 2.3 3.4 4.3 5.7 5.7l-8.4 40.2c-.2 3.5 2.4 6.5 5.9 6.8h23.2c3.5.2 6.5-2.5 6.7-6v-.7l-4.3-18.4-4.2-21.9z"/><path vector-effect="non-scaling-stroke" d="M172.1 39.3c0 96.5-62.2 127.2-74.2 132.5-1.2.6-2.7.6-3.9 0-12-5.3-74.1-36-74.1-132.5 0-14.2 27.2 9.9 72.6-18.5 2.1-1.3 4.9-1.3 7 0 17.8 11.1 32.8 15.3 44.5 15.5h28.1v3z"/></g></svg>