<svg xmlns="http://www.w3.org/2000/svg" viewBox="0 0 24 24"><g fill="none"><path d="M21.5 16.5a2 2 0 0 1-2 2h-15a2 2 0 0 1-2-2v-9a2 2 0 0 1 2-2h17Zm-7.977-6.988H19m-5.477 2.011H19m-5.477 2.024H19" vector-effect="non-scaling-stroke"/><path d="M3.086 17.938c.5-2.34 2.262-4.067 4.36-4.067 2.1 0 3.863 1.727 4.359 4.066.054.184.082.372.086.563m-1.903-7.418a2.543 2.543 0 0 1-2.543 2.543 2.542 2.542 0 0 1-2.539-2.543 2.539 2.539 0 0 1 2.54-2.539h2.542Zm0 0" vector-effect="non-scaling-stroke"/></g></svg>