<svg xmlns="http://www.w3.org/2000/svg" viewBox="0 0 192 192"><path d="M155.9 60.33V20.5h-19.71" fill="none" vector-effect="non-scaling-stroke"/><path d="M136.19 20.5a12.94 12.94 0 0 0-12.9 12.89v2.52C114.68 29.58 108.35 25 108.35 25c-9.14-7.27-17-5.62-24.15 0 0 0-55.1 40.81-60.82 46.19-8.87 8.34 1.34 20.91 12.07 20.91h4.8v63.64a16.06 16.06 0 0 0 16 16h80a16 16 0 0 0 16-16V92.1h4.84c10.74 0 19.68-13.32 12.08-20.92-2-2-6.95-6-13.27-10.85" fill="none" vector-effect="non-scaling-stroke"/><path d="M82.28 109.17a19.75 19.75 0 0 1 27.93 0M68.31 95.2a39.51 39.51 0 0 1 55.88 0" fill="none" vector-effect="non-scaling-stroke"/><circle cx="96.25" cy="123.14" r="1.23" fill="none" vector-effect="non-scaling-stroke"/><circle cx="96.25" cy="123.14" r=".33" fill="none" vector-effect="non-scaling-stroke"/></svg>