<svg xmlns="http://www.w3.org/2000/svg" viewBox="0 0 192 192"><path vector-effect="non-scaling-stroke" d="M52 28H28v24m0 88v24h24m88 0h24v-24m0-88V28h-24M58 52h20c3.3 0 6 2.7 6 6v20c0 3.3-2.7 6-6 6H58c-3.3 0-6-2.7-6-6V58c0-3.3 2.7-6 6-6zm0 56h20c3.3 0 6 2.7 6 6v20c0 3.3-2.7 6-6 6H58c-3.3 0-6-2.7-6-6v-20c0-3.3 2.7-6 6-6zm56 0h4c3.3 0 6 2.7 6 6v4c0 3.3-2.7 6-6 6h-4c-3.3 0-6-2.7-6-6v-4c0-3.3 2.7-6 6-6zm0-56h20c3.3 0 6 2.7 6 6v20c0 3.3-2.7 6-6 6h-20c-3.3 0-6-2.7-6-6V58c0-3.3 2.7-6 6-6z" fill="none"/></svg>