<svg xmlns="http://www.w3.org/2000/svg" viewBox="0 0 192 192"><path d="M84.46 85.57 68.9 76.79A43.81 43.81 0 0 1 56.47 65c-6.16-8.87-7.15-17.62-2.57-24.65 2.94-4.52 7.63-5.89 12.5-4.38a5.77 5.77 0 0 0 7.1-3.32c2-4.71 6-7.43 11.38-6.79 8.31 1 14.36 7.39 17.18 17.82a44.22 44.22 0 0 1 1 17.14l-3.3 17.58m7.72 15.6L125 97.23a43.57 43.57 0 0 0 17.09-1c10.4-2.83 16.77-8.89 17.77-17.22.64-5.36-2.07-9.44-6.77-11.42a5.81 5.81 0 0 1-3.31-7.11c1.51-4.89.14-9.58-4.37-12.53-7-4.6-15.73-3.6-24.58 2.57A44 44 0 0 0 109.08 63l-8.74 15.6m-15.88 6.97L67 82.23a44.35 44.35 0 0 0-17.09 1c-10.4 2.84-16.77 8.89-17.77 17.23-.64 5.36 2.07 9.44 6.77 11.41a5.83 5.83 0 0 1 3.28 7.13c-1.51 4.87-.14 9.57 4.37 12.54 7 4.58 15.73 3.6 24.58-2.59a43.46 43.46 0 0 0 11.77-12.47l8.74-15.59" fill="none" vector-effect="non-scaling-stroke"/><path d="M107.48 94S175 102.23 148 166.23" fill="none" vector-effect="non-scaling-stroke"/><path d="m92.16 101.12-3.3 17.59a44.2 44.2 0 0 0 1 17.14c2.82 10.43 8.87 16.83 17.18 17.83 5.35.64 9.41-2.09 11.38-6.79a5.77 5.77 0 0 1 7.1-3.32c4.87 1.52 9.56.13 12.5-4.39 4.58-7 3.59-15.78-2.57-24.65a44.09 44.09 0 0 0-12.45-11.8L107.46 94" fill="none" vector-effect="non-scaling-stroke"/></svg>