<svg xmlns="http://www.w3.org/2000/svg" viewBox="0 0 192 192"><path d="M28.65 93.69a15.4 15.4 0 0 1 3.2-7.69l.61-.69L47.54 70l16.35-16.58a6.42 6.42 0 0 1 4.53-2h.42A6.42 6.42 0 0 1 75.12 58v3.6a8.53 8.53 0 0 0 .19 1.6c.72 3.79 5 6.57 8.87 6.67 10.85.36 29.48 4.43 46.74 18 12.72 10 24.71 25 32.28 47.39a4 4 0 0 1-5.8 4.8c-3.38-1.91-6.66-4-10-5.86-19.31-11-42.26-14.49-64.24-13-4.8.3-7.48 3-8 6.92a6.37 6.37 0 0 0 0 1.07v3.92a6.56 6.56 0 0 1-11.23 4.51l-21.5-22.42-9.91-10.27a15.56 15.56 0 0 1-3.94-8.73v-.58a11.88 11.88 0 0 1 .07-1.93Z" fill="none" vector-effect="non-scaling-stroke"/></svg>