<svg xmlns="http://www.w3.org/2000/svg" viewBox="0 0 192 192"><g fill="none"><path vector-effect="non-scaling-stroke" d="M67.3 123.7h23.4m9.2-52 11.9 12m.1-24-12 12M76 59.7H53.9C35.2 59.7 20 74.9 20 93.6v18.1c0 6.6 5.4 12 12 12h12.7"/><path vector-effect="non-scaling-stroke" d="M76 59.7v64h56.7c2.2-6.2 9.1-9.5 15.3-7.3 3.4 1.2 6.1 3.9 7.3 7.3 9.3-.3 16.7-8 16.7-17.3V43.7H92c-8.8 0-16 7.2-16 16z"/><path vector-effect="non-scaling-stroke" d="M132 127.7c0 6.6 5.4 12 12 12s12-5.4 12-12c0-1.4-.2-2.7-.7-4-2.2-6.2-9.1-9.5-15.3-7.3-3.4 1.2-6.1 3.9-7.3 7.3-.5 1.3-.7 2.7-.7 4zm-88 0c0 6.6 5.4 12 12 12s12-5.4 12-12c0-1.4-.2-2.7-.7-4-2.2-6.2-9.1-9.5-15.3-7.3-3.4 1.2-6.1 3.9-7.3 7.3-.5 1.3-.7 2.7-.7 4zm60-23.9h28c8.9 0 16-7.2 16-16s-7.2-16-16-16h-28.7"/></g></svg>