<svg xmlns="http://www.w3.org/2000/svg" viewBox="0 0 24 24"><g fill="none"><path d="M8.348 6.441h11.14v8.664a3.838 3.838 0 0 1-3.836 3.84H8.348a3.838 3.838 0 0 1-3.836-3.84v-4.828a3.838 3.838 0 0 1 3.836-3.836Zm0 0" vector-effect="non-scaling-stroke"/><path d="M8.773 8.883h6.457a2.25 2.25 0 0 1 2.25 2.25v3.547a2.25 2.25 0 0 1-2.25 2.25H8.773a2.25 2.25 0 0 1-2.25-2.25v-3.547a2.25 2.25 0 0 1 2.25-2.25Zm.985 2.535v1.023m4.484-1.023v1.023" vector-effect="non-scaling-stroke"/><path d="M12.922 14.438a1.068 1.068 0 0 1-.922.59 1.068 1.068 0 0 1-.922-.59m8.41-3.5c1.106 0 2 .894 2 2 0 1.105-.894 2-2 2m-14.976-4c-1.106 0-2 .894-2 2 0 1.105.894 2 2 2m7.457-8.497c.031 0 0-2.5 0-2.5" vector-effect="non-scaling-stroke"/></g></svg>