<svg xmlns="http://www.w3.org/2000/svg" viewBox="0 0 192 192"><g fill="none"><path vector-effect="non-scaling-stroke" d="M96 15.3v21.5m0 118.3v21.6M15.3 96h21.5m118.3 0h21.6M39.1 38.8 54.3 54m83.7 83.6 15.2 15.3m-114.4.3L54 138m83.6-83.6 15.3-15.3M85.1 60.3c19.7 5.4 31.3 25.8 25.9 45.5-3.4 12.5-13.1 22.3-25.6 25.8"/><path vector-effect="non-scaling-stroke" d="M85.1 60.3c19.7 5.4 31.3 25.8 25.9 45.5-3.4 12.5-13.1 22.3-25.6 25.8l-2.6.8c20.1 7.4 42.5-2.9 49.8-23.1s-2.9-42.5-23.1-49.8c-8.5-3.1-17.8-3.2-26.4-.1l2 .9z"/><circle vector-effect="non-scaling-stroke" cx="96.2" cy="95.9" r="38.8"/></g></svg>