<svg xmlns="http://www.w3.org/2000/svg" viewBox="0 0 192 192"><g fill="none"><path vector-effect="non-scaling-stroke" d="m131.9 104.5-.3.8c-2.6 6-25.5 10.6-43.6 10.6-19.9 0-44-5.6-44-12.5 0-4.3 6.3-8.1 15.9-10.4h.1"/><path vector-effect="non-scaling-stroke" d="M132 104.4V131c-4.7 5.5-27 8.4-44 8.4s-39.3-4-44-9.5v-26.5m88 16.6c5 2.1 8 4.9 8 7.8"/><path vector-effect="non-scaling-stroke" d="M140 127.8v27.6c-4.7 5.5-27 8.4-44 8.4s-39.3-4-44-9.5v-20M140 67c5 2.1 8 4.9 8 7.8m0 0v23.6c-4.7 5.5-27 8.4-44 8.4s-39.3-4-44-9.5V78.4"/><path vector-effect="non-scaling-stroke" d="M140 47.5v27.6c-4.7 5.5-27 8.4-44 8.4s-39.3-4-44-9.5V47.5"/><ellipse cx="96" cy="47.5" rx="44" ry="12.5" vector-effect="non-scaling-stroke"/></g></svg>