<svg xmlns="http://www.w3.org/2000/svg" viewBox="0 0 192 192"><path vector-effect="non-scaling-stroke" d="m160.6 111.2-7.6-4.4c-6.1-3.8-8-11.8-4.3-17.9 1.1-1.8 2.5-3.2 4.3-4.3l7.6-4.4c6.3-3.8 8.2-11.4 4.4-17.1l-6.3-10.8c-3.8-6.3-11.4-8.2-17.1-4.4l-7.6 4.4c-8.2 5.1-19-1.3-19-10.8v-8.9c0-7-5.7-12.6-12.7-12.7H89.7c-7 0-12.6 5.7-12.7 12.7v8.2c0 9.5-10.8 15.8-19 10.8l-7.6-3.8c-5.8-3.5-13.3-1.7-16.9 4.1-.1.1-.1.2-.2.4L27 63.1c-3.2 6.2-1.3 13.8 4.4 17.7l7.6 4.4c8.2 4.4 8.2 17.1 0 21.5l-7.6 4.4c-6.3 3.8-8.2 11.4-4.4 17.1l6.3 10.8c3.8 6.3 11.4 8.2 17.1 4.4l7.6-3.8c8.2-5.1 19 1.3 19 10.8v8.9c0 7 5.7 12.6 12.7 12.7h12.7c7 0 12.6-5.7 12.7-12.7v-8.2c0-9.5 10.8-15.8 19-10.8l7.6 4.4c5.8 3.5 13.3 1.7 16.9-4.1.1-.1.1-.2.2-.4l6.3-10.8c3.1-6.8 1.2-14.4-4.5-18.2zM96 121.3c-14 0-25.3-11.3-25.3-25.3S82 70.7 96 70.7 121.3 82 121.3 96 110 121.3 96 121.3z" fill="none"/></svg>