<svg xmlns="http://www.w3.org/2000/svg" viewBox="0 0 192 192"><ellipse cx="81.3" cy="111.39" rx="39.88" ry="13.85" fill="none" vector-effect="non-scaling-stroke"/><path d="M121.17 111.39v26.14c-5.2 6.1-21 9.3-39.88 9.3s-34.68-4.43-39.88-10.53v-25.47" fill="none" vector-effect="non-scaling-stroke"/><path d="M50.28 141.85v17.72c5.21 6.09 21 10 39.88 10s34.68-2.77 39.87-8.86v-22.18s0-4.43-8.86-4.43m29.42-84.03v.39a9.72 9.72 0 0 1-2.47 5.44l-6.2 6.42-13.44 13.91a4.07 4.07 0 0 1-5.76.07 4.13 4.13 0 0 1-1.24-2.89V71a3.75 3.75 0 0 0 0-.67c-.32-2.44-2-4.14-5-4.33-13.75-.91-28.08 1.29-40.15 8.15-2.11 1.19-4.16 2.47-6.27 3.67a2.51 2.51 0 0 1-3.43-.87 2.46 2.46 0 0 1-.2-2.13c4.74-14 12.23-23.39 20.19-29.63 10.79-8.45 22.44-11 29.22-11.22h.65a5.15 5.15 0 0 0 4.9-4.17 6.78 6.78 0 0 0 .1-1v-2.29a4 4 0 0 1 3.92-4.05h.26a4 4 0 0 1 2.84 1.26l10.22 10.36 9.42 9.55.38.43a9.44 9.44 0 0 1 2 4.81 7.91 7.91 0 0 1 .06 1.2Z" fill="none" vector-effect="non-scaling-stroke"/></svg>