<svg xmlns="http://www.w3.org/2000/svg" viewBox="0 0 192 192"><path d="M108 56.16c1-7.6-15.55-19.35-19.52-24.49C83.89 25 54.58 29.34 48 28.16a12 12 0 0 0-12 12v96a12 12 0 0 0 12 12c82.7.93 55.35 7.48 60-92Z" fill="none" vector-effect="non-scaling-stroke"/><path d="M88 122.16a6 6 0 0 1-6 6H62a6 6 0 0 1-6-6v-32a6 6 0 0 1 6-6h20a6 6 0 0 1 6 6Zm-4 26.5c-1 7.68 3.67 15.59 12 15.5h48a12 12 0 0 0 12-12v-80c1.09-7.74-15.6-19.25-19.52-24.49-4.64-6.27-27.95-2.58-34.48-3.51" fill="none" vector-effect="non-scaling-stroke"/><path d="M110 100.16c35.84-.89 24-.8 26 38a6 6 0 0 1-6 6c-3.12-.6-21.83 1.42-24-1.47" fill="none" vector-effect="non-scaling-stroke"/></svg>