<svg xmlns="http://www.w3.org/2000/svg" viewBox="0 0 192 192"><g fill="none"><path vector-effect="non-scaling-stroke" d="M83.7 156h24m-24-20.9v23.6c-4.7 5.5-19 8.4-36 8.4s-31.3-4-36-9.5v-23"/><path vector-effect="non-scaling-stroke" d="M19.7 162.7v16c4.7 5.5 19 9 36 9s31.3-2.5 36-8v-20s0-4-8-4"/><path vector-effect="non-scaling-stroke" d="M52 122.2V37c0-9.5 7.8-17.3 17.3-17.3H140v134.7c0 9.6-7.7 17.3-17.3 17.3H92.9"/><path vector-effect="non-scaling-stroke" d="m113.4 91.6-15.8 15.7c-1 .9-2.5.9-3.5 0L78.6 91.6M96 54.4v51.7"/><ellipse cx="47.7" cy="135.1" rx="36" ry="12.5" vector-effect="non-scaling-stroke"/></g></svg>