<svg xmlns="http://www.w3.org/2000/svg" viewBox="0 0 192 192"><g fill="none"><circle vector-effect="non-scaling-stroke" cx="96" cy="96" r="76"/><path vector-effect="non-scaling-stroke" d="M44.5 112.6s4.5 4.1 12.8 4.1c10.3 0 11.2-7.8 11.3-9.1.1-1.6 1.4-7.3-10.5-11.4-11.3-3.9-11.4-9.2-11.3-11.8s2-9.1 12.4-8.2c4 .4 7.6 2.3 10.3 5.3m53.1 31.1s4.4 4.1 12.8 4.1c10.3 0 11.2-7.8 11.3-9.1.1-1.6 1.4-7.3-10.4-11.4-11.2-3.9-11.4-9.2-11.2-11.8s2-9.1 12.4-8.2c4 .4 7.6 2.3 10.3 5.3m-51.6 35c7.8 0 14.6-5.1 14.6-19.4s-5.9-21.2-14.6-21.2h.1c-8.7 0-14.6 6.9-14.6 21.2s6.7 19.4 14.5 19.4"/></g></svg>