<svg xmlns="http://www.w3.org/2000/svg" viewBox="0 0 192 192"><g fill="none"><path vector-effect="non-scaling-stroke" d="M18.8 76.5c-4.7-2.4-4.7-6.2 0-8.6l68.7-38.4c4.7-2.4 12.4-2.4 17.2 0l68.5 36.6c4.7 2.4 4.7 6.2 0 8.6l-68.4 39.5c-4.7 2.4-12.4 2.4-17.2 0L18.8 76.5z"/><path vector-effect="non-scaling-stroke" d="M44 163.7V93.2c0-1.6 1.1-3.3 3.5-4.5l36-20.6"/><path vector-effect="non-scaling-stroke" d="M148 89.3v44.1c0 4.3-.7 4.8-4.6 8.2s-23.5 22.1-47.4 22.1-44.1-18.7-47.7-22.1-4.3-3.9-4.3-8.2"/></g></svg>