<svg xmlns="http://www.w3.org/2000/svg" viewBox="0 0 24 24"><g fill="none"><path d="M5.258 18.691a9.501 9.501 0 0 1 .039-13.425c3.715-3.696 9.723-3.688 13.426.023 3.703 3.707 3.703 9.715 0 13.422" vector-effect="non-scaling-stroke"/><path d="M7.406 16.594a6.496 6.496 0 0 1-.008-9.188 6.496 6.496 0 0 1 9.188-.015 6.496 6.496 0 0 1 .023 9.187" vector-effect="non-scaling-stroke"/><path d="M9.527 14.473a3.501 3.501 0 0 1-.015-4.934 3.502 3.502 0 0 1 5.016 4.887" vector-effect="non-scaling-stroke"/></g></svg>