<svg xmlns="http://www.w3.org/2000/svg" viewBox="0 0 192 192"><g fill="none"><path vector-effect="non-scaling-stroke" d="M83.7 156.2h24m-24-20.4v23.6c-4.7 5.5-19 8.4-36 8.4s-31.3-4-36-9.5v-23"/><path vector-effect="non-scaling-stroke" d="M19.7 163.3v16c4.7 5.5 19 9 36 9s31.3-2.5 36-8v-20s0-4-8-4"/><path vector-effect="non-scaling-stroke" d="M52 122.5V37.3C52 27.7 59.7 20 69.3 20H140v134.7c0 9.6-7.7 17.3-17.3 17.3H92.9"/><path vector-effect="non-scaling-stroke" d="m78.6 71.1 15.8-15.7c1-1 2.5-1 3.5 0l15.7 15.7M96 108.3V56.7"/><ellipse cx="47.7" cy="135.8" rx="36" ry="12.5" vector-effect="non-scaling-stroke"/></g></svg>