<svg xmlns="http://www.w3.org/2000/svg" viewBox="0 0 192 192"><circle vector-effect="non-scaling-stroke" cx="71.9" cy="104" r="3.3" fill="none"/><circle vector-effect="non-scaling-stroke" cx="96.1" cy="104" r="3.3" fill="none"/><circle vector-effect="non-scaling-stroke" cx="120.1" cy="104" r="3.3" fill="none"/><path vector-effect="non-scaling-stroke" d="M89.4 144.8c-3.1 2.1-6.3 4-9.7 5.6-4.1 2-8.4 3.6-12.7 4.8-5.1 1.4-10.3 2.1-15.6 2.4-6.1.3-12.2-.2-18.1-1.4 0 0 19-11 19.6-22.4l-.1-.7c-15.5-10-25.4-25.2-25.4-42.2 0-30 30.7-54.4 68.6-54.4s68.6 24.3 68.6 54.4S133.9 145 96 145c-2.2 0-4.4-.1-6.6-.2z" fill="none"/></svg>