<svg xmlns="http://www.w3.org/2000/svg" viewBox="0 0 24 24"><g fill="none"><path d="M11.965 3.18a6.993 6.993 0 0 1 7 6.988v.004c0 4.644-6.969 10.648-6.969 10.648s-6.96-6.035-6.96-10.675A6.963 6.963 0 0 1 12 3.18" vector-effect="non-scaling-stroke"/><path d="M9.742 14.031a.258.258 0 0 1-.258.258.255.255 0 0 1-.257-.258.258.258 0 1 1 .516 0Zm0 0" vector-effect="non-scaling-stroke"/><path d="M9.563 14.031a.078.078 0 0 1-.079.078.078.078 0 0 1 0-.156c.043 0 .079.035.079.078Zm2.695 0a.255.255 0 0 1-.258.258.255.255 0 0 1-.258-.258c0-.144.113-.258.258-.258.145 0 .258.114.258.258Zm0 0" vector-effect="non-scaling-stroke"/><path d="M12.078 14.031a.078.078 0 0 1-.078.078.078.078 0 1 1 .078-.078Zm2.695 0a.255.255 0 0 1-.257.258.258.258 0 1 1 0-.516c.144 0 .257.114.257.258Zm0 0" vector-effect="non-scaling-stroke"/><path d="M14.594 14.031a.078.078 0 0 1-.078.078.078.078 0 0 1-.079-.078c0-.043.036-.078.079-.078.043 0 .078.035.078.078Zm0 0" vector-effect="non-scaling-stroke"/></g></svg>