<svg xmlns="http://www.w3.org/2000/svg" viewBox="0 0 192 192"><path fill="none" vector-effect="non-scaling-stroke" d="m80 163.19-5-32.38m21 32.38v-32.38m16 32.38 5-32.38M43.82 83.76h103M71 108.12l-3-24.24m28 24.24V83.88m25 24.24 3-24.24m-80.18-.12 8.73 67.14a16 16 0 0 0 15.69 12.86h55.91a16 16 0 0 0 15.7-12.86l8-67.14"/><path d="M73 61c0-7.73-3.27-14-11-14a14 14 0 0 0-14 13.58C42.23 62.3 36.49 67.83 38 74c1.83 7.5 3.17 9.83 9 10m98 0h1.07c7.73 0 9.93-6.27 9.93-14a14 14 0 0 0-9.61-13.29 11 11 0 1 0-18.7-11.58 10.14 10.14 0 0 0-.88 1.74A14 14 0 0 0 108 60" fill="none" vector-effect="non-scaling-stroke"/><path d="M126 43c-5.54-4.7-10.6-6.59-18.35-7a14 14 0 0 0-26 10.22A33.85 33.85 0 0 0 72 70c0 5 1.07 6.74 3 11" fill="none" vector-effect="non-scaling-stroke"/></svg>