<svg xmlns="http://www.w3.org/2000/svg" viewBox="0 0 192 192"><path fill="none" vector-effect="non-scaling-stroke" d="M56 155.73h80m-40 0v-16m-12-68v32m16-32v32m-64-68h136v88a16 16 0 0 1-16 16H36a16 16 0 0 1-16-16v-72a16 16 0 0 1 16-16Z"/><path d="M44 73.45v28.42a2.47 2.47 0 0 0 2.33 2.5 2.38 2.38 0 0 0 1.54-.49l.34-.24L66.4 90.12l.54-.4a2.38 2.38 0 0 0 .67-3.29 2.48 2.48 0 0 0-.69-.68l-.52-.39-18.12-13.48A2.47 2.47 0 0 0 44 73.65v.19" fill="none" vector-effect="non-scaling-stroke"/><circle cx="132" cy="87.73" r="16" fill="none" vector-effect="non-scaling-stroke"/></svg>