<svg xmlns="http://www.w3.org/2000/svg" viewBox="0 0 192 192"><path fill="none" vector-effect="non-scaling-stroke" d="m172 75.06-39-39M86.45 74.02v28.92m18.39-28.92v28.92M86.45 87.77h18.39M56 155.73h80m-40 0v-16M70.38 74v21.28a9.06 9.06 0 0 1-17.83.43V74M121 88.35V73.91c7.26 0 8.62-.08 11.3 1.09 5.13 2.24 7.52 7 7.52 13.35s-2.39 11.1-7.52 13.34c-2.68 1.17-4 1.09-11.3 1.09Z"/><path d="M36 35.73h136v88a16 16 0 0 1-16 16H36a16 16 0 0 1-16-16v-72a16 16 0 0 1 16-16Z" fill="none" vector-effect="non-scaling-stroke"/></svg>