<svg xmlns="http://www.w3.org/2000/svg" viewBox="0 0 192 192"><g fill="none"><path vector-effect="non-scaling-stroke" d="M30.8 99.8h130.5c1.5 0 2.8 1.2 2.8 2.8v53.2c0 8.8-7.2 16-16 16H44c-8.8 0-16-7.2-16-16v-53.2c0-1.6 1.2-2.8 2.8-2.8z"/><path vector-effect="non-scaling-stroke" d="M84.6 99.8h24v72h-24zm85.9-44.3c1.1 4.3-1.4 8.6-5.7 9.8L33.2 99.6c-4.3 1.1-8.6-1.4-9.8-5.7l-2-7.7c-1.1-4.3 1.4-8.6 5.7-9.8L166.5 40l4 15.5z"/><path vector-effect="non-scaling-stroke" d="m41.3 35.6 12-3.1C64 29.6 74.9 36 77.7 46.7l4 15.5-27.4 7.2c-10.7 2.8-21.6-3.6-24.4-14.3-2.2-8.6 2.9-17.3 11.4-19.5zm91 13.3-27.4 7.2-4-15.5c-2.8-10.7 3.6-21.6 14.3-24.4l12-3.1c8.6-2.2 17.3 2.9 19.5 11.4 2.8 10.7-3.6 21.6-14.4 24.4z"/><path vector-effect="non-scaling-stroke" d="M87.4 36.3c6.4-1.7 13 2.2 14.6 8.6l2.9 11.3-23.2 6.1L78.8 51c-1.7-6.5 2.1-13.1 8.6-14.7zm-5.637 26.018 23.222-6.062 6.063 23.222-23.223 6.063z"/></g></svg>