<svg xmlns="http://www.w3.org/2000/svg" viewBox="0 0 192 192"><g fill="none"><path vector-effect="non-scaling-stroke" d="M75.6 128.2c0 1.3-.1 2.5-.4 3.8-2.1 10.8-12.5 18-23.4 15.9-8.1-1.5-14.4-7.8-15.9-15.9-2.1-10.9 5.1-21.3 15.9-23.4 1.2-.2 2.5-.3 3.7-.3 11.1 0 20 8.9 20.1 19.9zm80.2 0c0 1.3-.1 2.5-.4 3.8-2.1 10.8-12.6 17.9-23.4 15.9-8-1.5-14.3-7.8-15.9-15.9-.2-1.2-.4-2.5-.4-3.8 0-11 9-20 20-20s20.1 9 20.1 20z"/><path vector-effect="non-scaling-stroke" d="M171.7 121.7c0 5.7-4.6 10.3-10.3 10.3h-5.9c.2-1.2.4-2.5.4-3.8 0-11-9-20-20-20s-20 9-20 20c0 1.3.1 2.5.4 3.8h-41c.2-1.2.4-2.5.4-3.8 0-11-9-20-20-20s-20 9-20 20c0 1.2.1 2.5.3 3.7-9.1-.6-16.2-8.1-16.2-17.3C19.7 97.8 33.4 84 50.4 84h72.2c33 0 49.1 16.9 49.1 37.7z"/><path vector-effect="non-scaling-stroke" d="M26.2 95.8C33.2 84 47.8 52 81.8 52c25 0 38 9.7 57.6 33.7"/></g></svg>