<svg xmlns="http://www.w3.org/2000/svg" viewBox="0 0 192 192"><path d="M114.59 93.72 88 76.84a2.67 2.67 0 0 0-4.06 2.27v34.36a2.67 2.67 0 0 0 4.06 2.26l26.63-17.47a2.67 2.67 0 0 0-.04-4.54Z" fill="none" vector-effect="non-scaling-stroke"/><path d="M44.24 36.7h119.63v103.4a16 16 0 0 1-16 16H44.24a16 16 0 0 1-16-16V52.7a16 16 0 0 1 16-16Zm99.81 0v119.4M48 36.7v119.4m96.05-95.86h19.82m-19.82 24h19.82m-19.82 24h19.82m-19.82 24h19.82m-135.63-72h19.81m-19.81 24h19.81m-19.81 24h19.81m-19.81 24h19.81" fill="none" vector-effect="non-scaling-stroke"/></svg>