<svg xmlns="http://www.w3.org/2000/svg" viewBox="0 0 24 24"><g fill="none"><path d="m19.68 15.531-1.008-.937-1.004.937m2.012 2.133-1.008.938-1.004-.938" vector-effect="non-scaling-stroke"/><path d="M16.977 11.543H21.5v8.055a1.84 1.84 0 0 1-1.836 1.84h-1.98a1.84 1.84 0 0 1-1.84-1.84v-6.926a1.14 1.14 0 0 1 1.125-1.125Zm0 0" vector-effect="non-scaling-stroke"/><path d="M15.844 19.031H7.25c-1.52 0-2.75-1.23-2.75-2.75V7.72c0-1.52 1.23-2.75 2.75-2.75h8.46c1.52 0 2.75 1.23 2.75 2.75v3.824" vector-effect="non-scaling-stroke"/><path d="M13.465 12c0 1.098-.89 1.984-1.985 1.984A1.986 1.986 0 1 1 13.465 12Zm0 0" vector-effect="non-scaling-stroke"/></g></svg>