<svg xmlns="http://www.w3.org/2000/svg" viewBox="0 0 192 192"><g fill="none"><path vector-effect="non-scaling-stroke" d="M35.5 77.2v83c0 6.6 5.4 12 12 12H160c6.6 0 12-5.4 12-12V38.5"/><path vector-effect="non-scaling-stroke" d="M59.5 169.9v-66c0-6.6 5.4-12 12-12H136c6.6 0 12 5.4 12 12v68M47.7 20.4H172v34.2c0 10.3-8 19-18.3 19.4-7.3.3-14.1-3.7-17.5-10.2-.6-1.2-2.1-1.6-3.3-1-.4.2-.8.6-1 1-4.9 9.3-16.4 12.8-25.7 7.9-3.4-1.8-6.2-4.6-8-8-.6-1.2-2.1-1.6-3.3-1-.4.2-.8.6-1 1C89 73 77.5 76.5 68.2 71.6c-3.4-1.8-6.1-4.5-7.9-7.9-.6-1.2-2.1-1.7-3.3-1-.4.2-.8.6-1 1C52.9 70 46.4 74 39.3 74h-.7c-10.3-.2-18.4-8.7-18.2-19 0-9.4 6.4-19.8 11.6-26.8 3.7-4.9 9.5-7.8 15.7-7.8zm70.8 115h11.9"/></g></svg>