<svg xmlns="http://www.w3.org/2000/svg" viewBox="0 0 192 192"><g fill="none"><path vector-effect="non-scaling-stroke" d="M34.6 85.4h-6.2c-4.4 0-8 3.6-8 8v24.3c0 4.4 3.6 8 8 8h6.2M158 85.4h6.2c4.4 0 8 3.6 8 8v24.3c0 4.4-3.6 8-8 8H158M76.3 61.3v-8c0-4.4 3.6-8 8-8h24c4.4 0 8 3.6 8 8v8"/><path vector-effect="non-scaling-stroke" d="M156.7 82.1v42c0 8.8-7.2 16-16 16h-8.6c-7.9.1-15.4-3.2-20.6-9.1-7.2-8.4-19.8-9.3-28.2-2.1-.7.6-1.4 1.3-2.1 2.1-5.2 5.9-12.7 9.2-20.6 9.1h-7.9c-8.8 0-16-7.2-16-16V81.6c.2-7.3 5.3-13.6 12.5-15.2l1.1-.2c30.9-5.8 62.5-5.8 93.4.2 7.5 1.3 13 7.9 13 15.7z"/></g></svg>