<svg xmlns="http://www.w3.org/2000/svg" viewBox="0 0 160 160"><path d="M120 78h-14a4 4 0 0 0 0 8h10v8.09a5.65 5.65 0 0 1-4.07 5.55c-4.15 1.15-9.95 1.87-14-1.22S92 89.24 92 80c0-10.67 3.9-17.51 11-19.26 5.84-1.45 11.2 1.11 12 2.63a4 4 0 1 0 7-3.74c-3-5.69-12.61-8.73-21-6.66-5.13 1.27-17 6.44-17 27 0 11.87 3.05 20.21 9.08 24.79a19.79 19.79 0 0 0 12.26 3.84 32.9 32.9 0 0 0 8.76-1.28A13.63 13.63 0 0 0 124 94V82a4 4 0 0 0-4-4z"/><path d="M79.2.5a80 80 0 1 0 80 80 80.09 80.09 0 0 0-80-80zm0 152a72 72 0 1 1 72-72 72.08 72.08 0 0 1-72 72z"/><path d="M69.4 100.6H45a11.76 11.76 0 0 1 3.43-5L65 81.26A15 15 0 0 0 71.3 69c0-9.16-8.29-16.9-18-16.9a17.2 17.2 0 0 0-15.2 8.32 4 4 0 1 0 6.83 4.17 9.32 9.32 0 0 1 8.27-4.49c6 0 10.1 4.69 10.1 8.9a7 7 0 0 1-2.63 5.5 3.94 3.94 0 0 0-.39.27L43.2 89.56a19.77 19.77 0 0 0-6.9 15 4 4 0 0 0 4 4h29.1a4 4 0 0 0 0-8z"/></svg>