<svg xmlns="http://www.w3.org/2000/svg" viewBox="0 0 160 160"><path d="M152.43 67.8a4 4 0 0 0-5.14 6.13c3.79 3.18 5.71 6.39 5.71 9.56 0 12.3-30 26-72.93 26h-3l8-8a4 4 0 0 0-5.66-5.66l-14.8 14.81a4 4 0 0 0-.73 1v.08a4 4 0 0 0-.21.58c0 .06 0 .13-.06.19a4 4 0 0 0-.08.52v.69a4 4 0 0 0 0 .46v.17a4 4 0 0 0 1.19 2.05L79.35 131a4 4 0 1 0 5.65-5.63l-7.85-7.85h2.91c21 0 40.87-3.22 55.85-9.07C152.09 102.12 161 93.27 161 83.5c0-5.57-3-10.99-8.57-15.7zM49.68 107c-25-4.31-42.51-14-42.51-23.48 0-5.9 6.8-12.07 18.65-16.93a4 4 0 1 0-3-7.4C7.56 65.41-.83 74-.83 83.5c0 14.12 18.83 26.14 49.15 31.36a4.07 4.07 0 0 0 .68.06 4 4 0 0 0 .67-7.94z"/><path d="M50.62 59.45a100.57 100.57 0 0 1 7.78-9.3 4 4 0 0 0-2.9-6.75H36a4 4 0 0 0 0 8h10.71c-2.64 3.28-5.38 7.14-6.47 10.13A4 4 0 0 0 44 66.9h2c1.76 0 7.5.47 7.5 6.5 0 4.25-2.94 7-7.42 7a16.16 16.16 0 0 1-8.17-2.4 4 4 0 0 0-4.2 6.81A24.22 24.22 0 0 0 46 88.4c9 0 15.5-6.31 15.5-15a13.89 13.89 0 0 0-10.88-13.95zM81.93 88.4h.22A12.7 12.7 0 0 0 91 84.72c3.05-3.09 4.39-7.67 4-13.59s-3.31-8.87-5.68-10.25c-3.63-2.12-8.19-2-12.06-1.2A16 16 0 0 1 90.2 51.4a4 4 0 0 0-.4-8C78.29 44 68.72 53.18 67 65.3v.13c-1.11 8.2.08 14.36 3.54 18.32 2.71 3.07 6.53 4.63 11.39 4.65zm-7.21-19.71c3.24-1.17 8.16-2.32 10.55-.92.38.22 1.53.9 1.74 3.9.24 3.44-.33 6-1.64 7.37a4.69 4.69 0 0 1-3.15 1.37H82c-2.52 0-4.29-.63-5.41-1.91-1.59-1.82-2.22-5.25-1.87-9.81zM114.5 88.4c9.56 0 15.5-8.7 15.5-22.7 0-13.58-6.23-22.7-15.5-22.7S99 52.12 99 65.7s6.23 22.7 15.5 22.7zm0-37.4c5.18 0 7.5 7.38 7.5 14.7 0 3.45-.54 14.7-7.5 14.7-5.15 0-7.5-7.62-7.5-14.7s2.35-14.7 7.5-14.7zm30 12.4a10 10 0 1 0-10-10 10 10 0 0 0 10 10zm0-12a2 2 0 1 1-2 2 2 2 0 0 1 2-2z"/></svg>