<svg xmlns="http://www.w3.org/2000/svg" viewBox="0 0 160 160"><path d="M120 94a4 4 0 0 0-.32-1.23L97.51 10v-.09A13.29 13.29 0 0 0 81.25.54l-35.88 9.61A13.28 13.28 0 0 0 36 26.43L58.45 110a13.28 13.28 0 0 0 16.21 9.36l35.82-9.6h.1A13.27 13.27 0 0 0 120 94zm-8.37 5.6a5.2 5.2 0 0 1-3.13 2.44h-.15l-35.75 9.63a5.28 5.28 0 0 1-6.43-3.67l-22.4-83.66a5.27 5.27 0 0 1 3.74-6.48l35.82-9.6a5.3 5.3 0 0 1 1.37-.18A5.28 5.28 0 0 1 89.78 12l22.34 83.56a5.23 5.23 0 0 1-.51 4.06z"/><path d="m95.67 90.35-17.91 4.8a4 4 0 1 0 2.07 7.73l17.91-4.8a4 4 0 1 0-2.07-7.73zm-3.22 36.59a4 4 0 1 0-7.71 2.13l2.81 10.17-14.26-8.56a4 4 0 0 0-5.06.79L56 145.38V132a4 4 0 0 0-4.6-4l-15.86 2.39L45.18 120a4 4 0 0 0-.5-5.87L31.65 104h12.43a4 4 0 0 0 0-8H19.94a4 4 0 0 0-2.45 7.16l18.85 14.58L22 133.37a4 4 0 0 0 3.52 6.63L48 136.65V156a4 4 0 0 0 7 2.64l17-19.39 20 12a4 4 0 0 0 5.91-4.49z"/></svg>