<svg xmlns="http://www.w3.org/2000/svg" viewBox="0 0 160 160"><path d="M143.93 62.88a17.75 17.75 0 0 0-10.28-14.53 4 4 0 1 0-3.3 7.29A9.69 9.69 0 0 1 136 64c-.14 4.78-21.85 16-56 16S24.14 68.82 24 64a9.69 9.69 0 0 1 5.65-8.4 4 4 0 1 0-3.3-7.29A17.74 17.74 0 0 0 16 63.3a3.92 3.92 0 0 0 0 .4v75c0 14 32.2 21.31 64 21.31s64-7.32 64-21.31V63.56a4 4 0 0 0-.07-.68zM80 88c21.63 0 44.32-4.73 56-12.49V98c0 4.81-21.81 14-56 14s-56-9.19-56-14V75.51C35.68 83.27 58.37 88 80 88zm41.31 59c-11 3.2-25.71 5-41.31 5s-30.27-1.76-41.31-5C26.64 143.54 24 139.83 24 138.69v-29.63C35.66 116.22 58.3 120 80 120s44.34-3.78 56-10.94v29.63c0 1.14-2.64 4.85-14.69 8.31z"/><path d="M80 64a4 4 0 0 0 4-4V28a4 4 0 0 0-8 0v32a4 4 0 0 0 4 4zm-28-8a4 4 0 0 0 4-4V20a4 4 0 0 0-8 0v32a4 4 0 0 0 4 4zm56 0a4 4 0 0 0 4-4V20a4 4 0 0 0-8 0v32a4 4 0 0 0 4 4zM52 12a4 4 0 0 0 4-4V4a4 4 0 0 0-8 0v4a4 4 0 0 0 4 4zm56 0a4 4 0 0 0 4-4V4a4 4 0 0 0-8 0v4a4 4 0 0 0 4 4zm-28 8a4 4 0 0 0 4-4v-4a4 4 0 0 0-8 0v4a4 4 0 0 0 4 4z"/></svg>