<svg xmlns="http://www.w3.org/2000/svg" viewBox="0 0 160 160"><path d="M136 16h-24V4a4 4 0 0 0-8 0v12H56V4a4 4 0 0 0-8 0v12H24A16 16 0 0 0 8 32v112a16 16 0 0 0 16 16h112a16 16 0 0 0 16-16V32a16 16 0 0 0-16-16zM24 24h24v4a4 4 0 0 0 8 0v-4h48v4a4 4 0 0 0 8 0v-4h24a8 8 0 0 1 8 8v16H16V32a8 8 0 0 1 8-8zm112 128H24a8 8 0 0 1-8-8V56h128v88a8 8 0 0 1-8 8z"/><path d="M52 96H28a4 4 0 0 0 0 8h24a4 4 0 0 0 0-8zm40 0H68a4 4 0 0 0 0 8h24a4 4 0 0 0 0-8zm40 0h-24a4 4 0 0 0 0 8h24a4 4 0 0 0 0-8zM52 72H28a4 4 0 0 0 0 8h24a4 4 0 0 0 0-8zm40 0H68a4 4 0 0 0 0 8h24a4 4 0 0 0 0-8zm40 0h-24a4 4 0 0 0 0 8h24a4 4 0 0 0 0-8zm-80 48H28a4 4 0 0 0 0 8h24a4 4 0 0 0 0-8zm40 0H68a4 4 0 0 0 0 8h24a4 4 0 0 0 0-8zm40 0h-24a4 4 0 0 0 0 8h24a4 4 0 0 0 0-8z"/></svg>