<svg xmlns="http://www.w3.org/2000/svg" viewBox="0 0 160 160"><path d="M124.75 27.29a21.95 21.95 0 0 0-31 0l-28.4 28.36a22 22 0 0 0 0 31l8.49 8.49a22 22 0 0 0 31 0l28.36-28.35a22 22 0 0 0 0-31zM99.22 89.52a14 14 0 0 1-19.73 0L71 81a13.95 13.95 0 0 1 0-19.7L82.36 50l28.22 28.21zm28.36-28.36-11.35 11.35L88 44.3l11.36-11.35a14 14 0 0 1 19.73 0l8.49 8.49a14 14 0 0 1 0 19.72z"/><path d="m154.83 29.17-24-24C125-.68 117.38-.36 111.24-.1c-1.11 0-2.2.09-3.28.1-6.47.06-13.23 3.12-18.58 8.43-1.63 1.65-40 40.48-46.6 51.59-2.68 4.52-8.64 15.68-6.1 21.57a39.48 39.48 0 0 0 9.17 12.67l1.38 1.4-46.06 46.07A4 4 0 0 0 0 144.58v11.28a4 4 0 0 0 4 4l17 .14a4 4 0 0 0 3.8-2.76l2.28-7 9.92-4.83a4 4 0 0 0 2-2.33l2.52-7.59 22.67-22.67 1.2 1.18A39.56 39.56 0 0 0 78 123.33a8.48 8.48 0 0 0 3.44.64c6 0 14.36-4.38 18.12-6.57 11.22-6.52 50.26-44.65 51.95-46.3A28.87 28.87 0 0 0 160 52.22v-.14c0-1 .06-2 .11-3 .27-6.22.61-13.97-5.28-19.91zM35.22 130.5a4 4 0 0 0-1 1.57L32 139l-9.87 4.84a4 4 0 0 0-2 2.35L18.15 152 8 151.88v-5.67l44.86-44.86 5.72 5.79zm116.89-81.76c0 1-.09 2.09-.11 3.11a20.85 20.85 0 0 1-6.07 13.56c-11.08 10.84-41.74 40.07-50.34 45.07-6.2 3.6-12.64 5.85-14.36 5.51a31.52 31.52 0 0 1-10-7.41l-19.78-20-.14-.13a31.44 31.44 0 0 1-7.32-10c-.33-1.71 2-8.14 5.64-14.31 5.06-8.53 34.49-39 45.38-50 1.82-1.81 6.73-6 13-6.08 1.16 0 2.34-.06 3.53-.11 5.51-.23 10.27-.43 13.6 2.94l24 24c3.43 3.37 3.22 8.22 2.97 13.85z"/></svg>