<svg xmlns="http://www.w3.org/2000/svg" viewBox="0 0 160 160"><path d="M127.18 66.46c-3.3-3.58-16.08-17.33-21.77-21.65C97.67 39 85.6 32 72 32h-8c-17.43 0-31.7 11.19-39.24 21.65-4 5.48-16.9 23.86-17 24s-.07.13-.11.19A35.81 35.81 0 0 0 0 100v8a12 12 0 0 0 12 12h5.38a24 24 0 0 0 45.25 0h34.75a24 24 0 0 0 45.25 0H148a12 12 0 0 0 12-12c0-18.63-14.17-35.42-32.82-41.54zm-95.93-8.12C33.45 55.28 45.4 40 64 40h8c11.38 0 21.83 6.09 28.58 11.19 3 2.3 8.63 7.93 13.35 12.86H36a35.88 35.88 0 0 0-9.76 1.36c2.05-2.96 3.89-5.53 5.01-7.07zM40 128a16 16 0 1 1 16-16 16 16 0 0 1-16 16zm80 0a16 16 0 1 1 16-16 16 16 0 0 1-16 16zm28-16h-4a24 24 0 0 0-48 0H64a24 24 0 0 0-48 0h-4a4 4 0 0 1-4-4v-8a28 28 0 0 1 28-28h76c18.88 0 40 15.4 40 36a4 4 0 0 1-4 4z"/></svg>