<svg xmlns="http://www.w3.org/2000/svg" viewBox="0 0 160 160"><path d="M154.88 74.27a40.18 40.18 0 0 0-7.36-8.8l-.18-.15a65.9 65.9 0 0 0-17.42-9.93c1-9.84-4.78-18.62-5.54-19.72a52.19 52.19 0 0 0-15-15.5 67.77 67.77 0 0 0-21.23-9.56 80.07 80.07 0 0 0-25.38-2.45 80.92 80.92 0 0 0-24.92 5.49A69.48 69.48 0 0 0 17.7 25.77 53.8 53.8 0 0 0 4.31 43.06 43.24 43.24 0 0 0 0 63.92 41.66 41.66 0 0 0 2.89 77.2a45.62 45.62 0 0 0 6.8 11.65 53.88 53.88 0 0 0 10 9.59c2.84 2.12 7.37 4.33 12.16 6.47-5.57 9.58-15.1 15.35-15.2 15.41a4 4 0 0 0 1.71 7.43q2.86.24 5.73.24a69.53 69.53 0 0 0 11.26-.92A67.27 67.27 0 0 0 47 124c.18-.07 4.53-1.64 16.14-8a41.66 41.66 0 0 0 10 9.56 53.65 53.65 0 0 0 16.9 7.67 63.25 63.25 0 0 0 19.29 2 57.34 57.34 0 0 0 6.1 3.44 55.09 55.09 0 0 0 9.52 3.58 52.64 52.64 0 0 0 11.63 1.75q1.2.05 2.41.05a54.86 54.86 0 0 0 11.09-1.13 4 4 0 0 0 1.2-7.38c-3.79-2.2-9.16-6.54-10.93-10.18a52.25 52.25 0 0 0 6.78-5.37 44.42 44.42 0 0 0 7.14-8.59 37.67 37.67 0 0 0 4.48-9.95 34.07 34.07 0 0 0-3.87-27.18zM44.33 116.5A59.33 59.33 0 0 1 34 119.18q-1.88.31-3.79.5A47.69 47.69 0 0 0 41 104.52a4 4 0 0 0-2.08-5.24l-.16-.07c-3.9-1.7-11.15-4.85-14.29-7.19a45.94 45.94 0 0 1-8.52-8.18 37.6 37.6 0 0 1-5.6-9.6A33.66 33.66 0 0 1 8 63.54a35.2 35.2 0 0 1 3.51-17 45.85 45.85 0 0 1 11.4-14.7 61.53 61.53 0 0 1 17.85-10.75 73 73 0 0 1 22.49-5 72.17 72.17 0 0 1 22.88 2.21 59.84 59.84 0 0 1 18.75 8.44A44.25 44.25 0 0 1 117.65 40l.12.18c0 .07 4.27 6.28 4.26 13a64.68 64.68 0 0 0-35.9 3.33 55.13 55.13 0 0 0-16 9.69A43.07 43.07 0 0 0 59.47 80a34.88 34.88 0 0 0-3.39 16.76 34.35 34.35 0 0 0 3 12.37c-10.7 5.87-14.72 7.35-14.75 7.37zm106.72-17.23a29.61 29.61 0 0 1-3.53 7.83 36.47 36.47 0 0 1-5.86 7.05 44.33 44.33 0 0 1-7.92 5.91 4 4 0 0 0-2 3.64c.22 4.71 3.48 9 7 12.35h-1.82a44.68 44.68 0 0 1-9.85-1.48 47 47 0 0 1-8.12-3 49.18 49.18 0 0 1-6.19-3.59 4 4 0 0 0-2.25-.69h-.87a55.24 55.24 0 0 1-17.56-1.68A45.71 45.71 0 0 1 77.67 119a33.76 33.76 0 0 1-9.72-10.08 26.36 26.36 0 0 1-3.87-12.5 26.84 26.84 0 0 1 2.6-12.88 35.12 35.12 0 0 1 8.71-11.29 47.18 47.18 0 0 1 13.69-8.3 55.94 55.94 0 0 1 17.31-3.83 55.3 55.3 0 0 1 17.5 1.67l1.51.44a4 4 0 0 0 .44.19 58 58 0 0 1 16.44 9.11 32.2 32.2 0 0 1 5.82 7 26 26 0 0 1 2.95 20.74z"/></svg>