<svg xmlns="http://www.w3.org/2000/svg" viewBox="0 0 144.1 160.124"><path d="M123.989 160.124c-3.943 0-7.88-.05-11.791-.15-6.728-.242-8.098-10.008-8.098-24.599v-110.9c0-16.819 2.438-24.085 8.152-24.297a911.527 911.527 0 0 1 23.6-.002c5.773 0 8.149 7.126 8.149 24.6.1 18.289.1 36.952.1 55v55c0 17.927-2.317 24.991-8.262 25.198-3.94.1-7.897.15-11.85.15Zm-10.341-8.117c6.872.157 13.851.156 20.757-.001.554-1.365 1.695-5.588 1.695-17.23v-55c0-18.038 0-36.69-.1-54.979 0-10.834-1.072-15.142-1.623-16.639a916.555 916.555 0 0 0-20.604.001c-.555 1.414-1.673 5.594-1.673 16.316v110.9c0 11.17 1.012 15.253 1.548 16.632ZM135.733 8.174l.067.001Zm-63.745 151.95c-3.942 0-7.88-.05-11.79-.15-6.728-.242-8.098-10.008-8.098-24.599v-110.9C52.1 7.656 54.538.39 60.251.178A911.527 911.527 0 0 1 83.852.176C89.624.176 92 7.302 92 24.776c.1 18.289.1 36.952.1 55v55c0 17.927-2.316 24.991-8.261 25.198-3.94.1-7.897.15-11.85.15Zm-10.34-8.117c6.872.156 13.853.156 20.757 0 .554-1.366 1.695-5.589 1.695-17.232v-55c0-18.037 0-36.69-.1-54.978 0-10.834-1.072-15.142-1.623-16.639a905.994 905.994 0 0 0-20.604.001c-.555 1.414-1.673 5.594-1.673 16.316v110.9c0 11.17 1.012 15.253 1.548 16.632ZM83.733 8.174l.067.001ZM20 160.024c-3.943 0-7.887-.05-11.802-.15C1.388 159.632 0 149.865 0 135.275v-110.9C0 7.343 2.482.075 8.3.075c7.745-.1 15.652-.1 23.451 0 5.767 0 8.25 7.357 8.25 24.6.1 18.39.1 37.052.1 55.1v55c0 15.02-1.42 25.04-8.338 25.1-3.903.1-7.833.15-11.763.15Zm-10.37-8.118c6.888.16 13.884.158 20.804-.002.55-1.381 1.666-5.606 1.666-17.129v-55c0-18.037 0-36.69-.1-55.078 0-10.855-1.126-15.16-1.694-16.639a918.33 918.33 0 0 0-20.651 0C9.1 9.498 8 13.702 8 24.375v110.9c0 11.138 1.087 15.266 1.63 16.631ZM31.633 8.074l.067.001Zm-23.221 0h-.06c.018-.016.04 0 .06 0Z"/></svg>