<svg xmlns="http://www.w3.org/2000/svg" viewBox="0 0 160 160"><path d="M132 40H28a4 4 0 0 0 0 8h104a4 4 0 0 0 0-8zm0 24H28a4 4 0 0 0 0 8h104a4 4 0 0 0 0-8zm0 24H28a4 4 0 0 0 0 8h104a4 4 0 0 0 0-8z"/><path d="M139.71 16H20.29A20.31 20.31 0 0 0 0 36.29v63.42A20.31 20.31 0 0 0 20.29 120H24v28a4 4 0 0 0 6.83 2.83L61.66 120h78.05A20.32 20.32 0 0 0 160 99.72V36.29A20.31 20.31 0 0 0 139.71 16zM152 99.72A12.31 12.31 0 0 1 139.71 112H60a4 4 0 0 0-2.83 1.17L32 138.34V116a4 4 0 0 0-4-4h-7.71A12.3 12.3 0 0 1 8 99.71V36.29A12.3 12.3 0 0 1 20.29 24h119.42A12.3 12.3 0 0 1 152 36.29z"/></svg>