<svg xmlns="http://www.w3.org/2000/svg" viewBox="0 0 32 32"><g fill="#FFF"><path d="M7.62 6.24c.06-.14.1-.28.18-.4 1.22-1.68 2.44-3.38 3.66-5.06.18-.24.42-.3.7-.3H23.9c.38 0 .64.14.86.44 1.16 1.6 2.32 3.2 3.48 4.78.34.48.34.74-.06 1.18-2.48 2.84-4.98 5.68-7.46 8.52-.68.78-1.36 1.54-2.04 2.32-.4.46-.86.46-1.26 0-2.36-2.7-4.74-5.42-7.12-8.14-.78-.9-1.58-1.8-2.36-2.7-.16-.18-.3-.36-.32-.64zm7.34.74c1.04 2.74 2.06 5.46 3.1 8.2 1.04-2.76 2.06-5.48 3.1-8.2h-6.2zm1.18 7.16s.02 0 .02-.02c-.02-.04-.02-.08-.04-.12-.86-2.3-1.74-4.6-2.6-6.9-.04-.12-.12-.14-.24-.14h-3.26c-.04 0-.08 0-.16.02 2.12 2.4 4.2 4.78 6.28 7.16zm10.12-7.18h-3.4c-.16 0-.22.04-.28.2-.74 2-1.5 3.98-2.26 5.98-.12.34-.24.66-.38 1l.02.02c2.1-2.4 4.18-4.78 6.3-7.2zm-5.5-1.38c-.92-1.12-1.8-2.2-2.7-3.3l-2.7 3.3h5.4zm-4.16-3.7h-3.54c.38.98.74 1.96 1.12 2.96.82-1 1.6-1.96 2.42-2.96zm6.48.02h-3.54c.82.98 1.6 1.96 2.42 2.94.38-1 .74-1.96 1.12-2.94zm3.36 3.68c-.72-1-1.44-1.96-2.14-2.94-.38 1-.74 1.96-1.12 2.94h3.26zm-14.6-2.94c-.72 1-1.42 1.96-2.14 2.94h3.24c-.36-.98-.72-1.94-1.1-2.94z"/><g transform="translate(.4 17)"><path d="M31 5.32c-.14-.94-.82-2.04-1.82-2.34-.86-.26-1.6.02-2.2.32-.34-.64-.96-1.1-1.74-1.22-1-.16-1.94.24-2.7.54-.12.06-.26.1-.38.16l-1.56.62c-.42.16-.62.62-.44 1.04.16.42.62.62 1.04.44l1.56-.62c.14-.06.28-.12.42-.16.62-.26 1.26-.54 1.82-.44.22.04.38.14.5.28L20.04 6.1c-.02-.58-.24-1.16-.64-1.68-.5-.62-1.38-.98-2.1-1.28-.12-.06-.24-.1-.34-.14l-4.44-1.96C7.48-1.52 3.98 1.7 3 2.76H1.02c-.44 0-.8.36-.8.8 0 .44.36.8.8.8h1.54v6.66H1.02c-.44 0-.8.36-.8.8 0 .44.36.8.8.8h3.14V3.84c.68-.78 3.46-3.52 7.64-1.38l4.5 1.98c.12.06.24.1.38.16.48.2 1.22.52 1.48.82.18.22.44.66.2 1.14-.04.08-.12.16-.2.24-.08.04-.16.08-.22.14-.26.14-.6.22-.92.22-.38.02-.78-.18-1.22-.4-.14-.06-.28-.14-.42-.2L12 5.04c-.4-.18-.88 0-1.06.4-.18.4 0 .88.4 1.06l3.38 1.52c.12.06.24.12.38.18.56.28 1.2.6 1.98.56.56-.02 1.24-.18 1.8-.52l.58-.2 7.34-2.9c.24-.1.46-.2.68-.3.58-.28.92-.44 1.28-.34.26.08.6.54.68 1.06.04.22.04.52-.18.66-.88.6-1.64.9-2.58 1.3-.22.1-.44.18-.68.28-.82.36-1.66.7-2.48 1.06-.84.36-1.68.72-2.52 1.06l-5.88 2.5c-1.72.62-2.86.06-2.92.02L6 9.4c-.4-.2-.88-.04-1.08.36-.2.4-.04.88.36 1.08l6.18 3.06c.04.02.84.44 2.08.44.62 0 1.34-.1 2.14-.38l5.94-2.54c.84-.36 1.68-.72 2.5-1.06.82-.36 1.66-.7 2.48-1.06.24-.1.46-.2.66-.28.98-.4 1.84-.76 2.86-1.46.7-.48 1.02-1.32.88-2.24z"/><circle cx="1.08" cy="8.78" r="1"/></g></g></svg>