<svg xmlns="http://www.w3.org/2000/svg" viewBox="0 0 160 160"><circle cx="76" cy="92" r="6" transform="rotate(-45 76.001 92.01)"/><path d="M76 72a19.87 19.87 0 0 0-14.14 5.86 4 4 0 0 0 5.66 5.66A11.92 11.92 0 0 1 76 80a11.92 11.92 0 0 1 8.49 3.52l5.65-5.66A19.87 19.87 0 0 0 76 72z"/><path d="M50.54 66.54a4 4 0 0 0 5.66 5.66 28 28 0 0 1 39.59 0 4 4 0 1 0 5.66-5.66 36 36 0 0 0-50.91 0z"/><path d="M127.25 66.53c-3.19-3.46-16.1-17.37-21.84-21.72C97.67 39 85.6 32 72 32h-8c-17.43 0-31.7 11.19-39.24 21.65-3.88 5.36-16.33 23-17 24A36 36 0 0 0 0 100v8a12 12 0 0 0 12 12h5.38a24 24 0 0 0 45.25 0h34.75a24 24 0 0 0 45.25 0H148a12 12 0 0 0 12-12c0-18.08-13.42-35-32.75-41.47zM40 128a16 16 0 1 1 16-16 16 16 0 0 1-16 16zm80 0a16 16 0 1 1 16-16 16 16 0 0 1-16 16zm28-16h-4a24 24 0 0 0-48 0H64a24 24 0 0 0-48 0h-4a4 4 0 0 1-4-4v-8a28 28 0 0 1 6.12-17.5l.08-.12.07-.08c.13-.18 13-18.52 17-24C33.45 55.28 45.4 40 64 40h8c11.38 0 21.83 6.09 28.58 11.19 5.84 4.44 21.31 21.34 21.47 21.51s.12.1.17.16a3.94 3.94 0 0 0 .32.29l.32.22.33.19a3.94 3.94 0 0 0 .4.17l.21.09C140.41 79 152 93.06 152 108a4 4 0 0 1-4 4z"/></svg>