<svg xmlns="http://www.w3.org/2000/svg" viewBox="0 0 160 160"><path d="m135.41 28.15-17-9.79a43.23 43.23 0 0 0-43.5.3l-1.37-.8a43.22 43.22 0 0 0-59 15.76l-9.76 17v.08a43.21 43.21 0 0 0 15.82 58.88l66.69 38.5 1.12.65a13.75 13.75 0 0 0 20.63-11 13.77 13.77 0 0 0 18.23-12.12A13.77 13.77 0 0 0 145.18 109a13.78 13.78 0 0 0 6.5-22.78 43.21 43.21 0 0 0-16.27-58.07zm11.26 70.46a5.79 5.79 0 0 1-7.66 2.24l-.23-.15-17-9.79h-.06L96.34 76.25a4 4 0 0 0-4 6.93l42.42 24.49.3.16a5.78 5.78 0 0 1-6.07 9.84L86.6 93.2a4 4 0 1 0-4 6.93l33.6 19.39c.09.06.16.13.26.19a5.8 5.8 0 0 1-5.82 10l-8.19-4.71-.25-.16-.14-.06-25.3-14.63a4 4 0 1 0-4 6.93l25.69 14.85a5.78 5.78 0 0 1-6 9.85l-66.69-38.5-1.12-.65a35.2 35.2 0 0 1-12.88-48l9.77-17a35.2 35.2 0 0 1 46.3-13.77 42.74 42.74 0 0 0-8.26 10.24L33.2 77.94a4 4 0 0 0 2 5.81l7 2.63a15.91 15.91 0 0 0 16.49-3.24l.22-.22L74 66.56c10.53 3.63 18.49 1.26 25-2.12l45.54 26.28a5.8 5.8 0 0 1 2.13 7.9zM145 81.75l-44-25.36a4 4 0 0 0-4 0c-5.54 3.16-12.31 6.17-22.59 1.79a4 4 0 0 0-4.51 1L53.18 77.36A8 8 0 0 1 45 78.89l-2.5-.94 23.96-39.79a35.22 35.22 0 0 1 48-12.87l17 9.79A35.2 35.2 0 0 1 145 81.75z"/></svg>