<svg xmlns="http://www.w3.org/2000/svg" viewBox="0 0 160 160"><path d="m60.896 112-.805 8.346c-.371 3.834-2.967 7.078-6.554 7.554l-.917.06H35.4c-3.749 0-6.604-2.927-7.334-6.663l-.137-.95-.817-8.347H16C7.565 112 .655 105.473.044 97.194L0 96V16C0 7.565 6.527.655 14.806.044L16 0h128c8.435 0 15.345 6.527 15.956 14.806L160 16v80c0 8.435-6.527 15.345-14.806 15.956L144 112c0 8.435-6.527 15.345-14.806 15.956L128 128H96c-8.435 0-15.345-6.527-15.956-14.806L80 112H60.896ZM128 24H96a8.001 8.001 0 0 0-7.946 7.067L88 32v80a8.001 8.001 0 0 0 7.067 7.946L96 120h32a8.001 8.001 0 0 0 7.946-7.067L136 112V32a8.001 8.001 0 0 0-7.067-7.946L128 24Zm-74.344 79.92-.416.02-18.87-.004 1.522 15.645c.023.246.023.334-.09.364l-.402.015h17.22c-.418 0-.506.006-.505-.195l1.541-15.845ZM120 104a4 4 0 0 1 .719 7.936L120 112h-16a4 4 0 0 1-.719-7.936L104 104h16Zm24-96H16a8.001 8.001 0 0 0-7.946 7.067L8 16v80a8.001 8.001 0 0 0 7.067 7.946L16 104h10.336l-.208-2.141c-5.702-2.94-9.709-8.708-10.165-15.45l-.043-1.289V67.05c0-7.356 4.22-13.726 10.371-16.822l1.778-18.387c.373-3.814 2.943-7.02 6.51-7.492l.911-.059h17c3.728 0 6.57 2.923 7.287 6.616l.134.938 1.778 18.384c5.74 2.89 9.8 8.631 10.315 15.365l.056 1.457v18.07c0 7.274-4.127 13.585-10.168 16.718L61.68 104H80V32c0-8.435 6.527-15.345 14.806-15.956L96 16h32c8.435 0 15.345 6.527 15.956 14.806L144 32v72a8.001 8.001 0 0 0 7.946-7.067L152 96V16a8.001 8.001 0 0 0-7.067-7.946L144 8ZM53.24 56.23h-18.5c-5.624 0-10.246 4.291-10.77 9.778l-.05 1.042v18.07c0 5.624 4.291 10.246 9.778 10.77l1.042.05h18.5c5.624 0 10.246-4.291 10.77-9.778l.05-1.042V67.05c0-5.624-4.291-10.246-9.778-10.77l-1.042-.05Zm-9.25 4.02a4.001 4.001 0 0 1 3.936 3.281l.064.719-.006 9.798L56 74.05a4.001 4.001 0 0 1 3.936 3.281l.064.719a4.001 4.001 0 0 1-3.281 3.936L56 82.05H43.99a4.001 4.001 0 0 1-3.936-3.281l-.064-.719v-13.8a4 4 0 0 1 4-4Zm8.068-27.954-16.301-.008c.213 0 .277.018.284.15L34.52 48.233h18.952l-1.525-15.63c-.02-.215-.013-.285.111-.306Z"/></svg>