<svg xmlns="http://www.w3.org/2000/svg" viewBox="0 0 160 160"><path d="M119.95 69.54a16 16 0 1 0 8 0A30.07 30.07 0 0 0 98 41h-.11A30.07 30.07 0 0 0 68 70.92V120a16 16 0 0 1-32 0V95.92c7.63-1 19.18-5.49 22.15-23.1l4.92-27c2.21-14-3.43-24.93-14-27.52A5.42 5.42 0 0 0 44.8 16h-4.6a5.5 5.5 0 0 0 0 11h4.6a5.36 5.36 0 0 0 2.58-.81c7.53 2 8.93 11.09 7.79 18.34l-4.9 26.91c-2.33 13.82-11.16 16.74-18.18 16.74H32c-12.76 0-17-9.19-18.35-16.91l-5-26.8c-1.2-7.39.14-16.47 7.79-18.39a5.36 5.36 0 0 0 2.76.92h4.6a5.5 5.5 0 0 0 0-11h-4.6a5.43 5.43 0 0 0-4.09 2.17C4.17 20.5-1.59 31.53.8 45.85l5 26.83C8.11 86.12 16.12 94.38 28 95.9V120a24 24 0 0 0 48 0V70.93a22 22 0 0 1 43.95-1.39zM132 85a8 8 0 1 1-8-8 8 8 0 0 1 8 8zM42 21.5a2.56 2.56 0 0 1 .5-1.45 2.34 2.34 0 0 1 0 2.89 2.56 2.56 0 0 1-.5-1.44zm-20 0a2.56 2.56 0 0 1-.5 1.45 2.34 2.34 0 0 1 0-2.89 2.56 2.56 0 0 1 .5 1.44zM132 120h-16a4 4 0 0 0 0 8h16a4 4 0 0 0 0-8z"/><path d="M144 16h-40a16 16 0 0 0-16 16 4 4 0 0 0 8 0 8 8 0 0 1 8-8h40a8 8 0 0 1 8 8v96a8 8 0 0 1-8 8h-40a8 8 0 0 1-8-8V60a4 4 0 0 0-8 0v68a16 16 0 0 0 16 16h40a16 16 0 0 0 16-16V32a16 16 0 0 0-16-16z"/></svg>