<svg xmlns="http://www.w3.org/2000/svg" viewBox="0 0 160 160"><path d="M114.66 73.4h-12.6a4 4 0 0 0-4 4v25.2a4 4 0 1 0 8 0V94h6.5a4 4 0 1 0 0-8h-6.5v-4.6h8.6a4 4 0 1 0 0-8zM87.3 77.35c-5.72-5-13.76-4-14.66-3.92a4 4 0 0 0-3.45 4v25.2a4 4 0 0 0 3.45 4 19.39 19.39 0 0 0 2.52.15c3 0 8.15-.6 12.13-4.07 3.4-3 5.12-7.22 5.12-12.65s-1.71-9.74-5.11-12.71zm-5.23 19.24a9.38 9.38 0 0 1-4.88 2V81.44A9.25 9.25 0 0 1 82 83.38c1.6 1.39 2.38 3.56 2.38 6.62s-.73 5.2-2.31 6.59zM52.09 73.4h-7.25a4 4 0 0 0-4 4v25.2a4 4 0 1 0 8 0v-6.5h3.25a11.67 11.67 0 0 0 8.12-2.87 11.09 11.09 0 0 0 3.33-8.48 11.09 11.09 0 0 0-3.33-8.48 11.66 11.66 0 0 0-8.12-2.87zm2.69 14a3.69 3.69 0 0 1-2.3.76h-3.64V81.4h3.58a3.75 3.75 0 0 1 2.36.75 4.85 4.85 0 0 1 0 5.21z"/><path d="M135.92 35.21a3.93 3.93 0 0 0-.15-.5c0-.08 0-.17-.08-.25a4 4 0 0 0-.27-.51c0-.06-.06-.12-.09-.17a4 4 0 0 0-.49-.6l-32-32a4 4 0 0 0-.59-.49L102 .57a4 4 0 0 0-.48-.26l-.27-.08a3.91 3.91 0 0 0-.48-.15A4 4 0 0 0 100 0H40a16 16 0 0 0-16 16v128a16 16 0 0 0 16 16h80a16 16 0 0 0 16-16V36a4 4 0 0 0-.08-.79zM104 13.66 122.34 32H104zM120 152H40a8 8 0 0 1-8-8V16a8 8 0 0 1 8-8h56v28a4 4 0 0 0 4 4h28v104a8 8 0 0 1-8 8z"/></svg>