<svg xmlns="http://www.w3.org/2000/svg" viewBox="0 0 160 160"><path d="M46.76 74.19h-5.1a4 4 0 0 0-4 4v23.62a4 4 0 0 0 4 4h5c.29 0 .72.06 1.26.06a13.79 13.79 0 0 0 9-3.21c3.28-2.84 4.95-7.19 4.95-12.91 0-5.18-1.55-9.21-4.61-12a14.84 14.84 0 0 0-10.5-3.56zm5 22.38a6.16 6.16 0 0 1-4.29 1.28 4 4 0 0 0-.57 0h-1.24V82.19h1.59A7 7 0 0 1 52 83.71c1.29 1.2 1.95 3.23 1.95 6-.04 2.29-.41 5.29-2.18 6.86zM79.78 73.4c-7.7 0-14 7.45-14 16.6s6.27 16.6 14 16.6 14-7.45 14-16.6-6.3-16.6-14-16.6zm0 25.2c-3.24 0-6-3.94-6-8.6s2.73-8.6 6-8.6 6 3.94 6 8.6-2.78 8.6-6 8.6zm31.76-17.2a5.14 5.14 0 0 1 4 2.21 4 4 0 1 0 6.59-4.54 13.17 13.17 0 0 0-10.42-5.67h-.12c-7.72 0-14 7.45-14 16.6s6.28 16.6 14.08 16.6a12.84 12.84 0 0 0 9.24-4.2A4 4 0 0 0 115 97a4.78 4.78 0 0 1-3.39 1.57c-3.25 0-6-3.94-6-8.6s2.7-8.52 5.93-8.57z"/><path d="M135.92 35.21a3.93 3.93 0 0 0-.15-.5c0-.08 0-.17-.08-.25a4 4 0 0 0-.27-.51c0-.06-.06-.12-.09-.17a4 4 0 0 0-.49-.6l-32-32a4 4 0 0 0-.59-.49L102 .57a4 4 0 0 0-.48-.26l-.27-.08a3.91 3.91 0 0 0-.48-.15A4 4 0 0 0 100 0H40a16 16 0 0 0-16 16v128a16 16 0 0 0 16 16h80a16 16 0 0 0 16-16V36a4 4 0 0 0-.08-.79zM104 13.66 122.34 32H104zM120 152H40a8 8 0 0 1-8-8V16a8 8 0 0 1 8-8h56v28a4 4 0 0 0 4 4h28v104a8 8 0 0 1-8 8z"/></svg>