<svg xmlns="http://www.w3.org/2000/svg" viewBox="0 0 160 160"><path d="M79.24 73.4a4 4 0 0 0-4 4v25.2a4 4 0 1 0 8 0V77.4a4 4 0 0 0-4-4zm23.27 0h-7.25a4 4 0 0 0-4 4v25.2a4 4 0 1 0 8 0v-6.5h3.25a11.68 11.68 0 0 0 8.12-2.87 11.09 11.09 0 0 0 3.37-8.48 11.09 11.09 0 0 0-3.33-8.48 11.66 11.66 0 0 0-8.16-2.87zm2.69 14a3.82 3.82 0 0 1-2.3.76h-3.64V81.4h3.58a3.73 3.73 0 0 1 2.36.75 4.85 4.85 0 0 1 0 5.21zM65.33 98.6H56l12.65-19a4 4 0 0 0-3.33-6.22H48.53a4 4 0 1 0 0 8h9.33l-12.65 19a4 4 0 0 0 3.33 6.22h16.8a4 4 0 0 0 0-8z"/><path d="M135.92 35.21a3.93 3.93 0 0 0-.15-.5c0-.08 0-.17-.08-.25a4 4 0 0 0-.27-.51c0-.06-.06-.12-.09-.17a4 4 0 0 0-.49-.6l-32-32a4 4 0 0 0-.59-.49L102 .57a4 4 0 0 0-.48-.26l-.27-.08a3.91 3.91 0 0 0-.48-.15A4 4 0 0 0 100 0H40a16 16 0 0 0-16 16v128a16 16 0 0 0 16 16h80a16 16 0 0 0 16-16V36a4 4 0 0 0-.08-.79zM104 13.66 122.34 32H104zM120 152H40a8 8 0 0 1-8-8V16a8 8 0 0 1 8-8h56v28a4 4 0 0 0 4 4h28v104a8 8 0 0 1-8 8z"/></svg>