<svg xmlns="http://www.w3.org/2000/svg" viewBox="0 0 160 160"><path d="M142 36.17c-5.43-3.35-11.94-5.26-20.46-6h-.24a82 82 0 0 0-8.56.22A47.67 47.67 0 0 0 72.35.13a46.68 46.68 0 0 0-39.08 16.53 48.41 48.41 0 0 0-9.72 19c-.26 1-.63 2.91-.92 4.43a37.26 37.26 0 0 0-11 6.79C.14 57.18-3.29 75.17 3.46 89.69 9.77 103.24 22.8 112 36.66 112h21a4 4 0 0 0 0-8h-21c-10.6 0-21-7.11-25.94-17.69C5.41 74.91 8 60.85 16.93 52.89a29.3 29.3 0 0 1 10.45-6 4 4 0 0 0 2.7-3.1c.23-1.28.9-4.88 1.22-6.15a40.36 40.36 0 0 1 8.1-15.87A38.62 38.62 0 0 1 71.71 8.1a39.68 39.68 0 0 1 34.45 27.75 4 4 0 0 0 4.29 2.78 74.4 74.4 0 0 1 10.49-.49c7.18.64 12.53 2.17 16.84 4.83 9.5 5.86 15.29 18.45 14.07 30.62a34.38 34.38 0 0 1-19.92 27.74c-6.48 2.86-23.44 2.89-29.42 2.66a4 4 0 0 0-.31 8c.67 0 2.82.1 5.77.1 7.59 0 20.49-.48 27.23-3.45a42.42 42.42 0 0 0 24.6-34.24c1.54-15.35-5.63-30.71-17.8-38.23z"/><path d="M103.07 125.28 84 145.81V72a4 4 0 0 0-8 0v73.81l-19.07-20.53a4 4 0 1 0-5.86 5.44l26 28h.05a4 4 0 0 0 .38.33c.08.06.15.13.23.19a4 4 0 0 0 .5.28l.2.11a4 4 0 0 0 .67.21h.09a4 4 0 0 0 1.63 0h.1a4 4 0 0 0 .67-.21l.2-.11a4 4 0 0 0 .49-.27c.08-.06.16-.13.23-.19a4 4 0 0 0 .37-.32h.05l26-28a4 4 0 0 0-5.86-5.44z"/></svg>