<svg xmlns="http://www.w3.org/2000/svg" viewBox="0 0 160 160"><path d="M140 120a11.85 11.85 0 0 0-4.43.86A12 12 0 0 0 124 112a11.85 11.85 0 0 0-4.43.86A11.95 11.95 0 0 0 104 104.7V84a12 12 0 0 0-24 0v44a16 16 0 0 0-16 16v12a4 4 0 0 0 8 0v-12a8 8 0 0 1 8-8v12a4 4 0 0 0 8 0V84a4 4 0 0 1 8 0v40a4 4 0 0 0 8 0v-8a4 4 0 0 1 8 0v8a4 4 0 0 0 8 0 4 4 0 0 1 8 0v8a4 4 0 0 0 8 0 4 4 0 0 1 8 0v24a4 4 0 0 0 8 0v-24a12 12 0 0 0-12-12zM21.66 52H44a4 4 0 0 0 0-8H21.66l5.17-5.17a4 4 0 0 0-5.66-5.66l-12 12a4.89 4.89 0 0 0-.46.56 3.41 3.41 0 0 0-.17.33 2.47 2.47 0 0 0-.19.36 3.38 3.38 0 0 0-.13.42 1.8 1.8 0 0 0-.1.33 4.09 4.09 0 0 0 0 1.56 1.8 1.8 0 0 0 .1.33 3.38 3.38 0 0 0 .13.42 2.47 2.47 0 0 0 .19.36 3.41 3.41 0 0 0 .17.33 4.89 4.89 0 0 0 .46.56l12 12a4 4 0 0 0 5.66-5.66zm25.17-33.17L52 13.66V36a4 4 0 0 0 8 0V13.66l5.17 5.17a4 4 0 0 0 5.66-5.66l-12-12a4.89 4.89 0 0 0-.56-.46L57.91.5c-.13-.06-.25-.14-.38-.19a2.67 2.67 0 0 0-.4-.13 3.57 3.57 0 0 0-.35-.1 3.61 3.61 0 0 0-.73-.08H56a3.61 3.61 0 0 0-.73.07 3.57 3.57 0 0 0-.35.1 2.67 2.67 0 0 0-.4.13c-.13 0-.25.13-.38.19l-.31.17a4.89 4.89 0 0 0-.56.46l-12 12a4 4 0 0 0 5.66 5.66zM90.34 44H68a4 4 0 0 0 0 8h22.34l-5.17 5.17a4 4 0 0 0 5.66 5.66l12-12a4.92 4.92 0 0 0 .5-.61c.06-.1.11-.21.16-.31a2.75 2.75 0 0 0 .2-.38 2.8 2.8 0 0 0 .13-.41 3.37 3.37 0 0 0 .1-.34 4.09 4.09 0 0 0 0-1.56 3.37 3.37 0 0 0-.1-.34 2.8 2.8 0 0 0-.13-.41 2.75 2.75 0 0 0-.2-.38c0-.1-.1-.21-.16-.31a4.92 4.92 0 0 0-.5-.61l-12-12a4 4 0 0 0-5.66 5.66zM70.83 82.83a4 4 0 0 0-5.66-5.66L60 82.34V60a4 4 0 0 0-8 0v22.34l-5.17-5.17a4 4 0 0 0-5.66 5.66l12 12a4.92 4.92 0 0 0 .61.5l.31.17c.13.06.25.14.38.19a2.8 2.8 0 0 0 .41.13 3.37 3.37 0 0 0 .34.1 3.84 3.84 0 0 0 1.56 0 3.37 3.37 0 0 0 .34-.1 2.8 2.8 0 0 0 .41-.13c.13 0 .25-.13.38-.19l.31-.17a4.92 4.92 0 0 0 .61-.5z"/></svg>