<svg xmlns="http://www.w3.org/2000/svg" viewBox="0 0 160 160"><path d="M158.39 55.63a6.29 6.29 0 0 0-4.63-2.91h-.12a288.79 288.79 0 0 1-65.83-13.36L77.21 5.59a9.4 9.4 0 0 0-4.64-5.85 5.75 5.75 0 0 0-5-.23l-.15.07A219.72 219.72 0 0 1 5.3 18.24a5.37 5.37 0 0 0-2 .67c-2.69 1.54-4 5.24-3.07 9 0 .08 0 .16.06.24l10 33.37c2.58 8.57 9.28 16.77 19.93 24.39A120.49 120.49 0 0 0 48.5 96.36l.19.08c.64 14.82 7.77 32.17 21.26 51.66a25.28 25.28 0 0 0 33 7.79c25.63-14.07 41.56-30.08 46.07-46.3v-.15l10.62-45a11 11 0 0 0-1.25-8.81zM34.91 79.38C25.76 72.84 20.08 66.06 18 59.22L8 26v-.07A227.74 227.74 0 0 0 69.42 7.49a1.3 1.3 0 0 1 .06.17l.06.22L78.4 36.1c-2.63-1-5.25-2-7.85-3a5.88 5.88 0 0 0-2.22-.44c-3.5 0-6.85 3-8.16 7.32q0 .15-.08.31L49.73 88.06a112.37 112.37 0 0 1-14.82-8.68zm117-17.09v.18l-10.62 45.05c-3.95 14.07-18.53 28.37-42.19 41.35a17.3 17.3 0 0 1-22.57-5.33c-13.1-18.93-20-36-19.89-49.52l11.23-51.84a3.91 3.91 0 0 1 .67-1.26 296.78 296.78 0 0 0 83.39 19.67 3 3 0 0 1 .01 1.7z"/><path d="M109.39 120.48s-4.63 4-15 1.44-13-8.42-13.16-8.78a4 4 0 0 0-7.46 2.86c.15.41 3.82 10 18.7 13.72a39.62 39.62 0 0 0 8.83 1c4.64 0 10.11-.93 13.74-4.56a4 4 0 0 0-5.65-5.66zM79.47 81.85h8.94a4 4 0 1 0 0-8h-8.94a4 4 0 1 0 0 8zm41.38.57a4 4 0 1 0-5.66 5.65l6.32 6.33a4 4 0 1 0 5.66-5.65z"/></svg>