<svg xmlns="http://www.w3.org/2000/svg" viewBox="0 0 160 160"><path d="M59.32 32a28 28 0 1 0 28 28 28 28 0 0 0-28-28zm0 48a20 20 0 1 1 20-20 20 20 0 0 1-20 20z"/><path d="M59.3 8a49.68 49.68 0 0 0-36.4 15.34A53 53 0 0 0 8.58 60.18c0 38.26 45.86 88.4 47.81 90.51a4 4 0 0 0 2.94 1.31h.06a4 4 0 0 0 3-1.37c.43-.49 10.47-12 13.79-16.09C86.34 122 110 89.74 110 61c0-29.74-22.24-53-50.7-53zM70 129.45c-2.14 2.61-7.32 8.62-10.65 12.46C49.17 130.15 16.58 90 16.58 60.18 16.58 35 34.95 16 59.3 16 83.27 16 102 35.75 102 61c0 8.71-3.08 32.84-32 68.45zm76.12-88.58a4 4 0 0 0-6.73 4.33 27.45 27.45 0 0 1 0 29.67 4 4 0 0 0 6.73 4.33 35.47 35.47 0 0 0 0-38.33zm-23.54 3.97a4 4 0 0 0-.8 5.6 16.08 16.08 0 0 1 0 19.2 4 4 0 0 0 6.4 4.8 24.13 24.13 0 0 0 0-28.8 4 4 0 0 0-5.6-.8z"/></svg>