<svg xmlns="http://www.w3.org/2000/svg" viewBox="0 0 160 160"><path d="m107.54 32.06-2.87-23.29A10 10 0 0 0 94.78 0H65.37a10.05 10.05 0 0 0-10 8.76l-2.91 23.3A22 22 0 0 0 32 54v52a22 22 0 0 0 20.46 21.94l2.91 23.29a10 10 0 0 0 9.89 8.77h29.49a10 10 0 0 0 9.92-8.77l2.87-23.29A22 22 0 0 0 128 106V54a22 22 0 0 0-20.46-21.94zM65.32 8h29.43a2 2 0 0 1 2 1.75L99.48 32H60.53l2.78-22.25A2 2 0 0 1 65.32 8zM94.7 152H65.29a2 2 0 0 1-2-1.76L60.53 128h38.95l-2.75 22.25A2 2 0 0 1 94.7 152zm25.3-46a14 14 0 0 1-14 14H54a14 14 0 0 1-14-14V54a14 14 0 0 1 14-14h52a14 14 0 0 1 14 14z"/><path d="M89.4 56a14.35 14.35 0 0 0-9.15 3.35A14.82 14.82 0 0 0 70.89 56a15.23 15.23 0 0 0-11.08 4.8A13.75 13.75 0 0 0 56 71.2c1.09 15.67 20.66 31.28 21.49 31.94a4 4 0 0 0 5 0C103.78 86.21 104.12 73.32 104 71c-.07-8.27-6.59-15-14.6-15zM80 94.79c-5.79-5.17-15.42-15.48-16-24.14a5.83 5.83 0 0 1 1.64-4.38A7.2 7.2 0 0 1 70.89 64a6.8 6.8 0 0 1 5.55 2.89 6.94 6.94 0 0 1 1 2 4 4 0 0 0 7.65-2.34c-.06-.19-.12-.38-.18-.56a6.34 6.34 0 0 1 4.55-2C93 64 96 67.22 96 71.18a1.68 1.68 0 0 0 0 .31c0 .76-.4 10.06-16 23.3z"/></svg>