<svg xmlns="http://www.w3.org/2000/svg" viewBox="0 0 160 160"><path d="M108 64H76a4 4 0 0 0 0 8h32a4 4 0 0 0 0-8zm-48 0h-8a4 4 0 0 0 0 8h8a4 4 0 0 0 0-8zm48 24H76a4 4 0 0 0 0 8h32a4 4 0 0 0 0-8zm-48 0h-8a4 4 0 0 0 0 8h8a4 4 0 0 0 0-8zm48 24H76a4 4 0 0 0 0 8h32a4 4 0 0 0 0-8zm-48 0h-8a4 4 0 0 0 0 8h8a4 4 0 0 0 0-8z"/><path d="M135.92 35.21a3.93 3.93 0 0 0-.15-.5c0-.08 0-.17-.08-.25a4 4 0 0 0-.27-.51c0-.06-.06-.12-.09-.17a4 4 0 0 0-.49-.6l-32-32a4 4 0 0 0-.59-.49L102 .57a4 4 0 0 0-.48-.26l-.27-.08a3.91 3.91 0 0 0-.48-.15A4 4 0 0 0 100 0H40a16 16 0 0 0-16 16v128a16 16 0 0 0 16 16h80a16 16 0 0 0 16-16V36a4 4 0 0 0-.08-.79zM104 13.66 122.34 32H104zM120 152H40a8 8 0 0 1-8-8V16a8 8 0 0 1 8-8h56v28a4 4 0 0 0 4 4h28v104a8 8 0 0 1-8 8z"/></svg>