<svg xmlns="http://www.w3.org/2000/svg" viewBox="0 0 160 160"><path d="M143 32C128 5.56 100.45 0 80 0S32 5.56 17 32a71.11 71.11 0 0 0-9 32v32a16 16 0 0 0 32 0V72.1a16 16 0 0 0-23.44-14.15A64.25 64.25 0 0 1 24 36C34.5 17.41 53.35 8 80 8c51.23 0 61.45 35.44 63.49 50A16 16 0 0 0 120 72.1V96a16 16 0 0 0 21.85 14.88c-1.72 6.2-4.83 13.35-10.44 19-6 6-14.08 9.4-24 10A16 16 0 0 0 92 128H68a16 16 0 0 0 0 32h24a16 16 0 0 0 15.5-12.11c12.1-.67 22.06-4.84 29.62-12.43C152 120.54 152 97.93 152 97V64a71.12 71.12 0 0 0-9-32zM24 64.1a8 8 0 0 1 8 8V96a8 8 0 0 1-16 0V72.1a8 8 0 0 1 8-8zM92 152H68a8 8 0 0 1 0-16h24a8 8 0 0 1 0 16zm52-56a8 8 0 0 1-16 0V72.1a8 8 0 0 1 16 0V96z"/></svg>