<svg xmlns="http://www.w3.org/2000/svg" viewBox="0 0 160 160"><g fill="#333"><path d="M146.822 14.163a3.948 3.948 0 0 1 .151 5.457l-.15.158-19.962 19.805c4.452 3.056 8.707 6.575 12.73 10.542l.837.84c13.11 13.306 18.774 26.162 18.872 26.26.1.099.1.099.1.198a9.24 9.24 0 0 1 0 6.551c-.1.199-.1.298-.2.497l-.294.59c-3.809 7.504-28.48 51.027-78.944 51.027-14.132 0-27.657-3.537-39.93-10.354l-21.27 21.103a4.024 4.024 0 0 1-5.66 0 3.948 3.948 0 0 1-.15-5.457l.15-.158 19.962-19.805c-4.452-3.056-8.707-6.575-12.73-10.542l-.837-.84C6.387 96.728.723 83.872.625 83.774l-.078-.083c-.022-.031-.022-.055-.022-.115a10.48 10.48 0 0 1 0-6.551c.1-.199.1-.298.2-.497l.294-.59c3.809-7.504 28.48-51.027 78.943-51.027 14.133 0 27.658 3.537 39.931 10.354l21.27-21.103a4.024 4.024 0 0 1 5.66 0Zm-25.721 31.136L45.92 119.89c9.443 4.912 20.752 8.257 34.041 8.257 46.522 0 69.033-41.096 71.934-46.952.1-.298.1-.695 0-1.092l-.415-.831c-2.145-4.181-11.876-21.698-30.38-33.973ZM79.962 32.853c-46.521 0-69.032 41.096-71.933 46.952-.1.397-.1.695 0 1.092l.415.831c2.145 4.18 11.876 21.697 30.38 33.973l75.18-74.591c-9.443-4.912-20.753-8.257-34.042-8.257Z"/><path d="M109.429 68.113a31.261 31.261 0 0 1 2.549 12.387c.099 17.296-13.824 31.381-31.188 31.758l-.527.007h-.3c-4.424 0-8.645-.902-12.486-2.53l6.275-6.225c1.784.478 3.65.754 5.569.805l.641.009h.2c13.207-.1 23.912-10.721 23.812-23.824 0-2.129-.285-4.195-.82-6.162l6.275-6.225zM79.962 48.735c4.424 0 8.646.902 12.488 2.53l-6.275 6.225a24.014 24.014 0 0 0-6.213-.814c-13.206 0-24.01 10.721-24.01 23.824 0 2.13.285 4.196.82 6.164l-6.274 6.225c-1.641-3.811-2.55-8-2.55-12.389 0-17.47 14.406-31.765 32.014-31.765z"/></g></svg>