<svg xmlns="http://www.w3.org/2000/svg" viewBox="0 0 160 160"><path d="M158.84 73.18 144 58.23V12a4 4 0 0 0-4-4h-24a4 4 0 0 0-4 4v13.94L91.86 4.61A16.12 16.12 0 0 0 80 0c-4.78 0-9.12 1.68-11.8 4.56L1.14 73.21A4 4 0 0 0 4 80h12v68a12 12 0 0 0 12 12h102.12c6.25 0 13.88-6 13.88-13V80h12a4 4 0 0 0 2.84-6.82zM88 152H72v-40h16zm52-80a4 4 0 0 0-4 4v71c0 2-3.52 5-5.88 5H96v-44a4 4 0 0 0-4-4H68a4 4 0 0 0-4 4v44H28a4 4 0 0 1-4-4V76a4 4 0 0 0-4-4h-6.5L74 10.08A8.53 8.53 0 0 1 80 8a8.43 8.43 0 0 1 6 2.1l27.06 28.65A4 4 0 0 0 120 36V16h16v43.88a4 4 0 0 0 1.16 2.82l9.23 9.3z"/></svg>