<svg xmlns="http://www.w3.org/2000/svg" viewBox="0 0 160 160"><path d="M155.29 74A75.67 75.67 0 0 0 95.06 6l-.15-.14A21.82 21.82 0 0 0 65 6 75.66 75.66 0 0 0 4.71 74a4 4 0 0 0 6.77 3.19c4.29-4.16 11.52-6.64 19.34-6.64 9.21 0 17.75 3.59 21.24 8.92a4 4 0 0 0 3.3 1.81 4 4 0 0 0 3.3-1.73 16.65 16.65 0 0 1 5.53-5l.58-.33.15-.09a24.09 24.09 0 0 1 11-3.36V140c0 8.25-7.26 12-14 12s-13.76-3.71-13.76-12a4 4 0 0 0-8 0c0 11.59 9.15 20 21.76 20s22-8.41 22-20V70.81a34.79 34.79 0 0 1 5 .93 27.74 27.74 0 0 1 6.34 2.53 17 17 0 0 1 6 5.32 4 4 0 0 0 6.64-.08c3.5-5.34 12-8.92 21.25-8.92 7.82 0 15 2.48 19.34 6.64a4 4 0 0 0 6.8-3.23zm-26.11-11.41c-9.76 0-18.85 3.27-24.59 8.61a24.66 24.66 0 0 0-5.48-4A35.59 35.59 0 0 0 91 64a42.75 42.75 0 0 0-10.9-1.41H80c-8 0-14.06 1.5-19.2 4.71l-.49.28a24.58 24.58 0 0 0-4.89 3.62c-5.73-5.33-14.82-8.6-24.59-8.6a40.84 40.84 0 0 0-16.9 3.54 67.67 67.67 0 0 1 53.8-52.53 4 4 0 0 0 2.2-1.21 13.82 13.82 0 0 1 19.53-.7c.24.23.48.46.7.7a4 4 0 0 0 2.2 1.21 67.68 67.68 0 0 1 53.73 52.52 40.85 40.85 0 0 0-16.91-3.54z"/></svg>