<svg xmlns="http://www.w3.org/2000/svg" viewBox="0 0 160 160"><path d="M160 80a79.63 79.63 0 0 0-18.37-51c0-.06-.07-.13-.11-.19a4 4 0 0 0-.67-.71A79.88 79.88 0 0 0 87.1.33a4 4 0 0 0-1.18-.09C84 .1 82 0 80 0s-4 .1-5.92.24a4 4 0 0 0-1.18.09 79.88 79.88 0 0 0-53.77 27.84 4 4 0 0 0-.65.69l-.09.15a79.83 79.83 0 0 0 .06 102l.05.09a4 4 0 0 0 .58.64 79.88 79.88 0 0 0 53.76 27.88 4 4 0 0 0 .9.12H74c2 .15 4 .25 6 .25s4-.1 6-.25h.26a4 4 0 0 0 .9-.12 79.88 79.88 0 0 0 53.69-27.79 4 4 0 0 0 .68-.74l.09-.15A79.63 79.63 0 0 0 160 80zm-75.39 71.84H84v-39.73a83.51 83.51 0 0 1 26.5 5.89 119.15 119.15 0 0 1-25.89 33.84zm-9.23 0a119.14 119.14 0 0 1-25.9-33.91A83.51 83.51 0 0 1 76 112.11v39.78zM8.12 84h24a91.79 91.79 0 0 0 6.77 29.83 128.45 128.45 0 0 0-16.31 9.53A71.6 71.6 0 0 1 8.12 84zm14.45-47.37A131.76 131.76 0 0 0 38.69 46a92.18 92.18 0 0 0-6.59 30h-24a71.6 71.6 0 0 1 14.47-39.37zm52.8-28.46H76v39.72a83.58 83.58 0 0 1-26.72-5.94A115.63 115.63 0 0 1 75.37 8.17zm9.26 0A115.61 115.61 0 0 1 110.74 42 83.64 83.64 0 0 1 84 47.89V8.12zM151.88 76h-24a92.17 92.17 0 0 0-6.57-29.93 129.13 129.13 0 0 0 16.11-9.43A71.6 71.6 0 0 1 151.88 76zm-32 0H84V55.91a91.41 91.41 0 0 0 30-6.59A84.22 84.22 0 0 1 119.89 76zM76 55.91V76H40.11A84.23 84.23 0 0 1 46 49.28a91.34 91.34 0 0 0 30 6.63zM40.12 84H76v20.09a91.29 91.29 0 0 0-29.8 6.51A83.85 83.85 0 0 1 40.12 84zM84 104.09V84h35.88a83.87 83.87 0 0 1-6.09 26.65A91.29 91.29 0 0 0 84 104.09zM127.89 84h24a71.6 71.6 0 0 1-14.46 39.37 131.52 131.52 0 0 0-16.32-9.49A91.81 91.81 0 0 0 127.89 84zm4.34-53.48a120.27 120.27 0 0 1-14.16 8.24 118.72 118.72 0 0 0-19.85-28.42 72 72 0 0 1 34.01 20.18zM61.78 10.34A118.74 118.74 0 0 0 42 38.71a122.84 122.84 0 0 1-14.21-8.21 72 72 0 0 1 33.99-20.16zm-34 119.15a119.57 119.57 0 0 1 14.38-8.35A123.09 123.09 0 0 0 62 149.71a72 72 0 0 1-34.22-20.22zM98 149.71a123.11 123.11 0 0 0 19.8-28.53 122.52 122.52 0 0 1 14.39 8.32A72 72 0 0 1 98 149.71z"/></svg>