<svg xmlns="http://www.w3.org/2000/svg" viewBox="0 0 160 160"><path d="M111 24H49A49.06 49.06 0 0 0 0 73v14a49.06 49.06 0 0 0 49 49h62a49.06 49.06 0 0 0 49-49V73a49.06 49.06 0 0 0-49-49zm41 63a41 41 0 0 1-41 41H49A41 41 0 0 1 8 87V73a41 41 0 0 1 41-41h62a41 41 0 0 1 41 41z"/><path d="M112 40H48a16 16 0 0 0-16 16v48a16 16 0 0 0 16 16h64a16 16 0 0 0 16-16V56a16 16 0 0 0-16-16zm8 64a8 8 0 0 1-8 8H48a8 8 0 0 1-8-8V56a8 8 0 0 1 8-8h64a8 8 0 0 1 8 8z"/><path d="M80 60c-8.22 0-14.66 6.71-14.66 15.27 0 10 10.49 21.89 11.69 23.22a4 4 0 0 0 3 1.32h.07a4 4 0 0 0 3-1.42s2.41-2.86 3.18-3.82c3.14-4 8.4-11.7 8.4-19.08C94.66 66.79 88.22 60 80 60zm0 29.52c-3.28-4.41-6.7-10.28-6.7-14.25 0-4.21 2.8-7.27 6.66-7.27s6.66 3.28 6.66 7.46c.04 3.54-2.43 8.81-6.62 14.06z"/></svg>