<svg xmlns="http://www.w3.org/2000/svg" viewBox="0 0 160.01 160"><path d="M156.24 120.81c-2.48-1.77-29.45-19.74-32.47-21.63-3.29-2-8.12-1.73-12.91.73a4.38 4.38 0 0 0-.58.37l-10.52 7.94C94 104.1 79.24 93.37 72.87 86.85 60.63 74.52 54.6 66.56 52.24 63.16c2.24-3.79 6.77-11.46 8.14-14 2.59-4.81 2.92-9.63.87-12.9-1.91-3-19.44-29.87-21.25-32.47-2.86-3.9-9.82-5.5-16.06-1.26C23.64 2.69-.18 19.47 0 29.18c.58 27.12 26.86 59.11 48.8 81.17S102.71 159 130.13 160h.23c9.65 0 26.77-22.89 26.94-23.12a13.23 13.23 0 0 0 2.58-9.89 9.42 9.42 0 0 0-3.64-6.18zm-5.44 11.39c-5.2 7.21-17 19.48-20.45 19.8-24.74-.93-54.9-26.23-75.85-47.29S8.56 53.49 8 29c.46-3.42 13-14.88 20.35-19.85A6 6 0 0 1 31.73 8a2.69 2.69 0 0 1 1.74.47c1.72 2.39 19.19 29.14 21 32 .2.33.32 2.16-1.13 4.86-1.73 3.21-9.17 15.73-9.25 15.85a4 4 0 0 0 0 4c.22.38 5.54 9.53 23.11 27.22 8.47 8.67 29.49 23.37 30.38 24a4 4 0 0 0 4.7-.09l12.56-9.48c2.59-1.25 4.37-1.13 4.76-.9 3.41 2.14 30 19.9 32 21.33.34.37 1.06 2.37-.8 4.94zM132 24H99a4 4 0 0 0 0 8h33a4 4 0 0 0 0-8zm0 16H99a4 4 0 0 0 0 8h33a4 4 0 0 0 0-8z"/><path d="M144 0H87a16 16 0 0 0-16 16v40a16 16 0 0 0 16 16h28.18l22.08 20.82a4 4 0 0 0 6.74-2.91V72a16 16 0 0 0 16-16V16a16 16 0 0 0-16-16zm8 56a8 8 0 0 1-8 8h-4a4 4 0 0 0-4 4v12.64l-16.46-15.55A4 4 0 0 0 116.8 64H87a8 8 0 0 1-8-8V16a8 8 0 0 1 8-8h57a8 8 0 0 1 8 8z"/></svg>