<svg xmlns="http://www.w3.org/2000/svg" viewBox="0 0 160 160"><path d="M76 71.18c0-15.31-12.2-27.77-27.25-27.77S21.46 55.87 21.46 71.18 33.7 99 48.75 99 76 86.49 76 71.18zm-46.58 0a19.56 19.56 0 0 1 19.33-19.77 19.78 19.78 0 0 1 0 39.54 19.56 19.56 0 0 1-19.29-19.77zM143 27.84a11.91 11.91 0 1 0-11.91 12.07A12 12 0 0 0 143 27.84zm-15.82 0a3.91 3.91 0 1 1 3.91 4.07 4 4 0 0 1-3.91-4.07z"/><path d="M132.31 104.41c-9.25-2.89-14.19-7.66-13.89-13.42s6-11.6 13-13a6.32 6.32 0 0 0 2.75-1.6c.21-.25 5.26-6.2 7-8.3 5.24-6.56 17.41-23.49 17.41-38.94 0-16.35-12-29.16-27.41-29.16s-27.5 12.58-27.5 28.71c0 15.6 13.74 34.66 20.63 43.23-7.81 3.56-13.46 10.85-13.86 18.64-.24 4.55 1.19 15.76 19.5 21.48 12.42 3.87 20.84 13.07 19.57 21.38-1.37 9-14.9 18.62-48.75 18.62h-43.4c2.71-3.23 5.71-6.82 7.21-8.73C74 131.41 96 100.79 96 73.52 96 45.19 75.25 23 48.75 23S1.5 44.86 1.5 72.76c0 15.41 7.5 34.6 22.28 57.06a266.93 266.93 0 0 0 22 28.91l.07.07a4 4 0 0 0 .37.33c.08.07.15.14.24.2a4 4 0 0 0 .47.27l.23.12a4 4 0 0 0 .61.2l.17.05a4 4 0 0 0 .82.09h52c47.65 0 55.5-17.77 56.66-25.41 1.88-12.41-8.68-25.12-25.11-30.24zm-1.18-96.47c10.88 0 19.41 9.29 19.41 21.16 0 13.28-12 29.31-15.65 33.94-.8 1-2.37 2.86-3.82 4.57-7.29-9-19.4-26.45-19.4-38.91 0-11.84 8.33-20.76 19.46-20.76zM9.5 72.76C9.5 49 26.37 31 48.75 31 70.76 31 88 49.68 88 73.52c0 8.25-2.89 31.07-29.69 64.83-1.91 2.42-6.5 7.88-9.58 11.53C39.08 138.37 9.5 100.75 9.5 72.76z"/></svg>