<svg xmlns="http://www.w3.org/2000/svg" viewBox="0 0 160 160"><path d="M116 24H44a4 4 0 0 0 0 8h72a4 4 0 0 0 0-8zm0 24H92a4 4 0 0 0 0 8h24a4 4 0 0 0 0-8zm0 16H92a4 4 0 0 0 0 8h24a4 4 0 0 0 0-8zm0 16H92a4 4 0 0 0 0 8h24a4 4 0 0 0 0-8zm0 32H92a4 4 0 0 0 0 8h24a4 4 0 0 0 0-8zm0 16H92a4 4 0 0 0 0 8h24a4 4 0 0 0 0-8zm-40-16H44a4 4 0 0 0 0 8h32a4 4 0 0 0 0-8zm0 16H44a4 4 0 0 0 0 8h32a4 4 0 0 0 0-8zm40-32H44a4 4 0 0 0 0 8h72a4 4 0 0 0 0-8zm-72-8h32a4 4 0 0 0 4-4V52a4 4 0 0 0-4-4H44a4 4 0 0 0-4 4v32a4 4 0 0 0 4 4zm4-32h24v24H48z"/><path d="M120 0H40a16 16 0 0 0-16 16v128a16 16 0 0 0 16 16h80a16 16 0 0 0 16-16V16a16 16 0 0 0-16-16zm8 144a8 8 0 0 1-8 8H40a8 8 0 0 1-8-8V16a8 8 0 0 1 8-8h80a8 8 0 0 1 8 8z"/></svg>