<svg xmlns="http://www.w3.org/2000/svg" viewBox="0 0 160 160"><path d="M80 0a80 80 0 1 0 80 80A80.09 80.09 0 0 0 80 0zm0 152a72 72 0 1 1 72-72 72.08 72.08 0 0 1-72 72z"/><path d="M94.85 74.9a22 22 0 0 0-21.41-5.77 56.89 56.89 0 0 0-8.5 2.94c3.74-13.32 13-22.92 25-24.85l3.9-.61a4 4 0 0 0-1.24-7.9l-3.91.61c-19.75 3.17-33.56 22.2-33.56 46.28a59.51 59.51 0 0 0 .64 8.72v.32c2.11 15 11.8 25.44 23.56 25.44 12.63 0 22.9-11.66 22.9-25.94A27.53 27.53 0 0 0 94.94 75zm-15.49 37.18c-8.09 0-13.3-7.85-15.16-16v-.16l-.35-1.89a51.52 51.52 0 0 1-.69-8.46q0-1.89.13-3.73a49 49 0 0 1 12.24-5 14 14 0 0 1 13.61 3.62 19.59 19.59 0 0 1 5.15 13.61c-.03 9.93-6.71 18.01-14.93 18.01z"/></svg>