<svg xmlns="http://www.w3.org/2000/svg" viewBox="0 0 160 160"><path d="M80 0a80 80 0 1 0 80 80A80.09 80.09 0 0 0 80 0zm0 152a72 72 0 1 1 72-72 72.08 72.08 0 0 1-72 72z"/><path d="M80.66 68.78a28.25 28.25 0 0 0-5 .1l-6.66.69V48h29a4 4 0 0 0 0-8H65a4 4 0 0 0-4 4v30a4 4 0 0 0 4.41 4l11.13-1.14a20.28 20.28 0 0 1 3.55-.08c10.56.79 16.61 7.55 16.61 18.52 0 9.79-7.91 16.9-18.75 16.9a30.48 30.48 0 0 1-15.58-4.49 4 4 0 0 0-4.18 6.82 38.52 38.52 0 0 0 19.71 5.67c15.28 0 26.8-10.7 26.8-24.9 0-15.25-9.2-25.4-24.04-26.52z"/></svg>