<svg xmlns="http://www.w3.org/2000/svg" viewBox="0 0 160 160"><path d="m119.36 71.12-52.7-39c-4.88-3.94-9.17-3.37-12-2.16a11.3 11.3 0 0 0-6.6 8.91 4 4 0 0 0-.09.83v80.2a11 11 0 0 0 10.5 11.1h.36a10.86 10.86 0 0 0 6.55-2.2l1-.71 51.54-38.17 1.43-1.06a10.67 10.67 0 0 0 0-17.74zM116 80.54a2.65 2.65 0 0 1-1.16 1.68l-.21.15-53 39.24-1 .71-.13.1a2.9 2.9 0 0 1-1.73.59 3 3 0 0 1-2.77-3.07V40.27a3.27 3.27 0 0 1 1.9-3c.77-.33 1.77-.55 3.78 1.09l.15.12 51.35 38 1.46 1.1.23.16a2.67 2.67 0 0 1 1.13 2.8z"/><path d="M80 0a80 80 0 1 0 80 80A80.09 80.09 0 0 0 80 0zm0 152a72 72 0 1 1 72-72 72.08 72.08 0 0 1-72 72z"/></svg>