<svg xmlns="http://www.w3.org/2000/svg" viewBox="0 0 160 160"><path d="M144 24H16A16 16 0 0 0 0 40v80a16 16 0 0 0 10.47 15 4 4 0 0 0 .39.14A15.9 15.9 0 0 0 16 136h128a16 16 0 0 0 16-16V40a16 16 0 0 0-16-16zM29 70c0-9.94 7.72-18 17.21-18s17.21 8.08 17.21 18c0 9.76-7.45 17.71-16.71 18h-.97C36.43 87.75 29 79.79 29 70zm17.17 26h.71c12.64.42 23.36 12.72 28.15 32H17c4.85-19.22 15.74-31.53 28.53-32zM152 120a8 8 0 0 1-8 8H83.25c-3.94-17.43-12.35-30.36-23.12-36.33A26.24 26.24 0 0 0 71.38 70c0-14.35-11.31-26-25.21-26S21 55.67 21 70a26.24 26.24 0 0 0 11.19 21.66C22 97.24 13.83 109 9.57 124.73A8 8 0 0 1 8 120V40a8 8 0 0 1 8-8h128a8 8 0 0 1 8 8z"/><path d="M139.83 56h-56a4 4 0 0 0 0 8h56a4 4 0 0 0 0-8zm0 16h-56a4 4 0 0 0 0 8h56a4 4 0 0 0 0-8zm0 16h-56a4 4 0 0 0 0 8h56a4 4 0 0 0 0-8z"/></svg>