<svg xmlns="http://www.w3.org/2000/svg" viewBox="0 0 160 160"><path d="M156 128h-4v-12a4 4 0 0 0-4-4h-4V72h4a4 4 0 0 0 4-4V51.9a4 4 0 0 0-.06-.55v-.19a4 4 0 0 0-.21-.68c0-.06-.06-.11-.08-.17a4 4 0 0 0-.25-.47l-.15-.21a4 4 0 0 0-.3-.36l-.19-.19a4 4 0 0 0-.35-.29l-.23-.16-.11-.08-68-40a4 4 0 0 0-4.06 0l-68 40-.11.08-.23.16a4 4 0 0 0-.35.29l-.19.19a4 4 0 0 0-.3.36l-.15.21a4 4 0 0 0-.25.47c0 .06-.06.11-.08.17a4 4 0 0 0-.21.68v.2a4 4 0 0 0-.06.55L8 52v16a4 4 0 0 0 4 4h4v40h-4a4 4 0 0 0-4 4v12H4a4 4 0 0 0-4 4v16a4 4 0 0 0 4 4h152a4 4 0 0 0 4-4v-16a4 4 0 0 0-4-4zm-20-16h-16V72h16zm-40 0V72h16v40zm-24 0V72h16v40zm-24 0V72h16v40zm96-48H16v-8h128zM80 16.64 133.31 48H26.69zM24 72h16v40H24zm-8 48h128v8H16zm136 24H8v-8h144z"/></svg>