<svg xmlns="http://www.w3.org/2000/svg" viewBox="0 0 160 160"><path d="M140.64 33.68a65.2 65.2 0 0 0-46.35-19.16h-.09a65.72 65.72 0 0 0-65.54 65.63v18.54L6.81 77.15a4 4 0 1 0-5.62 5.7l28.66 28.25c.06.06.13.1.19.16a4 4 0 0 0 .41.33 3.89 3.89 0 0 0 .34.19c.11.06.22.13.34.18a4 4 0 0 0 .43.13c.11 0 .21.07.32.09a3.89 3.89 0 0 0 1.55 0l.3-.09a4 4 0 0 0 .44-.14c.11 0 .22-.11.32-.17a3.91 3.91 0 0 0 .36-.19 4 4 0 0 0 .34-.27c.08-.06.16-.12.24-.19l29.46-28.24a4 4 0 1 0-5.54-5.77L36.66 98.87V80.15a57.71 57.71 0 0 1 57.55-57.63h.08a57.63 57.63 0 0 1 .07 115.26 4 4 0 0 0 0 8 65.63 65.63 0 0 0 46.26-112.1z"/></svg>