<svg xmlns="http://www.w3.org/2000/svg" viewBox="0 0 160 160"><path d="M159.88 132.69c-11.09-44.91-37.79-63.39-58.24-71a99 99 0 0 0-37.65-6V26.35a4 4 0 0 0-6.77-2.89l-56 53.65a4 4 0 0 0 0 5.78l56 53.65a4 4 0 0 0 6.78-2.89V99.2c3.93-.69 8.41-.73 15.39-.21 26.69 2.59 45.18 12.47 56 20.3 11.74 8.51 17.25 16.52 17.3 16.59a4 4 0 0 0 7.2-3.19zM80.08 91c-8.48-.63-14.65-.64-21.13 1.13A4 4 0 0 0 56 96v28.28L9.78 80 56 35.72V60a4 4 0 0 0 4.52 4 89.54 89.54 0 0 1 38.65 5.35c22.2 8.34 38.2 24.73 47.73 48.81-12.17-10.54-33.75-23.94-66.82-27.16z"/></svg>