<svg xmlns="http://www.w3.org/2000/svg" viewBox="0 0 160 160"><path d="M158.54 38.37A30.14 30.14 0 0 0 130.46 34L98.75 45.27l-37.33-20h-.09a14.09 14.09 0 0 0-10.86-.71l-9.39 3.27a4 4 0 0 0-1.54 6.58L62.77 58l-26 9.22-18.48-9.89-.15-.08a12.52 12.52 0 0 0-9.63-.56l-.24.09-6 2.53a4 4 0 0 0-1.54 6.22l13 16C21.59 91 32 95.93 43 95.93a39.38 39.38 0 0 0 13-2.26l84.71-30.19A30.13 30.13 0 0 0 160 42.58a4 4 0 0 0-1.46-4.21zm-20.46 17.56L53.36 86.12c-12.32 4.3-24.83.68-33.43-9.64L10.3 64.62l1-.4a4.58 4.58 0 0 1 3.35.21l19.86 10.68a4 4 0 0 0 3.23.25L69 64.29l4.29 4.35A4 4 0 1 0 79 63L49.68 33.3l3.41-1.19a6 6 0 0 1 4.61.29L106 58.22a4 4 0 0 0 3.77-7.06l-1.48-.79 24.82-8.79a22.14 22.14 0 0 1 18.27 1.65 22.16 22.16 0 0 1-13.3 12.7zm10.17 72.22H11.9a4 4 0 0 0 0 8h136.35a4 4 0 0 0 0-8z"/></svg>