<svg xmlns="http://www.w3.org/2000/svg" viewBox="0 0 160 160"><path d="M159.69 131.48c-3.9-26.42-17.18-40.55-31.19-46.38a29.94 29.94 0 0 0 .7-50c.07-.66.12-1.33.13-2a17 17 0 0 0-34 0 20.66 20.66 0 0 0 .12 2.1 29.94 29.94 0 0 0 .81 50A45.4 45.4 0 0 0 80 96.82a45.21 45.21 0 0 0-16.31-11.71 30.07 30.07 0 0 0 12.07-35.65l-.06-.15c3.3-2.47 4.83-5.31 4.83-8.13a4 4 0 1 0-8 0 1 1 0 0 1-.19.5C68.46 33 62.9 21.16 60.46 18.44a6.87 6.87 0 0 0-7.3-1.91l-4 1.34a4.69 4.69 0 0 1-3.08 0l-3.32-1.2a6.88 6.88 0 0 0-7.38 1.75C32.83 21 27 33 22.87 41.61a.94.94 0 0 1-.14-.43 4 4 0 0 0-8 0c0 2.73 1.51 5.55 4.64 8 0 .1-.08.19-.12.29a30.08 30.08 0 0 0 12.07 35.66c-14 5.86-27.21 20-31.1 46.34a4 4 0 1 0 7.91 1.17C11 113.13 22.84 90.4 46.65 89.85h1.65c23.88.49 35.73 23.26 38.61 42.8a4 4 0 1 0 7.91-1.17c-1.72-11.66-5.27-20.92-9.9-28.13 7.15-8.62 17-13.52 27.45-13.52 24.41 0 36.48 23.07 39.39 42.82a4 4 0 1 0 7.91-1.17zM40.76 24.39l2.58.94a12.72 12.72 0 0 0 8.35.12l3.24-1.08c1.78 2.69 6.16 11.8 10.37 21.2A57.56 57.56 0 0 1 47.63 48a57.42 57.42 0 0 1-17.75-2.49c4.44-9.38 9.03-18.51 10.88-21.12zm-.83 56.12a22 22 0 0 1-13.4-27.57c5.2 1.88 12.19 3.06 21.1 3.06s15.69-1.16 20.87-3a22.09 22.09 0 0 1-20 28.82H47a22.08 22.08 0 0 1-7.07-1.31zM112.32 24a9 9 0 0 1 8.82 7.15 30 30 0 0 0-17.63 0 9 9 0 0 1 8.81-7.15zM90.4 59.85a22 22 0 1 1 22 22 22 22 0 0 1-22-22z"/></svg>