<svg xmlns="http://www.w3.org/2000/svg" viewBox="0 0 160 160"><path d="M60 136H44a4 4 0 0 0 0 8h16a4 4 0 0 0 0-8z"/><path d="M136 0H80a16 16 0 0 0-16 16H24A16 16 0 0 0 8 32v112a16 16 0 0 0 16 16h56a16 16 0 0 0 16-16h40a16 16 0 0 0 16-16V16a16 16 0 0 0-16-16zm8 128a8 8 0 0 1-8 8H96v-8h20a4 4 0 0 0 0-8H96v-19a4 4 0 0 0-8 0v43a8 8 0 0 1-8 8H24a8 8 0 0 1-8-8V32a8 8 0 0 1 8-8h56a8 8 0 0 1 8 8v20.1a4 4 0 1 0 8 0V32a16 16 0 0 0-16-16h-8a8 8 0 0 1 8-8h56a8 8 0 0 1 8 8z"/><path d="M121.9 72.07H47.56l20.89-19.4A4 4 0 0 0 63 46.81l-28 26a4.35 4.35 0 0 0 .93 6.73L63 104.67a4 4 0 0 0 5.44-5.86L48.27 80.07h73.63a4 4 0 0 0 0-8z"/></svg>