<svg xmlns="http://www.w3.org/2000/svg" viewBox="0 0 160 160"><path d="M145.87 117a4 4 0 0 0-7.73 2.06 23.48 23.48 0 0 1-16.55 28.68 4 4 0 1 0 2.08 7.72 31.49 31.49 0 0 0 22.2-38.46zM38.46 12.3a4 4 0 0 0-2.06-7.72A31.48 31.48 0 0 0 14.13 43a4 4 0 0 0 7.74-2 23.47 23.47 0 0 1 16.59-28.7z"/><path d="M119.43 139.85a15.32 15.32 0 0 0 10.82-18.74l-.06-.22v-.12L103 19.26A15.3 15.3 0 0 0 84.22 8.44l-43.66 11.7a15.32 15.32 0 0 0-10.81 18.73L57 140.66v.1a15.29 15.29 0 0 0 18.73 10.8l43.64-11.69zm-2.1-7.72-43.63 11.7a7.31 7.31 0 0 1-8.94-5.16L37.47 36.8a7.31 7.31 0 0 1 5.16-8.94l43.66-11.7a7.3 7.3 0 0 1 8.94 5.16l27.3 101.88v.11a7.31 7.31 0 0 1-5.16 8.81z"/><path d="m102.55 120.51-21.83 5.85a4 4 0 1 0 2.07 7.73l21.83-5.85a4 4 0 0 0-2.07-7.73z"/></svg>