<svg xmlns="http://www.w3.org/2000/svg" viewBox="0 0 160 160"><path d="M159.21 57.61A4 4 0 0 0 156 56h-49.47l-15-37.5a4 4 0 0 0-7.43 3L97.91 56h-36.2l13.82-34.51a4 4 0 0 0-7.43-3l-15 37.54H36L4 56a4 4 0 0 0-3.83 5.15l24 80A4 4 0 0 0 28 144h104a4 4 0 0 0 3.83-2.85l24-80a4 4 0 0 0-.62-3.54zM129 136H31L9.38 64h141.24z"/><path d="M79.81 72a4 4 0 0 0-4 4v48a4 4 0 0 0 8 0V76a4 4 0 0 0-4-4zm24 0a4 4 0 0 0-4 4v48a4 4 0 0 0 8 0V76a4 4 0 0 0-4-4zm-48 0a4 4 0 0 0-4 4v48a4 4 0 0 0 8 0V76a4 4 0 0 0-4-4zm-24 0a4 4 0 0 0-4 4v16a4 4 0 0 0 8 0V76a4 4 0 0 0-4-4zm92 20a4 4 0 0 0 8 0V76a4 4 0 0 0-8 0zM132 0a28 28 0 1 0 28 28 28 28 0 0 0-28-28zm14.14 36.49a4 4 0 0 1-5.65 5.65L132 33.66l-8.49 8.48a4 4 0 0 1-5.65-5.65l8.48-8.49-8.48-8.49a4 4 0 0 1 5.65-5.65l8.49 8.48 8.49-8.48a4 4 0 0 1 5.65 5.65L137.66 28z"/></svg>