<svg xmlns="http://www.w3.org/2000/svg" viewBox="0 0 160 160"><path d="M141.06 72.69v-.18A22.64 22.64 0 0 0 132.65 55c.13-.57.26-1.13.37-1.7a52 52 0 0 0 1-10v-3.87a31.38 31.38 0 0 0-29.18-31.32 4 4 0 0 0-1-.12H46.16a9.62 9.62 0 0 0-9.54 8.11L18 129.91a6.94 6.94 0 0 0 7 8.09h27.17l-1.71 10a3.53 3.53 0 0 0 3.54 4h21.75a5.59 5.59 0 0 0 5.58-4.65L86 118.78a6 6 0 0 1 2-3.06 5.43 5.43 0 0 1 3-1.06c5.78.09 5-.09 10.75 0h1.11c.37 0 .54.09.82.08h.32v-.08c17.82-.67 37.09-17.85 37.09-41.16 0-.27-.02-.5-.03-.81zm-15.48-23.43C121.42 71.1 103 84.78 87.58 85H66.17a3.33 3.33 0 0 0-.61 0h-.16a9.72 9.72 0 0 0-5.4 2.17A11.34 11.34 0 0 0 56.27 93a2.7 2.7 0 0 1-.08.39l-2.35 14-4 22.71H26.06L44.53 17.38A1.64 1.64 0 0 1 46.15 16h57a4 4 0 0 0 .54.06A23.38 23.38 0 0 1 126 39.42v1.09a58.3 58.3 0 0 1-.42 8.75z"/></svg>