<svg xmlns="http://www.w3.org/2000/svg" viewBox="0 0 160 160"><path d="M132 56a4 4 0 0 0-4 4v20.2c0 4.16-2.07 6.21-4 7.22a8 8 0 0 0-8-7.42h-6.16a15.88 15.88 0 0 0 2.16-8V16A16 16 0 0 0 96 0H64a16 16 0 0 0-16 16v56a15.88 15.88 0 0 0 2.16 8H44a8 8 0 0 0-8 7.41c-2-1-4-3.05-4-7.21V60a4 4 0 0 0-8 0v20.2c0 10 6.81 14.35 12 15.69V96a8 8 0 0 0 8 8h32v21H53.26a4 4 0 0 0-3.71 2.51l-6.64 16.59a8 8 0 1 0 7.41 3L56 133h20v12.1a8 8 0 1 0 8 0V133h20l5.49 13.72a8 8 0 1 0 7.6-2.53l-6.67-16.67a4 4 0 0 0-3.71-2.51H84V104h32a8 8 0 0 0 8-8v-.11c5.19-1.34 12-5.65 12-15.69V60a4 4 0 0 0-4-4zM56 72V16a8 8 0 0 1 8-8h32a8 8 0 0 1 8 8v56a8 8 0 0 1-8 8H64a8 8 0 0 1-8-8zm60 24H44v-8h72z"/></svg>