<svg viewBox="0 0 22 20" xmlns="http://www.w3.org/2000/svg"><g fill="none" fill-rule="evenodd"><path d="M11 1.829v13.485L5.32 19.07l1.75-6.94L2 7.75h7l2-5.921Z" fill="#FECB00"/><path d="M11 0c.225 0 .413.138.475.35L13.65 7h6.85c.213 0 .4.138.475.338a.505.505 0 0 1-.175.55L15.313 12.4l2.3 6.937a.487.487 0 0 1-.175.563.507.507 0 0 1-.588 0L11 15.65v-1.119a.505.505 0 0 1 .3.094l4.875 3.55-1.912-5.788a.5.5 0 0 1 .162-.537L19.1 8.012h-5.812a.511.511 0 0 1-.475-.35L11 2.111Z" fill="#666" fill-rule="nonzero"/><path d="M11 0v2.114l-.012-.039-1.925 5.587A.512.512 0 0 1 8.588 8H2.875l4.588 3.838c.15.137.212.35.15.537L5.788 18.2l4.925-3.575a.505.505 0 0 1 .287-.094v1.119L5.15 19.9c-.087.063-.2.1-.3.1a.5.5 0 0 1-.287-.1.499.499 0 0 1-.188-.55L6.55 12.4 1.175 7.875a.487.487 0 0 1-.15-.55A.519.519 0 0 1 1.5 7h6.725l2.3-6.662A.5.5 0 0 1 11 0Z" fill="#EB9700" fill-rule="nonzero"/></g></svg>