<svg viewBox="0 0 22 20" xmlns="http://www.w3.org/2000/svg"><g fill="none" fill-rule="evenodd"><path fill="#FECB00" d="M2 7.75h7L11.271 1l2.109 6.75H20l-5 4.44 2.311 6.88-6.04-3.94-5.96 3.94 1.75-6.94z"/><path d="M20.975 7.338A.512.512 0 0 0 20.5 7h-6.85L11.475.35A.484.484 0 0 0 11 0a.5.5 0 0 0-.475.338L8.225 7H1.5a.52.52 0 0 0-.475.325.487.487 0 0 0 .15.55L6.55 12.4l-2.175 6.95a.5.5 0 0 0 .188.55.5.5 0 0 0 .287.1c.1 0 .213-.038.3-.1L11 15.65l5.85 4.25a.507.507 0 0 0 .588 0 .487.487 0 0 0 .175-.563l-2.3-6.937L20.8 7.887a.505.505 0 0 0 .175-.55Zm-6.55 4.512a.5.5 0 0 0-.162.537l1.912 5.788-4.875-3.55a.507.507 0 0 0-.587 0L5.788 18.2l1.825-5.825c.062-.188 0-.4-.15-.537L2.875 8h5.713c.212 0 .4-.138.475-.338l1.925-5.587 1.825 5.587c.062.2.262.35.475.35H19.1l-4.675 3.838Z" fill="#EB9700" fill-rule="nonzero"/></g></svg>