<svg xmlns="http://www.w3.org/2000/svg" xmlns:xlink="http://www.w3.org/1999/xlink" viewBox="0 0 160 160"><defs><path id="5ca525c5-f435-41a0-baae-01cb18a8dadf__a" d="M0 0h159.696v159.696H0z"/></defs><g fill="none" fill-rule="evenodd"><mask id="5ca525c5-f435-41a0-baae-01cb18a8dadf__b" fill="#fff"><use xlink:href="#5ca525c5-f435-41a0-baae-01cb18a8dadf__a"/></mask><path d="M79.848 0c44.099 0 79.848 35.75 79.848 79.848 0 44.099-35.749 79.848-79.848 79.848S0 123.946 0 79.848C0 35.749 35.75 0 79.848 0Zm.208 62.618h-9.863a4.69 4.69 0 0 0 0 9.377h5.174v42.235h-4.762a4.69 4.69 0 0 0 0 9.377h18.898a4.69 4.69 0 0 0 0-9.377h-4.759V67.307a4.69 4.69 0 0 0-4.688-4.689Zm-.208-26.529a6.483 6.483 0 1 0 0 12.967 6.483 6.483 0 0 0 0-12.967Z" fill="#FFF" mask="url(#5ca525c5-f435-41a0-baae-01cb18a8dadf__b)"/></g></svg>