<svg xmlns="http://www.w3.org/2000/svg" xmlns:xlink="http://www.w3.org/1999/xlink" viewBox="0 0 160 160"><defs><path id="17542808-3627-4c71-a40d-bab2e17b7995__a" d="M0 .004h159.936v142.07H0z"/></defs><g fill="none" fill-rule="evenodd"><g transform="translate(0 8.328)"><mask id="17542808-3627-4c71-a40d-bab2e17b7995__b" fill="#fff"><use xlink:href="#17542808-3627-4c71-a40d-bab2e17b7995__a"/></mask><path d="M68.343 6.716c5.167-8.949 18.083-8.949 23.25 0l33.262 57.612 33.262 57.613c5.167 8.948-1.291 20.134-11.624 20.134H13.443c-10.333 0-16.791-11.186-11.625-20.134l33.263-57.613L68.343 6.716Z" fill="#FFF" mask="url(#17542808-3627-4c71-a40d-bab2e17b7995__b)"/></g><path d="M79.968 116.172a6.554 6.554 0 1 0 0 13.11 6.554 6.554 0 0 0 0-13.11m-4.387-15.588s-.06 1.234.519 2.494c.626 1.525 2.124 2.608 3.868 2.608 1.743 0 3.242-1.083 3.868-2.608.579-1.26.519-2.494.519-2.494l1.05-24.044 1.061-24.314c.286-6.563-6.195-6.839-6.195-6.839h-.606s-6.482.276-6.195 6.839l1.06 24.314 1.05 24.044Z" fill="#333"/></g></svg>