<svg xmlns="http://www.w3.org/2000/svg" viewBox="0 0 160 160"><path d="M134 21.54c-5.27 0-8.33 3.44-10.41 6.5l-63.73 80.8-29.39-25.56c-3-2.95-6.23-4.44-9.69-4.44A12.86 12.86 0 0 0 8 91.62a13.33 13.33 0 0 0 2.69 8.49l.08.1.81 1 .14.17 40 44.16c2 2.3 5.57 6.51 11.3 6.51 6.48 0 10.21-5.33 12-7.94l13.91-20.53a4.08 4.08 0 0 0 .38-.7L143 40.79a13 13 0 0 0 2.77-7.51A11.76 11.76 0 0 0 134 21.54zm2.33 14.83-54.1 82.73a4 4 0 0 0-.32.59l-13.48 19.9c-2.26 3.22-3.79 4.47-5.45 4.47s-3.23-1.37-5.24-3.74l-.08-.09L17.73 96.1l-.73-.86a5.31 5.31 0 0 1-1-3.37v-.17a4.84 4.84 0 0 1 4.8-4.85c.83 0 2.15.23 4.1 2.19l.21.2 32.66 28.4a4 4 0 0 0 5.76-.54L130 32.88l.17-.24c1.93-2.86 2.93-3.1 3.89-3.1a3.74 3.74 0 0 1 3.74 3.74c-.03.82-.45 1.57-1.47 3.09z"/></svg>