<svg xmlns="http://www.w3.org/2000/svg" viewBox="0 0 153.53 160"><path d="M126.26 0h-59a16 16 0 0 0-16 16v71c-10 0-19.56 1.38-26.77 3.88-9.58 3.33-12.53 7.7-13.11 11.19a4 4 0 0 0-.12.93v23a4 4 0 0 0 1 2.6 21.57 21.57 0 0 0 7 5V147a4 4 0 0 0 1 2.6c6.51 7.67 24.42 10.4 39 10.4 14.15 0 32.4-1.63 39-9.4a4 4 0 0 0 1-2.6v-4h27a16 16 0 0 0 16-16V16a16 16 0 0 0-16-16zm-75 95q2 0 4 .08c18.21.71 28 6.12 28 8.42 0 2.5-11.21 8.5-32 8.5s-32-6-32-8.5 11.22-8.5 32-8.5zm-32 29.33v-10.45a37.48 37.48 0 0 0 5.23 2.24c7.21 2.5 16.77 3.88 26.77 3.88s19.56-1.38 26.77-3.88a37.48 37.48 0 0 0 5.23-2.24v11.52c-4 3.16-15 6.09-32 6.09-15.77 0-27.57-3.49-32-7.16zm40 27.67c-16.67 0-27.84-3.31-32-6.68v-8.75a92 92 0 0 0 24 2.92c9.22 0 31.49-1 39-9.79a4 4 0 0 0 .68-1.14l.28.14v17.6c-3.69 2.9-13.69 5.7-31.96 5.7zm75-122.17V128a8 8 0 0 1-8 8h-27v-8h12a4 4 0 0 0 0-8h-20v-16.5c0-3.66-2.3-8.82-13.23-12.62a76 76 0 0 0-18.77-3.57V16a8 8 0 0 1 8-8h59a8 8 0 0 1 8 8v13.83z"/></svg>