<svg xmlns="http://www.w3.org/2000/svg" viewBox="0 0 160 160"><path d="M88.88 106.92c-2.4-2.55-6.65-3.46-11.38-2.44a4 4 0 0 0-.66.2l-10 4.05C60.17 100 51.15 88.07 49.68 85.5 42.55 73 39.31 65.18 38 61.7c2.76-2.73 7.91-7.85 9.57-9.58 3.43-3.56 4.84-7.7 3.8-11.12C50.53 38.33 42 12 41 9.4c-1.55-4.17-7.25-7.26-13.74-5-.24.08-24 8.75-26 17.15v.14c-4.36 18.39 3.15 44.82 22.36 78.53S61.82 154 80 159.69a6.94 6.94 0 0 0 2 .32c9.06 0 25.88-13.41 26.06-13.56a12 12 0 0 0 4.55-8.06 8.61 8.61 0 0 0-1.8-6.32c-1.23-1.58-19.59-22.67-21.93-25.15zM103 140.24c-5.63 4.61-17.73 12-20.77 11.79-20-6.23-39.23-33.76-51.73-55.76S4.17 43.92 9 23.57c1.5-2.72 14-9.18 20.9-11.57 2.19-.77 3.41 0 3.63.3 1 2.73 9.29 28.16 10.17 31a5.85 5.85 0 0 1-1.88 3.26c-2.19 2.31-11.1 11.12-11.19 11.21a4 4 0 0 0-1 3.88c.1.37 2.52 9.16 13.16 27.81 2.34 4.21 17.87 24.29 19.63 26.54a4 4 0 0 0 4.67 1.26l12.42-5.06a5.7 5.7 0 0 1 3.54.16c2.07 2.21 19.65 22.36 21.63 24.71.15.39 0 1.77-1.62 3.11z"/><path d="M156.61 44a26.06 26.06 0 0 0-4.78-5.7l-.17-.15a42.08 42.08 0 0 0-11.7-6.5 3.77 3.77 0 0 0-.48-.18l-.27-.08c.78-6.71-2.92-12.59-3.56-13.54a33.7 33.7 0 0 0-9.69-10 43.31 43.31 0 0 0-13.6-6.15A50.9 50.9 0 0 0 96.22.11a51.43 51.43 0 0 0-15.87 3.51 44.4 44.4 0 0 0-12.87 7.77 34.74 34.74 0 0 0-8.63 11.14A28.22 28.22 0 0 0 56 36.15a27.2 27.2 0 0 0 1.86 8.67 29.64 29.64 0 0 0 4.4 7.57 34.73 34.73 0 0 0 6.44 6.23 39 39 0 0 0 6.5 3.59 29.62 29.62 0 0 1-8.26 8 3.71 3.71 0 0 0 1.6 6.9q1.86.15 3.71.16a44.35 44.35 0 0 0 7.21-.58 43 43 0 0 0 7.54-2 78.79 78.79 0 0 0 9.88-4.87 27 27 0 0 0 7.43 7.58 34.49 34.49 0 0 0 10.83 4.9A40.52 40.52 0 0 0 127 83.56a36.8 36.8 0 0 0 3.57 2 35.27 35.27 0 0 0 6.1 2.28A33.94 33.94 0 0 0 144.2 89h1.44a35.33 35.33 0 0 0 7.21-.74 3.71 3.71 0 0 0 1.1-6.84 21.21 21.21 0 0 1-5.72-4.85 33.46 33.46 0 0 0 3.38-2.78 28.71 28.71 0 0 0 4.64-5.57 24.44 24.44 0 0 0 2.91-6.5A22.28 22.28 0 0 0 156.61 44zm-61.27 3.7a22.76 22.76 0 0 0-2.18 11 22.28 22.28 0 0 0 .66 4.3 83.73 83.73 0 0 1-9.34 4.64A35.66 35.66 0 0 1 79.36 69a28.61 28.61 0 0 0 4.52-7.18A3.71 3.71 0 0 0 81.94 57l-.16-.07a58.87 58.87 0 0 1-8.59-4.32 27.35 27.35 0 0 1-5.11-4.91 22.28 22.28 0 0 1-3.29-5.7 19.73 19.73 0 0 1-1.35-6.28 20.75 20.75 0 0 1 2.06-10A27.36 27.36 0 0 1 72.33 17 37.06 37.06 0 0 1 83 10.52a44.07 44.07 0 0 1 13.62-3 43.63 43.63 0 0 1 13.81 1.32 35.91 35.91 0 0 1 11.29 5.1 26.33 26.33 0 0 1 7.57 7.88l.08.13s2.63 4 2.42 8a41.47 41.47 0 0 0-19.29 2.65 35.32 35.32 0 0 0-10.21 6.19 27.85 27.85 0 0 0-7 9zM152 59.78a17 17 0 0 1-2 4.5 21.28 21.28 0 0 1-3.43 4.11 26.15 26.15 0 0 1-4.64 3.48 3.71 3.71 0 0 0-1.93 3.38 11.06 11.06 0 0 0 2.57 6.17 26.4 26.4 0 0 1-3.93-.75 27.85 27.85 0 0 1-4.82-1.76 29.36 29.36 0 0 1-3.71-2.13 3.71 3.71 0 0 0-2.09-.64h-.55a32.92 32.92 0 0 1-10.48-1 27.1 27.1 0 0 1-8.52-3.86 19.66 19.66 0 0 1-5.66-5.86 15 15 0 0 1-2.26-7.12A15.27 15.27 0 0 1 102 51a20.49 20.49 0 0 1 5.15-6.57 28 28 0 0 1 8.11-4.92 33.47 33.47 0 0 1 10.32-2.28 33 33 0 0 1 10.43 1l1.08.32a34.65 34.65 0 0 1 9.91 5.37 18.66 18.66 0 0 1 3.35 4A14.85 14.85 0 0 1 152 59.81z"/></svg>