<svg xmlns="http://www.w3.org/2000/svg" viewBox="0 0 32 42"><g fill="none" fill-rule="evenodd"><path d="M-4 1h40v40H-4z"/><g fill="#333"><path d="M17.813 26.207a1.953 1.953 0 0 1-1.23 1.008 1.94 1.94 0 0 1-1.08-.008 2.106 2.106 0 0 1-1.178-.892 2.298 2.298 0 0 1-.28-.651 2.644 2.644 0 0 1-.079-.794c.011-.185.038-.364.08-.537a3.246 3.246 0 0 1 1.04-1.676 3.459 3.459 0 0 1 1.01-.6 4.337 4.337 0 0 1 .492-.155c.168-.042.326-.07.467-.085a1.86 1.86 0 0 1 .465-.004c.03.004.055.01.075.018a1.536 1.536 0 0 0-1.203 1.498c0 .017.003.036.004.05.301.065.562.168.78.305a1.772 1.772 0 0 1 .542.521c.097.146.171.307.223.48.05.169.079.35.086.541v.073c0 .318-.073.63-.214.908"/><path d="M22.345 2.992a11.778 11.778 0 0 0-4.804 9.485 2.407 2.407 0 0 0 .022.321l.01.096a1 1 0 0 0 .79.917c1.973.42 3.7 1.096 5.15 2.003 1.345.842 2.45 1.876 3.307 3.087a11.486 11.486 0 0 1 1.63 3.373 14.168 14.168 0 0 1 .569 4.023 13.136 13.136 0 0 1-1.4 5.924 12.737 12.737 0 0 1-2.327 3.237 12.869 12.869 0 0 1-5.677 3.318 12.605 12.605 0 0 1-7.024-.05 13.61 13.61 0 0 1-5.934-3.603 13.848 13.848 0 0 1-1.764-2.231 15.072 15.072 0 0 1-1.841-4.26l-.007-.028c-.21-.79-.36-1.608-.448-2.442a17.32 17.32 0 0 1-.07-2.82c.069-1.222.247-2.423.53-3.585 1.064-4.37 3.6-8.348 6.966-11.234 1.963-1.705 4.278-3.05 6.81-4.038a27.922 27.922 0 0 1 2.047-.704 27.072 27.072 0 0 1 3.465-.79Zm8.674 23.305c0-.178-.004-.36-.01-.544a16.169 16.169 0 0 0-.643-4.05 13.47 13.47 0 0 0-1.922-3.97c-1.004-1.417-2.304-2.634-3.87-3.614-1.459-.912-3.142-1.612-5.023-2.085.2-4.413 3.36-8.153 7.646-9.092.98-.214 1.068-1.579.123-1.918a3.891 3.891 0 0 0-.706-.174c-.867-.14-2.116-.134-3.534.024a27.023 27.023 0 0 0-3.406.62 28.63 28.63 0 0 0-1.369.371 30.11 30.11 0 0 0-2.197.756c-2.738 1.068-5.25 2.528-7.391 4.388-3.671 3.146-6.437 7.486-7.603 12.275a21.897 21.897 0 0 0-.597 4.247c-.04.94-.01 1.895.091 2.842.1.93.266 1.843.5 2.729a17.042 17.042 0 0 0 2.096 4.86 15.85 15.85 0 0 0 2.018 2.554 15.61 15.61 0 0 0 6.808 4.13c.794.232 1.586.397 2.378.494a14.592 14.592 0 0 0 5.745-.437 14.8 14.8 0 0 0 6.558-3.837 14.742 14.742 0 0 0 2.695-3.746 15.136 15.136 0 0 0 1.613-6.823Z" fill-rule="nonzero"/><path d="M16.249 21.398a.924.924 0 0 0 .008.12l.002.02a.5.5 0 0 0 .395.459 4.691 4.691 0 0 1 1.522.59 3.324 3.324 0 0 1 1.014.975c.183.274.323.575.421.904a4.179 4.179 0 0 1 .167 1.181c0 .608-.14 1.204-.409 1.734a3.731 3.731 0 0 1-2.341 1.918 3.67 3.67 0 0 1-2.055-.015 3.997 3.997 0 0 1-1.74-1.057 4.112 4.112 0 0 1-.518-.655 4.452 4.452 0 0 1-.542-1.254 5.125 5.125 0 0 1-.156-1.568c.02-.363.074-.72.158-1.068a6.501 6.501 0 0 1 2.08-3.353 6.938 6.938 0 0 1 2.039-1.209 8.383 8.383 0 0 1 .968-.308 3.806 3.806 0 0 0-1.013 2.586Zm4.529 4.25-.003-.174a5.18 5.18 0 0 0-.206-1.294 4.338 4.338 0 0 0-.619-1.277 4.317 4.317 0 0 0-1.244-1.163 5.47 5.47 0 0 0-1.443-.623 2.813 2.813 0 0 1 2.188-2.462c.49-.108.535-.79.062-.96a1.383 1.383 0 0 0-.252-.062c-.285-.046-.686-.044-1.138.006a8.507 8.507 0 0 0-1.502.312c-.231.07-.46.148-.69.237a7.928 7.928 0 0 0-2.33 1.384 7.496 7.496 0 0 0-2.397 3.873 6.905 6.905 0 0 0-.19 1.344 6.113 6.113 0 0 0 .19 1.774c.007.033.02.077.032.12.142.502.356.984.634 1.424.187.294.402.566.645.816a4.997 4.997 0 0 0 2.178 1.321 4.753 4.753 0 0 0 1.267.193c.45.007.9-.052 1.337-.175a4.74 4.74 0 0 0 2.965-2.43c.339-.67.516-1.421.516-2.185Z" fill-rule="nonzero"/><path d="M16.785 19.004c0 .04.003.077.007.12l.004.043.005.048a.5.5 0 0 0 .395.456c.987.21 1.85.549 2.577 1.003a5.72 5.72 0 0 1 1.747 1.678c.315.473.555.99.723 1.554a7.096 7.096 0 0 1 .285 2.013 6.572 6.572 0 0 1-.7 2.963 6.387 6.387 0 0 1-1.718 2.115 6.41 6.41 0 0 1-2.287 1.166 6.3 6.3 0 0 1-3.515-.025 6.813 6.813 0 0 1-2.969-1.803 6.95 6.95 0 0 1-.882-1.116 7.555 7.555 0 0 1-.921-2.13 8.166 8.166 0 0 1-.228-1.237 8.657 8.657 0 0 1-.036-1.41 9.958 9.958 0 0 1 .266-1.795c.532-2.186 1.801-4.177 3.486-5.621.982-.853 2.14-1.526 3.407-2.02a13.991 13.991 0 0 1 1.661-.526c.37-.092.74-.166 1.098-.222a5.893 5.893 0 0 0-2.405 4.746Zm6.743 6.915a8.095 8.095 0 0 0-.326-2.298 6.742 6.742 0 0 0-.962-1.986 6.711 6.711 0 0 0-1.937-1.809 8.74 8.74 0 0 0-2.513-1.043 4.891 4.891 0 0 1 3.826-4.55c.491-.107.534-.79.06-.959a1.973 1.973 0 0 0-.351-.086c-.434-.07-1.06-.067-1.769.011-.55.064-1.125.167-1.704.31a14.707 14.707 0 0 0-1.784.565c-1.37.534-2.627 1.264-3.698 2.195-1.837 1.574-3.22 3.745-3.803 6.141a10.96 10.96 0 0 0-.3 2.124c-.02.472-.004.95.047 1.423a9.078 9.078 0 0 0 .3 1.556c.225.794.56 1.55.998 2.241.292.46.628.885 1.01 1.278a7.813 7.813 0 0 0 3.405 2.066 7.47 7.47 0 0 0 1.978.301 7.294 7.294 0 0 0 2.087-.273 7.406 7.406 0 0 0 4.63-3.793 7.582 7.582 0 0 0 .806-3.414Z" fill-rule="nonzero"/><path d="M22.806 32.925a9.293 9.293 0 0 1-4.117 2.407 9.14 9.14 0 0 1-5.092-.037 9.873 9.873 0 0 1-4.304-2.613 10.058 10.058 0 0 1-1.28-1.618 10.936 10.936 0 0 1-1.335-3.09 11.934 11.934 0 0 1-.33-1.793 12.613 12.613 0 0 1-.051-2.047c.05-.884.18-1.756.385-2.6.773-3.173 2.613-6.061 5.057-8.155 1.424-1.238 3.104-2.215 4.944-2.932a19.697 19.697 0 0 1 3.91-1.07 8.585 8.585 0 0 0-3.427 6.859 1.768 1.768 0 0 0 .016.236l.007.068a.75.75 0 0 0 .592.688c1.433.304 2.685.795 3.737 1.453a8.286 8.286 0 0 1 2.534 2.435 8.335 8.335 0 0 1 1.045 2.248 10.298 10.298 0 0 1 .412 2.918 9.528 9.528 0 0 1-1.014 4.295.75.75 0 1 0 1.34.675.75.75 0 0 0-1.34-.675 9.24 9.24 0 0 1-1.689 2.348Zm4.203-6.643a11.802 11.802 0 0 0-.475-3.346 9.826 9.826 0 0 0-1.4-2.892 9.773 9.773 0 0 0-2.82-2.635c-1.058-.661-2.278-1.17-3.64-1.514a7.083 7.083 0 0 1 5.539-6.568c.735-.161.801-1.185.093-1.439a2.849 2.849 0 0 0-.519-.127c-.63-.103-1.54-.098-2.574.017-.8.092-1.637.242-2.48.45-.332.082-.664.173-.996.271-.54.163-1.071.346-1.598.55-1.994.778-3.822 1.84-5.38 3.195-2.672 2.289-4.685 5.448-5.534 8.934a15.95 15.95 0 0 0-.435 3.09 14.09 14.09 0 0 0 .067 2.071 13.323 13.323 0 0 0 .438 2.266 12.421 12.421 0 0 0 1.452 3.262c.425.668.914 1.288 1.47 1.86a11.372 11.372 0 0 0 4.959 3.008 10.808 10.808 0 0 0 2.88.439 10.63 10.63 0 0 0 3.038-.397 10.788 10.788 0 0 0 4.778-2.796 10.743 10.743 0 0 0 1.963-2.729 11.028 11.028 0 0 0 1.174-4.97Z" fill-rule="nonzero"/></g></g></svg>