<svg xmlns="http://www.w3.org/2000/svg" viewBox="0 0 160 160"><path d="M144 24h-32v-6.79C112 6.76 105.79 0 96.17 0H63.64C54.14 0 48 6.71 48 17.09V24H16A16 16 0 0 0 0 40v80a16 16 0 0 0 16 16h128a16 16 0 0 0 16-16V40a16 16 0 0 0-16-16zm-88-6.91C56 12.94 57.33 8 63.64 8h32.53C103 8 104 13.77 104 17.21V24H56zM144 128H16a8 8 0 0 1-8-8V76a19.87 19.87 0 0 0 12 4h12v12a4 4 0 0 0 8 0V80h80v12a4 4 0 0 0 8 0V80h12a19.87 19.87 0 0 0 12-4v44a8 8 0 0 1-8 8zm-4-56h-12V60a4 4 0 0 0-8 0v12H40V60a4 4 0 0 0-8 0v12H20A12 12 0 0 1 8 60V40a8 8 0 0 1 8-8h128a8 8 0 0 1 8 8v20a12 12 0 0 1-12 12z"/></svg>