<svg xmlns="http://www.w3.org/2000/svg" viewBox="0 0 160 160"><path d="M136.17 0H23.83C15.1 0 8 6.82 8 15.2l3.94 89.69C12 113.23 19.07 120 27.77 120H32v24a16 16 0 0 0 16 16h64a16 16 0 0 0 16-16v-24h4.23c8.7 0 15.78-6.77 15.83-15.11L152 15.38v-.18C152 6.82 144.9 0 136.17 0zM120 144a8 8 0 0 1-8 8H48a8 8 0 0 1-8-8v-24h80zm20.06-39.38v.18c0 4-3.51 7.2-7.83 7.2H27.77c-4.32 0-7.83-3.23-7.83-7.2L16 15.12C16 11.19 19.54 8 23.83 8h112.34c4.29 0 7.78 3.19 7.83 7.12z"/><path d="M52 144h56a4 4 0 0 0 0-8H52a4 4 0 0 0 0 8z"/></svg>