<svg xmlns="http://www.w3.org/2000/svg" viewBox="0 0 160 160"><path d="M61.72 99c-9.31 15.82-26.54 28-28.32 29.27a.24.24 0 0 1-.3 0A190.56 190.56 0 0 1 7 101.17C-5.89 84.5.91 67.91 12.12 65.29c14.13-3.29 19.7 5.31 21.09 7.48 1.62-2.8 7.42-10.49 20.68-7.72 10.2 2.14 18.43 15.87 7.83 33.95z"/><path d="M85 160c-18.33 0-36.25-9.26-48-24.79a2.46 2.46 0 0 1 3.93-3c10.8 14.3 27.26 22.83 44.05 22.83h.16c20.14-.07 32.92-9.48 40.09-17.35a54.79 54.79 0 0 0 14.35-36.53c-.09-27-15.21-44.42-44.94-51.66a2.44 2.44 0 0 1-1.83-1.92 12.76 12.76 0 0 1-.17-2.18c-.06-16.78 10.08-32.58 24.81-40.37C97.59 6.29 75.82 15 59.61 28.46A90 90 0 0 0 35.42 60.7a2.46 2.46 0 0 1-4.5-2 95.12 95.12 0 0 1 25.55-34C74.75 9.53 99.82.07 121.89 0a35.45 35.45 0 0 1 7.11.62 2.75 2.75 0 0 1 2.32 2.68 2.72 2.72 0 0 1-2.27 2.62C111.06 10.17 97.58 27 97.53 45.2c30.62 8 46.84 27.35 46.94 56a59.71 59.71 0 0 1-15.63 39.8c-11.08 12.17-26.61 18.9-43.71 19z"/></svg>