<svg xmlns="http://www.w3.org/2000/svg" viewBox="0 0 160 160"><path d="M159 17.23a4 4 0 0 0-.44-.74c-.06-.08-.14-.15-.21-.22a7 7 0 0 0-.81-.87c-3.12-2.77-7.65-2.2-13.92-1.42-11.81 1.47-31.56 3.93-58-12.58a10.66 10.66 0 0 0-11.24 0C48 17.92 28.2 15.47 16.39 14c-6.27-.78-10.8-1.34-13.92 1.42a8.43 8.43 0 0 0-2.59 6.64c0 43.18 12.23 73.81 27.05 95.07 19 27.24 42.24 39.1 49.41 42.27a8.83 8.83 0 0 0 7.17 0c12.78-5.66 76.54-38.86 76.54-137.39a9.68 9.68 0 0 0-1.05-4.78zM8 21.43c1.28-.26 4.7.16 7.49.51 12 1.49 34.4 4.27 63.21-13.76a2.62 2.62 0 0 1 2.76 0c28.8 18 51.17 15.23 63.19 13.74h.32L31.09 109C18.18 89 7.88 60.92 7.88 22.06a4.75 4.75 0 0 1 .04-.63zm72.29 130.72a.82.82 0 0 1-.67 0C73.19 149.3 53 139 35.65 115.56L152 26.49c-1.81 90.14-59.9 120.43-71.71 125.66z"/></svg>