<svg data-name="Layer 1" xmlns="http://www.w3.org/2000/svg" viewBox="0 0 120 120"><path d="M74.74 61.69c-.06-6.83 5.58-10.11 5.84-10.27a12.62 12.62 0 0 0-9.88-5.36c-4.2-.43-8.21 2.47-10.34 2.47s-5.42-2.41-8.91-2.34A13.21 13.21 0 0 0 40.27 53c-4.76 8.26-1.21 20.5 3.42 27.21 2.27 3.28 5 7 8.53 6.83s4.72-2.21 8.85-2.21S66.36 87 70 86.93s6-3.35 8.27-6.64A29.69 29.69 0 0 0 82 72.61a11.93 11.93 0 0 1-7.25-10.92M67.94 41.62A11.88 11.88 0 0 0 70.75 33a12.1 12.1 0 0 0-8 4.09 11.29 11.29 0 0 0-2.86 8.35c3 .23 6.12-1.54 8-3.82" fill-rule="evenodd"/></svg>