<svg data-name="Layer 1" xmlns="http://www.w3.org/2000/svg" viewBox="0 0 120 120"><path d="M74.74 61.69c-.06-6.83 5.58-10.12 5.83-10.28a12.6 12.6 0 0 0-9.88-5.35c-4.2-.43-8.2 2.47-10.33 2.47s-5.43-2.41-8.91-2.34A13.2 13.2 0 0 0 40.27 53c-4.76 8.26-1.21 20.5 3.42 27.2 2.27 3.28 5 7 8.53 6.84s4.72-2.22 8.85-2.22S66.36 87 70 86.93s6-3.35 8.27-6.63A30.08 30.08 0 0 0 82 72.61a11.89 11.89 0 0 1-7.25-10.92M67.94 41.62A11.9 11.9 0 0 0 70.75 33a12.12 12.12 0 0 0-8 4.09 11.36 11.36 0 0 0-2.86 8.36c3 .23 6.12-1.55 8-3.83" fill-rule="evenodd"/></svg>