<svg data-name="Layer 1" xmlns="http://www.w3.org/2000/svg" viewBox="0 0 120 120"><path d="M58.77 62.07a1.92 1.92 0 0 1-3.65-.87 2.48 2.48 0 0 1 2.33-2.65 1.77 1.77 0 0 1 1.88 1.31h2.19c.13-.82-.52-3.33-4-3.33A4.59 4.59 0 0 0 53 61.27a3.69 3.69 0 0 0 4 3.93 4 4 0 0 0 4.17-3.13zM41.94 62.68a4.86 4.86 0 0 1 .15-.88l1.66-7.65h-2.06L40 62a4.52 4.52 0 0 0-.1.95 2.17 2.17 0 0 0 2.4 2.23 5.61 5.61 0 0 0 .83-.08c0-.17.36-1.65.37-1.72h-.54c-.78.06-1.02-.27-1.02-.7zM68.3 56.56l-3.69 3.32 1.24-5.74h-2.07l-2.35 10.9h2.07l.57-2.65 1.27-1.01 1.77 3.66h2.3l-2.5-4.91 4.26-3.57H68.3zM37.48 57.15c0-.53-.4-1-1.39-1H34l-.48 2.2h2.18c1.17.01 1.78-.56 1.78-1.2zm-.71 4.39c0-.51-.33-1.16-1.79-1.16h-1.9L32.51 63h2.15c1.39 0 2.11-.62 2.11-1.46zm-6.14.13l1.63-7.52h3.92c2.85 0 3.55 1.58 3.55 2.54a2.92 2.92 0 0 1-2.25 2.76A2.29 2.29 0 0 1 39 61.7c0 1.82-1.66 3.3-4.26 3.3h-1.18c-2.17 0-3.34-1.46-2.93-3.33zM77.07 57.15c0-.53-.4-1-1.39-1h-2.1l-.47 2.2h2.19c1.17.01 1.77-.56 1.77-1.2zm-.7 4.39c0-.51-.33-1.16-1.79-1.16h-1.9L72.1 63h2.15c1.39 0 2.11-.62 2.11-1.46zm-6.14.13l1.63-7.52h3.92c2.85 0 3.55 1.58 3.55 2.54a2.92 2.92 0 0 1-2.25 2.76 2.3 2.3 0 0 1 1.52 2.25c0 1.81-1.67 3.33-4.27 3.33h-1.17c-2.16-.03-3.35-1.49-2.94-3.36zM93.55 56.57c-2.2 0-3.69 1.3-4.19 3.74-.22 1-1 4.73-1 4.73h2.04l1-4.61c.31-1.44 1.08-1.93 2.1-1.93a4 4 0 0 1 .65.05c.06-.29.34-1.59.41-1.91a7.64 7.64 0 0 0-1.01-.07zM100.55 68.28l6.9-11.71h-2.22l-3.17 5.51-.74-5.52h-2.38c-2.72 0-4.13 1.25-4.63 3.63-.25 1.19-1 4.85-1 4.85h2.06s.75-3.48 1.06-4.88a1.85 1.85 0 0 1 2.39-1.55l.43-2c.32 1.9 1.3 8 1.3 8l-2.15 3.7zM47.11 59.22a2.16 2.16 0 0 1 1.9-.9c.82 0 1.24.3 1.24.66s-.83.64-2.26.85c-2.46.36-4 1.12-4 2.89a2.63 2.63 0 0 0 2.9 2.49 3.26 3.26 0 0 0 2.42-1c0 .22 0 .56.06.83h2.13a4.82 4.82 0 0 1 0-2.2c.13-.59.51-2.3.7-3.24.36-1.78-.61-3-3.12-3a4.33 4.33 0 0 0-4.3 2.67h2.32zm.77 2.21l2-.3-.13.53a2.4 2.4 0 0 1-2.43 1.68c-.73 0-1.16-.4-1.16-.86s.31-.84 1.72-1.05zM84.1 58.42c1.39 0 1.91.85 1.86 1.52H82a2.21 2.21 0 0 1 2.1-1.52zm1.22 4.08a1.86 1.86 0 0 1-1.69.86 1.81 1.81 0 0 1-1.94-1.74H88a5.71 5.71 0 0 0 .18-1.29 3.72 3.72 0 0 0-4.06-3.8 4.54 4.54 0 0 0-4.47 4.56 3.77 3.77 0 0 0 4 4.1 4.09 4.09 0 0 0 4.07-2.7zM17.61 52.9c0-.52-.32-1.18-1.66-1.18h-2.07l-.59 2.72h2.16c1.69 0 2.16-.8 2.16-1.54zM23.19 52.9c0-.52-.32-1.18-1.66-1.18h-2.07l-.59 2.72H21c1.71 0 2.19-.8 2.19-1.54zM16.87 57c0-.52-.32-1.19-1.66-1.19h-2.08l-.59 2.72h2.16c1.69.01 2.17-.79 2.17-1.53zM22.44 57c0-.52-.32-1.19-1.66-1.19h-2.07l-.59 2.72h2.16c1.72.01 2.16-.79 2.16-1.53zM28.28 55.34c0-.52-.32-1.19-1.66-1.19h-2.08L24 56.88h2.16c1.64 0 2.12-.8 2.12-1.54zM27.47 59.6c0-.52-.32-1.18-1.66-1.18h-2.07l-.59 2.72h2.16c1.69 0 2.16-.8 2.16-1.54zM21.64 61.26c0-.52-.32-1.19-1.66-1.19h-2.07l-.59 2.72h2.16c1.68.01 2.16-.79 2.16-1.53z" /></svg>