<svg data-name="Layer 1" xmlns="http://www.w3.org/2000/svg" viewBox="0 0 120 120"><path d="M58.77 62.07a1.91 1.91 0 0 1-3.65-.87 2.48 2.48 0 0 1 2.32-2.65 1.77 1.77 0 0 1 1.88 1.31h2.2c.13-.82-.52-3.32-4-3.32A4.58 4.58 0 0 0 53 61.27a3.69 3.69 0 0 0 3.95 3.93 4 4 0 0 0 4.17-3.13zM41.94 62.68a5.28 5.28 0 0 1 .15-.87c.11-.52 1.66-7.65 1.66-7.65h-2.06L40 62a4.65 4.65 0 0 0-.1.95 2.16 2.16 0 0 0 2.4 2.23 6.11 6.11 0 0 0 .83-.07c0-.18.36-1.66.37-1.72h-.53c-.79.05-1.03-.28-1.03-.71zM68.3 56.56l-3.69 3.32 1.24-5.74h-2.07l-2.35 10.9h2.07l.57-2.65 1.27-1.01 1.77 3.66h2.3l-2.5-4.91 4.26-3.57H68.3zM37.48 57.15c0-.53-.41-1-1.4-1H34l-.48 2.2h2.18c1.17.01 1.78-.56 1.78-1.2zm-.71 4.39c0-.52-.33-1.17-1.79-1.17h-1.91L32.51 63h2.15c1.39 0 2.11-.62 2.11-1.46zm-6.14.13l1.63-7.53h3.92c2.85 0 3.55 1.59 3.55 2.55a2.93 2.93 0 0 1-2.25 2.76A2.28 2.28 0 0 1 39 61.7c0 1.82-1.66 3.3-4.26 3.3h-1.18c-2.17 0-3.34-1.46-2.93-3.33zM77.07 57.15c0-.53-.4-1-1.39-1h-2.1l-.48 2.2h2.19c1.18.01 1.78-.56 1.78-1.2zm-.71 4.39c0-.52-.33-1.17-1.79-1.17h-1.9L72.1 63h2.15c1.39 0 2.11-.62 2.11-1.46zm-6.14.13c.18-.78 1.64-7.53 1.64-7.53h3.92c2.84 0 3.54 1.59 3.54 2.55a2.92 2.92 0 0 1-2.25 2.76 2.28 2.28 0 0 1 1.53 2.25c0 1.82-1.67 3.34-4.26 3.34h-1.18c-2.16-.04-3.35-1.5-2.94-3.37zM93.55 56.57c-2.19 0-3.69 1.3-4.19 3.74-.22 1-1 4.73-1 4.73h2.04l1-4.6c.32-1.45 1.08-1.94 2.11-1.94a3.33 3.33 0 0 1 .65.06c0-.3.34-1.6.41-1.92a7.56 7.56 0 0 0-1.02-.07zM100.55 68.28l6.9-11.71h-2.22l-3.17 5.51-.74-5.52h-2.38c-2.72 0-4.13 1.25-4.63 3.63-.25 1.19-1 4.85-1 4.85h2.06l1.05-4.88a1.87 1.87 0 0 1 2.4-1.55l.43-2c.32 1.9 1.3 8 1.3 8l-2.15 3.7zM47.11 59.22a2.17 2.17 0 0 1 1.9-.9c.82 0 1.24.3 1.24.66 0 .51-.82.65-2.26.85-2.45.36-4 1.12-4 2.9a2.64 2.64 0 0 0 2.9 2.48 3.27 3.27 0 0 0 2.42-1c0 .22 0 .56.06.83h2.13a4.78 4.78 0 0 1 0-2.2c.13-.6.5-2.31.7-3.25.36-1.78-.62-3-3.13-3a4.34 4.34 0 0 0-4.3 2.67zm.77 2.21l2-.3c0 .14-.09.37-.12.54a2.41 2.41 0 0 1-2.44 1.68c-.73 0-1.16-.4-1.16-.87s.31-.84 1.72-1.05zM84.1 58.42c1.39 0 1.92.84 1.86 1.52H82a2.2 2.2 0 0 1 2.1-1.52zm1.22 4.08a1.86 1.86 0 0 1-1.69.86 1.8 1.8 0 0 1-1.94-1.74H88a5.38 5.38 0 0 0 .18-1.28 3.72 3.72 0 0 0-4.06-3.8 4.53 4.53 0 0 0-4.47 4.56 3.77 3.77 0 0 0 4 4.1 4.09 4.09 0 0 0 4.08-2.7zM17.61 52.9c0-.52-.31-1.18-1.66-1.18h-2.07l-.59 2.72h2.16c1.69 0 2.16-.8 2.16-1.54zM23.19 52.9c0-.52-.32-1.18-1.66-1.18h-2.07l-.59 2.72H21c1.71 0 2.19-.8 2.19-1.54zM16.87 57c0-.52-.32-1.19-1.67-1.19h-2.07l-.58 2.73h2.15c1.69 0 2.17-.8 2.17-1.54zM22.44 57c0-.52-.32-1.19-1.66-1.19h-2.07l-.59 2.73h2.16c1.72 0 2.16-.8 2.16-1.54zM28.28 55.34c0-.53-.32-1.19-1.67-1.19h-2.07L24 56.88h2.16c1.64 0 2.12-.8 2.12-1.54zM27.47 59.6c0-.52-.32-1.18-1.66-1.18h-2.07l-.59 2.72h2.16c1.69 0 2.16-.8 2.16-1.54zM21.64 61.26c0-.52-.32-1.18-1.66-1.18h-2.07l-.59 2.72h2.16c1.68 0 2.16-.8 2.16-1.54z"/></svg>