<svg viewBox="0 0 100 100" xmlns="http://www.w3.org/2000/svg"><path d="M52.166 56.832a5.101 5.101 0 0 1-5.045-5.165 5.314 5.314 0 0 1 5.045-5.406 5.163 5.163 0 0 1 5.045 5.166 5.236 5.236 0 0 1-5.045 5.405zm-.12-12.012a6.727 6.727 0 1 0 6.727 6.727 6.64 6.64 0 0 0-6.727-6.727zM39.193 58.033h1.682v-7.567a4.614 4.614 0 0 1 .84-2.643 4.307 4.307 0 0 1 2.763-1.322V44.82c-1.44.12-2.883.36-3.603 2.16v-1.92h-1.682v12.973zm-9.25-1.201a5.101 5.101 0 0 1-5.045-5.165 5.314 5.314 0 0 1 5.046-5.406 5.163 5.163 0 0 1 5.045 5.166c0 3.363-2.523 5.405-5.045 5.405zm0-12.012a6.727 6.727 0 1 0 6.727 6.727 6.715 6.715 0 0 0-6.726-6.727zM13.968 56.832a5.18 5.18 0 0 1-5.285-5.285 5.11 5.11 0 0 1 5.285-5.286 5.287 5.287 0 0 1 0 10.57zm6.607-16.337h-1.562v6.727a6.073 6.073 0 0 0-5.045-2.523C9.763 44.82 7 48.063 7 51.547a6.772 6.772 0 0 0 6.967 6.726 6.217 6.217 0 0 0 5.045-2.522v2.282h1.682V40.495h-.12zM66.22 44.34c2.16-.84 5.045-1.321 6.486-1.562.404-.016.77-.245.961-.6a7.526 7.526 0 0 1 7.208-3.604 9.034 9.034 0 0 1 6.486 3.724c.28.343.656.594 1.08.72.862.16 1.707.4 2.523.72.48.12.72.12.6-.24a14.627 14.627 0 0 0-26.186.12c-.24.72-.12 1.08.84.72l.002.002zm26.306 7.448a12.037 12.037 0 0 0-3.483-1.201.726.726 0 0 0-.72.36 7.719 7.719 0 0 1-7.447 3.964 9.26 9.26 0 0 1-6.73-3.843 1.301 1.301 0 0 0-1.44-.601c-1.682.24-5.045.84-7.327 1.922l-.12.12c-.72.36-.961.72-.72 1.8a14.527 14.527 0 0 0 28.228-1.44c.12-.72 0-.96-.24-1.08v-.001zM76.671 45.78a4.109 4.109 0 0 1 4.565-4.084c2.523.24 4.565 2.403 4.565 4.805a4.109 4.109 0 0 1-4.565 4.084 4.856 4.856 0 0 1-4.565-4.805z" fill="#008545"/></svg>