<svg xmlns="http://www.w3.org/2000/svg" viewBox="-100 -140 480 480">
  <path d="M122.7 49.8c16.8 0 31.9 6 43.8 15.7l34.6-34.6C180 12.4 153 1 122.7 1c-47 0-87.5 26.9-106.8 66.3L56 97.9c9.3-28 35.6-48.1 66.7-48.1zM122.7 190.4c-31.2 0-57.5-20.2-66.8-48.3l-40 30.6C35.2 212.1 75.7 239 122.7 239c29 0 56.8-10.3 77.6-29.6l-38-29.4c-10.7 6.8-24.3 10.4-39.6 10.4z"/>
  <path d="M236.3 120c0-7-1.1-14.6-2.7-21.6H122.7v46h63.8c-3.2 15.7-11.8 27.7-24.2 35.6l37.9 29.4c21.9-20.3 36.1-50.6 36.1-89.4zM52.4 120.1c0-7.8 1.3-15.2 3.6-22.2L15.9 67.3C8.1 83.1 3.7 101 3.7 120s4.4 36.9 12.2 52.7l40-30.6c-2.2-6.9-3.5-14.4-3.5-22z"/>
</svg>
