<svg data-name="Layer 1" xmlns="http://www.w3.org/2000/svg" viewBox="0 0 120 120"><path d="M92.65 69c-4.14 0-8.07.06-9.16 0a4 4 0 0 1-3.86-3.77 19.81 19.81 0 0 1 0-3.66c.2-2.08 1.94-4.05 3.87-4.15h15.67v-4.11L89 53.29h-5.72a7.85 7.85 0 0 0-5.48 2.33 9.08 9.08 0 0 0-2.29 5.78 28.39 28.39 0 0 0 0 3.69 8.86 8.86 0 0 0 2.29 5.56A8.11 8.11 0 0 0 83.32 73h15.84v-4.06h-6.51M48.53 53.53v4.05h9.65v15.34h4.07V57.58h9.64v-4.05H48.53zM44.31 61.18A7.81 7.81 0 0 0 42 55.62a8.78 8.78 0 0 0-5.48-2.32c-1.35-.08-6.67-.05-7.92 0a6.89 6.89 0 0 0-3.69 1.08V47h-4.07v26h4.06s-.08-10.64 0-11.8a4.13 4.13 0 0 1 3.72-3.85c1.6-.14 6.39-.1 7.9 0a4 4 0 0 1 3.71 3.93v11.71h4.07V61.18" /></svg>