<svg data-name="Layer 1" xmlns="http://www.w3.org/2000/svg" xmlns:xlink="http://www.w3.org/1999/xlink" viewBox="0 0 120 120"><defs><radialGradient id="a" cx="-1034.73" cy="374.36" r=".19" gradientTransform="matrix(214.88 0 0 -214.88 222406.1 80477.77)" gradientUnits="userSpaceOnUse"><stop offset="0" stop-color="#f9ab95"/><stop offset=".42" stop-color="#ed1c24"/><stop offset=".43" stop-color="#ed1c24"/><stop offset=".87" stop-color="#ed1c24"/><stop offset="1" stop-color="#981015"/></radialGradient><radialGradient id="b" cx="-1034.73" cy="374.36" r=".19" gradientTransform="matrix(214.9 0 0 -214.9 222429.48 80486.22)" xlink:href="#a"/><radialGradient id="c" cx="-1034.73" cy="374.36" r=".19" gradientTransform="matrix(214.84 0 0 -214.84 222369.97 80464.65)" xlink:href="#a"/><radialGradient id="d" cx="-1034.73" cy="374.36" r=".19" gradientTransform="matrix(214.84 0 0 -214.84 222371.73 80465.26)" xlink:href="#a"/><radialGradient id="e" cx="-1034.73" cy="374.36" r=".19" gradientTransform="matrix(215.09 0 0 -215.09 222627.3 80558.18)" xlink:href="#a"/><radialGradient id="f" cx="-1034.73" cy="374.36" r=".19" gradientTransform="matrix(215.05 0 0 -215.05 222586.5 80543.37)" xlink:href="#a"/><radialGradient id="g" cx="-1034.73" cy="374.36" r=".19" gradientTransform="matrix(215.08 0 0 -215.08 222616.53 80554.25)" xlink:href="#a"/><radialGradient id="h" cx="-1034.73" cy="374.36" r=".19" gradientTransform="matrix(215.09 0 0 -215.09 222630.76 80559.43)" xlink:href="#a"/></defs><g data-name="g3348"><path data-name="path3350" d="M33.25 83.28H38v-3.77h2.12v9.3H38v-3.89h-4.75v3.89h-2.12v-9.3h2.12z" fill="#231f20"/></g><g data-name="g3354"><g data-name="g3360"><path data-name="path3362" d="M43.93 85.08c0 1.65.52 2.33 2.27 2.33s2.26-.68 2.26-2.33v-5.57h2.12v5.62a3.69 3.69 0 0 1-.59 2.5 4.78 4.78 0 0 1-3.79 1.28 4.8 4.8 0 0 1-3.8-1.28 3.67 3.67 0 0 1-.57-2.5v-5.62h2.1z" fill="#231f20"/></g><g data-name="g3364"><path data-name="path3366" d="M54.82 84.94h3l-1.52-3.58zm2.68-5.43l4.29 9.3h-2.35l-.93-2.21h-4.38l-.89 2.21H51l4.26-9.3z" fill="#231f20"/></g><g data-name="g3368"><path data-name="path3370" d="M62.75 79.51l2.33 7.15 2-7.15h2.5l2.25 7.15L74 79.51h2.18L73 88.81h-2.6l-2.1-6.94-1.88 6.94h-2.59l-3.35-9.3z" fill="#231f20"/></g><g data-name="g3372"><path data-name="path3374" d="M79 83.29h5.86v1.62H79c0 1.67.73 2.28 2.4 2.28h3.47v1.62h-3.58a4.72 4.72 0 0 1-3.14-.81 4.22 4.22 0 0 1-1.54-3.66c0-3.29 1.49-4.82 4.74-4.82h3.51v1.62h-3.47A2.07 2.07 0 0 0 79 83.29" fill="#231f20"/></g><path data-name="path3376" d="M86.73 79.51H89v9.3h-2.27z" fill="#231f20"/></g><g data-name="g3378"><g data-name="g3380"><g data-name="g3386"><g data-name="g3388"><path data-name="path3402" d="M35.27 48.32a8.51 8.51 0 0 0 2.93 5.79c4.41 4.3 15.09 9.72 17.56 11s.17 0 .24 0a.19.19 0 0 0 0-.21 132.34 132.34 0 0 0-16-26.19s-5.06 4.8-4.7 9.61" fill="url(#a)"/></g></g></g></g><g data-name="g3404"><g data-name="g3406"><g data-name="g3412"><g data-name="g3414"><path data-name="path3428" d="M36.36 69.15c1.92 3.43 5.17 6.1 8.55 5.28 2.34-.58 7.62-4.27 9.36-5.52.14-.12.1-.22.1-.22a.26.26 0 0 0-.24-.16l-17.76.62z" fill="url(#b)"/></g></g></g></g><g data-name="g3430"><g data-name="g3432"><g data-name="g3438"><g data-name="g3440"><path data-name="path3454" d="M32.1 61.17a10.6 10.6 0 0 0 5.61 5.31 10.69 10.69 0 0 0 3.4.74h13.33a.22.22 0 0 0 .18-.12c.09-.14-.06-.27-.06-.27-7.81-5.26-22.94-13.35-22.94-13.35a10.55 10.55 0 0 0 .48 7.69" fill="url(#c)"/></g></g></g></g><g data-name="g3456"><g data-name="g3458"><g data-name="g3464"><g data-name="g3466"><path data-name="path3480" d="M52.94 31.59a8.22 8.22 0 0 0-5.82 5.48 10.79 10.79 0 0 0 0 5.64c1.56 7 9.29 18.41 11 20.82.12.11.21.07.21.07a.22.22 0 0 0 .17-.22C61 37.82 55.8 31 55.8 31c-.78.07-2.86.55-2.86.55" fill="url(#d)"/></g></g></g></g><g data-name="g3482"><g data-name="g3484"><g data-name="g3490"><g data-name="g3492"><path data-name="path3506" d="M61.54 63.4a.22.22 0 0 0 .13.2.22.22 0 0 0 .26-.1c1.71-2.46 9.39-13.86 11-20.79s.84-3.37 0-5.64a8.24 8.24 0 0 0-5.87-5.48s-1.36-.35-2.8-.55S59 37.82 61.54 63.4" fill="url(#e)"/></g></g></g></g><g data-name="g3508"><g data-name="g3510"><g data-name="g3516"><g data-name="g3518"><path data-name="path3532" d="M65.89 68.54s-.16 0-.2.14a.24.24 0 0 0 .07.24c1.69 1.22 6.85 4.83 9.34 5.53s4.59 1.56 8.58-5.29l-17.79-.62z" fill="url(#f)"/></g></g></g></g><g data-name="g3534"><g data-name="g3536"><g data-name="g3542"><g data-name="g3544"><path data-name="path3558" d="M65.49 66.82a.24.24 0 0 0-.08.26s.07.13.18.13h13.65a10.49 10.49 0 0 0 3.05-.7A10.42 10.42 0 0 0 88 61a10.71 10.71 0 0 0 .4-7.56s-15.1 8.11-22.91 13.38" fill="url(#g)"/></g></g></g></g><g data-name="g3560"><g data-name="g3562"><g data-name="g3568"><g data-name="g3570"><path data-name="path3584" d="M64 64.73a.26.26 0 0 0 0 .29.23.23 0 0 0 .24 0c2.55-1.27 13.14-6.65 17.52-10.93a8.56 8.56 0 0 0 2.93-5.81c.32-5-4.69-9.59-4.69-9.59a131.86 131.86 0 0 0-16 26" fill="url(#h)"/></g></g></g></g></svg>