<svg data-name="Layer 1" xmlns="http://www.w3.org/2000/svg" viewBox="0 0 120 120"><path d="M33.23 83.3h4.71v-3.77h2.12v9.3h-2.12v-3.89h-4.71v3.89h-2.12v-9.3h2.12v3.77zM43.9 85.1c0 1.64.52 2.33 2.27 2.33s2.26-.69 2.26-2.33v-5.57h2.12v5.62a3.7 3.7 0 0 1-.6 2.5 4.77 4.77 0 0 1-3.78 1.28 4.83 4.83 0 0 1-3.8-1.28 3.69 3.69 0 0 1-.57-2.5v-5.62h2.1zM57.47 79.53l4.29 9.3h-2.35l-.93-2.21H54.1l-.89 2.21H51l4.26-9.3zM54.79 85h3l-1.53-3.58zM62.72 79.53l2.33 7.15 1.96-7.15h2.51l2.25 7.15 2.17-7.15h2.18l-3.11 9.3h-2.6l-2.15-6.94-1.87 6.94H63.8l-3.35-9.3h2.27zM79 83.31h5.86v1.62H79c0 1.68.73 2.29 2.4 2.29h3.47v1.62h-3.61a4.75 4.75 0 0 1-3.15-.84 4.22 4.22 0 0 1-1.54-3.66c0-3.29 1.5-4.82 4.74-4.82h3.51v1.62h-3.46A2.06 2.06 0 0 0 79 83.31M86.7 79.53h2.21v9.3H86.7zM64 64.76a132 132 0 0 1 16-26.02s5 4.61 4.68 9.58a8.56 8.56 0 0 1-2.93 5.81c-4.39 4.28-15 9.66-17.52 10.93A.23.23 0 0 1 64 65a.24.24 0 0 1 0-.28zm1.48 2.09c7.81-5.27 22.91-13.37 22.91-13.37A10.73 10.73 0 0 1 88 61a10.42 10.42 0 0 1-5.72 5.47 10.59 10.59 0 0 1-3.06.7H65.57c-.1 0-.18-.13-.18-.13a.24.24 0 0 1 .09-.26zm.39 1.72l17.78.62c-4 6.85-8.58 5.29-8.58 5.29-2.49-.7-7.64-4.3-9.33-5.53a.23.23 0 0 1-.07-.23c.03-.13.19-.15.19-.15zm-4.2-4.95a.23.23 0 0 1-.14-.2C59 37.85 64.22 31.07 64.22 31.07c1.44.2 2.8.55 2.8.55a8.22 8.22 0 0 1 5.87 5.48c.82 2.27 0 5.63 0 5.63-1.57 6.94-9.25 18.33-11 20.79a.21.21 0 0 1-.24.1zm-8.74-32s2.09-.47 2.86-.54c0 0 5.24 6.78 2.69 32.33a.22.22 0 0 1-.17.22s-.09 0-.21-.07c-1.66-2.4-9.39-13.85-11-20.82a10.83 10.83 0 0 1 0-5.63 8.24 8.24 0 0 1 5.81-5.49zM32.08 61.19a10.51 10.51 0 0 1-.48-7.69s15.12 8.08 22.93 13.34.15.13.06.27a.23.23 0 0 1-.18.12c-2.76 0-13.06.05-13.32 0a10.78 10.78 0 0 1-3.4-.74 10.57 10.57 0 0 1-5.61-5.3zm4.25 8l17.76-.62a.25.25 0 0 1 .23.16s0 .1-.1.22c-1.74 1.25-7 4.93-9.36 5.52-3.36.8-6.61-1.87-8.53-5.3zm-1.08-20.84c-.36-4.8 4.69-9.6 4.69-9.6A132.23 132.23 0 0 1 56 64.83a.18.18 0 0 1 0 .17c-.07.1-.2.05-.24 0-2.48-1.24-13.15-6.66-17.56-11a8.5 8.5 0 0 1-2.95-5.65z"/></svg>