<svg xmlns="http://www.w3.org/2000/svg" viewBox="0 0 120 120"><path d="M92.8 45.1c-8.2 0-14.9 6.7-14.9 14.9s6.7 14.9 14.9 14.9 14.9-6.7 14.9-14.9c.1-8.2-6.6-14.9-14.9-14.9.1 0 .1 0 0 0zm0 23.5c-4.7 0-8.6-3.9-8.6-8.6 0-4.7 3.9-8.6 8.6-8.6 4.7 0 8.6 3.9 8.6 8.6.1 4.7-3.8 8.6-8.6 8.6zM60.6 45.1c-4.6 0-8.9 2.2-11.8 5.8-2.8-3.7-7.1-5.8-11.8-5.8-8.2 0-14.8 7-14.8 15.1v14c3.4 0 6.2-2.8 6.2-6.2v-7.9c-.1-4.7 3.7-8.7 8.5-8.8s8.7 3.7 8.8 8.5V68c0 3.4 2.8 6.2 6.2 6.2v-14c-.1-4.7 3.7-8.7 8.5-8.8s8.7 3.7 8.8 8.5V68c0 3.4 2.8 6.2 6.2 6.2v-14c0-8.1-6.6-15.1-14.8-15.1zM18.5 74.3V51.8c0-3.4-2.8-6.2-6.2-6.2V68c0 3.5 2.8 6.3 6.2 6.3z"/></svg>