<svg id="Layer_1" xmlns="http://www.w3.org/2000/svg" viewBox="-40 -50 320 320"><style>.st0 { fill: #ffffff; }
</style><path d="M120 57.3c-64.9 0-117.6 28.2-117.6 63s52.7 63 117.6 63 117.6-28.2 117.6-63-52.7-63-117.6-63z"/><path class="st0" d="M120 65.1c30.4 0 58.9 6.3 80.1 17.7 19.6 10.5 30.4 23.8 30.4 37.6s-10.8 27.1-30.4 37.6c-21.3 11.4-49.7 17.7-80.1 17.7s-58.9-6.3-80.1-17.7c-19.6-10.5-30.4-23.8-30.4-37.6s10.8-27.1 30.4-37.6C61.1 71.4 89.6 65.1 120 65.1m0-8.5C54.3 56.6 1 85.1 1 120.3S54.3 184 120 184s119-28.5 119-63.7-53.3-63.7-119-63.7z"/><path class="st0" d="M120 70.8c28.3 0 54.9 5.4 74.9 15.1 19.3 9.4 29.9 21.7 29.9 34.6s-10.6 25.1-29.9 34.6c-20 9.7-46.6 15.1-74.9 15.1s-54.9-5.4-74.9-15.1c-19.3-9.4-29.9-21.7-29.9-34.6s10.6-25.1 29.9-34.6c20-9.8 46.6-15.1 74.9-15.1m0-2.9c-59.5 0-107.7 23.5-107.7 52.5s48.2 52.5 107.7 52.5 107.7-23.5 107.7-52.5S179.5 67.9 120 67.9z"/><path id="SVGID_1_" class="st0" d="M40.1 131.6l-2.6 7.1h18.6l2.4-6.7H45.7l14.6-5 .9-2.4-21.1 7zm35.4-4.2H80c1.3 0 1.9.7 1.9 1.5 0 .5-.2 1.4-.6 2.3-.5 1.2-1 1.5-1.7 1.8-.5.2-1.4.3-2.4.3h-3.7l2-5.9zm-6.9-6.3l-.2.7.5.5c.5.5.5 1.1 0 2.4L60.5 149h7.7l3.3-9.7h2.6L77 149h7.7l-3.6-9.9c2.1-.3 3.2-.9 4.2-1.9 1.5-1.3 2.5-3.2 3.3-5.9 1.2-4 .5-6.2-.3-7.4-1.1-1.6-3.3-2.8-7.6-2.8H68.6zm69.7 0l-10.3 20h-.2l-.5-20.1h-8.6l-.3.7.7.4c.7.5.9 1 1 2.4l1.2 24.4h9.5l15.4-27.9-7.9.1zm40.5 6.3h4.4c1.3 0 1.9.7 1.9 1.5 0 .5-.2 1.4-.6 2.3-.5 1.2-1 1.5-1.7 1.8-.5.2-1.5.3-2.4.3h-3.7l2.1-5.9zm-7-6.3l-.2.7.5.5c.5.5.5 1.1 0 2.4l-8.4 24.3h7.7l3.3-9.7h2.6l2.9 9.7h7.7l-3.6-9.9c2.1-.3 3.2-.9 4.2-1.9 1.5-1.3 2.5-3.2 3.3-5.9 1.2-4 .5-6.2-.3-7.4-1.1-1.6-3.3-2.8-7.6-2.8h-12.1zm-23.2-.1l-.3.8.5.5c.5.5.5 1.1 0 2.4l-8.4 24.2h18.8l2.3-6.5h-10.9l1.6-4.7h9.7l2.1-5.8h-9.8l1.5-4.5h10.6l2.3-6.4h-20zm-51.5 19.3c0-1 .3-2.6 1.4-5.7 1-2.7 1.7-4.5 2.8-5.7.9-.9 2-1.6 4.7-1.6 2.1 0 3.2.9 3.2 2.5 0 1-.3 2.6-1.4 5.7-1 2.7-1.7 4.5-2.8 5.7-.9.9-2 1.6-4.7 1.6-2 0-3.2-.9-3.2-2.5m9.4-19.6c-5.3 0-8.3 1.4-10.7 4-3.1 3.2-6 12-5.9 16.7s3.1 8 9.6 8h.9c5.3 0 8.3-1.4 10.7-4 3.1-3.2 5.9-12 5.8-16.7s-3.1-8-9.6-8h-.8zm60.3-23.6l-2.4 6.6h12.9l-14.6 5-.9 2.4 21.1-6.9 2.6-7.1h-18.7zm-107.1-10l-.2.7.5.5c.5.5.5 1.1 0 2.4L51.7 115h19.1l2.3-6.7H62L69.3 87l-9.6.1zm32.6 7.7h.3l.1 8.4h-5.1l4.7-8.4zm-4.7-7.7l-.2.7.4.3c.6.6.3 1.4-1.8 4.8l-13.2 22h8.1l3.5-6.2h8.4l.1 6.2h7.4L98.7 87l-11.1.1zm57.9 6.6h3c2.1 0 3.2.7 3.3 2.3 0 1-.3 2.5-1.3 5.5-1 2.7-1.7 4.3-2.8 5.5-.9.9-2 1.3-4.7 1.3h-2.5l5-14.6zm-7-6.6l-.2.7.5.5c.5.5.5 1.1 0 2.4l-8.3 24.3h12.3c5.3 0 8.3-1.2 10.7-3.8 3.1-3.2 5.9-11.7 5.8-16.3-.1-4.7-3.1-7.8-9.6-7.8h-11.2zm-10.5 0l-5.1 15.2-2.9-15.2h-9.9l-.2.7.5.5c.5.5.5 1.1.1 2.4l-8.3 24.3h7l6.1-18.1 3.6 18.1h7l9.5-27.9H128z"/></svg>