<svg data-name="Layer 1" xmlns="http://www.w3.org/2000/svg" viewBox="0 0 120 120"><path d="M36.17 81.67A21.67 21.67 0 1 0 14.51 60a21.67 21.67 0 0 0 21.66 21.67z" /><path d="M41.45 67.63H37v-17h-1.7V69.3h6.15z" fill="#fff"/><path d="M52.65 60.69H41.48V59h12.81v1a18.14 18.14 0 1 1-18.12-18.14h.79v1.65h-.79a16.49 16.49 0 1 0 16.48 17.23z" fill="#fff"/><path d="M29.41 55.69a2.55 2.55 0 1 0-2.55-2.55 2.55 2.55 0 0 0 2.55 2.55z" fill="#fff"/><path d="M68.6 70.64h15.48V66h-9.8V49.22H68.6zm34.19-19.91a12.12 12.12 0 0 0-14.61.8 11.52 11.52 0 0 0-3 8.37c0 3.75 1.1 6.92 3.09 8.91a8.33 8.33 0 0 0 6 2.39c5.24 0 6.45-3.14 6.45-3.14v2.58h4.74v-12.1h-9.39v3.79h4.34s0 4.77-4.44 4.77A4.05 4.05 0 0 1 93 65.9c-1.21-1.21-1.86-3.26-1.86-5.91 0-4.39 1.75-7 4.67-7a3.47 3.47 0 0 1 3.55 2.82h6a6.62 6.62 0 0 0-2.64-5.07z" /></svg>