<svg xmlns="http://www.w3.org/2000/svg" viewBox="-70 -80 360 360">
<path d="M140.6 154c-2.9 3.2-9.2 8.6-18.1 9H121c-1.6 0-3.3-.1-4.9-.4-8.3-.9-14-5.9-16.7-8.9-1.5-1.7-14.5-20.8-18.6-26.3 3.8 6.1 16.2 25.2 17.9 27 1.6 1.7 7.7 8 17.3 9 1.5.2 3.2.4 5 .4h1.6c10.4-.5 17.2-7.3 18.9-9.1s14.2-21 17.9-27c-4.5 6.7-17.3 24.7-18.8 26.3z"/><g>
<path d="M202.3 156c15.8 2.1 26.2-2.6 27.7-9.7s-3.3-26.3-20.6-44.4-23.4-19.2-27-17.5c-3.6 1.8-10.6 9-13.1 12.1s-33.1 48.7-36.6 51.3-7.3 5.8-12.7 5.5c-5.4.3-9.3-2.9-12.7-5.5-3.5-2.6-34.1-48.2-36.6-51.3-2.5-3.1-9.5-10.3-13.1-12.1-3.6-1.8-9.7-.7-27 17.5S8.5 139.1 10 146.3c1.5 7.1 12 11.8 27.7 9.7 15.8-2.1 29.3-14.6 42-30l1.1 1.5c3.5 5.7 16.2 24.1 17.9 26 1.6 1.7 7.8 8.2 17.4 9.2 1.9.3 4.1.4 6.6.3 10.4-.5 17.1-7.5 18.8-9.3s14.4-20.3 17.9-26l1.3-1.6c10.4 14.2 25.9 27.8 41.6 29.9zm-19.1-57.5c4.9-2.6 12.3-5 17.8 2.5 5.8 8 17 27.8 9.9 43.5-2.6 5.8-11.7 6.1-13.4 6-1.8-.2-9.8-.8-21.5-10.1-9.6-7.5-14.7-15.1-14.7-15.1 6.4-9 16.2-23.8 21.9-26.8zM64 140.2c-11.8 9.2-19.8 9.9-21.5 10.1-1.8.2-10.8-.2-13.4-6-7-15.7 4.1-35.5 9.9-43.5 5.5-7.5 12.8-5.1 17.8-2.5 5.7 3.1 15.5 17.8 22 26.8-.1-.1-5.2 7.5-14.8 15.1z"/>
<path d="M219.6 102.5c-21.1-22.9-31.3-28.9-42-27-10.7 1.8-19.7 17-28.6 29.8 0 0-.2-.3-.5-.9-.7-1.1-2-3.4-4.2-7.1-3.4-5.7-13.4-23.2-24.7-22.5-.1 0-.2 0-.4.1-10.9 1-20.2 16.8-23.5 22.2-2.3 3.8-3.6 6.1-4.3 7.2-.3.5-.5.8-.5.8C82 92.3 73 77.1 62.3 75.3c-10.7-1.8-20.9 4.1-42 27C.1 126.3-.5 146 2.1 151.5s10.1 15.3 34.1 9.9c24-5.3 38-22 44.6-33.9l-1.1-1.5c-12.7 15.3-26.2 27.9-42 30s-26.2-2.6-27.7-9.7 3.3-26.3 20.6-44.4 23.4-19.2 27-17.5c3.6 1.8 10.6 9 13.1 12.1s33.2 48.6 36.6 51.3 7.3 5.8 12.7 5.5c5.4.3 9.4-2.7 12.7-5.5 3.4-2.7 34.1-48.2 36.6-51.3 2.5-3.1 9.5-10.3 13.1-12.1 3.6-1.8 9.7-.7 27 17.5s22.1 37.3 20.6 44.4-12 11.8-27.7 9.7c-15.8-2.1-31.2-15.7-41.8-29.9l-1.3 1.6c6.6 11.9 20.6 28.6 44.6 33.9s31.5-4.4 34.1-9.9c2.6-5.5 2-25.2-18.3-49.2zm-73.6 7.4l-.2.2c-.5.7-2.5 3.3-8.4 11.8-5.1 7.3-8.5 12.2-12.5 14.4-1.3.6-2.6 1-4.2 1.1-7 .3-10.8-5.2-18.2-15.7-5.7-8.2-7.7-10.9-8.3-11.8l-1.8-2.4c.2-.3.4-.6.7-.9 5.6-7.4 15.9-22 26.9-22 9.7 0 22.2 14.8 27 21.9.2.4.5.7.7 1l-1.7 2.4z" /><path d="M120.1 109.9l-.2.2.2-.2z"/>
<path d="M94 109.6s7.3-10.1 20-14.2c3.4-.8 7.1-1 9.8-.4 14 3.5 22.2 14.8 22.2 14.9l1.8-2.3c-4.2-6.5-17.6-22.9-27.8-22.9-11.4 0-22.1 15.7-27.5 22.8l1.8 2.4c-.3-.2-.3-.3-.3-.3z"/></g></svg>