<svg xmlns="http://www.w3.org/2000/svg" viewBox="-120 -120 500 500"><path d="M120.2 14.2c-45.2 0-81.7 36.6-81.7 81.7s36.6 81.7 81.7 81.7 81.7-36.6 81.7-81.7c-.1-45.2-36.6-81.7-81.7-81.7zM170 137.1s-4-17.9-10.4-28.6c-3.5-5.8-8.9-10.6-16.1-10.4-5.1 0-9.5 2.9-15 10.6-3.2 5.2-6 10.7-8.4 16.4 0 0-2-4.6-4.3-9.1-1.2-2.5-2.6-4.9-4.1-7.1-5.5-7.7-9.9-10.5-15-10.6-7.1-.1-12.6 4.6-16.1 10.4-6.5 10.7-10.4 28.6-10.4 28.6h-5.9L95.7 34.2l24.2 80.4.2.1.2-.1 24.2-80.4 31.4 102.9H170z" fill="red"/><path d="M120.2 193c-9.1 0-16.4 7.4-16.4 16.4s7.4 16.4 16.4 16.4 16.4-7.4 16.4-16.4c.1-9.1-7.3-16.4-16.4-16.4zm0 26.7c-5.7 0-10.3-4.6-10.3-10.3 0-5.7 4.6-10.3 10.3-10.3 5.7 0 10.3 4.6 10.3 10.3 0 5.7-4.6 10.3-10.3 10.3zM93.5 213v-13.9h7.9V193h-7.9v-8.2h-6.2V213c0 7.1 5.8 12.9 12.9 12.8h1.3v-6.2h-1.3c-3.7.1-6.7-2.9-6.7-6.6zM175.3 193c-9.1 0-16.4 7.4-16.4 16.4s7.4 16.4 16.4 16.4 16.4-7.4 16.4-16.4c0-9.1-7.3-16.4-16.4-16.4zm0 26.7c-5.7 0-10.3-4.6-10.3-10.3 0-5.7 4.6-10.3 10.3-10.3s10.3 4.6 10.3 10.3c0 5.7-4.6 10.3-10.3 10.3zM222.6 193c-9.1 0-16.5 7.3-16.5 16.4 0 9.1 7.3 16.4 16.4 16.5 3.9 0 7.6-1.4 10.6-3.8v3.4h5.9V210v-.5c0-9.1-7.3-16.5-16.4-16.5zm0 26.7c-5.7 0-10.3-4.6-10.3-10.3s4.6-10.3 10.3-10.3c5.7 0 10.3 4.6 10.3 10.3 0 5.7-4.6 10.3-10.3 10.3zM140.8 205.8v19.6h6.1v-19.6c0-3.7 3-6.7 6.7-6.7h2.9V193h-2.9c-7.1 0-12.8 5.7-12.8 12.8zM195.9 184.8h6.2v40.6h-6.2zM33.4 193c-3.8 0-7.3 1.6-9.8 4.5-4.6-5.4-12.7-6-18.1-1.5-2.9 2.4-4.5 6-4.5 9.8v19.6h6.2v-19.6c-.1-3.7 2.7-6.8 6.4-7s6.8 2.7 7 6.4v20.1h6.2v-19.6c-.1-3.7 2.7-6.8 6.4-7s6.8 2.7 7 6.4v20.1h6.1v-19.6c-.1-6.9-5.8-12.6-12.9-12.6zM66.8 193c-9.1 0-16.5 7.3-16.5 16.4 0 9.1 7.3 16.5 16.4 16.5s16.5-7.3 16.5-16.4c0-9.1-7.3-16.5-16.4-16.5zm0 26.7c-5.7 0-10.3-4.6-10.3-10.3 0-5.7 4.6-10.3 10.3-10.3 5.7 0 10.3 4.6 10.3 10.3 0 5.7-4.6 10.3-10.3 10.3z"/></svg>