<svg data-name="Layer 1" xmlns="http://www.w3.org/2000/svg" viewBox="0 0 120 120"><defs><clipPath id="a"><path fill="#183693" d="M101.51 67.73l-1.4-2.68h-9.15l-1.38 2.68h-5.23l8.39-15.4h5.88l8.38 15.4h-5.49"/></clipPath><clipPath id="b"><path fill="#183693" clip-path="url(#a)" d="M78.75 52.33h4.73v15.39h-4.73z"/></clipPath><clipPath id="c"><path fill="#183693" clip-path="url(#b)" d="M70.56 52.33h6.24l-8.43 7.2 9.51 8.2H71.2l-8.63-8.03 7.99-7.37"/></clipPath><clipPath id="d"><path fill="#183693" clip-path="url(#c)" d="M62.57 52.33v15.4h-4.73v-15.4h4.73"/></clipPath><clipPath id="e"><path d="M56 63c0 2.14-.38 2.87-1 3.58-1 1-2.36 1.37-5.05 1.37h-7.74c-2.69 0-4.09-.32-5.05-1.37-.63-.71-1-1.44-1-3.58v-6c0-2.14.38-2.87 1-3.58 1-1.05 2.36-1.37 5.05-1.37h7.73c2.69 0 4.09.32 5.05 1.37.62.71 1 1.44 1 3.58v6" fill="#183693" clip-path="url(#d)"/></clipPath></defs><path fill="#183693" d="M101.51 67.73l-1.4-2.68h-9.15l-1.38 2.68h-5.23l8.39-15.4h5.88l8.38 15.4h-5.49M78.75 52.33h4.73v15.39h-4.73zM70.56 52.33h6.24l-8.43 7.2 9.51 8.2H71.2l-8.63-8.03 7.99-7.37"/><path fill="#183693" d="M62.57 52.33v15.4h-4.73v-15.4h4.73M56 63c0 2.14-.38 2.87-1 3.58-1 1-2.36 1.37-5.05 1.37h-7.74c-2.69 0-4.09-.32-5.05-1.37-.63-.71-1-1.44-1-3.58v-6c0-2.14.38-2.87 1-3.58 1-1.05 2.36-1.37 5.05-1.37h7.73c2.69 0 4.09.32 5.05 1.37.62.71 1 1.44 1 3.58v6M17.53 67.73H13v-15.4h7.83l8.98 11.5v-11.5h4.52v15.4h-7.67l-9.13-11.69v11.69"/><path d="M49.75 64c1 0 1.39-.06 1.64-.28s.34-.49.34-1.39v-4.7c0-.9-.11-1.17-.34-1.38s-.61-.25-1.64-.25H42.4c-1 0-1.4.06-1.65.29s-.33.48-.33 1.38v4.7c0 .9.1 1.17.33 1.39s.61.28 1.65.28h7.35M92.61 61.7h5.88l-2.94-5.57-2.94 5.57" fill="#fff"/></svg>