<svg xmlns="http://www.w3.org/2000/svg" viewBox="-120 -120 500 500"><path d="M1 1h238v238H1z"/><path d="M89.2 201.4c1 0 1.9.9 1.9 1.9v5.5c0 1-.9 1.9-1.9 1.9H30.7c-1 0-1.9-.9-1.9-1.9v-64c0-1 .9-1.9 1.9-1.9h5.5c1 0 1.9.9 1.9 1.9v56.8h51.2l-.1-.2zM68.4 66.2c7.4 0 13.5-6.1 13.5-13.5s-6.1-13.5-13.5-13.5H37.9v27h30.5zm-.5-36.1c12.3 0 22.7 9.5 23.1 21.7.5 12.8-9.8 23.3-22.6 23.3H37.9v20.7c0 1-.9 1.9-1.9 1.9h-5.5c-1 0-1.9-.9-1.9-1.9V32c0-1 .9-1.9 1.9-1.9h37.4zm131.8 113.8l-24.1 31.4-23.9-31.4c-.5-.6-1.4-1.1-2.1-1.1h-5.8c-1 0-1.9.9-1.9 1.9v64c0 1 .9 1.9 1.9 1.9h5.5c1 0 1.9-.9 1.9-1.9v-51l19.5 25.4c.5.6 1.4 1.1 2.1 1.1h6.3c.9 0 1.6-.4 2.1-1.1l19.5-25.4v51c0 1 .9 1.9 1.9 1.9h5.5c1 0 1.9-.9 1.9-1.9v-64c0-1-.9-1.9-1.9-1.9h-5.8c-1.2.1-2.1.4-2.6 1.1zm-8.4-68.6l-15.6-33.5L160 75.1h31.3v.2zm19.3 19.9c.5 1.2-.4 2.6-1.6 2.6h-5.5c-1.1 0-2-.6-2.5-1.6l-5.6-12h-39.7l-5.6 12c-.5 1-1.4 1.6-2.5 1.6h-5.5c-1.6 0-2.2-1.1-1.6-2.6l29.6-63.5c.5-1 1.4-1.6 2.5-1.6h5.6c1 0 2 .6 2.5 1.6l29.9 63.5z" fill="#fff"/></svg>