<svg data-name="Layer 1" xmlns="http://www.w3.org/2000/svg" viewBox="0 0 120 120"><ellipse cx="60" cy="60" rx="43.76" ry="12.39" transform="rotate(-9.88 59.974 59.967)" /><path fill="#fff" d="M80.7 62.5l-.12-7.01h2.21v8.83h-3.18l-2.2-7.25h-.05l.12 7.25h-2.19v-8.83h3.31l2.05 7.01h.05zM40.53 56.32l-1.22 8.1H36.9l1.65-8.93h3.97l1.65 8.93h-2.4l-1.19-8.1h-.05zM50.94 62.31l1.1-6.82h3.65l.19 8.93h-2.23l-.06-8.03h-.05l-1.49 8.03h-2.27l-1.49-8.03h-.05l-.05 8.03h-2.24l.2-8.93h3.64l1.1 6.82h.05zM33.14 61.9a1.18 1.18 0 0 1 0 .66.77.77 0 0 1-.87.6.8.8 0 0 1-.9-.81v-.86H29v.69c0 2 1.57 2.59 3.25 2.59s2.94-.55 3.16-2a4.43 4.43 0 0 0 0-1.47c-.38-1.87-3.76-2.43-4-3.47a1.18 1.18 0 0 1 0-.47.74.74 0 0 1 .82-.6.76.76 0 0 1 .83.81v.55h2.23v-.63c0-1.94-1.75-2.25-3-2.25-1.59 0-2.89.52-3.12 2a3.11 3.11 0 0 0 0 1.21c.34 1.76 3.51 2.29 3.97 3.45zM62.17 61.88a1.14 1.14 0 0 1 0 .65.76.76 0 0 1-.86.59.79.79 0 0 1-.89-.8v-.86h-2.36v.68c0 2 1.55 2.56 3.21 2.56s2.91-.54 3.12-2a4.29 4.29 0 0 0 0-1.45c-.37-1.85-3.73-2.4-4-3.44a1.12 1.12 0 0 1 0-.46.73.73 0 0 1 .81-.59.75.75 0 0 1 .82.8v.55h2.21v-.62c0-1.92-1.73-2.23-3-2.23-1.57 0-2.86.52-3.09 2a3.07 3.07 0 0 0 0 1.19c.43 1.76 3.57 2.29 4.03 3.43zM69.66 63.08a.8.8 0 0 0 .86-.65 1.86 1.86 0 0 0 0-.34v-6.6h2.28v6.99c-.16 1.67-1.48 2.21-3.12 2.21s-3-.54-3.12-2.21v-6.99h2.26v6.61a2.14 2.14 0 0 0 0 .34.81.81 0 0 0 .84.64zM88.28 63a.84.84 0 0 0 .91-.65 2.19 2.19 0 0 0 0-.34V60.7h-.89v-1.3h3.17V62.39c-.15 1.62-1.56 2.2-3.14 2.2s-3-.58-3.14-2.2V58v-.59c.2-1.67 1.55-2.21 3.14-2.21s3 .53 3.13 2.21a5.07 5.07 0 0 1 0 .59v.3H89.2v-.5a2.06 2.06 0 0 0 0-.34.81.81 0 0 0-.89-.65.82.82 0 0 0-.89.65 2 2 0 0 0 0 .42V62a1.88 1.88 0 0 0 0 .34.83.83 0 0 0 .86.66z"/></svg>