<svg data-name="Layer 1" xmlns="http://www.w3.org/2000/svg" viewBox="0 0 120 120"><path d="M103.12 52.49c1.17 6.74-17.18 15.57-41 19.72s-44.07 2-45.25-4.7 17.18-15.57 41-19.72 44.07-2.04 45.25 4.7z" fill="#1428a0"/><path fill="#fff" d="M80.7 62.5l-.12-7.01h2.21v8.83h-3.18l-2.2-7.25h-.05l.12 7.25h-2.19v-8.83h3.31l2.05 7.01h.05zM40.53 56.32l-1.22 8.1H36.9l1.65-8.93h3.97l1.65 8.93h-2.4l-1.19-8.1h-.05zM50.94 62.31l1.1-6.82h3.65l.19 8.93h-2.23l-.06-8.03h-.05l-1.49 8.03h-2.27l-1.49-8.03h-.05l-.05 8.03h-2.24l.2-8.93h3.64l1.1 6.82h.05zM33.14 61.9a1.15 1.15 0 0 1 0 .66.78.78 0 0 1-.87.6.8.8 0 0 1-.9-.81v-.87H29v.7c0 2 1.57 2.59 3.25 2.59s2.94-.56 3.16-2a4.94 4.94 0 0 0 0-1.47c-.38-1.87-3.77-2.43-4-3.47a1.25 1.25 0 0 1 0-.47.74.74 0 0 1 .82-.6.76.76 0 0 1 .83.81v.55h2.22v-.63c0-1.94-1.74-2.24-3-2.24-1.59 0-2.88.52-3.12 2a3.3 3.3 0 0 0 0 1.21c.35 1.75 3.52 2.28 3.98 3.44zM62.17 61.88a1.21 1.21 0 0 1 0 .65.78.78 0 0 1-.87.6.79.79 0 0 1-.89-.8v-.86h-2.35v.68c0 2 1.55 2.57 3.22 2.57s2.91-.55 3.12-2a4.18 4.18 0 0 0 0-1.45c-.37-1.85-3.73-2.4-4-3.44a1.2 1.2 0 0 1 0-.46.73.73 0 0 1 .81-.59.74.74 0 0 1 .82.79v.55h2.21v-.62c0-1.92-1.73-2.23-3-2.23-1.57 0-2.86.52-3.09 2a3 3 0 0 0 0 1.19c.42 1.75 3.56 2.28 4.02 3.42zM69.66 63.08a.81.81 0 0 0 .86-.65 1.78 1.78 0 0 0 0-.34v-6.6h2.28v6.98c-.16 1.67-1.48 2.21-3.12 2.21s-3-.54-3.11-2.21a4.89 4.89 0 0 1 0-.58v-6.4h2.25v6.6a3.28 3.28 0 0 0 0 .34.81.81 0 0 0 .84.65zM88.28 63a.84.84 0 0 0 .92-.65 1.88 1.88 0 0 0 0-.34V60.7h-.9v-1.3h3.17v2.98c-.15 1.63-1.56 2.21-3.14 2.21s-3-.58-3.15-2.21V58a5.65 5.65 0 0 1 0-.59c.2-1.67 1.55-2.21 3.14-2.21s3 .54 3.13 2.21a5 5 0 0 1 0 .59v.3H89.2v-.5a1.87 1.87 0 0 0 0-.34.81.81 0 0 0-.89-.65.82.82 0 0 0-.89.65 1.76 1.76 0 0 0 0 .42V62a1.87 1.87 0 0 0 0 .34.82.82 0 0 0 .86.66z"/></svg>