<svg data-name="Layer 1" xmlns="http://www.w3.org/2000/svg" viewBox="0 0 120 120"><path d="M92.59 65.52a4 4 0 0 0 .51 0 .63.63 0 0 0 .4-.35 2 2 0 0 0 0-.4v-2.9c0-.07 0-.1-.12-.26s-5.29-6-5.53-6.28a2.17 2.17 0 0 0-1.59-.81H84.5v-1.87h10.13v1.84h-1.22c-.28 0-.47.27-.23.57l3.44 4.12s.06.05.1 0l3.52-4.13a.35.35 0 0 0-.3-.57h-1.25v-1.83H107v1.84h-1.86a1.58 1.58 0 0 0-1.45.7l-5.59 6.37a.39.39 0 0 0-.07.27v2.9a2 2 0 0 0 0 .4.63.63 0 0 0 .4.35 3.87 3.87 0 0 0 .51 0h1.9v1.84H90.79v-1.8h1.8zM67 52.65l10.11 9.12-.11-6.14c0-.81-.16-1.14-1-1.14h-1.9v-1.84h8.64v1.84h-1.88c-.89 0-.94.28-1 1.14l.16 11.73h-3L65.46 57v7.37c0 .8 0 1.18.87 1.18h2.08v1.84h-8.48v-1.86h2c.74 0 .71-.71.71-1.22V55.7c0-.56-.08-1.21-1.24-1.21h-1.63v-1.84zm-45.4-.92a14.28 14.28 0 0 0-5.6 1.13c-1.62.72-3 1.9-3 3.84a4 4 0 0 0 1.08 2.74 6 6 0 0 0 3.22 1.61c.89.19 2.79.49 4.68.69s3.73.39 4.48.58c.6.15 1.6.36 1.6 1.49a1.68 1.68 0 0 1-1.24 1.54 9.34 9.34 0 0 1-3.74.66 15.85 15.85 0 0 1-4.45-.77 5.37 5.37 0 0 1-2.58-1.72 3 3 0 0 1-.53-1.63h-2.06v5.79h2.3v-.78a.33.33 0 0 1 .5-.28 18.13 18.13 0 0 0 3.36 1.09 14.36 14.36 0 0 0 3.49.43 15 15 0 0 0 4.67-.66 8.18 8.18 0 0 0 2.78-1.37A3.8 3.8 0 0 0 32 63a4.26 4.26 0 0 0-1.2-3 5.25 5.25 0 0 0-1.49-1 10.93 10.93 0 0 0-1.83-.64c-1.18-.29-3.86-.65-5.14-.78a35.58 35.58 0 0 1-4.6-.62 1.11 1.11 0 0 1-.86-1 1.42 1.42 0 0 1 .78-1.2 9 9 0 0 1 4.23-.84 12.25 12.25 0 0 1 4.9 1 5.38 5.38 0 0 1 1.17.69 3.51 3.51 0 0 1 1.15 1.92H31v-5h-2.07V53c0 .19-.2.43-.56.23a15.74 15.74 0 0 0-6.76-1.54zm24.89 16.54a13 13 0 0 1-8.68-2.91A7.12 7.12 0 0 1 35.45 60a7.22 7.22 0 0 1 2.36-5.36 13.61 13.61 0 0 1 8.68-2.9c3.6 0 6.49.91 8.69 2.91A7.15 7.15 0 0 1 57.51 60a7.45 7.45 0 0 1-2.33 5.37 12.9 12.9 0 0 1-8.69 2.91v-2.19a6.54 6.54 0 0 0 4.65-1.79 5.79 5.79 0 0 0 1.71-4.3 6 6 0 0 0-1.7-4.33 7 7 0 0 0-9.32 0 6.34 6.34 0 0 0 0 8.64 6.62 6.62 0 0 0 4.66 1.79v2.18z" /></svg>