<svg data-name="Layer 1" xmlns="http://www.w3.org/2000/svg" viewBox="0 0 120 120"><path d="M92.59 65.52a4.24 4.24 0 0 0 .51 0 .62.62 0 0 0 .4-.35 1.81 1.81 0 0 0 0-.4v-2.9c0-.07 0-.1-.12-.26s-5.3-6-5.53-6.28a2.18 2.18 0 0 0-1.59-.81H84.5v-1.87h10.13v1.84h-1.22c-.28 0-.47.26-.23.56l3.44 4.12s.06.06.11 0l3.52-4.13a.36.36 0 0 0-.3-.57h-1.26v-1.82H107v1.84h-1.86a1.58 1.58 0 0 0-1.45.69l-5.59 6.38a.39.39 0 0 0-.07.28v2.9a1.87 1.87 0 0 0 0 .4.64.64 0 0 0 .4.35 4.12 4.12 0 0 0 .51 0h1.89v1.84H90.79v-1.81zM67 52.65l10.11 9.12-.11-6.14c0-.81-.15-1.14-1-1.14h-1.93v-1.84h8.65v1.84h-1.86c-.89 0-.94.28-1 1.14l.15 11.73h-3L65.46 57v7.38c0 .8 0 1.18.87 1.18h2.08v1.83h-8.48v-1.86h2c.74 0 .71-.71.71-1.23v-8.6c0-.56-.07-1.21-1.24-1.21h-1.63v-1.84zm-45.4-.92a14.22 14.22 0 0 0-5.6 1.13c-1.67.72-3 1.89-3 3.84a4 4 0 0 0 1.08 2.74 6 6 0 0 0 3.22 1.61c.89.2 2.79.49 4.69.69s3.72.39 4.48.58c.6.15 1.6.36 1.6 1.49a1.7 1.7 0 0 1-1.24 1.54 9.52 9.52 0 0 1-3.74.65 16 16 0 0 1-4.45-.77 5.32 5.32 0 0 1-2.58-1.72 3 3 0 0 1-.53-1.64h-2.07v5.8h2.3v-.79a.32.32 0 0 1 .49-.28 18.16 18.16 0 0 0 3.36 1.09 14.54 14.54 0 0 0 3.49.43 15 15 0 0 0 4.68-.66 8 8 0 0 0 2.77-1.37A3.79 3.79 0 0 0 32 63a4.26 4.26 0 0 0-1.2-3 5.17 5.17 0 0 0-1.49-1 10.3 10.3 0 0 0-1.83-.64c-1.18-.29-3.86-.65-5.14-.79a35.2 35.2 0 0 1-4.6-.62 1.11 1.11 0 0 1-.86-1 1.42 1.42 0 0 1 .78-1.2 9 9 0 0 1 4.23-.84 12.5 12.5 0 0 1 4.9 1 5.81 5.81 0 0 1 1.16.69 3.5 3.5 0 0 1 1.15 1.93H31v-5h-2.07V53c0 .19-.2.44-.57.23a15.94 15.94 0 0 0-6.76-1.54zm24.89 16.54a13.05 13.05 0 0 1-8.68-2.91A7.12 7.12 0 0 1 35.45 60a7.22 7.22 0 0 1 2.36-5.36c2-1.79 5.42-2.9 8.68-2.9 3.6 0 6.49.9 8.69 2.9A7.17 7.17 0 0 1 57.51 60a7.43 7.43 0 0 1-2.33 5.37 12.87 12.87 0 0 1-8.69 2.91v-2.19a6.5 6.5 0 0 0 4.65-1.79 5.75 5.75 0 0 0 1.71-4.3 6 6 0 0 0-1.71-4.33 7 7 0 0 0-9.31 0 6.34 6.34 0 0 0 0 8.64 6.6 6.6 0 0 0 4.66 1.79v2.18z"/></svg>