<svg data-name="Layer 1" xmlns="http://www.w3.org/2000/svg" viewBox="0 0 120 120"><g data-name="&lt;Group&gt;" ><path data-name="&lt;Compound Path&gt;" d="M30 89.08l-3.56-8.49h2.32L31 86.22l2.15-5.63h2.22l-3.47 8.49zM43.69 84.8a5.34 5.34 0 0 1-.26 1.63 4.48 4.48 0 0 1-.76 1.43 3.75 3.75 0 0 1-1.27 1 4.32 4.32 0 0 1-3.57 0 3.75 3.75 0 0 1-1.27-1 4.47 4.47 0 0 1-.76-1.43 5.32 5.32 0 0 1-.26-1.63 5.24 5.24 0 0 1 .26-1.62 4.39 4.39 0 0 1 .76-1.42 3.71 3.71 0 0 1 1.27-1 4 4 0 0 1 1.79-.38 3.93 3.93 0 0 1 1.78.38 3.83 3.83 0 0 1 1.27 1 4.31 4.31 0 0 1 .77 1.42 5.25 5.25 0 0 1 .25 1.62zm-2.15 0a4 4 0 0 0-.12-1 2.45 2.45 0 0 0-.37-.82 1.89 1.89 0 0 0-.6-.55 1.78 1.78 0 0 0-1.65 0 1.89 1.89 0 0 0-.6.55 2.44 2.44 0 0 0-.37.82 4.21 4.21 0 0 0 0 2 2.68 2.68 0 0 0 .36.82 1.74 1.74 0 0 0 .6.56 1.68 1.68 0 0 0 .84.2 1.63 1.63 0 0 0 .83-.2 1.86 1.86 0 0 0 .6-.56 2.56 2.56 0 0 0 .37-.82 4 4 0 0 0 .11-1.01zM50.42 89.08l-.09-.65a2.73 2.73 0 0 1-.79.59 2.48 2.48 0 0 1-1.16.26 3.13 3.13 0 0 1-1.54-.37 3.48 3.48 0 0 1-1.12-1 4.49 4.49 0 0 1-.72-1.42 6 6 0 0 1-.24-1.69 5.44 5.44 0 0 1 .24-1.62 4.27 4.27 0 0 1 .75-1.42 3.72 3.72 0 0 1 1.26-1 3.91 3.91 0 0 1 1.77-.38 4.79 4.79 0 0 1 1.44.24v-3.29h2.18v11.75zm-.18-6.62a3.23 3.23 0 0 0-1.17-.25 2 2 0 0 0-1 .21 1.9 1.9 0 0 0-.67.57 2.62 2.62 0 0 0-.39.81 3.29 3.29 0 0 0-.13.93 4.44 4.44 0 0 0 .11 1 2.65 2.65 0 0 0 .35.85 1.88 1.88 0 0 0 .6.58 1.59 1.59 0 0 0 .85.22 1.76 1.76 0 0 0 .82-.22 1.43 1.43 0 0 0 .6-.52zM58.75 89.07l-.09-.63a2.41 2.41 0 0 1-.9.61 3.17 3.17 0 0 1-1.2.22 3 3 0 0 1-1.05-.18 2.78 2.78 0 0 1-.89-.53 2.58 2.58 0 0 1-.87-2 2.42 2.42 0 0 1 .25-1.1 2.45 2.45 0 0 1 .67-.82 3.72 3.72 0 0 1 1-.55 6.15 6.15 0 0 1 1.15-.32 8.07 8.07 0 0 1 .93-.13l.84-.08v-.12a1.23 1.23 0 0 0-.36-1 1.53 1.53 0 0 0-1-.3 2.78 2.78 0 0 0-.71.09 3.11 3.11 0 0 0-.6.22 4.71 4.71 0 0 0-.47.26 3.17 3.17 0 0 0-.33.24l-.72-1.53a3.25 3.25 0 0 1 .43-.3 5 5 0 0 1 .7-.34 5.89 5.89 0 0 1 .93-.28 5.19 5.19 0 0 1 1.12-.11 4.22 4.22 0 0 1 1.29.18 2.6 2.6 0 0 1 1 .58 2.69 2.69 0 0 1 .66 1 4 4 0 0 1 .24 1.47v5.45zm-.18-4l-.73.06q-.37 0-.71.11a1.63 1.63 0 0 0-1 .48 1.17 1.17 0 0 0-.27.75.83.83 0 0 0 .31.68 1.35 1.35 0 0 0 .88.26 2 2 0 0 0 .82-.18 2.43 2.43 0 0 0 .68-.44zM67.49 79.27l-.41-.15a2.81 2.81 0 0 0-.82-.1 1.11 1.11 0 0 0-.77.27 1.13 1.13 0 0 0-.31.89v.41H67v1.76h-1.8v6.72H63v-6.72h-1.11v-1.76H63v-.46a4.07 4.07 0 0 1 .21-1.4 2.42 2.42 0 0 1 .59-.93 2.32 2.32 0 0 1 .89-.53 3.54 3.54 0 0 1 1.11-.17 4.85 4.85 0 0 1 1.31.15 4.09 4.09 0 0 1 .61.2zM75.58 84.8a5.34 5.34 0 0 1-.26 1.63 4.48 4.48 0 0 1-.76 1.43 3.75 3.75 0 0 1-1.27 1 4.32 4.32 0 0 1-3.57 0 3.75 3.75 0 0 1-1.27-1 4.47 4.47 0 0 1-.76-1.43 5.32 5.32 0 0 1-.26-1.63 5.24 5.24 0 0 1 .26-1.62 4.39 4.39 0 0 1 .76-1.42 3.71 3.71 0 0 1 1.27-1 4 4 0 0 1 1.79-.38 3.93 3.93 0 0 1 1.78.38 3.83 3.83 0 0 1 1.27 1 4.31 4.31 0 0 1 .77 1.42 5.25 5.25 0 0 1 .25 1.62zm-2.15 0a4 4 0 0 0-.12-1 2.45 2.45 0 0 0-.37-.82 1.89 1.89 0 0 0-.6-.55 1.78 1.78 0 0 0-1.65 0 1.89 1.89 0 0 0-.6.55 2.44 2.44 0 0 0-.37.82 4.21 4.21 0 0 0 0 2 2.68 2.68 0 0 0 .36.82 1.74 1.74 0 0 0 .6.56 1.68 1.68 0 0 0 .84.2 1.63 1.63 0 0 0 .83-.2 1.86 1.86 0 0 0 .6-.56 2.56 2.56 0 0 0 .37-.82 4 4 0 0 0 .12-1.01zM82.36 89.08v-4.84a2.42 2.42 0 0 0-.41-1.5 1.34 1.34 0 0 0-1.13-.53 1.77 1.77 0 0 0-.94.26 4 4 0 0 0-.75.58v6H77v-8.46h2l.11.67a3.78 3.78 0 0 1 1.15-.65 3.84 3.84 0 0 1 1.29-.23 3.63 3.63 0 0 1 1.23.2 2.4 2.4 0 0 1 1 .64 3 3 0 0 1 .62 1.14 5.71 5.71 0 0 1 .22 1.69v5zM88 85.38a2 2 0 0 0 .67 1.55 2.43 2.43 0 0 0 1.56.48 4.14 4.14 0 0 0 .83-.08 3.81 3.81 0 0 0 .69-.2 4.19 4.19 0 0 0 .51-.25 1.59 1.59 0 0 0 .32-.23l.58 1.78-.4.24a4 4 0 0 1-.68.28 7.13 7.13 0 0 1-1 .23 6.9 6.9 0 0 1-1.2.1A4.7 4.7 0 0 1 88.4 89a3.51 3.51 0 0 1-1.31-.82 4 4 0 0 1-.9-1.38 5.25 5.25 0 0 1-.33-2 5.43 5.43 0 0 1 .31-1.9 4 4 0 0 1 .83-1.36 3.68 3.68 0 0 1 1.25-.86 3.9 3.9 0 0 1 1.52-.3 4.14 4.14 0 0 1 1.5.26 3.07 3.07 0 0 1 1.19.82 4 4 0 0 1 .79 1.43 6.72 6.72 0 0 1 .3 2.11v.39zm3.29-1.57a2.26 2.26 0 0 0-.19-.77 1.64 1.64 0 0 0-.37-.53 1.49 1.49 0 0 0-.48-.3 1.47 1.47 0 0 0-.52-.1 1.68 1.68 0 0 0-1.08.42 1.81 1.81 0 0 0-.6 1.27z"/></g><g data-name="&lt;Group&gt;"><circle data-name="&lt;Path&gt;" cx="60.53" cy="51.19" r="20.46" /><path data-name="&lt;Path&gt;" d="M60.69 62.6c-5.62 0-11.47-4.78-11.5-12.49a17.37 17.37 0 0 1 6.25-12.91 20.44 20.44 0 0 1 12.38-4.67 5.16 5.16 0 0 1 1.47.16 8.5 8.5 0 0 0-6.67 8.17 2.13 2.13 0 0 0 0 .33c6.23 1.52 9.06 5.28 9.08 10.48A11 11 0 0 1 60.69 62.6z" fill="#fff" /></g></svg>
