<svg data-name="Layer 1" xmlns="http://www.w3.org/2000/svg" viewBox="0 0 120 120"><g data-name="&lt;Group&gt;" fill="#e60000"><path data-name="&lt;Compound Path&gt;" d="M30 89.08l-3.55-8.49h2.32L31 86.22l2.15-5.63h2.21l-3.46 8.49zM43.69 84.8a5.38 5.38 0 0 1-.25 1.63 4.57 4.57 0 0 1-.76 1.43 4.1 4.1 0 0 1-4.84 1 3.77 3.77 0 0 1-1.27-1 4.57 4.57 0 0 1-.76-1.43 5.38 5.38 0 0 1-.25-1.63 5.27 5.27 0 0 1 .25-1.62 4.52 4.52 0 0 1 .76-1.42 3.72 3.72 0 0 1 1.27-1 4 4 0 0 1 1.78-.38 3.93 3.93 0 0 1 1.78.38 3.81 3.81 0 0 1 1.27 1 4.35 4.35 0 0 1 .77 1.42 5.27 5.27 0 0 1 .25 1.62zm-2.15 0a4.17 4.17 0 0 0-.12-1 2.47 2.47 0 0 0-.37-.82 1.86 1.86 0 0 0-.6-.55 1.8 1.8 0 0 0-1.65 0 1.86 1.86 0 0 0-.6.55 2.29 2.29 0 0 0-.37.82 4.35 4.35 0 0 0 0 2 2.65 2.65 0 0 0 .36.82 1.75 1.75 0 0 0 .6.55 1.63 1.63 0 0 0 .83.21 1.57 1.57 0 0 0 .83-.21 1.75 1.75 0 0 0 .6-.55 2.67 2.67 0 0 0 .37-.82 4.19 4.19 0 0 0 .12-1.01zM50.42 89.08l-.08-.65a2.89 2.89 0 0 1-.79.58 2.51 2.51 0 0 1-1.16.26 3.12 3.12 0 0 1-1.55-.37 3.43 3.43 0 0 1-1.12-1 4.58 4.58 0 0 1-.72-1.41 5.9 5.9 0 0 1-.24-1.69 5.27 5.27 0 0 1 .24-1.62 4.28 4.28 0 0 1 .74-1.42 3.78 3.78 0 0 1 1.26-1 3.91 3.91 0 0 1 1.77-.38 4.92 4.92 0 0 1 1.44.24v-3.29h2.18v11.75zm-.17-6.62a3.13 3.13 0 0 0-1.18-.25 2.06 2.06 0 0 0-1 .21 1.85 1.85 0 0 0-.66.58 2.56 2.56 0 0 0-.4.81 3.22 3.22 0 0 0-.13.93 4.74 4.74 0 0 0 .11 1 2.86 2.86 0 0 0 .35.85 1.84 1.84 0 0 0 .6.58 1.56 1.56 0 0 0 .85.22 1.71 1.71 0 0 0 .82-.22 1.42 1.42 0 0 0 .6-.52zM58.75 89.07l-.09-.64a2.26 2.26 0 0 1-.9.62 3.09 3.09 0 0 1-1.2.22 3.13 3.13 0 0 1-1.05-.18 3 3 0 0 1-.89-.53 2.6 2.6 0 0 1-.87-2 2.47 2.47 0 0 1 .25-1.1 2.55 2.55 0 0 1 .67-.82 4.15 4.15 0 0 1 1-.55 6.29 6.29 0 0 1 1.15-.31 6.13 6.13 0 0 1 .93-.13l.84-.08v-.13a1.23 1.23 0 0 0-.36-1 1.55 1.55 0 0 0-1-.3 2.71 2.71 0 0 0-.71.09 2.79 2.79 0 0 0-.6.22 4 4 0 0 0-.47.26 2.87 2.87 0 0 0-.33.24l-.72-1.53a3.67 3.67 0 0 1 .43-.3 4.58 4.58 0 0 1 .7-.34 5.48 5.48 0 0 1 .94-.29 5.6 5.6 0 0 1 1.12-.11 4.35 4.35 0 0 1 1.28.18 2.58 2.58 0 0 1 1 .59 2.43 2.43 0 0 1 .66 1 4 4 0 0 1 .24 1.47v5.45zm-.17-4l-.73.06-.71.11a1.64 1.64 0 0 0-1 .49 1.15 1.15 0 0 0-.28.75.84.84 0 0 0 .31.67 1.36 1.36 0 0 0 .88.26 2 2 0 0 0 .82-.18 2.21 2.21 0 0 0 .69-.44zM67.49 79.27l-.42-.15a3 3 0 0 0-.82-.1 1 1 0 0 0-1.07 1.17v.4H67v1.76h-1.8v6.73H63v-6.73h-1.11v-1.76H63v-.46a4.11 4.11 0 0 1 .22-1.4 2.32 2.32 0 0 1 .59-.93 2.26 2.26 0 0 1 .88-.53 3.63 3.63 0 0 1 1.11-.16 5.39 5.39 0 0 1 1.32.14 3.34 3.34 0 0 1 .6.21zM75.58 84.8a5.38 5.38 0 0 1-.25 1.63 4.37 4.37 0 0 1-.76 1.43 3.67 3.67 0 0 1-1.27 1 3.86 3.86 0 0 1-1.78.39 3.78 3.78 0 0 1-3.06-1.41 4.54 4.54 0 0 1-.75-1.43 5.39 5.39 0 0 1-.26-1.63 5.28 5.28 0 0 1 .26-1.62 4.49 4.49 0 0 1 .75-1.42 3.81 3.81 0 0 1 1.27-1 4 4 0 0 1 1.79-.38 4 4 0 0 1 1.78.38 3.88 3.88 0 0 1 1.26 1 4.35 4.35 0 0 1 .77 1.42 5.27 5.27 0 0 1 .25 1.64zm-2.14 0a3.73 3.73 0 0 0-.13-1 2.29 2.29 0 0 0-.37-.82 1.93 1.93 0 0 0-.59-.55 1.73 1.73 0 0 0-.83-.2 1.7 1.7 0 0 0-.83.2 2.09 2.09 0 0 0-.6.55 2.47 2.47 0 0 0-.37.82 4.35 4.35 0 0 0 0 2 2.65 2.65 0 0 0 .36.82 1.75 1.75 0 0 0 .6.55 1.77 1.77 0 0 0 1.67 0 1.82 1.82 0 0 0 .59-.55 2.45 2.45 0 0 0 .37-.82 3.75 3.75 0 0 0 .13-1.01zM82.36 89.08v-4.84a2.41 2.41 0 0 0-.4-1.5 1.35 1.35 0 0 0-1.13-.53 1.8 1.8 0 0 0-.94.26 3.76 3.76 0 0 0-.75.59v6H77v-8.47h2l.1.67a3.84 3.84 0 0 1 1.15-.65 3.92 3.92 0 0 1 1.3-.23 3.78 3.78 0 0 1 1.23.2 2.46 2.46 0 0 1 1 .64 3 3 0 0 1 .62 1.15 5.59 5.59 0 0 1 .22 1.69v5zM88 85.38a2.05 2.05 0 0 0 .67 1.55 2.42 2.42 0 0 0 1.56.47 3.71 3.71 0 0 0 .83-.08 3.78 3.78 0 0 0 .69-.2 4.13 4.13 0 0 0 .51-.24 2.07 2.07 0 0 0 .32-.23l.58 1.78-.39.23a3.67 3.67 0 0 1-.68.28 6.31 6.31 0 0 1-.95.23 6.47 6.47 0 0 1-1.2.1A4.89 4.89 0 0 1 88.4 89a3.59 3.59 0 0 1-1.31-.82 4.23 4.23 0 0 1-.9-1.38 6 6 0 0 1 0-3.88 4 4 0 0 1 .81-1.38 3.83 3.83 0 0 1 1.25-.86 3.94 3.94 0 0 1 1.53-.3 4.24 4.24 0 0 1 1.49.26 3.07 3.07 0 0 1 1.19.82 3.82 3.82 0 0 1 .79 1.44 6.47 6.47 0 0 1 .3 2.1v.39zm3.29-1.57a2.12 2.12 0 0 0-.18-.76 1.66 1.66 0 0 0-.37-.53 1.37 1.37 0 0 0-.48-.3 1.6 1.6 0 0 0-.52-.1 1.64 1.64 0 0 0-1.08.43 1.76 1.76 0 0 0-.6 1.26z"/></g><g data-name="&lt;Group&gt;"><circle data-name="&lt;Path&gt;" cx="60.53" cy="51.19" r="20.46" fill="#e60000"/><path data-name="&lt;Path&gt;" d="M60.69 62.6c-5.62 0-11.47-4.78-11.5-12.48a17.37 17.37 0 0 1 6.25-12.91 20.47 20.47 0 0 1 12.38-4.68 5.12 5.12 0 0 1 1.47.17 8.49 8.49 0 0 0-6.67 8.17 2.5 2.5 0 0 0 0 .33c6.23 1.52 9.06 5.28 9.08 10.48A10.94 10.94 0 0 1 60.69 62.6z" fill="#fff"/></g></svg>