<svg data-name="1847e519-dea5-4958-8c63-6b745df85b7b" xmlns="http://www.w3.org/2000/svg" width="160" height="160" viewBox="0 0 160 160"><path d="M60 71.65l12.83-12.82A4 4 0 0 0 70 52H40a4 4 0 0 0 0 8h20.34L47.8 72.54a4 4 0 0 0 3.62 6.75 16.42 16.42 0 0 1 3.07-.29C61.94 79 68 83.93 68 90c0 6.39-6.31 12-13.5 12h-.11a12.29 12.29 0 0 1-11-6 4 4 0 1 0-6.83 4 20.36 20.36 0 0 0 17.5 10h.49C66.18 110 76 100.82 76 90c0-8.79-6.8-16.19-16-18.35zM120 78h-14a4 4 0 0 0 0 8h10v8.12a5.54 5.54 0 0 1-4.05 5.52c-4.18 1.14-10 1.85-14.05-1.24S92 89.22 92 80c0-10.66 3.88-17.5 10.93-19.25 5.85-1.46 11.23 1.11 12 2.63a4 4 0 1 0 7.07-3.76c-3-5.69-12.67-8.73-21-6.64-5.11 1.27-17 6.46-17 27 0 11.85 3 20.17 9 24.76a19.83 19.83 0 0 0 12.31 3.86 33.22 33.22 0 0 0 8.72-1.26 13.53 13.53 0 0 0 9.97-13.4V82a4 4 0 0 0-4-4z"/><path d="M80 0a80 80 0 1 0 80 80A80.09 80.09 0 0 0 80 0zm0 152a72 72 0 1 1 72-72 72.08 72.08 0 0 1-72 72z"/></svg>