<svg data-name="c647ca4a-be04-4488-b651-97e2c790418e" xmlns="http://www.w3.org/2000/svg" width="160" height="160" viewBox="0 0 160 160"><path d="M87 77.1H74.83a4 4 0 0 0 0 8H83v6.52a4.28 4.28 0 0 1-3.15 4.26c-3.47 1-8.31 1.58-11.67-1s-4.93-7.83-4.93-15.56c0-9.09 3.13-14.68 9-16.16 4.74-1.18 9.23.86 9.85 2a4 4 0 0 0 7.06-3.76c-2.74-5.14-11.37-7.91-18.85-6-4.54 1.13-15.11 5.74-15.11 23.92 0 10.47 2.72 17.85 8.09 21.93a17.67 17.67 0 0 0 10.93 3.43 28.83 28.83 0 0 0 7.78-1.1 12.27 12.27 0 0 0 9-12.14V81.1a4 4 0 0 0-4-4zm-39 7.97h-3V59.43a4 4 0 0 0 0-.43c0-.13-.05-.25-.09-.37s-.07-.25-.12-.37-.1-.24-.16-.35-.12-.23-.18-.34-.15-.22-.23-.32S44 57 44 57a4 4 0 0 0-.31-.29c-.06-.05-.11-.12-.18-.17l-.1-.06a4 4 0 0 0-.41-.28l-.32-.2c-.12-.05-.25-.09-.37-.14s-.25-.09-.37-.12l-.35-.06a4 4 0 0 0-.43 0h-.82l-.37.09-.37.12-.35.16-.34.19-.32.23c-.1.08-.2.16-.29.24a4 4 0 0 0-.29.31c-.05.06-.12.11-.17.18L15.33 86.64a4 4 0 0 0 3.17 6.43H37v8.13a4 4 0 0 0 8 0v-8.13h3a4 4 0 0 0 0-8zm-21.37 0L37 71.47v13.6zM114 76h-4v-4a4 4 0 0 0-8 0v4h-4a4 4 0 0 0 0 8h4v4a4 4 0 0 0 8 0v-4h4a4 4 0 0 0 0-8zm27.9 0h-4v-4a4 4 0 0 0-8 0v4h-4a4 4 0 1 0 0 8h4v4a4 4 0 0 0 8 0v-4h4a4 4 0 0 0 0-8z"/><path d="M80 0a80 80 0 1 0 80 80A80.09 80.09 0 0 0 80 0zm0 152a72 72 0 1 1 72-72 72.08 72.08 0 0 1-72 72z"/></svg>