<svg id="bc1c7853-0805-4d32-b1e2-ea6d0666a3f1" data-name="Layer 1" xmlns="http://www.w3.org/2000/svg" viewBox="0 0 160 160"><title>5G</title><path d="M80,0a80,80,0,1,0,80,80A80,80,0,0,0,80,0Zm0,152a72,72,0,1,1,72-72A72,72,0,0,1,80,152Z" /><path d="M53.81,108.8a30.86,30.86,0,0,1-8.28-1,26.76,26.76,0,0,1-5.72-2.15,14.28,14.28,0,0,1-3.07-2.2l4.31-9.2a29.14,29.14,0,0,0,6,3.61,16.81,16.81,0,0,0,6.84,1.36,12,12,0,0,0,4.51-.62,8.22,8.22,0,0,0,5.14-5.09,9.79,9.79,0,0,0,.54-3.73q0-5.05-3.15-7.38C58.84,80.82,55.8,80,51.82,80a52,52,0,0,0-10.19,1.41V52.36H72.29v9.45H51V71a11.46,11.46,0,0,1,2.4-.17q10,0,15.45,4.52t5.43,14c0,5-1.16,9.06-3.48,12.09a15,15,0,0,1-8.12,6A30.11,30.11,0,0,1,53.81,108.8Z" /><path d="M105,108.8a25.23,25.23,0,0,1-9.91-1.91,21.09,21.09,0,0,1-7.75-5.59,26.2,26.2,0,0,1-5-9,37.89,37.89,0,0,1-1.78-12.1,38.77,38.77,0,0,1,1.91-12.89,26.49,26.49,0,0,1,5.13-9A20.55,20.55,0,0,1,95,52.94a22.76,22.76,0,0,1,8.83-1.74q7.29,0,11.76,2.7a18.26,18.26,0,0,1,6.8,6.92l-7.29,6.71a13.84,13.84,0,0,0-4.48-4.64A11.94,11.94,0,0,0,104,61a9.53,9.53,0,0,0-7.46,3.23A16.39,16.39,0,0,0,92.26,72a30.88,30.88,0,0,0-.78,4.35,26.86,26.86,0,0,0-.13,3.86,25.51,25.51,0,0,0,2.24,11,13.63,13.63,0,0,0,2.86,4.18,12.26,12.26,0,0,0,3.31,2.32,11.3,11.3,0,0,0,3.24,1,19.65,19.65,0,0,0,2.61.21,30.49,30.49,0,0,0,5.34-.38,13.71,13.71,0,0,0,2.36-.54V88.08h-8.62V78.55h18.57v26.6a24,24,0,0,1-6.8,2.49A48.77,48.77,0,0,1,105,108.8Z" /></svg>
