<svg data-name="4ff9b2f8-d799-4f67-9609-e1df9f64f0a8" xmlns="http://www.w3.org/2000/svg" width="160" height="160" viewBox="0 0 160 160"><path d="M116 40H28a4 4 0 0 0 0 8h88a4 4 0 0 0 0-8zm0 24H28a4 4 0 0 0 0 8h88a4 4 0 0 0 0-8zm0 24H28a4 4 0 0 0 0 8h88a4 4 0 0 0 0-8z"/><path d="M144 0H34a16 16 0 0 0-16 16h-2A16 16 0 0 0 0 32v72a16 16 0 0 0 16 16h8v28a4 4 0 0 0 6.74 2.91L63.59 120H126a16 16 0 0 0 16-16h2a16 16 0 0 0 16-16V16a16 16 0 0 0-16-16zm-10 104a8 8 0 0 1-8 8H62a4 4 0 0 0-2.74 1.09L32 138.74V116a4 4 0 0 0-4-4H16a8 8 0 0 1-8-8V32a8 8 0 0 1 8-8h110a8 8 0 0 1 8 8zm18-16a8 8 0 0 1-8 8h-2V32a16 16 0 0 0-16-16H26a8 8 0 0 1 8-8h110a8 8 0 0 1 8 8z"/></svg>