<svg data-name="3cbd7b96-5294-4992-946c-fb570c809f72" xmlns="http://www.w3.org/2000/svg" width="153.53" height="160" viewBox="0 0 153.53 160"><path d="M152.38 31.28a4 4 0 0 0-5.66 0L91 86.36 67.83 63.17a4 4 0 0 0-5.66 5.66l26 26a4 4 0 0 0 5.64 0l58.54-57.91a4 4 0 0 0 .03-5.64z"/><path d="M127 76a4 4 0 0 0-4 4v48a8 8 0 0 1-8 8H88v-8h12a4 4 0 0 0 0-8H80v-16.5c0-3.66-2.3-8.82-13.23-12.62A76 76 0 0 0 48 87.31V16a8 8 0 0 1 8-8h59a8 8 0 0 1 8 8v18a4 4 0 0 0 8 0V16a16 16 0 0 0-16-16H56a16 16 0 0 0-16 16v71c-10 0-19.56 1.38-26.77 3.88C3.65 94.21.7 98.58.12 102.07A4 4 0 0 0 0 103v23a4 4 0 0 0 1 2.6 21.57 21.57 0 0 0 7 5V147a4 4 0 0 0 1 2.6c6.51 7.67 24.42 10.4 39 10.4 14.15 0 32.4-1.63 39-9.4a4 4 0 0 0 1-2.6v-4h27a16 16 0 0 0 16-16V80a4 4 0 0 0-4-4zM8 124.33v-10.45a37.48 37.48 0 0 0 5.23 2.24C20.44 118.62 30 120 40 120s19.56-1.38 26.77-3.88a37.48 37.48 0 0 0 5.23-2.24v11.52c-4 3.16-15 6.09-32 6.09-15.77 0-27.57-3.49-32-7.16zM40 95q2 0 4 .08c18.21.71 28 6.12 28 8.42 0 2.5-11.21 8.5-32 8.5s-32-6-32-8.5S19.21 95 40 95zm40 51.3c-3.74 2.9-13.74 5.7-32 5.7-16.67 0-27.84-3.31-32-6.68v-8.75a92 92 0 0 0 24 2.92c9.22 0 31.49-1 39-9.79a4 4 0 0 0 .68-1.14l.28.14z"/></svg>