<svg data-name="e6e4b541-4980-4a0b-a8c6-6b8e948795a8" xmlns="http://www.w3.org/2000/svg" width="160" height="160" viewBox="0 0 160 160"><path d="M108 64H76a4 4 0 0 0 0 8h32a4 4 0 0 0 0-8zm-48 0h-8a4 4 0 0 0 0 8h8a4 4 0 0 0 0-8zm48 24H76a4 4 0 0 0 0 8h32a4 4 0 0 0 0-8zm-48 0h-8a4 4 0 0 0 0 8h8a4 4 0 0 0 0-8zm48 24H76a4 4 0 0 0 0 8h32a4 4 0 0 0 0-8zm-48 0h-8a4 4 0 0 0 0 8h8a4 4 0 0 0 0-8z"/><path d="M134.83 33.17l-32-32A4 4 0 0 0 100 0H40a16 16 0 0 0-16 16v128a16 16 0 0 0 16 16h80a16 16 0 0 0 16-16V36a4 4 0 0 0-1.17-2.83zM104 13.66L122.34 32H104zM120 152H40a8 8 0 0 1-8-8V16a8 8 0 0 1 8-8h56v28a4 4 0 0 0 4 4h28v104a8 8 0 0 1-8 8z"/></svg>