<svg data-name="91d7fbfc-4dc2-45c5-8e9d-63a93811dbee" xmlns="http://www.w3.org/2000/svg" width="160" height="160" viewBox="0 0 160 160"><path d="M160.61 84.2l-16.95-25.43L159 41.51a4 4 0 0 0-1.29-6.27L100.87 8.42a4 4 0 0 0-4.47.73L79.81 25.06 63.22 9.15a4 4 0 0 0-4.47-.73L1.91 35.23a4 4 0 0 0-1.28 6.28l15.49 17.44L-.71 84.2A4 4 0 0 0 .91 90l16.25 7.68v22.79a4 4 0 0 0 2.29 3.62l58.84 27.82a4 4 0 0 0 3.42 0l58.74-27.82a4 4 0 0 0 2.29-3.62V97.73L159 90a4 4 0 0 0 1.62-5.83zM99.94 16.83l49.52 23.36-11.92 13.42L86.7 29.53zM80 82L30.52 58.6 80 35.21l49.4 23.4zM59.67 16.83L73 29.65 22.16 53.7l-12-13.51zm-37.1 46.86L74.1 88.06 60 109.15 8.52 84.78zm2.59 37.81l34.58 16.35a4 4 0 0 0 5-1.4L76 99.63V142l-50.84-24zM134.74 118L84 142V99.63l11.22 16.83a4 4 0 0 0 5 1.4l34.48-16.33zM100 109.15l-14.1-21.1 51.43-24.36 14.06 21.09z"/></svg>