<svg data-name="11724e0d-5a87-4ec5-bcbd-276184094963" xmlns="http://www.w3.org/2000/svg" width="160" height="160" viewBox="0 0 160 160"><path d="M136 8H24A16 16 0 0 0 8 24v112a16 16 0 0 0 16 16h112a16 16 0 0 0 16-16V24a16 16 0 0 0-16-16zm8 16v52H84V16h52a8 8 0 0 1 8 8zM24 16h52v60H16V24a8 8 0 0 1 8-8zm-8 120V84h60v60H24a8 8 0 0 1-8-8zm120 8H84V84h60v52a8 8 0 0 1-8 8z"/><path d="M36 52h8v8a4 4 0 0 0 8 0v-8h8a4 4 0 0 0 0-8h-8v-8a4 4 0 0 0-8 0v8h-8a4 4 0 0 0 0 8zm24.83 71.17L53.66 116l7.14-7.14a4 4 0 0 0-5.66-5.66L48 110.34l-7.17-7.17a4 4 0 0 0-5.66 5.66l7.17 7.17-6.67 6.67a4 4 0 1 0 5.66 5.66l6.67-6.67 7.17 7.17a4 4 0 1 0 5.66-5.66zM100 52h24a4 4 0 0 0 0-8h-24a4 4 0 0 0 0 8zm24 68h-24a4 4 0 0 0 0 8h24a4 4 0 0 0 0-8zm0-16h-24a4 4 0 0 0 0 8h24a4 4 0 0 0 0-8z"/></svg>