<svg data-name="b227dd6d-6e67-4791-bf1a-2782ad439167" xmlns="http://www.w3.org/2000/svg" width="160" height="160" viewBox="0 0 160 160"><path d="M159.85 127a9.43 9.43 0 0 0-3.64-6.18c-2.48-1.77-29.45-19.74-32.47-21.63-3.29-2-8.11-1.73-12.91.73a3.93 3.93 0 0 0-.58.37l-10.52 7.94C94 104.1 79.21 93.37 72.84 86.85 60.6 74.52 54.57 66.56 52.21 63.16c2.24-3.79 6.77-11.46 8.14-14 2.59-4.81 2.92-9.63.87-12.9-1.91-3-19.44-29.86-21.3-32.47-2.86-3.9-9.82-5.5-16.06-1.26C23.61 2.69-.21 19.47 0 29.18c.58 27.12 26.86 59.11 48.8 81.17S102.68 159 130.1 160h.23c9.66 0 26.77-22.89 26.94-23.12a13.25 13.25 0 0 0 2.58-9.88zm-9.07 5.21c-5.2 7.21-17 19.47-20.45 19.8-24.74-.93-54.9-26.23-75.85-47.29S8.53 53.49 8 29c.46-3.42 13-14.88 20.35-19.85A6 6 0 0 1 31.7 8a2.7 2.7 0 0 1 1.74.47c1.72 2.4 19.19 29.14 21 32 .2.33.32 2.16-1.13 4.86-1.73 3.21-9.17 15.73-9.25 15.85a4 4 0 0 0 0 4c.22.38 5.54 9.53 23.11 27.22 8.47 8.67 29.49 23.37 30.38 24a4 4 0 0 0 4.7-.09l12.56-9.48c2.59-1.25 4.37-1.13 4.76-.9 3.41 2.14 30 19.9 32 21.33.34.37 1.06 2.37-.79 4.94z"/></svg>