<svg data-name="55671e39-cefa-46bf-b0c9-8ca4a8831d80" xmlns="http://www.w3.org/2000/svg" width="160" height="160" viewBox="0 0 160 160"><path d="M80 48.36a40 40 0 1 0 40 40 40 40 0 0 0-40-40zm0 72a32 32 0 1 1 32-32 32 32 0 0 1-32 32z"/><path d="M140.81 40h-15.26a10.2 10.2 0 0 1-6.74-2.62l-16.39-23.92a4 4 0 0 0-.48-.58C98.31 9.28 92.85 8 88.94 8H71.13a18.27 18.27 0 0 0-13.06 5.11 4 4 0 0 0-.52.61l-16.48 23.7A7.69 7.69 0 0 1 35.31 40H19.56A20.11 20.11 0 0 0 0 60v72.81A19.29 19.29 0 0 0 19.2 152h121.62A19.27 19.27 0 0 0 160 132.81V59.66C160 49 151.21 40 140.81 40zM152 132.8a11.25 11.25 0 0 1-11.19 11.2H19.21A11.26 11.26 0 0 1 8 132.8V60a12.05 12.05 0 0 1 11.65-12h15.67a15.67 15.67 0 0 0 12-5.53c.08-.1.16-.2.24-.31l16.32-23.52A10.5 10.5 0 0 1 71.06 16h17.88a11.38 11.38 0 0 1 7.12 2.34l16.4 23.92a4 4 0 0 0 .52.62A18.19 18.19 0 0 0 125.51 48h15.3c6.07 0 11.19 5.34 11.19 11.66z"/></svg>