<svg data-name="e9ffd98a-3ae8-427a-85d9-32670cf13002" xmlns="http://www.w3.org/2000/svg" width="160" height="160" viewBox="0 0 160 160"><path d="M67.41 87.14a4 4 0 0 0 5 0c41.94-33.32 41.86-58.33 41.7-61.19C114 11.42 102.7-.38 88.78-.38a24.86 24.86 0 0 0-18.37 8.24A25.72 25.72 0 0 0 51.55-.4 26.57 26.57 0 0 0 32.22 8a23.58 23.58 0 0 0-6.51 17.8c1.97 29.66 40.08 60.06 41.7 61.34zM38.06 13.47A18.54 18.54 0 0 1 51.55 7.6 17.71 17.71 0 0 1 66 15.11q.48.68.9 1.41l.17.3a17.93 17.93 0 0 1 1.45 3.42 4 4 0 0 0 7.65-2.34 26 26 0 0 0-1.13-3A16.85 16.85 0 0 1 88.8 7.62c9.53 0 17.28 8.28 17.28 18.46v.32c0 .12 1 21.9-36.16 52.42-8.27-7.08-34.76-31.39-36.24-53.56a15.66 15.66 0 0 1 4.38-11.79zM158.2 96.45a11.65 11.65 0 0 0-14.7-4.34l-2.06.94a11.51 11.51 0 0 0-.75-1.37A11.64 11.64 0 0 0 126 87.35l-8.64 4a11.5 11.5 0 0 0-.7-1.28A11.65 11.65 0 0 0 102 85.71l-30.88 14.2L66 98.86c-3.11-.67-7-1.73-11.62-3.16a34.34 34.34 0 0 0-26.27 2.11c-9.55 5-16.41 13.71-20.42 26l-.79-.79a4 4 0 0 0-5.66 5.66l29.82 29.81a4 4 0 1 0 5.66-5.66l-1-1h32.96a36.16 36.16 0 0 0 13.26-2l.87-.35h.1c1.65-.72 13.13-6.67 31.72-16.32 14.28-7.41 30.47-15.81 39-20.13.33-.17.65-.35 1-.55a11.63 11.63 0 0 0 3.57-16.03zm-28.85-1.84a3.63 3.63 0 0 1 4.6 1.39 3.56 3.56 0 0 1 .22.41l-27.43 12.56a10.2 10.2 0 0 0-3.4-2.37zm-24-1.64a3.63 3.63 0 0 1 4.59 1.36 3.56 3.56 0 0 1 .18.33l-19.76 9.09-5.89-1.18zm45 12.75l-.32.18c-8.56 4.34-24.77 12.75-39.07 20.17-14.5 7.52-29.48 15.3-31.19 16.06l-.73.29c-3.22 1.22-6.47 1.44-11 1.42H27.75L13.9 130a4 4 0 0 0 .77-1.44c3.23-11.45 9-19.41 17.14-23.63a26.4 26.4 0 0 1 20.2-1.6c4.85 1.51 9 2.63 12.35 3.35 6.33 1.35 29.33 5.92 34.38 6.92a4 4 0 0 0 .81.17 2.22 2.22 0 0 1-.11 4.42h-.1c-3.41 0-33.44-.33-38.63-.08s-11 4.94-12 5.88a4 4 0 0 0 5.24 6c1.84-1.6 5.36-3.85 7.18-3.94 4-.19 26.32 0 37.85.09h.39a10.27 10.27 0 0 0 10.14-9.14v-.5l37.32-17.09a3.63 3.63 0 0 1 3.48 6.34z"/></svg>