<svg data-name="38dfcc44-3594-4abf-88c3-ff19f5b44500" xmlns="http://www.w3.org/2000/svg" width="160" height="160" viewBox="0 0 160 160"><path d="M52 100a16 16 0 1 0-16-16 16 16 0 0 0 16 16zm0-24a8 8 0 1 1-8 8 8 8 0 0 1 8-8zm56-8a16 16 0 1 0 16 16 16 16 0 0 0-16-16zm0 24a8 8 0 1 1 8-8 8 8 0 0 1-8 8zm14.38 16.78a4 4 0 0 0-3.55-.61 132.32 132.32 0 0 1-19.54 4.41h-.11A132.38 132.38 0 0 1 80 114a132.27 132.27 0 0 1-38.83-5.82A4 4 0 0 0 36 112v22a4 4 0 0 0 2.83 3.82 139.81 139.81 0 0 0 82.35 0A4 4 0 0 0 124 134v-22a4 4 0 0 0-1.62-3.22zM76 136c-4-.12-8-.44-12-.93v-14q6 .68 12 .86zm8-14q6-.17 12-.86v14c-4 .49-8 .81-12 .93zm-40-4.7c4 1.05 8 1.91 12 2.61v13.89c-4-.75-8-1.66-12-2.79zm72 13.7c-4 1.12-8 2-12 2.79v-13.88c4-.7 8-1.56 12-2.61z"/><path d="M144 80V64a16 16 0 0 0-16-16h-8a16 16 0 0 0-16-16H84v-8.7a12 12 0 1 0-8 0V32H56a16 16 0 0 0-16 16h-8a16 16 0 0 0-16 16v16A16 16 0 0 0 0 96v24a16 16 0 0 0 16 16v8a16 16 0 0 0 16 16h96a16 16 0 0 0 16-16v-8a16 16 0 0 0 16-16V96a16 16 0 0 0-16-16zM80 8a4 4 0 1 1-4 4 4 4 0 0 1 4-4zM56 40h48a8 8 0 0 1 8 8H48a8 8 0 0 1 8-8zM8 120V96a8 8 0 0 1 8-8v40a8 8 0 0 1-8-8zm128 24a8 8 0 0 1-8 8H32a8 8 0 0 1-8-8V64a8 8 0 0 1 8-8h96a8 8 0 0 1 8 8zm16-24a8 8 0 0 1-8 8V88a8 8 0 0 1 8 8z"/></svg>