<svg data-name="35c5893b-f23d-4598-923e-ccbbcf010b6c" xmlns="http://www.w3.org/2000/svg" width="160" height="160" viewBox="0 0 160 160"><path d="M125.5 91a34.35 34.35 0 0 0-10.69 1.7L87.37 39a92 92 0 0 0 16.53 1.66c7 0 14.28-1.1 19.78-4.49a19.3 19.3 0 0 0 9.13-13.5c1.61-8.83-2.28-16.42-10.38-20.29C113-2.08 101-.18 95.06 6.73 89.77 12.83 83.7 21.1 80 26.23 75.32 19.51 70.28 13 64.93 6.73 58.88-.16 46.79-2 37.42 2.52c-8 3.87-11.83 11.42-10.24 20.2a19.28 19.28 0 0 0 9.13 13.48c5.49 3.39 12.69 4.49 19.77 4.49A92 92 0 0 0 72.61 39l-31.53 61.44a30 30 0 1 0 7.74 2.44L80 42.15l27.55 53.9a34.48 34.48 0 1 0 18-5.06zM58 130a22 22 0 1 1-22-22 22 22 0 0 1 22 22zm43.11-118c3.6-4.18 11.78-5.25 17.87-2.34 3.39 1.62 7.18 5 6 11.64a11.44 11.44 0 0 1-5.46 8.12c-8.14 5-23.43 3.31-32.84 1.35 3.57-5.07 9.45-13.06 14.43-18.77zm-60.6 17.39a11.43 11.43 0 0 1-5.46-8.11c-1.21-6.64 2.52-10 5.85-11.57A17.64 17.64 0 0 1 48.52 8c4.15 0 8.13 1.42 10.37 4 5.13 6 10 12.28 14.55 18.75-9.39 1.94-24.74 3.7-32.93-1.36zM125.5 152a26.5 26.5 0 1 1 26.5-26.5 26.53 26.53 0 0 1-26.5 26.5z"/></svg>