<svg data-name="7835b64c-31d6-4ec8-bbfa-a129a409f32c" xmlns="http://www.w3.org/2000/svg" width="160" height="160" viewBox="0 0 160 160"><path d="M58 110.5c-.45-.4-.88-.83-1.29-1.27a4 4 0 1 0-5.87 5.44c.57.61 1.17 1.21 1.79 1.77a31.77 31.77 0 0 0 21.5 8.33h1.54a31.79 31.79 0 0 0 22.16-10.43A4 4 0 0 0 92 109a24 24 0 0 1-33.89 1.61z"/><path d="M160 39.52a4 4 0 0 0-4.45-3.5l-24.66 3q-1.42-2.72-3.05-5.21c-11.14-17-29.17-25.62-53.58-25.62C30.87 8.15 7.91 34.94 7.82 85.64A66.44 66.44 0 0 0 74.17 152a66.44 66.44 0 0 0 66.36-66.35c0-15.06-2.1-28.11-6.25-39l22.2-2.65a4 4 0 0 0 3.52-4.48zm-38.85-1.37c.4.6.78 1.23 1.15 1.85l-30.75 3.69A57.49 57.49 0 0 0 75 16.17c21.14.17 36.67 7.56 46.12 21.98zm-58-21.28l.1.08c.16.1 15.31 9.65 20.29 27.69l-63 7.54c6.79-20.58 21.05-32.4 42.59-35.31zm69.41 68.77A58.43 58.43 0 0 1 74.18 144a58.43 58.43 0 0 1-58.36-58.35 120.49 120.49 0 0 1 2.45-25.13l107.82-12.91c4.28 10.31 6.45 23.05 6.45 38.03z"/><circle cx="54.22" cy="82.07" r="8.99"/><circle cx="96.17" cy="82.07" r="8.99"/></svg>