<svg id="column" xmlns="http://www.w3.org/2000/svg" width="144.1001" height="160.124" viewBox="0 0 144.1001 160.124"><path class="cls-1" d="M147.8887,176.0488c-3.9424,0-7.88-.05-11.791-.1494C129.37,175.6572,128,165.8906,128,151.3V40.4c0-16.8188,2.4375-24.0854,8.1514-24.2969C144.0459,16,151.9541,16,159.752,16.1006c5.7724,0,8.1484,7.1265,8.1484,24.6.1,18.2891.1,36.9517.1,55v55c0,17.9268-2.3164,24.9912-8.2617,25.1982C155.7988,175.999,151.8418,176.0488,147.8887,176.0488Zm-10.3408-8.1172c6.872.1573,13.8515.1563,20.7568-.0009C158.8594,166.5654,160,162.3428,160,150.7v-55c0-18.0376,0-36.6895-.1-54.978,0-10.8345-1.0723-15.1426-1.6231-16.6392-6.87-.0767-13.7763-.0767-20.6044.001C137.1182,25.4976,136,29.6782,136,40.4V151.3C136,162.47,137.0117,166.5527,137.5479,167.9316ZM159.6328,24.0991c.0225,0,.0449.001.0674.001Zm-63.7446,151.95c-3.9424,0-7.88-.05-11.79-.1494C77.37,175.6572,76,165.8906,76,151.3V40.4c0-16.8188,2.438-24.085,8.1514-24.2969C92.0459,16,99.9531,16,107.752,16.1006c5.7724,0,8.1484,7.1265,8.1484,24.6.1,18.2891.1,36.9517.1,55v55c0,17.9268-2.3164,24.9912-8.2617,25.1982C103.7988,175.999,99.8418,176.0488,95.8882,176.0488Zm-10.34-8.1172c6.8715.1563,13.8525.1563,20.7568-.0009C106.8594,166.5654,108,162.3428,108,150.7v-55c0-18.0376,0-36.6895-.1-54.978,0-10.8345-1.0723-15.1426-1.6231-16.6392-6.8691-.0781-13.7768-.0771-20.6044.001C85.1182,25.4976,84,29.6782,84,40.4V151.3C84,162.47,85.0117,166.5527,85.5479,167.9316ZM107.6328,24.0991c.0225,0,.0449.001.0674.001ZM43.9,175.9492c-3.9434,0-7.8867-.05-11.8022-.15C25.2871,175.5566,23.9,165.79,23.9,151.2V40.3c0-17.0327,2.4824-24.3,8.3-24.3,7.7446-.1,15.6523-.1006,23.4512,0C61.418,16,63.9,23.3569,63.9,40.6c.1,18.3892.1,37.0518.1,55.1v55c0,15.02-1.4194,25.0391-8.3374,25.1C51.76,175.8994,47.83,175.9492,43.9,175.9492Zm-10.37-8.1181c6.8877.1591,13.8838.1582,20.8037-.002C54.8843,166.4473,56,162.2227,56,150.7v-55c0-18.0376,0-36.6895-.1-55.0781,0-10.8555-1.1265-15.1592-1.6943-16.6387-6.8858-.0772-13.8067-.0776-20.6509,0C33.001,25.4229,31.9,29.627,31.9,40.3V151.2C31.9,162.3379,32.9873,166.4658,33.53,167.8311ZM55.5332,23.999c.022.0005.0444.001.0669.001Zm-23.2217,0-.06.0005C32.27,23.9824,32.2915,23.999,32.3115,23.999Z" transform="translate(-23.8999 -15.9248)"/></svg>