<svg data-name="d50457b6-6e45-44a0-a61b-b15f49928a07" xmlns="http://www.w3.org/2000/svg" width="160" height="160" viewBox="0 0 160 160"><path d="M159.64 72.32a79.48 79.48 0 0 0-28.75-54.06c-.61-.51-1.24-1-1.87-1.47l-.13-.1A80 80 0 0 0 80.06 0H80a79.71 79.71 0 0 0-59.55 26.6l-.06.07c-.72.8-1.42 1.61-2.11 2.45A80.07 80.07 0 0 0 6 110.4a4 4 0 0 0 .44 1 79.75 79.75 0 0 0 71 48.5 4 4 0 0 0 .78.09 4 4 0 0 0 .55-.06h1.16a79.95 79.95 0 0 0 79.7-87.64zm-18.9-31a116.45 116.45 0 0 0-30-4.77 13.8 13.8 0 0 0-.64-1.55 108.17 108.17 0 0 1 15.85-10.42 72.14 72.14 0 0 1 14.79 16.71zM80.79 151.95a102.43 102.43 0 0 1-6.31-19.72 13.09 13.09 0 0 0 3.05-2A113.54 113.54 0 0 0 114.81 143a72.31 72.31 0 0 1-34.02 8.95zm-6.51-31A5.75 5.75 0 1 1 63 118.59a5.75 5.75 0 0 1 5.64-4.59 5.84 5.84 0 0 1 1.2.13 5.76 5.76 0 0 1 4.44 6.87zm-9.77-14.29a13.8 13.8 0 0 0-3.36 1.58l-.14.1a102.92 102.92 0 0 1-19.63-25.05 13.7 13.7 0 0 0 3-16.17A99.33 99.33 0 0 1 85.39 47c.19.39.4.77.63 1.14a105.72 105.72 0 0 0-21.51 58.54zM34.29 78.44l-.16.11a5.76 5.76 0 1 1 .66-.3 4 4 0 0 0-.5.19zm-7-47.51A72.17 72.17 0 0 1 35 23.85 105.92 105.92 0 0 1 84.53 37c-.1.34-.2.68-.27 1s-.12.68-.16 1a107.32 107.32 0 0 0-45.19 22.27 13.49 13.49 0 0 0-7.36-1.81 115.66 115.66 0 0 1-4.23-28.53zM92.89 44a5.75 5.75 0 1 1 3.63 2.49A5.71 5.71 0 0 1 92.89 44zM80 8h.06a72 72 0 0 1 38.78 11.38 116.16 116.16 0 0 0-14.15 9.69 13.67 13.67 0 0 0-15.74 1.27 113.93 113.93 0 0 0-43-13.8A71.87 71.87 0 0 1 80 8zM19.88 40.39A123.61 123.61 0 0 0 24 62.09a13.68 13.68 0 0 0-5.38 8.25 13.7 13.7 0 0 0 2 10.48 112.52 112.52 0 0 0-10.26 17.26 72 72 0 0 1 9.52-57.69zm-5.65 68.85A104.59 104.59 0 0 1 26.84 85.9a13.42 13.42 0 0 0 7.33.87 110.91 110.91 0 0 0 21.78 27.78 13.88 13.88 0 0 0-.74 2.38 13.75 13.75 0 0 0 10.61 16.3c.25.05.49.08.74.12A110.43 110.43 0 0 0 72 151.51a71.76 71.76 0 0 1-57.71-42.27zm110.88 26.88a105.43 105.43 0 0 1-43.25-12.61c.08-.29.17-.59.23-.89a13.76 13.76 0 0 0-9.59-16A97.7 97.7 0 0 1 92 53.43a13.73 13.73 0 0 0 5.71 1.24 13.65 13.65 0 0 0 7.47-2.23A97.82 97.82 0 0 1 114.6 63a99.52 99.52 0 0 1 20.14 63.73 72 72 0 0 1-9.62 9.39zm17.42-20.45A107.56 107.56 0 0 0 121 58.17a105.87 105.87 0 0 0-10.6-11.88 13.86 13.86 0 0 0 .59-1.76 108.57 108.57 0 0 1 35.22 7 72.11 72.11 0 0 1-3.63 64.11z"/></svg>