<svg data-name="0290d8e3-7e3b-4285-86cb-83235218cc70" xmlns="http://www.w3.org/2000/svg" width="160" height="160" viewBox="0 0 160 160"><path d="M152 74V64a71.12 71.12 0 0 0-9-32C128 5.56 100.45 0 80 0S32 5.56 17 32a71.11 71.11 0 0 0-9 32v32a16 16 0 1 0 32 0V74a16 16 0 0 0-23.71-14A64.54 64.54 0 0 1 24 36C34.5 17.41 53.35 8 80 8c53.78 0 62.37 39.06 63.74 52A16 16 0 0 0 120 74v22a16 16 0 0 0 21.85 14.92c-1.72 6.2-4.83 13.36-10.45 19-6.22 6.24-14.6 9.62-24.92 10.08A16 16 0 0 0 91 128H69.06a16 16 0 1 0 0 32H91a16 16 0 0 0 15.51-12c12.56-.49 22.85-4.68 30.62-12.49C152 120.54 152 97.93 152 97c0-.34.05-.67.05-1zM24 66a8 8 0 0 1 8 8v22a8 8 0 1 1-16 0V74a8 8 0 0 1 8-8zm67 86H69.06a8 8 0 1 1 0-16H91a8 8 0 0 1 8 7.91v.26a8 8 0 0 1-8 7.83zm45-48a8 8 0 0 1-8-8V74a8 8 0 0 1 16-.87V96a8 8 0 0 1-8 8z"/></svg>