<svg data-name="372a7712-2c34-41bc-8da0-4beb70b19806" xmlns="http://www.w3.org/2000/svg" width="160" height="160" viewBox="0 0 160 160"><path d="M140 114h-8a4 4 0 0 0 0 8h8a4 4 0 0 0 0-8z"/><path d="M150 58h1V33.85A16.57 16.57 0 0 0 135.13 18H27.83A16.57 16.57 0 0 0 12 33.85V58.2C8 60.36.89 64.69.27 68.93-1.31 79.58 4.35 94 17.09 111.8s24.56 27.84 35.37 30.09a5 5 0 0 0 1 .1c5.86 0 15-8.84 15.37-9.24a9 9 0 0 0 2-2.75h37.94a4 4 0 0 0 0-8H88v-8h24v14a10 10 0 0 0 10 10h28a10 10 0 0 0 10-10V68a10 10 0 0 0-10-10zm-96.35 76c-8.42-2-19.07-11.46-30.06-26.82S7.16 78.88 8.13 70.52c1.31-1.6 6.93-5 9.92-6.43C19.42 67 23.5 76.23 24.69 79a3.31 3.31 0 0 1-.35.52c-1.07 1.32-5.51 6.58-5.56 6.64a4 4 0 0 0-.68 4c.19.51 2.08 5.23 8.94 14.8 3.38 4.83 12.2 13.39 12.57 13.75a4 4 0 0 0 4.62.68l6.4-3.31a3.15 3.15 0 0 1 .54-.09c2 1.76 9.39 8.69 12 11.13-2.37 2.29-7.59 6.24-9.52 6.88zM80 122H69.42c-1-1-5.14-4.82-8.57-8H80zm-41.6-16a61.67 61.67 0 0 1-4.83-5.69 98.46 98.46 0 0 1-7-11c1.41-1.68 3.31-3.94 4-4.78 2.12-2.62 2.78-5.64 1.76-8.07-.69-1.64-6.76-15.36-7.43-16.72a6.9 6.9 0 0 0-4.9-3.59V34.08A8.53 8.53 0 0 1 28.06 26H134.9a8.53 8.53 0 0 1 8.1 8.08V58h-21a10 10 0 0 0-10 10v38zM152 128a2 2 0 0 1-2 2h-28a2 2 0 0 1-2-2V68a2 2 0 0 1 2-2h28a2 2 0 0 1 2 2z"/><path d="M71.66 75a4 4 0 1 0 5.5 5.81l.14-.14a9.49 9.49 0 0 1 13.36 0 4 4 0 0 0 5.78-5.53L96.3 75a17.51 17.51 0 0 0-24.64 0z"/><path d="M62.08 63.1a4 4 0 0 0 5.51 5.8l.14-.14a23 23 0 0 1 32.42 0 4 4 0 0 0 5.85-5.52l-.14-.14a31 31 0 0 0-43.78 0z"/><path d="M52.63 51a4 4 0 1 0 5.5 5.81l.14-.14a36.47 36.47 0 0 1 51.41 0 4 4 0 1 0 5.65-5.67 44.49 44.49 0 0 0-62.7 0z"/></svg>