<svg data-name="e6e4b541-4980-4a0b-a8c6-6b8e948795a8" xmlns="http://www.w3.org/2000/svg" viewBox="0 0 160 160"><path fill="none" d="M-16-16h192v192H-16z" data-name="d047580b-1364-4617-8ba0-dfc6a318d2fa"/><g data-name="d01263cf-fa9b-45ba-b394-0f4a6a3aca19" fill="none" stroke="#333" stroke-linejoin="round" stroke-width="8"><path d="M132 36L100 4H40a12 12 0 0 0-12 12v128a12 12 0 0 0 12 12h80a12 12 0 0 0 12-12z"/><path d="M100 4.23V36h32"/></g><path d="M100 120H68.24c2-4.19 3.76-10.53 3.76-20v-4h16a4 4 0 0 0 0-8H72V72c0-1.23.34-12 12-12 11.29 0 12 10 12 12a4 4 0 0 0 8 0c0-6.92-4.18-20-20-20S64 65.08 64 72v16h-4a4 4 0 0 0 0 8h4v4c0 15.71-5.22 20-5.87 20.46a3.8 3.8 0 0 0-2.21 4.36A4.1 4.1 0 0 0 60 128h40a4 4 0 0 0 0-8z" fill="#333"/></svg>