<svg data-name="77c6d338-143d-4eac-b391-f2bdc4df619c" xmlns="http://www.w3.org/2000/svg" width="160" height="160" viewBox="0 0 160 160"><path d="M113.72 41.36L86.4 67.94a14.1 14.1 0 0 0-6.84-1.75 14.18 14.18 0 0 0 0 28.36 14.09 14.09 0 0 0 10-4.16 4 4 0 1 0-5.66-5.65 6.14 6.14 0 0 1-4.37 1.81 6.18 6.18 0 0 1 0-12.36 6.14 6.14 0 0 1 4.4 1.81 4 4 0 0 0 5.62 0l29.75-28.9a4 4 0 1 0-5.58-5.73zM80 39.3a4 4 0 0 0 4-4v-8.94a4 4 0 0 0-8 0v8.94a4 4 0 0 0 4 4zM35.29 76h-8.94a4 4 0 0 0 0 8h8.94a4 4 0 0 0 0-8zm9.54-36.83a4 4 0 0 0-5.66 5.66l6.71 6.71a4 4 0 0 0 5.66-5.66zM133.64 76h-8.94a4 4 0 0 0 0 8h8.94a4 4 0 0 0 0-8z"/><path d="M80 0a80 80 0 1 0 80 80A80.09 80.09 0 0 0 80 0zm0 152a72 72 0 1 1 72-72 72.08 72.08 0 0 1-72 72z"/></svg>