<svg data-name="82f64abb-de14-4a25-a5b6-9163707e9456" xmlns="http://www.w3.org/2000/svg" width="160" height="160" viewBox="0 0 160 160"><path d="M104 132a4 4 0 0 0 4-4V56a4 4 0 0 0-8 0v72a4 4 0 0 0 4 4zm-24 0a4 4 0 0 0 4-4V56a4 4 0 0 0-8 0v72a4 4 0 0 0 4 4zm-24 0a4 4 0 0 0 4-4V56a4 4 0 0 0-8 0v72a4 4 0 0 0 4 4z"/><path d="M140 24h-32v-4A20 20 0 0 0 88 0H72a20 20 0 0 0-20 20v4H20a4 4 0 0 0 0 8h4v112a16 16 0 0 0 16 16h80a16 16 0 0 0 16-16V32h4a4 4 0 0 0 0-8zm-80-4A12 12 0 0 1 72 8h16a12 12 0 0 1 12 12v4H60zm68 124a8 8 0 0 1-8 8H40a8 8 0 0 1-8-8V32h96z"/></svg>