<svg xmlns="http://www.w3.org/2000/svg" width="160" height="160" viewBox="0 0 160 160"><path d="M60.896,112 L60.0913458,120.345857 C59.7197341,124.180214 57.123533,127.423549 53.5366468,127.899835 L52.62,127.96 L35.4,127.96 C31.6513731,127.96 28.7963116,125.033236 28.0663368,121.297274 L27.9288284,120.347651 L27.112,112 L16,112 C7.56510572,112 0.654679032,105.472978 0.043885892,97.1940987 L0,96 L0,16 C0,7.56510568 6.52702236,0.654679028 14.8059012,0.0438858917 L16,0 L144,0 C152.434894,0 159.345321,6.5270224 159.956114,14.8059013 L160,16 L160,96 C160,104.434894 153.472977,111.345321 145.194099,111.956114 L144,112 C144,120.434894 137.472978,127.345321 129.194099,127.956114 L128,128 L96,128 C87.5651056,128 80.654679,121.472978 80.0438859,113.194099 L80,112 L60.896,112 Z M128,24 L96,24 C91.8973133,24 88.5159427,27.0883215 88.0538219,31.067031 L88,32 L88,112 C88,116.102687 91.0883215,119.484057 95.067031,119.946178 L96,120 L128,120 C132.102687,120 135.484057,116.911678 135.946178,112.932969 L136,112 L136,32 C136,27.8973133 132.911678,24.5159427 128.932969,24.0538219 L128,24 Z M53.656,103.92 L53.24,103.94 L34.3696334,103.936428 L34.3696334,103.936428 L35.8919819,119.580764 C35.9154797,119.82749 35.914784,119.91467 35.8017974,119.944938 L35.4,119.960016 L52.62,119.960016 C52.202429,119.960016 52.1140338,119.965605 52.1150489,119.764886 L53.656,103.92 Z M120,104 C122.209139,104 124,105.790861 124,108 C124,109.963679 122.584999,111.596867 120.719005,111.935555 L120,112 L104,112 C101.790861,112 100,110.209139 100,108 C100,106.036321 101.415001,104.403133 103.280995,104.064445 L104,104 L120,104 Z M144,8 L16,8 C11.8973133,8 8.51594272,11.0883216 8.05382185,15.067031 L8,16 L8,96 C8,100.102687 11.0883216,103.484057 15.067031,103.946178 L16,104 L26.336,104 L26.1284695,101.858649 C20.4258921,98.9189153 16.4192927,93.1506274 15.9634183,86.4085327 L15.92,85.12 L15.92,67.05 C15.92,59.6940966 20.1401531,53.3238627 26.2913933,50.2283643 L28.068985,31.8407452 C28.441842,28.0274351 31.0116815,24.820311 34.5782793,24.3494713 L35.49,24.29 L52.49,24.29 C56.2177122,24.29 59.0591168,27.2133174 59.7768419,30.9058899 L59.9113138,31.8438126 L61.6886067,50.2283643 C67.4297643,53.1174962 71.4887303,58.8592864 72.0044095,65.5926398 L72.06,67.05 L72.06,85.12 C72.06,92.3944968 67.9327376,98.7050198 61.8921185,101.837663 L61.68,104 L80,104 L80,32 C80,23.5651056 86.5270223,16.654679 94.8059012,16.0438859 L96,16 L128,16 C136.434894,16 143.345321,22.5270223 143.956114,30.8059012 L144,32 L144,104 C148.102687,104 151.484057,100.911678 151.946178,96.932969 L152,96 L152,16 C152,11.8973134 148.911678,8.51594273 144.932969,8.05382185 L144,8 Z M53.24,56.23 L34.74,56.23 C29.115792,56.23 24.4938302,60.521126 23.9695309,66.0079618 L23.92,67.05 L23.92,85.12 C23.92,90.744208 28.211126,95.3661698 33.6979618,95.8904691 L34.74,95.94 L53.24,95.94 C58.864208,95.94 63.4861698,91.648874 64.0104691,86.1620382 L64.06,85.12 L64.06,67.05 C64.06,61.425792 59.768874,56.8038302 54.2820382,56.2795309 L53.24,56.23 Z M43.99,60.25 C45.9536791,60.25 47.586867,61.6650013 47.9255546,63.5309949 L47.99,64.25 L47.984,74.048 L56,74.05 C57.9636791,74.05 59.596867,75.4650013 59.9355546,77.3309949 L60,78.05 C60,80.0136791 58.5849987,81.646867 56.7190051,81.9855546 L56,82.05 L43.99,82.05 C42.0263209,82.05 40.393133,80.6349987 40.0544454,78.7690051 L39.99,78.05 L39.99,64.25 C39.99,62.040861 41.780861,60.25 43.99,60.25 Z M52.0581162,32.2964621 L35.7566121,32.2883064 C35.9700573,32.2885847 36.0341937,32.3057755 36.0407476,32.4388488 L34.52,48.232 L53.4722506,48.2314036 L53.4722506,48.2314036 L51.9473092,32.6017178 C51.9272304,32.3865875 51.9339325,32.3173951 52.0581162,32.2964621 Z"/></svg>
