<svg data-name="db55093a-0afd-46cf-9b87-c389586ed4c4" xmlns="http://www.w3.org/2000/svg" width="160" height="160" viewBox="0 0 160 160"><path d="M148 92.53V64a24 24 0 0 0-48 0v62a26 26 0 0 1-52 0v-22.28c15.33-2.09 28.56-16 32.28-34.62l7.23-33.25v-.11a27.44 27.44 0 0 0-4.57-20.94A30 30 0 0 0 65.21 2.86 6 6 0 0 0 60-.2h-6.07a6 6 0 0 0 0 12H60a5.89 5.89 0 0 0 3.47-1.13 22.08 22.08 0 0 1 12.91 8.72 19.5 19.5 0 0 1 3.29 14.82l-7.22 33.26C69.19 83.73 57 96 44 96S18.81 83.73 15.54 67.4L8.29 34.21a19.48 19.48 0 0 1 3.27-14.81 22.08 22.08 0 0 1 12.94-8.72A5.92 5.92 0 0 0 28 11.8h6a6 6 0 0 0 0-12h-6a5.93 5.93 0 0 0-5.19 3.06A30 30 0 0 0 5 14.81 27.42 27.42 0 0 0 .44 35.74v.11L7.71 69c3.73 18.65 17 32.59 32.29 34.68V126a34 34 0 0 0 68 0V64a16 16 0 0 1 32 0v28.53a16 16 0 1 0 8 0zM144 116a8 8 0 1 1 8-8 8 8 0 0 1-8 8z"/></svg>