<svg data-name="534ed8ff-3411-4a6c-b15e-d6638aa69290" xmlns="http://www.w3.org/2000/svg" width="160" height="160" viewBox="0 0 160 160"><path d="M155.6 48.6c1.42-4.3 2.68-13.27-5.63-24a18.16 18.16 0 0 0-2-15.7c-3.76-5.61-10.63-9-18.37-9H24A24 24 0 0 0 0 24v40a24 24 0 0 0 24 24h8a23.85 23.85 0 0 0 12.95-3.81c1.51 2 3.25 4.29 5.15 6.78 11.39 14.9 30.41 39.78 30.57 51-.58 7.38-.42 15.93 5.63 17.71a4 4 0 0 0 1.57.32H88c7.93-.21 13.81-2.73 17.49-7.49 7.47-9.67 3.64-26 .57-39.15-1.18-5.05-2.91-12.42-2.53-15.24 1.39.23 3 .53 4.83.87 11.89 2.21 29.85 5.56 39.39-.9 11.42-7.74 10.69-16.14 8.11-24.2 7.24-9.58 3.72-19.69-.26-25.29zM24 80A16 16 0 0 1 8 64V24A16 16 0 0 1 24 8h24v56a16 16 0 0 1-16 16zm123.55-5.61c2.82 7.93 3.26 11.94-4.32 17.08-6.81 4.62-23.48 1.52-33.43-.34-2.87-.53-5.34-1-7.26-1.23a4 4 0 0 0-1.7.16c-7.89 2.52-5.44 13-2.6 25.13 2.69 11.48 6 25.78.89 32.44-2 2.59-5.32 4-10.14 4.32-.32-1-.81-3.52-.33-9.5v-.32c0-12.79-15.24-33.79-32.22-56-2.1-2.74-4-5.22-5.56-7.34A23.87 23.87 0 0 0 56 64V8h73.58c5 0 9.48 2.07 11.72 5.41 1.93 2.88 2.09 6.52.45 10.52a4 4 0 0 0 .68 4.14c9.53 11 5.3 18.83 5.15 19.11a4 4 0 0 0 .48 4.78c.35.38 8.52 9.46.32 18.38a4 4 0 0 0-.83 4.05z"/></svg>