<svg data-name="07f61c59-e061-407f-99bf-61a22c3f4aaf" xmlns="http://www.w3.org/2000/svg" width="160" height="160" viewBox="0 0 160 160"><path d="M87 98.54h-8.6v-21.2a4 4 0 0 0-8 0v25.2a4 4 0 0 0 4 4H87a4 4 0 0 0 0-8zm-29.92-9.02l6.29-10.06a4 4 0 0 0-6.78-4.24L52.36 82l-4.22-6.75a4 4 0 1 0-6.78 4.24l6.29 10.06-6.81 10.9a4 4 0 1 0 6.78 4.24l4.75-7.6 4.75 7.6a4 4 0 0 0 6.78-4.24zm47.63-4.87c-.29-.09-1.25-.47-1.25-1.31v-.21a2.24 2.24 0 0 1 2.09-2.37h.56a6.69 6.69 0 0 1 4.83 1.41 4 4 0 0 0 5-6.28 14.65 14.65 0 0 0-10.39-3.11h-.45a10.24 10.24 0 0 0-9.59 10.76c.11 5.46 4.66 8.15 7.06 8.81 3.48 1 7.31 3.2 7.46 4.37a2.25 2.25 0 0 1-.27 1.71 3 3 0 0 1-2 .8 9.1 9.1 0 0 1-5.8-1.29l.04.06-5.08 6.18a16.26 16.26 0 0 0 10 3.08h1.25a10.77 10.77 0 0 0 7.68-3.68 9.88 9.88 0 0 0 2-7.81c-.85-7.41-11.16-10.59-13.14-11.12z"/><path d="M135.92 35.21a3.93 3.93 0 0 0-.15-.5c0-.08 0-.17-.08-.25a4 4 0 0 0-.27-.51c0-.06-.06-.12-.09-.17a4 4 0 0 0-.49-.6l-32-32a4 4 0 0 0-.59-.49L102 .57a4 4 0 0 0-.48-.26l-.27-.08a3.91 3.91 0 0 0-.48-.15A4 4 0 0 0 100 0H40a16 16 0 0 0-16 16v128a16 16 0 0 0 16 16h80a16 16 0 0 0 16-16V36a4 4 0 0 0-.08-.79zM104 13.66L122.34 32H104zM120 152H40a8 8 0 0 1-8-8V16a8 8 0 0 1 8-8h56v28a4 4 0 0 0 4 4h28v104a8 8 0 0 1-8 8z"/></svg>