<svg data-name="dafd01e5-7eb9-462e-9f2f-25e8ca0d99ce" xmlns="http://www.w3.org/2000/svg" width="160" height="160" viewBox="0 0 160 160"><path d="M62.2 95.62a10.41 10.41 0 0 0-4.37-6.52A29.51 29.51 0 0 0 49 84.86s-1.17-.36-1.18-1.28v-.2A2.24 2.24 0 0 1 49.9 81h.49a6.7 6.7 0 0 1 4.85 1.41 4 4 0 0 0 5-6.28A14.64 14.64 0 0 0 49.78 73h-.37a10.25 10.25 0 0 0-9.6 10.74c.11 5.47 4.66 8.15 7 8.8a21.65 21.65 0 0 1 6.5 3.13 2.51 2.51 0 0 1 1 1.44 2.08 2.08 0 0 1-.29 1.52 3 3 0 0 1-2 .8 9.13 9.13 0 0 1-5.8-1.29l.07.06-5.09 6.18a16.26 16.26 0 0 0 10 3.08h1.25a10.77 10.77 0 0 0 7.68-3.68 9.88 9.88 0 0 0 2-7.81q.11-.18.07-.35zm54.05-8.12H111a4 4 0 0 0 0 8h1.25v3.3c-1.92.25-4.29.24-6-.77-.48-.29-1.95-1.18-2.47-4.39-1.49-9.08 3.19-10.92 4.63-11.26.39-.08 3.12-.39 3.63.77a4 4 0 0 0 7.32-3.23c-2.63-6-9.5-6.09-12.77-5.33-1.38.33-13.44 3.69-10.7 20.35.93 5.69 3.93 8.56 6.28 10a15.68 15.68 0 0 0 8.1 2 24.07 24.07 0 0 0 7.25-1.16 4 4 0 0 0 2.71-3.79V91.5a4 4 0 0 0-3.98-4zM89.56 74.64A4 4 0 0 0 84.42 77l-5.28 14.29-5.62-14.36a4 4 0 1 0-7.45 2.92L75.52 104a4 4 0 0 0 3.72 2.54 4 4 0 0 0 3.76-2.61l8.92-24.15a4 4 0 0 0-2.36-5.14z"/><path d="M135.92 35.21a3.93 3.93 0 0 0-.15-.5c0-.08 0-.17-.08-.25a4 4 0 0 0-.27-.51c0-.06-.06-.12-.09-.17a4 4 0 0 0-.49-.6l-32-32a4 4 0 0 0-.59-.49L102 .57a4 4 0 0 0-.48-.26l-.27-.08a3.91 3.91 0 0 0-.48-.15A4 4 0 0 0 100 0H40a16 16 0 0 0-16 16v128a16 16 0 0 0 16 16h80a16 16 0 0 0 16-16V36a4 4 0 0 0-.08-.79zM104 13.66L122.34 32H104zM120 152H40a8 8 0 0 1-8-8V16a8 8 0 0 1 8-8h56v28a4 4 0 0 0 4 4h28v104a8 8 0 0 1-8 8z"/></svg>