<svg data-name="fbb81b99-57ca-440d-a3cf-5e60b618f81d" xmlns="http://www.w3.org/2000/svg" width="160" height="160" viewBox="0 0 160 160"><path d="M65.59 84.75a11.09 11.09 0 0 0-3.33-8.48 11.66 11.66 0 0 0-8.12-2.87h-7.25a4 4 0 0 0-4 4v25.2a4 4 0 0 0 8 0v-6.5h1.51l4.6 8.43a4 4 0 1 0 7-3.86l-3.42-6.21a9.92 9.92 0 0 0 1.64-1.23 11.09 11.09 0 0 0 3.37-8.48zm-14.7-3.35h3.58a3.75 3.75 0 0 1 2.36.75 4.85 4.85 0 0 1 0 5.21 3.72 3.72 0 0 1-2.3.76h-3.64zm38.52-8h-16.8a4 4 0 0 0 0 8H77v21.2a4 4 0 1 0 8 0V81.4h4.4a4 4 0 0 0 0-8zm25.2 0H102a4 4 0 0 0-4 4v25.2a4 4 0 1 0 8 0V94h6.5a4 4 0 0 0 0-8H106v-4.6h8.6a4 4 0 1 0 0-8z"/><path d="M135.92 35.21a3.93 3.93 0 0 0-.15-.5c0-.08 0-.17-.08-.25a4 4 0 0 0-.27-.51c0-.06-.06-.12-.09-.17a4 4 0 0 0-.49-.6l-32-32a4 4 0 0 0-.59-.49L102 .57a4 4 0 0 0-.48-.26l-.27-.08a3.91 3.91 0 0 0-.48-.15A4 4 0 0 0 100 0H40a16 16 0 0 0-16 16v128a16 16 0 0 0 16 16h80a16 16 0 0 0 16-16V36a4 4 0 0 0-.08-.79zM104 13.66L122.34 32H104zM120 152H40a8 8 0 0 1-8-8V16a8 8 0 0 1 8-8h56v28a4 4 0 0 0 4 4h28v104a8 8 0 0 1-8 8z"/></svg>