<svg data-name="0dc624e2-702e-4e56-8716-eaaed225002f" xmlns="http://www.w3.org/2000/svg" width="160" height="160" viewBox="0 0 160 160"><path d="M108 64H52a4 4 0 0 0 0 8h56a4 4 0 0 0 0-8zm0 24H52a4 4 0 0 0 0 8h56a4 4 0 0 0 0-8zm0 24H52a4 4 0 0 0 0 8h56a4 4 0 0 0 0-8z"/><path d="M134.83 33.17l-32-32A4 4 0 0 0 100 0H40a16 16 0 0 0-16 16v128a16 16 0 0 0 16 16h80a16 16 0 0 0 16-16V36a4 4 0 0 0-1.17-2.83zM104 13.66L122.34 32H104zM120 152H40a8 8 0 0 1-8-8V16a8 8 0 0 1 8-8h56v28a4 4 0 0 0 4 4h28v104a8 8 0 0 1-8 8z"/></svg>