<svg data-name="d992156e-5ac5-4e55-81cf-d64736912f6d" xmlns="http://www.w3.org/2000/svg" width="160" height="160" viewBox="0 0 160 160"><path d="M81.9 73.4h-7.21a4 4 0 0 0-4 4v25.2a4 4 0 0 0 8 0v-6.5h3.21a11.68 11.68 0 0 0 8.1-2.87 11.09 11.09 0 0 0 3.33-8.48A11.09 11.09 0 0 0 90 76.27a11.66 11.66 0 0 0-8.1-2.87zm2.69 14a3.81 3.81 0 0 1-2.3.76h-3.6V81.4h3.54a3.72 3.72 0 0 1 2.36.75 4.85 4.85 0 0 1 0 5.21zm-31.53-14h-7.25a4 4 0 0 0-4 4v25.2a4 4 0 0 0 8 0v-6.5h3.25a11.66 11.66 0 0 0 8.12-2.87 11.09 11.09 0 0 0 3.33-8.48 11.09 11.09 0 0 0-3.33-8.48 11.66 11.66 0 0 0-8.12-2.87zm2.69 14a3.7 3.7 0 0 1-2.3.76h-3.64V81.4h3.58a3.74 3.74 0 0 1 2.36.75 4.85 4.85 0 0 1 0 5.21zm60.94-14h-16.8a4 4 0 0 0 0 8h4.4v21.2a4 4 0 1 0 8 0V81.4h4.4a4 4 0 0 0 0-8z"/><path d="M135.92 35.21a3.93 3.93 0 0 0-.15-.5c0-.08 0-.17-.08-.25a4 4 0 0 0-.27-.51c0-.06-.06-.12-.09-.17a4 4 0 0 0-.49-.6l-32-32a4 4 0 0 0-.59-.49L102 .57a4 4 0 0 0-.48-.26l-.27-.08a3.91 3.91 0 0 0-.48-.15A4 4 0 0 0 100 0H40a16 16 0 0 0-16 16v128a16 16 0 0 0 16 16h80a16 16 0 0 0 16-16V36a4 4 0 0 0-.08-.79zM104 13.66L122.34 32H104zM120 152H40a8 8 0 0 1-8-8V16a8 8 0 0 1 8-8h56v28a4 4 0 0 0 4 4h28v104a8 8 0 0 1-8 8z"/></svg>