<svg data-name="8bfafdaa-7834-4462-a075-af263c453315" xmlns="http://www.w3.org/2000/svg" width="160" height="160" viewBox="0 0 160 160"><path d="M148.14 124.86l-28.41-28.42a16 16 0 0 0-19.86-2.2l-5.71-5.71 10.47-10.47a36.11 36.11 0 0 0 25.6-1 36 36 0 0 0 19-47.23 4 4 0 0 0-6.54-1.33L127.23 44H116V33.17L131.57 17a4 4 0 0 0-2.69-6.75 36.19 36.19 0 0 0-26.91.5A36 36 0 0 0 82 55.4L71.5 65.88 18.31 12.69a4 4 0 0 0-5.66 5.66l53.19 53.19-53.31 53.31a16 16 0 0 0 11.3 27.36 15.83 15.83 0 0 0 11.23-4.6L88.5 94.19l5.89 5.89a16 16 0 0 0 2.71 19l28.41 28.41a16 16 0 1 0 22.63-22.63zm-118.64 17a8 8 0 0 1-5.65 2.33 8 8 0 0 1-5.66-2.36 8 8 0 0 1 0-11.3l56.08-56.12h.06v-.06l15.11-15.1a4 4 0 0 0 .84-4.41 28 28 0 0 1 30.82-38.5l-10.86 11.29a8 8 0 0 0-2.24 5.54V44a8 8 0 0 0 8 8h11.23a8.05 8.05 0 0 0 5.66-2.35l10.76-10.79a28 28 0 0 1-16.55 30.85 28.14 28.14 0 0 1-21.91 0 4 4 0 0 0-4.39.85L86.07 85.31a2.81 2.81 0 0 0-.79.79zm113 0a8 8 0 0 1-11.31 0l-28.41-28.41a8 8 0 0 1 11.31-11.31l28.41 28.41a8 8 0 0 1-.02 11.28z"/></svg>