<svg data-name="ad0c9a4a-db58-4bda-8b33-5cd29d7e9138" xmlns="http://www.w3.org/2000/svg" width="160" height="160" viewBox="0 0 160 160"><path d="M156 152h-4V96a16 16 0 0 0-16-16h-8V16a16 16 0 0 0-16-16H48a16 16 0 0 0-16 16v32h-8A16 16 0 0 0 8 64v88H4a4 4 0 0 0 0 8h152a4 4 0 0 0 0-8zm-12-56v56H96V96a8 8 0 0 1 8-8h32a8 8 0 0 1 8 8zM40 16a8 8 0 0 1 8-8h64a8 8 0 0 1 8 8v64h-16a16 16 0 0 0-16 16v56H72V64a16 16 0 0 0-16-16H40zM16 64a8 8 0 0 1 8-8h32a8 8 0 0 1 8 8v88H44.73v-28a4 4 0 0 0-8 0v28H16z"/></svg>