<svg data-name="60552290-2ecb-40dd-808b-f3c22a5ac342" xmlns="http://www.w3.org/2000/svg" width="160" height="160" viewBox="0 0 160 160"><path d="M158.77 77.11l-56-53.65A4 4 0 0 0 96 26.35v29.34a99 99 0 0 0-37.65 6c-20.45 7.6-47.15 26.08-58.24 71a4 4 0 0 0 7.2 3.2c.05-.08 5.56-8.09 17.3-16.6 10.81-7.83 29.3-17.71 55.9-20.3 7.06-.52 11.55-.49 15.48.21v34.46a4 4 0 0 0 6.77 2.89l56-53.65a4 4 0 0 0 0-5.78zM104 124.28V96a4 4 0 0 0-2.94-3.86 45.45 45.45 0 0 0-12.39-1.52c-2.7 0-5.6.15-8.84.39-33 3.21-54.57 16.6-66.73 27.11C22.64 94 38.64 77.67 60.83 69.32A89.51 89.51 0 0 1 99.47 64a4 4 0 0 0 4.53-4V35.72L150.22 80z"/></svg>