<svg id="fc07fad5-147b-4fca-8f79-11892b0070ce" data-name="173886c3-ea46-4c16-86f2-53e4e77773a5" xmlns="http://www.w3.org/2000/svg" viewBox="0 0 160 160"><title>Gaming</title><path d="M143.74,129.4l-4.41-24.77a32,32,0,0,1-24,15.19,12.11,12.11,0,0,1-2.16,3.86l8.24,14A12,12,0,0,0,144,131.92a12.19,12.19,0,0,0-.24-2.42Z" fill="none"/><path d="M136,88a24,24,0,0,0-24-24H48a24,24,0,0,0-3.22,47.78A12,12,0,0,1,67.3,112H92.7a12,12,0,0,1,22.52-.22A24,24,0,0,0,136,88ZM56,92H52v4a4,4,0,0,1-8,0V92H40a4,4,0,0,1,0-8h4V80a4,4,0,0,1,8,0v4h4a4,4,0,0,1,0,8Zm64-8a4,4,0,1,1-4,4A4,4,0,0,1,120,84Zm-8-8a4,4,0,1,1-4,4A4,4,0,0,1,112,76Zm-8,16a4,4,0,1,1,4-4A4,4,0,0,1,104,92Zm8,8a4,4,0,1,1,4-4A4,4,0,0,1,112,100Z" fill="none"/><path d="M20.68,104.64l-4.44,24.94A12.19,12.19,0,0,0,16,132a12,12,0,0,0,22.55,5.72l.07-.12,8.19-13.89a12.2,12.2,0,0,1-2.18-3.89A32,32,0,0,1,20.68,104.64Z" fill="none"/><circle cx="112" cy="80" r="4" fill="#333"/><circle cx="104" cy="88" r="4" fill="#333"/><circle cx="120" cy="88" r="4" fill="#333"/><circle cx="112" cy="96" r="4" fill="#333"/><path d="M56,84H52V80a4,4,0,0,0-8,0v4H40a4,4,0,0,0,0,8h4v4a4,4,0,0,0,8,0V92h4a4,4,0,0,0,0-8Z" fill="#333"/><path d="M151.6,128l-7.93-44.57a.29.29,0,0,0,0-.09A32,32,0,0,0,112,56H84V44a4,4,0,0,1,4-4h40a12,12,0,0,0,0-24H88a4,4,0,0,1-4-4V4a4,4,0,0,0-8,0v8A12,12,0,0,0,88,24h40a4,4,0,0,1,0,8H88A12,12,0,0,0,76,44V56H48A32.05,32.05,0,0,0,16.33,83.43v0L8.4,128a19.59,19.59,0,0,0-.4,4,20,20,0,0,0,37.55,9.6l8.15-13.83A11.65,11.65,0,0,0,56,128a12,12,0,0,0,11.3-8H92.7a12,12,0,0,0,13.64,7.77l8.11,13.75a20,20,0,0,0,37.55-9.6A19.52,19.52,0,0,0,151.6,128Zm-113,9.65-.07.12A12,12,0,0,1,16,132a12.19,12.19,0,0,1,.24-2.42l4.44-24.94a32,32,0,0,0,24,15.18,12.2,12.2,0,0,0,2.18,3.89ZM56,120a4,4,0,1,1,4-4A4,4,0,0,1,56,120Zm48,0a4,4,0,1,1,4-4A4,4,0,0,1,104,120Zm0-16a12,12,0,0,0-11.3,8H67.3a12,12,0,0,0-22.52-.22A24,24,0,0,1,48,64h64a24,24,0,0,1,3.22,47.78A12,12,0,0,0,104,104Zm28,39.92a12,12,0,0,1-10.55-6.28l-8.24-14a12.11,12.11,0,0,0,2.16-3.86,32,32,0,0,0,24-15.19l4.41,24.77,0,.1a12.19,12.19,0,0,1,.24,2.42A12,12,0,0,1,132,143.92Z" fill="#333"/></svg>