<svg data-name="fc7f465d-41f8-4142-9702-9a8b18d4d872" xmlns="http://www.w3.org/2000/svg" width="160" height="160" viewBox="0 0 160 160"><path d="M124 24h-24a12 12 0 0 0-12 12v24a12 12 0 0 0 12 12h24a12 12 0 0 0 12-12V36a12 12 0 0 0-12-12zm4 36a4 4 0 0 1-4 4h-24a4 4 0 0 1-4-4V36a4 4 0 0 1 4-4h24a4 4 0 0 1 4 4zM60 24H36a12 12 0 0 0-12 12v24a12 12 0 0 0 12 12h24a12 12 0 0 0 12-12V36a12 12 0 0 0-12-12zm4 36a4 4 0 0 1-4 4H36a4 4 0 0 1-4-4V36a4 4 0 0 1 4-4h24a4 4 0 0 1 4 4zm60 28h-24a12 12 0 0 0-12 12v24a12 12 0 0 0 12 12h24a12 12 0 0 0 12-12v-24a12 12 0 0 0-12-12zm4 36a4 4 0 0 1-4 4h-24a4 4 0 0 1-4-4v-24a4 4 0 0 1 4-4h24a4 4 0 0 1 4 4zM60 88H36a12 12 0 0 0-12 12v24a12 12 0 0 0 12 12h24a12 12 0 0 0 12-12v-24a12 12 0 0 0-12-12zm4 36a4 4 0 0 1-4 4H36a4 4 0 0 1-4-4v-24a4 4 0 0 1 4-4h24a4 4 0 0 1 4 4z"/></svg>