<svg data-name="aab1991f-d63b-4b39-997e-413a09f58fb2" xmlns="http://www.w3.org/2000/svg" width="160" height="160" viewBox="0 0 160 160"><path d="M80 35.76h-.16c-16.28 0-22.76 11.63-23.91 17.8a4 4 0 0 0 7.86 1.5c.24-1.16 2.69-11.3 16-11.3H80a13.89 13.89 0 0 1 13.12 8.9c2.27 5.44 1.51 11.63-1.86 15.06s-6.53 6.59-10 10A17.49 17.49 0 0 0 76 90.14v7.73a4 4 0 0 0 8 0v-7.74a9.43 9.43 0 0 1 2.79-6.69C90.33 80 93.66 76.68 97 73.31c5.64-5.73 7.06-15.27 3.53-23.73A21.74 21.74 0 0 0 80 35.76z"/><path d="M80 0a80 80 0 1 0 80 80A80 80 0 0 0 80 0zm0 152a72 72 0 1 1 72-72 72 72 0 0 1-72 72z"/><path d="M80 114a6 6 0 1 0 6 6 6 6 0 0 0-6-6z"/></svg>