<svg data-name="Layer 1" xmlns="http://www.w3.org/2000/svg" width="160" height="160" viewBox="0 0 160 160"><path d="M136.17 53v-1.42C134.61 23.11 111.39.94 82.13 0h-3.94c-29.28 1-52.48 23.21-54 51.61v.22c-.06.89-.06 1.73-.06 2.54v.15a52.8 52.8 0 0 0 7.56 27A83.68 83.68 0 0 0 38.25 91l.32.35c.09.09 9.43 9.45 9.43 20.65a8 8 0 0 0 4 6.92V136a16 16 0 0 0 16 16 8 8 0 0 0 8 8h8a8 8 0 0 0 8-8 16 16 0 0 0 16-16v-17.08a8 8 0 0 0 4-6.92c0-11.08 9.66-20.49 9.75-20.57l.37-.4a83.63 83.63 0 0 0 6.51-9.43 52.83 52.83 0 0 0 7.57-27.06v-.14c0-.45-.02-.9-.03-1.4zM100 136a8 8 0 0 1-8 8H68a8 8 0 0 1-8-8v-16h40zm28.2-81.49a44.84 44.84 0 0 1-6.44 23 75.94 75.94 0 0 1-5.76 8.34c-1.7 1.69-12 12.51-12 26.15H56c0-13.67-10.06-24.55-11.62-26.16a75.78 75.78 0 0 1-5.78-8.41 44.8 44.8 0 0 1-6.43-22.93v-2.57C33.54 27.77 53.36 8.91 78.4 8h3.53c25 .83 44.85 19.69 46.21 43.9v2.45z"/></svg>