<svg xmlns="http://www.w3.org/2000/svg" xmlns:xlink="http://www.w3.org/1999/xlink" width="40" height="40" viewBox="0 0 40 40">
    <defs>
        <path id="a" d="M0 0h39.924v39.924H0z"/>
    </defs>
    <path d="M19.962 0c11.025 0 19.962 8.937 19.962 19.962s-8.937 19.962-19.962 19.962S0 30.987 0 19.962 8.937 0 19.962 0zm.052 15.655h-2.466a1.172 1.172 0 0 0 0 2.344h1.294v10.558h-1.19a1.172 1.172 0 0 0 0 2.345h4.724a1.172 1.172 0 0 0 0-2.345h-1.19v-11.73c0-.647-.525-1.172-1.172-1.172zm-.052-6.633a1.62 1.62 0 1 0 0 3.242 1.62 1.62 0 0 0 0-3.242z" mask="url(#b)"/>
</svg>
