<svg data-name="04363cfd-a907-41bc-97da-196f70d049e4" xmlns="http://www.w3.org/2000/svg" width="160" height="160" viewBox="0 0 160 160"><path d="M60 32h96a4 4 0 0 0 0-8H60a4 4 0 0 0 0 8zm96 44H60a4 4 0 0 0 0 8h96a4 4 0 0 0 0-8zM28 8H12A12 12 0 0 0 0 20v16a12 12 0 0 0 12 12h16a12 12 0 0 0 12-12V20A12 12 0 0 0 28 8zm4 28a4 4 0 0 1-4 4H12a4 4 0 0 1-4-4V20a4 4 0 0 1 4-4h16a4 4 0 0 1 4 4zm-4 24H12A12 12 0 0 0 0 72v16a12 12 0 0 0 12 12h16a12 12 0 0 0 12-12V72a12 12 0 0 0-12-12zm4 28a4 4 0 0 1-4 4H12a4 4 0 0 1-4-4V72a4 4 0 0 1 4-4h16a4 4 0 0 1 4 4zm-4 24H12a12 12 0 0 0-12 12v16a12 12 0 0 0 12 12h16a12 12 0 0 0 12-12v-16a12 12 0 0 0-12-12zm4 28a4 4 0 0 1-4 4H12a4 4 0 0 1-4-4v-16a4 4 0 0 1 4-4h16a4 4 0 0 1 4 4zm124-12H60a4 4 0 0 0 0 8h96a4 4 0 0 0 0-8z"/></svg>