<svg data-name="c0d232c6-7916-44e0-8837-9576b8f523b4" xmlns="http://www.w3.org/2000/svg" width="160" height="160" viewBox="0 0 160 160"><path d="M156 76h-12.14A64.08 64.08 0 0 0 84 16.14V4a4 4 0 0 0-8 0v12.14A64.08 64.08 0 0 0 16.14 76H4a4 4 0 0 0 0 8h12.14A64.08 64.08 0 0 0 76 143.86V156a4 4 0 0 0 8 0v-12.14A64.08 64.08 0 0 0 143.86 84H156a4 4 0 0 0 0-8zm-72 59.84V124a4 4 0 0 0-8 0v11.84A56.06 56.06 0 0 1 24.16 84H36a4 4 0 0 0 0-8H24.16A56.07 56.07 0 0 1 76 24.16V36a4 4 0 0 0 8 0V24.16A56.06 56.06 0 0 1 135.84 76H124a4 4 0 0 0 0 8h11.84A56.06 56.06 0 0 1 84 135.84z"/></svg>