<svg data-name="e6e4b541-4980-4a0b-a8c6-6b8e948795a8" xmlns="http://www.w3.org/2000/svg" viewBox="0 0 160 160"><path d="M80 0a80 80 0 1 0 80 80A80 80 0 0 0 80 0zm0 152a72 72 0 1 1 72-72 72.08 72.08 0 0 1-72 72z"/><path d="M108.36 106.7A56.38 56.38 0 0 0 116 78a4 4 0 0 0-8 0 49.06 49.06 0 0 1-5.49 22.85L73 71.35a20 20 0 1 0-19.14-5.21 19.07 19.07 0 0 0 2.39 2A32 32 0 0 0 72 128a4.09 4.09 0 0 0 1-.14 4.09 4.09 0 0 0 1 .14c11.58 0 22.08-5.61 29.68-14.66l13.49 13.49a4 4 0 0 0 5.66-5.66zM59.52 43.51a12 12 0 0 1 17 17 12 12 0 1 1-17-17zM74 120a4.09 4.09 0 0 0-1 .14 4.09 4.09 0 0 0-1-.14 24 24 0 0 1-8.2-46.54L98 107.69C91.87 115.29 83.37 120 74 120z"/></svg>