<svg data-name="Layer 1" xmlns="http://www.w3.org/2000/svg" width="160" height="160" viewBox="0 0 160 160"><path d="M120 128h-16a4 4 0 0 0 0 8h16a4 4 0 0 0 0-8z"/><path d="M144 24H16A16 16 0 0 0 0 40v80a16 16 0 0 0 16 16h64a16 16 0 0 0 16 16h32a16 16 0 0 0 16-16 16 16 0 0 0 16-16V40a16 16 0 0 0-16-16zm-8 112a8 8 0 0 1-8 8H96a8 8 0 0 1-8-8V56a8 8 0 0 1 8-8h32a8 8 0 0 1 8 8zm16-16a8 8 0 0 1-8 8V56a16 16 0 0 0-16-16H96a16 16 0 0 0-16 16v56H64a4 4 0 0 0 0 8h16v8H16a8 8 0 0 1-8-8V40a8 8 0 0 1 8-8h128a8 8 0 0 1 8 8z"/></svg>