<svg data-name="02d38d8e-32f2-4c22-b5d3-60f9892ad1c4" xmlns="http://www.w3.org/2000/svg" width="160" height="160" viewBox="0 0 160 160"><path d="M137.94 122.74c-11.84 0-13.78-5-13.91-9.68a4.11 4.11 0 0 0 0-.58V58.34c0-21.3-10.34-37.46-27-42.18A4 4 0 0 0 96 16H65a4 4 0 0 0-1.1.15C47.21 20.92 36 37.86 36 58.3v53.52a4 4 0 0 0 0 .63c0 4.78-1.58 10.26-13.86 10.26a4 4 0 0 0-4 4v13.39a4 4 0 0 0 4 4h52.09a9 9 0 1 0 11.54 0h52.17a4 4 0 0 0 4-4v-13.36a4 4 0 0 0-4-4zm-4 13.36H26.09v-5.58c14.88-1.45 17.67-11 17.85-17.38a4 4 0 0 0 .06-.69V58.3c0-13.85 6.68-29.72 21.58-34.3h29.84c10.08 3.1 20.65 13.68 20.65 34.33v53.5a4 4 0 0 0-.05.64c0 6.31 2.44 16.58 17.92 18.08zM68 8h24a4 4 0 0 0 0-8H68a4 4 0 0 0 0 8z"/></svg>