<svg data-name="1c53d723-fcc4-41c8-8722-cabc052971bd" xmlns="http://www.w3.org/2000/svg" width="160" height="160" viewBox="0 0 160 160"><path d="M80 0a80 80 0 1 0 80 80A80.09 80.09 0 0 0 80 0zm0 152a72 72 0 1 1 72-72 72.08 72.08 0 0 1-72 72z"/><path d="M93.6 79.38a21.5 21.5 0 0 0 9.4-17.65C103 49.75 92.91 40 80.5 40S58 49.75 58 61.73a21.47 21.47 0 0 0 8.94 17.32A21.85 21.85 0 0 0 56 97.67c0 12.25 10.77 22.21 24 22.21s24-10 24-22.21a21.79 21.79 0 0 0-10.4-18.29zM80.5 48c8 0 14.5 6.16 14.5 13.73s-6.5 13.73-14.5 13.73S66 69.3 66 61.73 72.5 48 80.5 48zm-.5 63.88c-8.82 0-16-6.37-16-14.21s7.18-14.21 16-14.21 16 6.38 16 14.21-7.18 14.21-16 14.21z"/></svg>