<svg data-name="d6db4bc9-e93f-470c-a09c-85f7ec29aad1" xmlns="http://www.w3.org/2000/svg" width="160" height="160" viewBox="0 0 160 160"><path d="M80 0a80 80 0 1 0 80 80A80.09 80.09 0 0 0 80 0zm0 152a72 72 0 1 1 72-72 72.08 72.08 0 0 1-72 72z"/><path d="M83.28 67.68l20.85-20.85A4 4 0 0 0 101.3 40H58.2a4 4 0 0 0 0 8h33.44l-21 21a4 4 0 0 0-.3 5.32l.08.1a4 4 0 0 0 3.87 1.44A25.3 25.3 0 0 1 79 75.4c11.65 0 21.12 7.86 21.12 17.53 0 10.12-9.87 19-21.12 19h-.11a19.56 19.56 0 0 1-17.27-9.52 4 4 0 0 0-6.88 4.08 27.49 27.49 0 0 0 23.62 13.45h.69c15.76 0 29.07-12.38 29.07-27 0-12.81-10.8-23.44-24.84-25.26z"/></svg>