<svg data-name="72172985-1616-4546-95c2-59f3685425f8" xmlns="http://www.w3.org/2000/svg" width="160" height="160" viewBox="0 0 160 160"><path d="M80 0a80 80 0 1 0 80 80A80.09 80.09 0 0 0 80 0zm0 152a72 72 0 1 1 72-72 72.08 72.08 0 0 1-72 72z"/><path d="M79.83 39.75C69 39.75 59.68 47.81 56 60.35A74.15 74.15 0 0 0 55.83 99l.16.61c3.72 12.46 13.08 20.51 23.83 20.51s20.22-8.06 23.91-20.53l.15-.65a74.23 74.23 0 0 0-.15-38.65c-3.66-12.48-13.05-20.54-23.9-20.54zM96.14 97l-.11.5c-2 6.79-7.49 14.66-16.19 14.66s-14.1-7.93-16.15-14.75l-.11-.43a66.07 66.07 0 0 1 .1-34.4c2-6.82 7.46-14.79 16.16-14.79s14.22 8 16.21 14.72A66.15 66.15 0 0 1 96.14 97z"/></svg>