<svg data-name="e98f1c53-5429-410e-a069-5f6671cef185" xmlns="http://www.w3.org/2000/svg" width="160" height="160" viewBox="0 0 160 160"><path d="M80 0a80 80 0 1 0 80 80A80.09 80.09 0 0 0 80 0zm0 152a72 72 0 1 1 72-72 72.08 72.08 0 0 1-72 72z"/><path d="M104.27 65.38c-2.11-15-11.8-25.44-23.56-25.44-12.63 0-22.9 11.66-22.9 25.95A27.52 27.52 0 0 0 65.17 85l.09.1a22 22 0 0 0 21.37 5.76 57 57 0 0 0 8.51-2.95c-3.74 13.34-13 22.95-25 24.87l-3.9.61a4 4 0 0 0 .61 8 4.1 4.1 0 0 0 .62 0l3.91-.61c19.78-3.17 33.59-22.2 33.59-46.29a59.65 59.65 0 0 0-.64-8.73c-.03-.17-.04-.27-.06-.38zm-7.46 12.76a49 49 0 0 1-12.24 5A14 14 0 0 1 71 79.54a19.59 19.59 0 0 1-5.18-13.6c0-9.93 6.68-18 14.9-18s13.3 7.86 15.16 16v.15l.37 1.91a51.58 51.58 0 0 1 .69 8.42q0 1.89-.13 3.72z"/></svg>