<svg xmlns="http://www.w3.org/2000/svg" width="160" height="160" viewBox="0 0 160 160"><g fill="none" fill-rule="evenodd"><path fill="#333" fill-rule="nonzero" d="M79.9624824,24 C102.172894,24 122.882601,32.8 139.590433,49.4 L140.428318,50.2470519 C153.537804,63.6510044 159.201688,76.6020619 159.299672,76.7 C159.399719,76.8 159.399719,76.8 159.399719,76.9 C160.200094,79 160.200094,81.4 159.399719,83.5 C159.299672,83.7 159.299672,83.8 159.199625,84 L158.905941,84.5948694 C155.097042,92.15406 130.426137,136 79.9624824,136 C57.7520713,136 37.0423636,127.2 20.3345318,110.6 L19.4966468,109.752948 C6.38716074,96.3489956 0.723277181,83.3979381 0.625293106,83.3 L0.546856339,83.2152 C0.525246209,83.184 0.525246209,83.16 0.525246209,83.1 C-0.17508207,81 -0.17508207,78.6 0.525246209,76.5 C0.625293106,76.3 0.625293106,76.2 0.725340003,76 L1.01902347,75.4051306 C4.82792309,67.84594 29.4988276,24 79.9624824,24 Z M79.9624824,32 C33.4406753,32 10.9301235,73.4 8.02876348,79.3 C7.92871659,79.7 7.92871659,80 8.02876348,80.4 L8.35211505,81.0564625 C11.406847,87.11675 33.6757855,128 79.9624824,128 C126.48429,128 148.994841,86.6 151.896201,80.7 C151.996248,80.4 151.996248,80 151.896201,79.6 L151.57285,78.9435375 C148.518118,72.88325 126.249179,32 79.9624824,32 Z"/><path fill="#333" fill-rule="nonzero" d="M79.9992208,48 C97.5987922,48 112,62.4 112,80 C112.09745,97.424 98.1813481,111.61367 80.8261697,111.992751 L80.2992134,112 L79.9992208,112 C62.3996493,112 48,97.6 48,80 C48,62.4 62.3996493,48 79.9992208,48 Z"/></g></svg>