<svg xmlns="http://www.w3.org/2000/svg" width="160" height="160" viewBox="0 0 160 160"><g fill="none" fill-rule="evenodd"><path fill="#333" fill-rule="nonzero" d="M146.82225,14.1629584 C148.332985,15.6618825 148.383344,18.061075 146.973324,19.6200169 L146.82225,19.7782181 L126.860899,39.5830358 C131.3128,42.6389279 135.567616,46.1575345 139.590433,50.1250001 L140.428318,50.9658236 C153.537804,64.2712177 159.201688,77.1270468 159.299672,77.2242648 C159.399719,77.3235295 159.399719,77.3235295 159.399719,77.4227942 C160.200094,79.5073531 160.200094,81.889706 159.399719,83.9742648 C159.299672,84.1727942 159.299672,84.272059 159.199625,84.4705884 L158.905941,85.0610837 C155.097042,92.5646921 130.426137,136.088236 79.9624824,136.088236 C65.8299245,136.088236 52.3049742,132.551473 40.0320028,125.733682 L18.7622219,146.837042 C17.1993922,148.387653 14.6655445,148.387653 13.1027148,146.837042 C11.5919793,145.338118 11.5416215,142.938926 12.9516412,141.379983 L13.1027148,141.221782 L33.0640655,121.416964 C28.6121644,118.361072 24.3573491,114.842466 20.3345318,110.875 L19.4966468,110.034177 C6.38716074,96.7287826 0.723277181,83.8729534 0.625293106,83.7757354 L0.546856339,83.691559 C0.525246209,83.6605884 0.525246209,83.6367648 0.525246209,83.577206 C-0.17508207,81.4926472 -0.17508207,79.1102942 0.525246209,77.0257354 C0.625293106,76.827206 0.625293106,76.7279413 0.725340003,76.5294119 L1.01902347,75.9389165 C4.82792309,68.4353082 29.4988276,24.9117647 79.9624824,24.9117647 C94.0950404,24.9117647 107.619991,28.4485271 119.892962,35.2663186 L141.162743,14.1629584 C142.725573,12.6123472 145.25942,12.6123472 146.82225,14.1629584 Z M121.100618,45.2986864 L45.9207098,119.889962 C55.3639921,124.801869 66.6733564,128.147059 79.9624824,128.147059 C126.48429,128.147059 148.994841,87.0514707 151.896201,81.1948531 C151.996248,80.8970589 151.996248,80.5000001 151.896201,80.1029413 L151.481212,79.2717869 C149.336151,75.0909836 139.6051,57.574281 121.100618,45.2986864 Z M79.9624824,32.8529412 C33.4406753,32.8529412 10.9301235,73.9485295 8.02876348,79.8051472 C7.92871659,80.202206 7.92871659,80.5000001 8.02876348,80.8970589 L8.44374682,81.7282007 C10.5887702,85.9089345 20.3196282,103.425314 38.8237249,115.700901 L114.003924,41.1098656 C104.560709,36.1980526 93.2514532,32.8529412 79.9624824,32.8529412 Z"/><path fill="#333" fill-rule="nonzero" d="M109.428647 68.1125478C111.069028 71.9238294 111.978015 76.1117095 111.978015 80.5000001 112.076541 97.7958825 98.1535795 111.881217 80.7898393 112.25751L80.2626231 112.264706 79.9624824 112.264706C75.5392736 112.264706 71.3180857 111.36272 67.4765355 109.734978L73.751994 103.510373C75.5364771 103.987539 77.4014877 104.264463 79.3207537 104.315076L79.9624824 104.32353 80.1625762 104.32353C93.3687666 104.224265 104.073785 93.6029413 103.973738 80.5000001 103.973738 78.371221 103.688537 76.3053242 103.154174 74.3380669L109.428647 68.1125478zM79.9624824 48.7352942C84.386123 48.7352942 88.6077359 49.6374559 92.4496368 51.2654991L86.1749765 57.490164C84.1916158 56.9596328 82.1087597 56.6764707 79.9624824 56.6764707 66.756292 56.6764707 55.9512271 67.3970589 55.9512271 80.5000001 55.9512271 82.6294973 56.2366205 84.6960691 56.7713323 86.6639234L50.4975655 92.8893224C48.8567266 89.0775408 47.9474754 84.889009 47.9474754 80.5000001 47.9474754 63.0294119 62.3542285 48.7352942 79.9624824 48.7352942z"/></g></svg>