<svg data-name="b5e695a6-22bd-4cb8-bd47-7efc1015a901" xmlns="http://www.w3.org/2000/svg" width="160" height="160" viewBox="0 0 160 160"><path d="M160 55.59c0-16.94-30.64-26.05-57.7-28.85a9.48 9.48 0 0 0-7.79-4.09h-29a9.48 9.48 0 0 0-7.79 4.09c-15.62 1.6-29.21 4.8-39.41 9.29C3.17 42.7 0 50.35 0 55.59V84.1c0 16.94 32.36 27 66.72 29a15.82 15.82 0 1 0 26.76 0C127.76 111 160 101 160 84.1V55.59zm-8 0c0 2.13-1.44 4.41-4.07 6.63-9.93-5.61-25.67-9.77-43.93-11.6V35c30.14 3.47 48 13 48 20.59zM58 59a9.47 9.47 0 0 0 7.47 3.66h29a9.49 9.49 0 0 0 7.84-4.15C117.54 60 130.76 63 140 67.15a70.43 70.43 0 0 1-7.5 3c-14 4.85-32.63 7.44-52.5 7.44S41.49 75 27.54 70.19c-1.76-.6-3.42-1.24-5-1.9C30.91 64.05 43.49 60.74 58 59zm6-26.85a1.49 1.49 0 0 1 1.49-1.49h29A1.49 1.49 0 0 1 96 32.14v21a1.49 1.49 0 0 1-1.49 1.49h-29A1.49 1.49 0 0 1 64 53.16zM56 35v16.17c-17.32 2.18-31.69 6.42-40.73 12a4 4 0 0 0-.88.77C10.3 61.21 8 58.29 8 55.59 8 48 25.86 38.47 56 35zm24.1 94.38a7.82 7.82 0 1 1 7.82-7.82 7.83 7.83 0 0 1-7.82 7.79zm-.1-23.85C35.39 105.53 8 93 8 84.1V69.26c13.86 10.68 43.58 16.33 72 16.33s58.14-5.65 72-16.33V84.1c0 8.9-27.39 21.43-72 21.43z"/><circle cx="60.03" cy="94.84" r="4.03"/><circle cx="40.03" cy="91.92" r="4.03"/><circle cx="20.03" cy="85.89" r="4.03"/><circle cx="80.03" cy="95.69" r="4.03"/><circle cx="100.03" cy="94.84" r="4.03"/><circle cx="120.03" cy="91.92" r="4.03"/><circle cx="140.03" cy="85.89" r="4.03"/></svg>