<svg data-name="d25778a3-2bf0-4368-9763-0b94c8f827b8" xmlns="http://www.w3.org/2000/svg" width="160" height="160" viewBox="0 0 160 160"><path d="M135.75 72.55a13.58 13.58 0 0 0-3.85-3.87l-2-1.53-73.93-55C50.8 8 45.61 7 40.43 9.27a14.59 14.59 0 0 0-8.34 11.62 4 4 0 0 0-.08.82v116.02A14.06 14.06 0 0 0 45.36 152h.51a13.86 13.86 0 0 0 8.33-2.79l1.4-1L129.87 93l2.1-1.57a13.67 13.67 0 0 0 3.78-18.87zm-5.86 8.66a5.63 5.63 0 0 1-2.43 3.59l-.19.14-76.39 56.8-1.39 1-.09.06a5.78 5.78 0 0 1-3.66 1.2 6.08 6.08 0 0 1-5.74-6.21V22.41a6.54 6.54 0 0 1 3.72-5.85c1.6-.7 3.71-1 7.22 1.85l.15.12 74 55 2.11 1.59.23.16a5.67 5.67 0 0 1 2.47 5.9z"/></svg>