<svg data-name="201bee4e-87d1-4728-bcfe-30ac8c128626" xmlns="http://www.w3.org/2000/svg" width="160" height="160" viewBox="0 0 160 160"><path d="M148 84a4 4 0 0 0-4 4v48a8 8 0 0 1-8 8H24a8 8 0 0 1-8-8V24a8 8 0 0 1 8-8h48a4 4 0 0 0 0-8H24A16 16 0 0 0 8 24v112a16 16 0 0 0 16 16h112a16 16 0 0 0 16-16V88a4 4 0 0 0-4-4z"/><path d="M151.92 11.22c0-.12-.07-.23-.1-.34a3.94 3.94 0 0 0-.13-.41 4 4 0 0 0-.2-.38c-.06-.1-.1-.21-.17-.31a4 4 0 0 0-.5-.61 4 4 0 0 0-.6-.49c-.1-.07-.21-.11-.32-.17a2.3 2.3 0 0 0-.77-.32c-.12 0-.23-.08-.35-.1A4 4 0 0 0 148 8h-48a4 4 0 0 0 0 8h38.34L89.17 65.17a4 4 0 1 0 5.66 5.66L144 21.66V60a4 4 0 0 0 8 0V12a4 4 0 0 0-.08-.78z"/></svg>