<svg data-name="076e4f05-2333-4cb3-ba5c-d8658b35550d" xmlns="http://www.w3.org/2000/svg" width="160" height="160" viewBox="0 0 160 160"><path d="M99.17 61.18l-29 29.18-9.31-9.2a4 4 0 0 0-5.62 5.69l12.15 12a4 4 0 0 0 5.65 0l31.85-32a4 4 0 1 0-5.67-5.64z"/><path d="M153 61.63a29.59 29.59 0 0 0-19-34.06 29.6 29.6 0 0 0-33.45-20A29.64 29.64 0 0 0 61.62 7a29.65 29.65 0 0 0-34.06 19A29.61 29.61 0 0 0 7.63 59.47 29.61 29.61 0 0 0 7 98.37a29.61 29.61 0 0 0 19 34.07 29.61 29.61 0 0 0 33.45 20A29.39 29.39 0 0 0 79.13 160h.1a29.37 29.37 0 0 0 19.15-7 29.6 29.6 0 0 0 34.06-19 29.64 29.64 0 0 0 20-33.45 29.64 29.64 0 0 0 .56-38.92zM145.63 96l-.35.34a4 4 0 0 0-1.12 3.93 21.6 21.6 0 0 1-15.38 26.4l-.44.11a4 4 0 0 0-2.93 2.84 21.6 21.6 0 0 1-26.5 15.2l-.5-.14a4 4 0 0 0-4 1A21.45 21.45 0 0 1 79.23 152h-.08a21.47 21.47 0 0 1-15.26-6.39l-.34-.34a4 4 0 0 0-3.91-1.1 21.63 21.63 0 0 1-26.4-15.37l-.11-.45a4 4 0 0 0-2.84-2.93 21.6 21.6 0 0 1-15.19-26.5l.14-.5a4 4 0 0 0-1-3.95 21.6 21.6 0 0 1 .2-30.55l.31-.3a4 4 0 0 0 1.11-3.92 21.6 21.6 0 0 1 15.37-26.42l.44-.11a4 4 0 0 0 2.92-2.84 21.62 21.62 0 0 1 26.5-15.19l.5.14a4 4 0 0 0 4-1 21.62 21.62 0 0 1 30.55.1l.34.35a4 4 0 0 0 3.92 1.11 21.59 21.59 0 0 1 26.39 15.34l.12.49a4 4 0 0 0 2.84 2.92A21.59 21.59 0 0 1 144.93 61a4 4 0 0 0 .79 4.5 21.61 21.61 0 0 1-.09 30.5z"/><path d="M80 24a56 56 0 1 0 56 56 56.06 56.06 0 0 0-56-56zm0 104a48 48 0 1 1 48-48 48.05 48.05 0 0 1-48 48z"/></svg>