<svg data-name="da71dbf4-7eb3-403e-a5ac-ac9c12405064" xmlns="http://www.w3.org/2000/svg" width="160" height="160" viewBox="0 0 160 160"><path d="M140.87 13.51L80.87.1a4 4 0 0 0-1.74 0l-60 13.41a4 4 0 0 0-3.13 3.9v77.32c0 8.52 6 17.13 11.62 24.52 5.44 7.15 13.13 14.47 22.88 21.75 8.58 6.36 20.34 14.73 27.67 18.51a4 4 0 0 0 3.67 0c7.39-3.81 19.13-12.19 27.67-18.56 9.69-7.21 17.39-14.54 22.87-21.79 5.63-7.4 11.63-16 11.63-24.48V17.41a4 4 0 0 0-3.14-3.9zM136 94.73c0 5.38-4 11.75-10 19.65-5 6.65-12.18 13.45-21.27 20.21-10.67 7.93-19.15 13.72-24.73 16.86-5.55-3.13-14-8.9-24.72-16.82C46.15 127.77 39 121 34 114.41c-5.19-6.82-10-13.93-10-19.68V20.61L80 8.1l56 12.52z"/><path d="M61.44 65.42a22 22 0 0 0 4.64 5.29l-7.88 37.68a4.06 4.06 0 0 0-.07.54A10.36 10.36 0 0 0 67.76 120h23.32a10.39 10.39 0 0 0 10.79-11 4 4 0 0 0-.1-.68L97.45 90l-3.58-19.24a21.88 21.88 0 1 0-32.42-5.34zm11.21-23.36a13.88 13.88 0 1 1 14.7 23.55 4 4 0 0 0-1.81 4.12L89.6 91.6v.19l4.25 17.94a2.37 2.37 0 0 1-.79 1.65 2.4 2.4 0 0 1-1.72.61H68.3a2.36 2.36 0 0 1-2.2-2.31l8.34-39.88a4 4 0 0 0-1.8-4.21 14 14 0 0 1-4.42-4.42 13.88 13.88 0 0 1 4.42-19.12z"/></svg>