<svg data-name="bc9af459-146c-408e-93a9-72c82028c337" xmlns="http://www.w3.org/2000/svg" width="160" height="160" viewBox="0 0 160 160"><path d="M92 48H45a4 4 0 0 0 0 8h47a4 4 0 0 0 0-8zm0 24H45a4 4 0 0 0 0 8h47a4 4 0 0 0 0-8zm0 24H45a4 4 0 0 0 0 8h47a4 4 0 0 0 0-8zm0 24H45a4 4 0 0 0 0 8h47a4 4 0 0 0 0-8z"/><path d="M128 0H56a16 16 0 0 0-16 16h-8a16 16 0 0 0-16 16v112a16 16 0 0 0 16 16h72a16 16 0 0 0 16-16h8a16 16 0 0 0 16-16V16a16 16 0 0 0-16-16zm-16 144a8 8 0 0 1-8 8H32a8 8 0 0 1-8-8V32a8 8 0 0 1 8-8h72a8 8 0 0 1 8 8zm24-16a8 8 0 0 1-8 8h-8V32a16 16 0 0 0-16-16H48a8 8 0 0 1 8-8h72a8 8 0 0 1 8 8z"/></svg>