<svg data-name="490441b7-6973-4c8a-870c-2821d69bcdce" xmlns="http://www.w3.org/2000/svg" width="160" height="160" viewBox="0 0 160 160"><path d="M144 24H72a16 16 0 0 0-16 16H14a4 4 0 0 0-3.77 2.65l-10 28A4 4 0 0 0 0 72v24a16 16 0 0 0 16 16h8.36a16 16 0 0 0 32 0H112a16 16 0 0 0 32 0 16 16 0 0 0 16-16V40a16 16 0 0 0-16-16zm-88 80h-4.12a4 4 0 0 0-3.88 5 9 9 0 0 1 .33 2.41 8 8 0 0 1-16 .11 19.82 19.82 0 0 1 .37-2.72 4.79 4.79 0 0 0 .08-.89 4 4 0 0 0-4-4H16a8 8 0 0 1-8-8V72.69L16.82 48H56zm96-8a8 8 0 0 1-8 8h-4.48a4 4 0 0 0-3.86 5.07 9 9 0 0 1 .33 2.41 8 8 0 0 1-16 0 9.67 9.67 0 0 1 .35-2.47 4 4 0 0 0-3.86-5.06H64V40a8 8 0 0 1 8-8h72a8 8 0 0 1 8 8z"/><path d="M116 52H93.53l5.17-5.17a4 4 0 0 0-5.65-5.66l-12 12a4 4 0 0 0-.32.4c-.06.08-.14.15-.19.23a3.91 3.91 0 0 0-.23.44c0 .09-.1.17-.14.26a3.94 3.94 0 0 0-.12.39c0 .12-.08.23-.1.35s0 .24 0 .36a4 4 0 0 0 0 .4 4 4 0 0 0 .06.57v.17A4 4 0 0 0 81.25 59L93 70.75a4 4 0 1 0 5.66-5.66L93.59 60H116a12 12 0 0 1 0 24H88a4 4 0 0 0 0 8h28a20 20 0 0 0 0-40z"/></svg>