<svg data-name="3efd5ddd-dfab-4c40-ab30-abde8d8a66a7" xmlns="http://www.w3.org/2000/svg" width="160" height="160" viewBox="0 0 160 160"><path d="M128 48.73V31.8c0-5.42-5.73-9.57-17.52-12.7a124.26 124.26 0 0 0-61 0C37.73 22.23 32 26.38 32 31.8v26.49a4 4 0 0 0 1 2.6 18.82 18.82 0 0 0 7 4.49v8.83c-10.21 2.93-15.85 7.58-16 13.28v26.7a4 4 0 0 0 1 2.6 18.82 18.82 0 0 0 7 4.49v17.31a4 4 0 0 0 1 2.6c6.36 7.44 31.83 10.9 47 10.9a170.53 170.53 0 0 0 27.28-2.19c15.52-2.64 18.71-6.37 19.76-7.6a4 4 0 0 0 1-2.6v-27.6c0-2.89-1.47-6.9-8-10.37V92c11.47-2.52 14.11-5.6 15-6.69a4 4 0 0 0 1-2.6V59.1c-.04-2.89-1.51-6.9-8.04-10.37zM45.57 59l-.21-.07A22.74 22.74 0 0 1 40 56.52V41.14a54.15 54.15 0 0 0 9.52 3.36A125.91 125.91 0 0 0 80 48.3a125.92 125.92 0 0 0 30.48-3.8 54.15 54.15 0 0 0 9.52-3.36V57.6c-4.76 3.07-21.57 6.19-40 6.19-13 0-26.5-2.23-34.43-4.79zM80 23.3c20.37 0 37.42 5.35 39.86 8.5-2.44 3.2-19.49 8.5-39.86 8.5S42.58 35 40.14 31.8c2.44-3.15 19.49-8.5 39.86-8.5zM40.13 82.54a4 4 0 0 0 .87 1.65c6.36 7.44 31.83 10.9 47 10.9h.62A123.72 123.72 0 0 1 72 96.2c-20.73 0-38-5.54-40-8.67.28-.89 2.43-3.04 8.13-4.99zM32 112.42V97a54.15 54.15 0 0 0 9.52 3.36A125.86 125.86 0 0 0 72 104.2a135.07 135.07 0 0 0 28.5-3.2 59.22 59.22 0 0 0 11.5-3.66v16.16c-4.76 3.07-21.57 6.2-40 6.2-17-.01-34.95-3.82-40-7.28zm88 25.48c-4.76 3.07-21.57 6.19-40 6.19-17 0-34.95-3.82-40-7.27v-12.95a142.18 142.18 0 0 0 32 3.82 170.54 170.54 0 0 0 27.28-2.19c15.52-2.64 18.71-6.37 19.76-7.6a4 4 0 0 0 1-2.6zm8-57c-4.76 3.07-21.57 6.19-40 6.19-17 0-34.95-3.82-40-7.27V68a142.18 142.18 0 0 0 32 3.82 170.53 170.53 0 0 0 27.28-2.19C122.8 67 126 63.23 127 62a4 4 0 0 0 1-2.6z"/></svg>