<svg data-name="b0889e4e-bff9-4048-90c5-448675732133" xmlns="http://www.w3.org/2000/svg" width="160" height="160" viewBox="0 0 160 160"><path d="M56 100H34.26A18.36 18.36 0 0 1 16 81.75v-3.49A18.36 18.36 0 0 1 34.25 60h35.49A18.36 18.36 0 0 1 88 78.25V84a4 4 0 0 0 8 0v-5.76A26.39 26.39 0 0 0 69.75 52H34.24A26.39 26.39 0 0 0 8 78.25v3.51A26.39 26.39 0 0 0 34.25 108H56a4 4 0 0 0 0-8z"/><path d="M125.75 52H104a4 4 0 0 0 0 8h21.74A18.36 18.36 0 0 1 144 78.25v3.48A18.36 18.36 0 0 1 125.75 100H90.26A18.36 18.36 0 0 1 72 81.75V76a4 4 0 0 0-8 0v5.76A26.39 26.39 0 0 0 90.25 108h35.51A26.38 26.38 0 0 0 152 81.74v-3.5A26.39 26.39 0 0 0 125.75 52z"/></svg>