<svg data-name="7b31d959-020f-4535-a7ec-4571e4bf74df" xmlns="http://www.w3.org/2000/svg" width="160" height="160" viewBox="0 0 160 160"><path d="M159.86 59.68a4 4 0 0 0-.4-3.05l-18.75-32.38a4 4 0 0 0-5.43-1.48l-16.73 9.48a61.58 61.58 0 0 0-15.76-9.12V4a4 4 0 0 0-4-4H61.08a4 4 0 0 0-4 4v19.05a61.53 61.53 0 0 0-15.56 8.89l-16.41-9.52a4 4 0 0 0-5.45 1.42L.56 56A4 4 0 0 0 2 61.54l16.59 9.6a60.25 60.25 0 0 0 0 17.77L2 98.32a4 4 0 0 0-1.46 5.48l18.75 32.38a4 4 0 0 0 5.43 1.48l16.87-9.51A61.57 61.57 0 0 0 57.12 137v19a4 4 0 0 0 4 4h37.71a4 4 0 0 0 4-4v-18.51a44.59 44.59 0 0 0 17-7.67l14.76 8.56A4 4 0 0 0 140 137l19.06-32.2a4 4 0 0 0-1.44-5.5l-16.68-9.68a60.29 60.29 0 0 0 .17-17.91l16.89-9.6a4 4 0 0 0 1.86-2.43zm-25.12 6.41a4 4 0 0 0-2 4.22 52.44 52.44 0 0 1-.2 20.5 4 4 0 0 0 1.91 4.28l15.63 9.07-15 25.32-13.68-7.93a4 4 0 0 0-4.58.4 36.61 36.61 0 0 1-18.59 8.24 4 4 0 0 0-3.46 4V152H65.12v-17.79a4 4 0 0 0-2.72-3.79 53.7 53.7 0 0 1-17.8-10.14 4 4 0 0 0-4.57-.45l-15.81 8.92-14.74-25.46L25 94.48a4 4 0 0 0 1.95-4.25 52.41 52.41 0 0 1 0-20.37A4 4 0 0 0 25 65.62l-15.5-9 15-25.32 15.4 8.95a4 4 0 0 0 4.62-.43 53.68 53.68 0 0 1 17.84-10.18 4 4 0 0 0 2.72-3.79V8h29.71v17.92a4 4 0 0 0 2.7 3.78 53.75 53.75 0 0 1 18 10.41 4 4 0 0 0 4.6.47l15.69-8.9 14.74 25.46z"/><path d="M111.93 77.92a32 32 0 1 0-53 26.13A31.76 31.76 0 0 0 80 112q1.06 0 2.13-.07a32 32 0 0 0 29.85-34zM81.56 104a24 24 0 1 1-3.12-47.9C79 56 79.48 56 80 56s1 0 1.56.05a24 24 0 0 1 0 47.9z"/></svg>