<svg data-name="0a0bf539-2e21-4b5b-9b86-2af6b7e1c885" xmlns="http://www.w3.org/2000/svg" width="160" height="160" viewBox="0 0 160 160"><path d="M126.83 29.17l-28-28A4 4 0 0 0 96 0H48a16 16 0 0 0-16 16v128a16 16 0 0 0 16 16h64a16 16 0 0 0 16-16V32a4 4 0 0 0-1.17-2.83zM120 144a8 8 0 0 1-8 8H48a8 8 0 0 1-8-8V16a8 8 0 0 1 8-8h46.34L120 33.66z"/><path d="M68 64a12 12 0 0 0-12 12v48a12 12 0 0 0 12 12h24a12 12 0 0 0 12-12V76a12 12 0 0 0-12-12zm28 12v48a4 4 0 0 1-4 4H68a4 4 0 0 1-4-4V76a4 4 0 0 1 4-4h24a4 4 0 0 1 4 4z"/></svg>