<svg data-name="7c4a2262-ab75-471a-9ea4-9ee8c437cddb" xmlns="http://www.w3.org/2000/svg" width="160" height="160" viewBox="0 0 160 160"><path d="M44 32H20a4 4 0 0 0-4 4v24a4 4 0 0 0 4 4h24a4 4 0 0 0 4-4V36a4 4 0 0 0-4-4zm-4 24H24V40h16zm52-24H68a4 4 0 0 0-4 4v24a4 4 0 0 0 4 4h24a4 4 0 0 0 4-4V36a4 4 0 0 0-4-4zm-4 24H72V40h16zm52-24h-24a4 4 0 0 0-4 4v24a4 4 0 0 0 4 4h24a4 4 0 0 0 4-4V36a4 4 0 0 0-4-4zm-4 24h-16V40h16z"/><path d="M148 8H12A12 12 0 0 0 0 20v128a12 12 0 0 0 12 12h136a12 12 0 0 0 12-12V20a12 12 0 0 0-12-12zM64 152v-48h32v48zm88-4a4 4 0 0 1-4 4h-44v-52a4 4 0 0 0-4-4H60a4 4 0 0 0-4 4v52H12a4 4 0 0 1-4-4V20a4 4 0 0 1 4-4h136a4 4 0 0 1 4 4z"/></svg>