<svg data-name="992f5823-5fe8-455f-8180-2ac44a9989be" xmlns="http://www.w3.org/2000/svg" width="160" height="160" viewBox="0 0 160 160"><path d="M96.49 1.73q-1.58-.33-3.18-.6A79.92 79.92 0 0 0 1.18 66.6C.69 69.47.39 72.37 0 75.26v9.41c.6 4.07.92 8.21 1.84 12.19 6 25.88 21.06 44.47 44.91 56a4.73 4.73 0 0 0 .73.27c.08 0 .2 0 .61-.11 0-3.32-.43-6.78.09-10.08 1.06-6.8 2.55-13.54 4.06-20.26 2.25-10.06 4.69-20.06 7-30.06a4.58 4.58 0 0 0-.16-2.38C56.23 82 55.93 73.83 60.23 66c2.19-4 5.43-6.89 10.1-7.74C77 57 82.26 61 83 67.74a27 27 0 0 1-1.15 10.53c-1.73 6.19-3.7 12.31-5.3 18.53a17.81 17.81 0 0 0-.5 7.24c1.15 6.61 7.6 10.68 14.81 9.68 5.93-.76 10.28-4.13 13.76-8.76 4.7-6.25 7.19-13.44 8.36-21.06a90.78 90.78 0 0 0 1.12-13.27c.06-14-8-24.79-21.34-28.4s-26.07-2.1-37.2 6.88S40.19 70.12 42 84.26a19.28 19.28 0 0 0 4.73 10.39 4.58 4.58 0 0 1 1.07 4.76c-.59 1.89-1 3.84-1.5 5.76-.67 2.46-2.14 3.14-4.5 2.14a23.7 23.7 0 0 1-13-14.14c-5.33-14.64-3.41-28.64 5-41.64C42.59 38 55.51 30.58 71.22 27.93c11.33-1.93 22.54-1.42 33.24 3.15C119.92 37.7 130.07 49 133 65.83c2 11.47 0 22.73-4.16 33.5-3.38 8.65-8.53 16.06-16.27 21.39-8.12 5.63-17.14 8.07-27 6.29-5.83-1-10.81-3.78-14.23-8.87-.05-.07-.18-.08-.34-.14-3.88 13.15-5.36 27.09-13.94 38.93 3.89.82 7.41 1.81 11 2.26 31.46 4 57-6.76 76.31-31.76 9.07-11.71 13.82-25.29 15.26-40a80.08 80.08 0 0 0-63.14-85.7z"/></svg>