<svg data-name="4eb014cc-4896-4d77-817a-81d3b1db48fc" xmlns="http://www.w3.org/2000/svg" width="160" height="160" viewBox="0 0 160 160"><path d="M158.67 14.58a4 4 0 0 0-5.66 0l-25 25V4a4 4 0 0 0-6.71-2.94L70.44 48H24.06A16.08 16.08 0 0 0 8 64.06v31.88A16.08 16.08 0 0 0 24.06 112h31.53l-27.76 27.76a4 4 0 1 0 5.66 5.66L66.91 112h3.53l50.85 46.94A4 4 0 0 0 128 156V50.91l30.67-30.67a4 4 0 0 0 0-5.66zM24.06 104A8.07 8.07 0 0 1 16 95.94V64.06A8.07 8.07 0 0 1 24.06 56H72a4 4 0 0 0 2.71-1.06L120 13.14v34.45L63.59 104zM120 146.86l-45.29-41.8a4 4 0 0 0-.49-.38L120 58.91z"/></svg>