<?xml version="1.0" encoding="UTF-8"?>
<svg width="22px" height="20px" viewBox="0 0 22 20" version="1.1" xmlns="http://www.w3.org/2000/svg" xmlns:xlink="http://www.w3.org/1999/xlink">
    <title>full</title>
    <g id="Page-1" stroke="none" stroke-width="1" fill="none" fill-rule="evenodd">
        <g id="Rating" transform="translate(-182.000000, -309.000000)">
            <g id="full" transform="translate(182.993512, 309.000000)">
                <polygon id="Fill-13" fill="#FECB00" points="1.00648842 7.75 8.00648842 7.75 10.2774884 1 12.3864884 7.75 19.0064884 7.75 14.0064884 12.19 16.3174884 19.07 10.2774884 15.13 4.31748842 19.07 6.06748842 12.13"></polygon>
                <path d="M19.9814884,7.3375 C19.9064884,7.1375 19.7189884,7 19.5064884,7 L12.6564884,7 L10.4814884,0.35 C10.4189884,0.1375 10.2314884,0 10.0064884,0 C9.79398842,0 9.59398842,0.1375 9.53148842,0.3375 L7.23148842,7 L0.50648842,7 C0.29398842,7 0.10648842,7.1375 0.03148842,7.325 C-0.04351158,7.5125 0.01898842,7.75 0.18148842,7.875 L5.55648842,12.4 L3.38148842,19.35 C3.31898842,19.55 3.39398842,19.775 3.56898842,19.9 C3.65648842,19.9625 3.75648842,20 3.85648842,20 C3.95648842,20 4.06898842,19.9625 4.15648842,19.9 L10.0064884,15.65 L15.8564884,19.9 C16.0314884,20.025 16.2689884,20.025 16.4439884,19.9 C16.6189884,19.775 16.6939884,19.55 16.6189884,19.3375 L14.3189884,12.4 L19.8064884,7.8875 C19.9814884,7.75 20.0439884,7.525 19.9814884,7.3375 Z M13.4314884,11.85 C13.2689884,11.9875 13.2064884,12.2 13.2689884,12.3875 L15.1814884,18.175 L10.3064884,14.625 C10.1314884,14.5 9.89398842,14.5 9.71898842,14.625 L4.79398842,18.2 L6.61898842,12.375 C6.68148842,12.1875 6.61898842,11.975 6.46898842,11.8375 L1.88148842,8 L7.59398842,8 C7.80648842,8 7.99398842,7.8625 8.06898842,7.6625 L9.99398842,2.075 L11.8189884,7.6625 C11.8814884,7.8625 12.0814884,8.0125 12.2939884,8.0125 L18.1064884,8.0125 L13.4314884,11.85 Z" id="Shape" fill="#EB9700" fill-rule="nonzero"></path>
            </g>
        </g>
    </g>
</svg>