<?xml version="1.0" encoding="UTF-8"?>
<svg width="22px" height="20px" viewBox="0 0 22 20" version="1.1" xmlns="http://www.w3.org/2000/svg" xmlns:xlink="http://www.w3.org/1999/xlink">
    <title>Group 2</title>
    <g id="Page-1" stroke="none" stroke-width="1" fill="none" fill-rule="evenodd">
        <g id="Rating" transform="translate(-210.000000, -309.000000)">
            <g id="Group-2" transform="translate(210.993512, 309.000000)">
                <path d="M10.0064884,1.829 L10.0064884,15.314 L4.32648842,19.07 L6.07648842,12.13 L1.00648842,7.75 L8.00648842,7.75 L10.0064884,1.829 Z" id="Combined-Shape" fill="#FECB00"></path>
                <path d="M10.0064884,-1.0658141e-14 C10.2314884,-1.0658141e-14 10.4189884,0.1375 10.4814884,0.35 L10.4814884,0.35 L12.6564884,7 L19.5064884,7 C19.7189884,7 19.9064884,7.1375 19.9814884,7.3375 C20.0439884,7.525 19.9814884,7.75 19.8064884,7.8875 L19.8064884,7.8875 L14.3189884,12.4 L16.6189884,19.3375 C16.6939884,19.55 16.6189884,19.775 16.4439884,19.9 C16.2689884,20.025 16.0314884,20.025 15.8564884,19.9 L15.8564884,19.9 L10.0064884,15.65 L10.0061345,14.5312927 C10.1114536,14.5299301 10.2171206,14.5611658 10.3064884,14.625 L10.3064884,14.625 L15.1814884,18.175 L13.2689884,12.3875 C13.2064884,12.2 13.2689884,11.9875 13.4314884,11.85 L13.4314884,11.85 L18.1064884,8.0125 L12.2939884,8.0125 C12.0814884,8.0125 11.8814884,7.8625 11.8189884,7.6625 L11.8189884,7.6625 L10.0061345,2.111 Z" id="Combined-Shape" fill="#666666" fill-rule="nonzero"></path>
                <path d="M10.0064884,0 L10.006,2.114 L9.99398842,2.075 L8.06898842,7.6625 C7.99398842,7.8625 7.80648842,8 7.59398842,8 L7.59398842,8 L1.88148842,8 L6.46898842,11.8375 C6.61898842,11.975 6.68148842,12.1875 6.61898842,12.375 L6.61898842,12.375 L4.79398842,18.2 L9.71898842,14.625 C9.80478387,14.5637175 9.90560149,14.5324794 10.0067117,14.5312856 L10.0064884,15.65 L4.15648842,19.9 C4.06898842,19.9625 3.95648842,20 3.85648842,20 C3.75648842,20 3.65648842,19.9625 3.56898842,19.9 C3.39398842,19.775 3.31898842,19.55 3.38148842,19.35 L3.38148842,19.35 L5.55648842,12.4 L0.18148842,7.875 C0.01898842,7.75 -0.04351158,7.5125 0.03148842,7.325 C0.10648842,7.1375 0.29398842,7 0.50648842,7 L0.50648842,7 L7.23148842,7 L9.53148842,0.3375 C9.59398842,0.1375 9.79398842,0 10.0064884,0 L10.0064884,0 Z" id="Combined-Shape" fill="#EB9700" fill-rule="nonzero"></path>
            </g>
        </g>
    </g>
</svg>