<?xml version="1.0" encoding="UTF-8"?>
<svg width="20px" height="20px" viewBox="0 0 20 20" version="1.1" xmlns="http://www.w3.org/2000/svg" xmlns:xlink="http://www.w3.org/1999/xlink">
    <title>none</title>
    <g id="Page-1" stroke="none" stroke-width="1" fill="none" fill-rule="evenodd">
        <g id="Rating" transform="translate(-240.000000, -309.000000)" fill="#666666" fill-rule="nonzero">
            <path d="M259.975,316.3375 C259.9,316.1375 259.7125,316 259.5,316 L252.65,316 L250.475,309.35 C250.4125,309.1375 250.225,309 250,309 C249.7875,309 249.5875,309.1375 249.525,309.3375 L247.225,316 L240.5,316 C240.2875,316 240.1,316.1375 240.025,316.325 C239.95,316.5125 240.0125,316.75 240.175,316.875 L245.55,321.4 L243.375,328.35 C243.3125,328.55 243.3875,328.775 243.5625,328.9 C243.65,328.9625 243.75,329 243.85,329 C243.95,329 244.0625,328.9625 244.15,328.9 L250,324.65 L255.85,328.9 C256.025,329.025 256.2625,329.025 256.4375,328.9 C256.6125,328.775 256.6875,328.55 256.6125,328.3375 L254.3125,321.4 L259.8,316.8875 C259.975,316.75 260.0375,316.525 259.975,316.3375 Z M253.425,320.85 C253.2625,320.9875 253.2,321.2 253.2625,321.3875 L255.175,327.175 L250.3,323.625 C250.125,323.5 249.8875,323.5 249.7125,323.625 L244.7875,327.2 L246.6125,321.375 C246.675,321.1875 246.6125,320.975 246.4625,320.8375 L241.875,317 L247.5875,317 C247.8,317 247.9875,316.8625 248.0625,316.6625 L249.9875,311.075 L251.8125,316.6625 C251.875,316.8625 252.075,317.0125 252.2875,317.0125 L258.1,317.0125 L253.425,320.85 Z" id="none"></path>
        </g>
    </g>
</svg>