<svg xmlns="http://www.w3.org/2000/svg" xmlns:xlink="http://www.w3.org/1999/xlink" width="160px" height="160px" viewBox="0 0 160 160">
    <defs>
        <polygon id="path-1" points="0 0.00449792531 159.935602 0.00449792531 159.935602 142.074689 0 142.074689"></polygon>
    </defs>
    <g id="-warning-/-orange" stroke="none" stroke-width="1" fill="none" fill-rule="evenodd">
        <g id="Group-8" transform="translate(0.000000, 8.000000)">
            <g id="Group-3" transform="translate(0.000000, 0.327635)">
                <mask id="mask-2-12" fill="white">
                    <use xlink:href="#path-1"></use>
                </mask>
                <g id="Clip-2"></g>
                <path d="M68.3434357,6.71578423 C73.5099087,-2.23259751 86.4257593,-2.23259751 91.5922324,6.71578423 L124.854971,64.3283983 L158.117378,121.94068 C163.283851,130.889062 156.825759,142.074788 146.492813,142.074788 L79.968,142.074788 L13.4428548,142.074788 C3.10990871,142.074788 -3.34818257,130.889062 1.81829046,121.94068 L35.0806971,64.3283983 L68.3434357,6.71578423 Z" id="Fill-1-13" fill="#FFFFFF" mask="url(#mask-2-12)"></path>
            </g>
            <path d="M79.967834,108.172481 C76.347917,108.172481 73.4134772,111.106921 73.4134772,114.726838 C73.4134772,118.346423 76.347917,121.280863 79.967834,121.280863 C83.587751,121.280863 86.5221909,118.346423 86.5221909,114.726838 C86.5221909,111.106921 83.587751,108.172481 79.967834,108.172481" id="Fill-4-14" fill="#333333"></path>
            <path d="M75.5810124,92.5841328 C75.5810124,92.5841328 75.5212614,93.8179917 76.0998506,95.0780747 C76.7255768,96.602722 78.224332,97.6858755 79.9677344,97.6858755 C81.7111369,97.6858755 83.2098921,96.602722 83.8359502,95.0780747 C84.4145394,93.8179917 84.3547884,92.5841328 84.3547884,92.5841328 L85.4044149,68.5399834 C85.4044149,68.5399834 86.1795187,50.789278 86.4659917,44.2259585 C86.7524647,37.662971 80.2711369,37.3871203 80.2711369,37.3871203 L79.6646639,37.3871203 C79.6646639,37.3871203 73.1830041,37.662971 73.4698091,44.2259585 C73.7562822,50.789278 74.5313859,68.5399834 74.5313859,68.5399834 L75.5810124,92.5841328 Z" id="Fill-6-15" fill="#333333"></path>
        </g>
    </g>
</svg>
