<svg xmlns="http://www.w3.org/2000/svg" xmlns:xlink="http://www.w3.org/1999/xlink" width="160px" height="160px" viewBox="0 0 160 160">
    <defs>
        <polygon id="path-1" points="0 9.89690722e-05 159.696165 9.89690722e-05 159.696165 159.696165 0 159.696165"></polygon>
    </defs>
    <g id="-success-/-green" stroke="none" stroke-width="1" fill="none" fill-rule="evenodd">
        <g id="success">
            <mask id="mask-2-10" fill="white">
                <use xlink:href="#path-1"></use>
            </mask>
            <g id="rectangle"></g>
            <path d="M79.8479175,9.89690722e-05 C123.946887,9.89690722e-05 159.696165,35.7490474 159.696165,79.8480165 C159.696165,123.946986 123.946887,159.696264 79.8479175,159.696264 C35.7492784,159.696264 0,123.946986 0,79.8480165 C0,35.7490474 35.7492784,9.89690722e-05 79.8479175,9.89690722e-05 Z M132.136577,41.5931711 C130.697897,40.1980371 128.400825,40.2343258 127.005361,41.6730062 L127.005361,41.6730062 L60.5228866,110.262202 L32.7105979,81.1148206 C31.3266804,79.6645938 29.0296082,79.6111505 27.5797113,80.9944082 C26.1298144,82.3779959 26.0760412,84.675068 27.4596289,86.1249649 L27.4596289,86.1249649 L57.8771134,118.002573 C58.5583505,118.7168 59.5015258,119.122573 60.4882474,119.126202 L60.4882474,119.126202 L60.502433,119.126202 C61.4842062,119.126202 62.4244124,118.728346 63.1082887,118.023027 L63.1082887,118.023027 L132.216742,46.7243876 C133.611876,45.2853773 133.575918,42.9879753 132.136577,41.5931711 Z" id="combined-shape-11" fill="#FFFFFF"></path>
        </g>
    </g>
</svg>
