<svg xmlns="http://www.w3.org/2000/svg" xmlns:xlink="http://www.w3.org/1999/xlink" width="160px" height="143px" viewBox="0 0 160 143">
    <g id="Page-1" stroke="none" stroke-width="1" fill="none" fill-rule="evenodd">
        <g id="-error-/-red" transform="translate(0.000000, -8.000000)" fill="#ffffff">
            <g id="icon_error" transform="translate(0.000000, 8.000000)">
                <path d="M79.9677341,107.840581 C83.5876512,107.840581 86.522091,110.775021 86.522091,114.394938 C86.522091,118.014523 83.5876512,120.948963 79.9677341,120.948963 C76.3478171,120.948963 73.4133773,118.014523 73.4133773,114.394938 C73.4133773,110.775021 76.3478171,107.840581 79.9677341,107.840581 Z M86.4659914,43.8940249 C86.1795184,50.4573444 85.4040827,68.2080498 85.4040827,68.2080498 L84.3544561,92.2521992 C84.3544561,92.2521992 84.4145391,93.4860581 83.8359499,94.7458091 C83.2098918,96.2707884 81.7111366,97.3539419 79.9677341,97.3539419 C78.2243317,97.3539419 76.7255765,96.2707884 76.0998503,94.7458091 C75.5209292,93.4860581 75.5810122,92.2521992 75.5810122,92.2521992 L74.5313856,68.2080498 C74.5313856,68.2080498 73.7562819,50.4573444 73.4698088,43.8940249 C73.1880321,37.4386273 79.4536587,37.0659206 79.6591648,37.0554356 L80.2711366,37.0551867 C80.2711366,37.0551867 86.7524644,37.3310373 86.4659914,43.8940249 Z M158.117112,121.936515 L124.854705,64.3239004 L91.5922985,6.71128631 C86.4258254,-2.23709544 73.5096429,-2.23709544 68.3431698,6.71128631 L35.0807632,64.3239004 L1.81835655,121.936515 C-3.34811648,130.884896 3.10997481,142.07029 13.4425889,142.07029 L79.9677341,142.07029 L146.492879,142.07029 C156.825825,142.07029 163.283585,130.884896 158.117112,121.936515" id="combined-shape-7"></path>
            </g>
        </g>
    </g>
</svg>
