<?xml version="1.0" encoding="UTF-8"?>
<svg width="160px" height="160px" viewBox="0 0 160 160" version="1.1" xmlns="http://www.w3.org/2000/svg" xmlns:xlink="http://www.w3.org/1999/xlink">
    <!-- Generator: Sketch 62 (91390) - https://sketch.com -->
    <title>icon_info</title>
    <desc>Created with Sketch.</desc>
    <defs>
        <polygon id="path-1" points="0 0 159.695967 0 159.695967 159.696165 0 159.696165"></polygon>
    </defs>
    <g id="Page-1" stroke="none" stroke-width="1" fill="none" fill-rule="evenodd">
        <g id="-info-/-blue">
            <g id="icon_info">
                <mask id="mask-2" fill="white">
                    <use xlink:href="#path-1"></use>
                </mask>
                <g id="Rectangle"></g>
                <path d="M79.8480495,-3.97903932e-13 C123.947019,-3.97903932e-13 159.695967,35.7492784 159.695967,79.8479175 C159.695967,123.946887 123.947019,159.696165 79.8480495,159.696165 C35.7494103,159.696165 -0.000197938144,123.946887 -0.000197938144,79.8479175 C-0.000197938144,35.7492784 35.7494103,-3.97903932e-13 79.8480495,-3.97903932e-13 Z M80.0555546,62.6180619 L70.1929567,62.6180619 C67.6045856,62.6180619 65.5044619,64.7181856 65.5044619,67.3065567 C65.5044619,69.8952577 67.6045856,71.9953814 70.1929567,71.9953814 L70.1929567,71.9953814 L75.3667299,71.9953814 L75.3667299,114.229773 L70.6053278,114.229773 C68.0166268,114.229773 65.9165031,116.329567 65.9165031,118.918268 C65.9165031,121.506969 68.0166268,123.607093 70.6053278,123.607093 L70.6053278,123.607093 L89.5031423,123.607093 C92.0918433,123.607093 94.191967,121.506969 94.191967,118.918268 C94.191967,116.329567 92.0918433,114.229773 89.5031423,114.229773 L89.5031423,114.229773 L84.7443794,114.229773 L84.7443794,67.3065567 C84.7443794,64.7181856 82.6442557,62.6180619 80.0555546,62.6180619 L80.0555546,62.6180619 Z M79.8480495,36.0890722 C76.2676784,36.0890722 73.3649155,38.9918351 73.3649155,42.5722062 C73.3649155,46.1529072 76.2676784,49.0553402 79.8480495,49.0553402 C83.4287505,49.0553402 86.3311835,46.1529072 86.3311835,42.5722062 C86.3311835,38.9918351 83.4287505,36.0890722 79.8480495,36.0890722 Z" id="Fill-1" fill="#055EA5" mask="url(#mask-2)"></path>
            </g>
        </g>
    </g>
</svg>