<svg data-name="f1e20f14-357a-482c-8d60-efee97a41f50" xmlns="http://www.w3.org/2000/svg" width="160" height="160" viewBox="0 0 160 160"><path d="M56 104a16 16 0 1 0-16-16 16 16 0 0 0 16 16zm0-24a8 8 0 1 1-8 8 8 8 0 0 1 8-8zm48 32a16 16 0 1 0 16 16 16 16 0 0 0-16-16zm0 24a8 8 0 1 1 8-8 8 8 0 0 1-8 8zm-63 6.66a4 4 0 0 0 5.65.33l72-64a4 4 0 0 0-5.31-6l-72 64a4 4 0 0 0-.34 5.67z"/><path d="M140 56h-20V40a40 40 0 0 0-80 0v16H20a4 4 0 0 0-4 4v96a4 4 0 0 0 4 4h120a4 4 0 0 0 4-4V60a4 4 0 0 0-4-4zM48 40a32 32 0 0 1 64 0v16H48zm88 112H24V64h112z"/></svg>