<svg data-name="5bd4c870-fb9f-4288-b73d-3aa888408c71" xmlns="http://www.w3.org/2000/svg" width="160" height="160" viewBox="0 0 160 160"><path d="M159.35 35.37v-.19l-2.93-24.26v-.13A12.66 12.66 0 0 0 143.79 0H16.21A12.66 12.66 0 0 0 3.63 10.79L0 41.63v3.69a18.85 18.85 0 0 0 5.37 13.49A17.63 17.63 0 0 0 8 61v95a4 4 0 0 0 4 4h136a4 4 0 0 0 4-4V61a18.62 18.62 0 0 0 8.16-15.65V42.1zM16.21 8h127.58a4.7 4.7 0 0 1 4.67 4l2.44 20H9.17l2.37-20a4.7 4.7 0 0 1 4.67-4zM76 152H40V88h36zm8 0V88h36v64zm60 0h-16V84a4 4 0 0 0-4-4H36a4 4 0 0 0-4 4v68H16V63.88a18.43 18.43 0 0 0 14.41-4.62A18.7 18.7 0 0 0 42.82 64a18.11 18.11 0 0 0 12.35-4.75 18.4 18.4 0 0 0 24.81 0 18.4 18.4 0 0 0 24.8 0 18.4 18.4 0 0 0 24.79 0A18.51 18.51 0 0 0 144 63.89zm8.16-106.66a10.46 10.46 0 0 1-5.7 9.64h-.07A10.12 10.12 0 0 1 142 56a10.57 10.57 0 0 1-9-5l-.1-.12-.14-.19a4 4 0 0 0-.37-.43l-.15-.13a4 4 0 0 0-.48-.37l-.14-.07a4 4 0 0 0-.49-.24l-.29-.1a4 4 0 0 0-.43-.11h-1.5a4 4 0 0 0-.43.11l-.29.1a4 4 0 0 0-.49.24l-.15.07h-.05a4 4 0 0 0-.47.36l-.15.13a4 4 0 0 0-.36.42l-.15.19-.09.12a10.63 10.63 0 0 1-18 0 4 4 0 0 0-.39-.5l-.12-.13a4 4 0 0 0-.4-.35l-.22-.17-.1-.08c-.1-.06-.2-.1-.3-.15l-.29-.14a3.93 3.93 0 0 0-.43-.14l-.31-.08-.42-.06h-.73l-.41.05-.32.08a3.91 3.91 0 0 0-.43.14l-.3.15c-.1.05-.21.09-.3.15l-.1.08-.22.17a4 4 0 0 0-.41.35l-.11.13a4 4 0 0 0-.4.52 10.63 10.63 0 0 1-18 0l-.1-.12-.14-.18a4 4 0 0 0-.37-.43l-.15-.13a4 4 0 0 0-.48-.37l-.33-.11a4 4 0 0 0-.49-.24l-.3-.1a4 4 0 0 0-.43-.11h-1.5a4 4 0 0 0-.43.11l-.29.1a4 4 0 0 0-.49.24l-.15.07a4 4 0 0 0-.47.37l-.15.13a4 4 0 0 0-.37.42l-.14.19-.19.16a10.63 10.63 0 0 1-18 0l-.06-.08a4 4 0 0 0-.27-.35c-.08-.1-.15-.19-.24-.28s-.18-.16-.27-.24a4 4 0 0 0-.35-.27l-.08-.06-.23-.11a4 4 0 0 0-.39-.19l-.37-.12-.37-.1-.4-.05h-1.13l-.39.1-.35.12a4 4 0 0 0-.4.2l-.22.11-.08.06a4 4 0 0 0-.35.27c-.09.08-.19.15-.28.24s-.16.18-.24.28a4 4 0 0 0-.27.35l-.06.12a10.63 10.63 0 0 1-18 0v-.05a4 4 0 0 0-.3-.39c-.07-.09-.14-.17-.22-.25s-.17-.15-.26-.22a4 4 0 0 0-.38-.29h-.06l-.17-.08a4 4 0 0 0-.49-.24l-.23-.08a4 4 0 0 0-.53-.14h-.21a4 4 0 0 0-.58 0h-.15a4 4 0 0 0-.63.08h-.1a3.94 3.94 0 0 0-.63.21h-.1a4 4 0 0 0-.44.22l-.15.12h-.06a4 4 0 0 0-.55.47A4 4 0 0 0 27 51a10.57 10.57 0 0 1-9 5 9.62 9.62 0 0 1-7-2.84 10.92 10.92 0 0 1-3-7.83v-3L8.23 40h143.64l.29 2.34z"/></svg>