<svg data-name="144a11d7-e8fc-4b92-8911-cd89bba63ff1" xmlns="http://www.w3.org/2000/svg" width="160" height="160" viewBox="0 0 160 160"><path d="M154.48 46.86L89.87 10.24a22.47 22.47 0 0 0-19.6 0l-.14.08L5.49 48.67C2.09 50.52.14 53.37.14 56.5s2 6 5.36 7.84L27.21 77v40.7c0 5.7 1.31 7.28 5.11 11l.14.14C41.25 137.51 59.09 152 80 152c15.29 0 31-7.61 46.68-22.61l.94-.85c3.86-3.65 5.19-5.2 5.19-10.84V75.86l21.75-13.34c3.38-1.85 5.32-4.7 5.32-7.82s-2.01-6.03-5.4-7.84zm-29.26 70.85c0 2.34 0 2.34-2.67 4.86l-.94.89C111.81 132.84 96.6 144 80 144c-19 0-36-14.69-42.41-21l-.14-.14c-2.69-2.66-2.69-2.66-2.69-5.16V81.36L70.29 102l.11.06a22.47 22.47 0 0 0 19.57 0l.19-.11 35.06-21.48zM151 55.43l-.19.11L86.48 95a15.6 15.6 0 0 1-12.61 0L39 74.73l31.1-18.88a4.14 4.14 0 0 0 1.39-5.47 3.65 3.65 0 0 0-4.91-1.61l-.24.14-33.86 20.53a13.26 13.26 0 0 0-1.23.77L9.07 57.3 9 57.24a4.94 4.94 0 0 1-1.09-.73 5.47 5.47 0 0 1 1.07-.73l.14-.08 64.62-38.35c3.42-1.79 9.35-1.78 12.66 0L151 54a4.94 4.94 0 0 1 1.07.73 4.66 4.66 0 0 1-1.07.7z"/></svg>