<svg data-name="1c6ed919-e9f1-4370-8b3e-1c6ed9196b42" xmlns="http://www.w3.org/2000/svg" width="160" height="160" viewBox="0 0 160 160"><path d="M49.28 73.63L22.08 48H132a4 4 0 0 0 0-8H22.08L49 14.66a4 4 0 1 0-5.48-5.82L9.27 41.09a4 4 0 0 0-.33.39c-.06.07-.13.14-.18.22a4 4 0 0 0-.29.52l-.09.17a4 4 0 0 0-.23.73A4 4 0 0 0 8 44a4 4 0 0 0 .08.81 4 4 0 0 0 .24.76l.08.16a4 4 0 0 0 .3.53c.05.08.12.15.18.22a4 4 0 0 0 .33.38L43.8 79.45a4 4 0 0 0 5.49-5.82zm67.21 77.54l34.25-32.25.07-.08.13-.15a4 4 0 0 0 .37-.45l.09-.15a4 4 0 0 0 .29-.53l.06-.2a4 4 0 0 0 .17-.55v-.24a4 4 0 0 0 .08-.57 4 4 0 0 0-1.25-2.89L116.2 80.56a4 4 0 1 0-5.49 5.82l27.2 25.62H28a4 4 0 0 0 0 8h109.93L111 145.35a4 4 0 0 0 5.48 5.82z"/></svg>