<svg data-name="d253bed7-39df-4888-a3fa-2dc05b857b43" xmlns="http://www.w3.org/2000/svg" width="160" height="160" viewBox="0 0 160 160"><path d="M144 56h-40V32a16 16 0 0 0-16-16H16A16 16 0 0 0 0 32v48a16 16 0 0 0 16 16h1.88v18.35a4 4 0 0 0 6.83 2.83L45.9 96H56v24a16 16 0 0 0 16 16h42.1l21.18 21.18a4 4 0 0 0 6.83-2.83V136H144a16 16 0 0 0 16-16V72a16 16 0 0 0-16-16zM56 72v16H44.24a4 4 0 0 0-2.83 1.17L25.88 104.7V92a4 4 0 0 0-4-4H16a8 8 0 0 1-8-8V32a8 8 0 0 1 8-8h72a8 8 0 0 1 8 8v24H72a16 16 0 0 0-16 16zm96 48a8 8 0 0 1-8 8h-5.89a4 4 0 0 0-4 4v12.69l-15.52-15.52a4 4 0 0 0-2.83-1.17H72a8 8 0 0 1-8-8V72a8 8 0 0 1 8-8h72a8 8 0 0 1 8 8z"/><path d="M132 80H84a4 4 0 0 0 0 8h48a4 4 0 0 0 0-8zm0 24H84a4 4 0 0 0 0 8h48a4 4 0 0 0 0-8z"/></svg>