<svg xmlns="http://www.w3.org/2000/svg" width="68" height="68" viewBox="0 0 68 68">
  <g fill="none" fill-rule="evenodd">
    <circle cx="34" cy="34" r="34" fill="#FFF" fill-rule="nonzero"/>
    <g transform="translate(14 14)">
      <path fill="#EBEBEB" d="M33.5435497,17.3564369 L33.4019185,17.3564369 C33.3011808,17.437406 33.1794977,17.518875 33.0583133,17.5998441 C32.1072898,18.2081124 31.0754768,18.7149193 30.0032689,19.0597879 C28.7086402,19.4856256 27.373118,19.810002 25.9976997,20.0329171 C24.0148632,20.3572935 21.9916319,20.5197316 19.9684005,20.5197316 C17.9456679,20.5197316 15.9423846,20.3572935 13.9396001,20.0329171 C10.7429245,19.4856256 8.11277363,18.5324888 6.55532935,17.3359447 C5.86712151,17.3159523 5.21980717,17.6403287 4.79491363,18.167128 C4.4508097,18.6134579 4.20844085,19.140757 4.10720448,19.6880485 L4.10720448,24.6351636 L4.10720448,25.0814935 C4.10720448,25.3653853 4.12765124,25.649777 4.14759929,25.9131766 C4.85575519,34.6723392 12.5028415,41.1808593 21.2430812,40.491622 C28.9914039,39.8628615 35.1418875,33.69921 35.7892018,25.9131766 C35.8096486,25.6292848 35.8295966,25.3653853 35.8295966,25.0814935 L35.8295966,24.6351636 L35.8295966,19.7085407 C35.6884641,19.1607494 35.4655446,18.6339501 35.1418875,18.1876202 C34.7573887,17.7008057 34.170916,17.3969215 33.5435497,17.3564369 Z"/>
      <path fill="#900" d="M.303659245 25.1019857L.303659245 25.1019857C.121633256 24.594679.0203968847 24.0478873.0203968847 23.500096L.0203968847 25.1019857C.0203968847 27.9004194 2.28649577 30.1710543 5.07822586 30.1710543 4.83535831 29.5223015 4.63338426 28.8530565 4.49125438 28.1638191 2.58970618 28.0828499.950973582 26.8863058.303659245 25.1019857M39.5349229 25.1019857L39.5349229 25.1019857C38.8950096 26.8658136 37.2750136 28.0828499 35.4149268 28.1638191 35.274915 28.8330641 35.0747572 29.5018093 34.8346665 30.1710543 37.5949702 30.1710543 39.8346665 27.9004194 39.8346665 25.1019857L39.8346665 23.500096C39.8346665 24.0478873 39.7350806 24.594679 39.5349229 25.1019857"/>
      <path fill="#E60000" d="M0.0204467549,19.4450911 C0.0204467549,19.5665448 1.98951966e-13,19.6680061 1.98951966e-13,19.7894599 L1.98951966e-13,23.5205383 C1.98951966e-13,24.0678297 0.101236372,24.615621 0.28326236,25.1219281 C0.931075399,26.8862559 2.569808,28.1027923 4.45090944,28.1837615 C4.28933021,27.4540395 4.16764708,26.7038254 4.10730422,25.9536112 C4.08447692,25.6698102 4.06690941,25.4063197 4.06690941,25.1219281 C4.05327824,24.8383695 4.05327824,24.689926 4.06690941,24.6765978 L4.06690941,19.7289829 C4.18809384,19.1811916 4.41051464,18.6538925 4.75461856,18.2080624 C5.1795121,17.6602711 5.82682644,17.3563869 6.51453558,17.3768791 C8.07247856,18.552931 10.7026294,19.5260602 13.899305,20.0733517 C15.8816428,20.3982279 17.9048742,20.5601662 19.9281055,20.5601662 C21.9513368,20.5601662 23.9541214,20.3982279 25.956906,20.0733517 C27.3123762,19.8504366 28.6478984,19.5260602 29.9425271,19.1002225 C31.0147349,18.7553539 32.046548,18.248547 32.9975715,17.6402787 C33.1187559,17.5593096 33.240439,17.4783404 33.3411767,17.3968715 L33.4833066,17.3968715 C34.1101741,17.4173637 34.7170937,17.7217477 35.1015924,18.2285546 C35.4456963,18.6743847 35.6880652,19.2016838 35.7893015,19.7489753 L35.7893015,24.6965902 L35.7893015,25.1424203 C35.7893015,25.4268119 35.7693535,25.7102039 35.7489067,25.9736036 C35.6880652,26.7238177 35.5668807,27.4740319 35.4053015,28.2042537 C37.2664549,28.1027923 38.9051875,26.9062482 39.5525018,25.1629125 C39.7345278,24.6561056 39.8357642,24.1083143 39.8357642,23.5810152 L39.8357642,21.3708573 C39.8764676,20.9655118 39.8764676,20.539674 39.8764676,20.0733517 C39.9370006,8.96208528 30.9942882,0 19.9685003,0 C9.1651332,0 0.323657169,8.61721668 0.0204467549,19.4450911 Z"/>
      <path fill="#FFF" d="M24.0350606,12.6118946 C23.7517983,13.1796783 23.3473515,13.665993 22.8411696,14.0513462 C21.7081202,14.9435063 20.2115175,15.2273981 18.8356005,14.8220525 C17.7429458,14.4971763 16.7924211,13.7879465 16.1855015,12.8348097 C15.9221872,12.4294641 15.7202132,11.9631418 15.5780833,11.4968195 C15.5780833,11.4558351 15.5581353,11.4358427 15.5581353,11.3953582 C15.4773456,11.1319585 15.4364521,10.8475669 15.4165041,10.5841672 C15.3960573,10.3002754 15.3761093,10.0163836 15.3960573,9.73249174 L15.3960573,9.6515226 C15.4165041,9.24617704 15.4773456,8.84033167 15.5780833,8.45547831 C15.942634,6.99553458 16.7719743,5.69752914 17.9050238,4.72439992 C18.5722862,4.15661625 19.3412836,3.71028631 20.1706239,3.38640972 C20.3935434,3.30494076 20.636411,3.22397161 20.8588318,3.16299484 C21.000463,3.12251027 21.1420941,3.08202569 21.2837253,3.04154112 C21.6273305,2.96007216 21.9714345,2.8995952 22.3354865,2.85911063 C22.6795904,2.81812624 23.0436424,2.81812624 23.3877463,2.85911063 C23.4480891,2.85911063 23.5089307,2.87910301 23.5493255,2.8995952 C21.9913825,3.24396399 20.8588318,4.62293858 20.8588318,6.22482823 L20.8588318,6.32628957 C21.4856994,6.44774329 22.0726708,6.67065836 22.6187488,6.99553458 C23.0640891,7.27942641 23.4685359,7.6237952 23.772245,8.04963294 L23.8325879,8.15109429 C24.0555074,8.47547069 24.2170866,8.84033167 24.338271,9.22568485 C24.4599542,9.61103802 24.5207957,10.0163836 24.5407438,10.4222289 L24.5407438,10.5841672 C24.5207957,11.2734046 24.3587178,11.9831342 24.0350606,12.6118946 M19.9686499,2.06791209 C15.3761093,2.06791209 11.6737505,5.79899048 11.6737505,10.3812446 C11.6737505,14.9639984 15.3960573,18.694577 19.9686499,18.694577 C24.5407438,18.694577 28.2635493,14.9639984 28.2635493,10.3812446 C28.2635493,5.7789981 24.5407438,2.06791209 19.9686499,2.06791209"/>
      <path fill="#4A4D4E" d="M17.7093592,0.227913161 C17.4107381,-0.0759710537 16.9135266,-0.0759710537 16.6153958,0.227913161 C12.3778202,4.52677522 5.53503285,4.52677522 1.31805176,0.227913161 C1.01943066,-0.0759710537 0.52221917,-0.0759710537 0.223598067,0.227913161 C-0.074532689,0.531797376 -0.074532689,1.01861189 0.223598067,1.34248849 L0.263806491,1.38397268 C5.09764365,6.29060317 12.9152401,6.27011097 17.7490773,1.36298068 C18.0275941,1.03860427 18.0275941,0.531797376 17.7093592,0.227913161" transform="translate(10.944 31.766)"/>
      <path fill="#4A4D4E" d="M.0824335079 3.12003306L.0824335079 3.12003306C.433030341 4.46677744 1.79572746 5.2542935 3.11669899 4.92233148 3.98377736 4.69455446 4.68547988 4.0107127 4.9129353 3.12003306 5.24317818 1.77328867 4.43817935.406115852 3.11669899.0741538305 1.77537351-.25678677.412676388.55115772.0824335079 1.87645225.0412167539 2.08431155 0 2.29114943 0 2.49849801L0 2.53986559C0 2.74721417.0412167539 2.93362362.0824335079 3.12003306M13.0693421 3.13871928C13.4198052 4.47206392 14.7795004 5.2517444 16.0985623 4.92308531 16.9635459 4.69757462 17.6644721 4.0205369 17.8910033 3.13871928 17.9321446 2.99512054 17.9529692 2.8515218 17.9529692 2.68719226L17.9529692 2.52336835C17.9732859 1.1485621 16.8812632.0210086157 15.5007433.000277811685 14.1202235-.0199473629 12.9870594 1.06665014 12.9662348 2.44095076 12.9662348 2.68719226 12.9870594 2.91320859 13.0693421 3.13871928" transform="translate(10.944 22.27)"/>
    </g>
  </g>
</svg>
