<svg data-name="77811e17-1123-40fa-bd31-14cd47b3fd4f" xmlns="http://www.w3.org/2000/svg" width="160" height="160" viewBox="0 0 160 160"><path d="M112 71.93a11.92 11.92 0 0 0-4.43.86 12 12 0 0 0-16-8A11.94 11.94 0 0 0 76 56.63v-20.7a12 12 0 0 0-24 0v44a16 16 0 0 0-16 16v20a36 36 0 0 0 36 36h16a36 36 0 0 0 36-36v-32a12 12 0 0 0-12-12zm4 44a28 28 0 0 1-28 28H72a28 28 0 0 1-28-28v-20a8 8 0 0 1 8-8v12a4 4 0 1 0 8 0v-64a4 4 0 0 1 8 0v40a4 4 0 1 0 8 0v-8a4 4 0 0 1 8 0v8a4 4 0 1 0 8 0 4 4 0 0 1 8 0v8a4 4 0 0 0 8 0 4 4 0 0 1 8 0z"/><path d="M42.15 46.76a4 4 0 0 0 2.69-5 20 20 0 1 1 38.33 0 4 4 0 1 0 7.67 2.29 28 28 0 1 0-53.67 0 4 4 0 0 0 4.98 2.71z"/></svg>