<?xml version="1.0" encoding="UTF-8"?>
<svg xmlns="http://www.w3.org/2000/svg" xmlns:xlink="http://www.w3.org/1999/xlink" width="32px" height="41px" viewBox="0 0 32 41">
  <!-- Generator: Sketch 55.2 (78181) - https://sketchapp.com -->
  <title>Icon_Unlimited_logo</title>
  <desc>Created with Sketch.</desc>
  <g id="Why-Vodafone" stroke="none" stroke-width="1" fill="none" fill-rule="evenodd">
    <g id="Artboard" transform="translate(-265.000000, -86.000000)">
      <g id="Why-Vodafone-(Snippets-organism)---Desktop">
        <g id="network" transform="translate(133.000000, 86.000000)">
          <g id="Icons-/-unlimited-logo-/-white" transform="translate(128.000000, 0.000000)">
            <g id="unlimited">
              <rect id="Rectangle-path" x="0" y="0" width="40" height="40"></rect>
            </g>
            <g id="Group-11" transform="translate(4.250000, 0.000000)" fill="#FFFFFF">
              <path d="M17.563175,25.457025 C17.471925,25.639025 17.351425,25.806525 17.205175,25.954525 C17.151675,26.008525 17.095175,26.059025 17.035425,26.106775 C16.827675,26.273025 16.587675,26.394025 16.332925,26.464775 C16.153675,26.515275 15.966675,26.540025 15.778925,26.537275 C15.708675,26.536275 15.639175,26.531275 15.569925,26.523025 C15.462925,26.509775 15.357425,26.487275 15.253925,26.457025 C14.914425,26.358025 14.600175,26.168525 14.345675,25.906025 C14.243175,25.800525 14.153425,25.686775 14.076425,25.565275 C13.957925,25.378525 13.868675,25.175025 13.808175,24.962525 C13.803675,24.946525 13.799175,24.930525 13.795425,24.914025 C13.763425,24.793525 13.740925,24.669775 13.727675,24.544525 C13.714175,24.417025 13.709925,24.287775 13.715175,24.159025 C13.715675,24.145775 13.716175,24.133025 13.716925,24.120025 C13.727175,23.935275 13.754425,23.755525 13.796675,23.582775 C13.964175,22.893025 14.365425,22.309775 14.835175,21.907275 C15.148425,21.635025 15.502925,21.441025 15.846675,21.306775 C15.949175,21.267275 16.049925,21.233025 16.148925,21.203025 C16.213175,21.183775 16.276175,21.167025 16.337675,21.151775 C16.505925,21.109775 16.664425,21.082775 16.804675,21.066775 C17.003675,21.044775 17.166175,21.045525 17.270425,21.062525 C17.300175,21.067025 17.325175,21.073525 17.345175,21.080525 C16.659175,21.231025 16.141675,21.845025 16.141675,22.578775 C16.141675,22.595525 16.145175,22.614525 16.146175,22.629525 C16.447425,22.693775 16.707925,22.797275 16.925925,22.933775 C17.135175,23.064775 17.306175,23.225525 17.438175,23.412025 C17.448425,23.426275 17.458425,23.441025 17.467925,23.455275 C17.565175,23.601275 17.639175,23.761775 17.690925,23.934525 C17.741175,24.104025 17.769675,24.285025 17.776675,24.476025 C17.777175,24.500525 17.777675,24.524775 17.777675,24.548775 C17.777675,24.866775 17.703925,25.178775 17.563175,25.457025" id="Fill-1"></path>
              <path d="M22.095202,2.24168932 C19.1631859,4.39932512 17.291125,7.87585142 17.291125,11.726925 C17.291125,11.8061487 17.2957934,11.8810641 17.3042161,11.9673196 C17.3066484,11.9922276 17.308661,12.0111478 17.3127468,12.0483211 C17.3199324,12.1134812 17.3216888,12.130905 17.3224998,12.1441308 C17.35,12.5925946 17.6732271,12.9676578 18.1127151,13.061073 C20.0861998,13.4805464 21.8120511,14.1568919 23.262765,15.0644475 C24.6076726,15.9056161 25.712789,16.9402717 26.5699658,18.151002 C26.6377059,18.2439223 26.6970423,18.3302056 26.7569327,18.4220675 C27.3836012,19.3636467 27.863425,20.3973438 28.1996043,21.5242874 C28.5282007,22.6288278 28.7159358,23.8134522 28.760501,25.0723044 C28.7658833,25.2328897 28.768625,25.3916138 28.768625,25.547175 C28.768625,27.6206642 28.2878575,29.6558006 27.3710134,31.4686039 C27.3702207,31.4701744 27.3700229,31.4705674 27.3698254,31.4709605 C26.773546,32.6577032 25.9895943,33.7486573 25.0415038,34.7076055 C24.6958027,35.0549054 24.3273518,35.3844196 23.93714,35.6951912 C22.5927287,36.7702108 21.0335631,37.5634136 19.3650372,38.0263221 C18.1878144,38.3574533 16.9725119,38.5171754 15.7604961,38.4985431 C15.3146917,38.4933315 14.8630058,38.461695 14.4013953,38.404709 C13.7180263,38.3213592 13.0326753,38.1780443 12.3406285,37.975999 C10.1153499,37.3253531 8.06456998,36.0830359 6.40685802,34.3731144 C5.7398799,33.6871246 5.15268886,32.9432988 4.64308181,32.1415139 C3.87353191,30.9258584 3.28140872,29.5909542 2.88188207,28.1782829 C2.84733635,28.062619 2.82229434,27.9698973 2.80201314,27.8828966 L2.7948136,27.8539696 C2.58543679,27.0631983 2.4357892,26.2457468 2.34700885,25.4115913 C2.25680845,24.5625206 2.22924029,23.705951 2.2652345,22.8536176 C2.2679673,22.7651505 2.27134301,22.6868558 2.27626547,22.5925518 C2.34551681,21.3704641 2.52400435,20.1689863 2.80739309,19.0071404 C3.87134745,14.6373201 6.40689334,10.6585485 9.7733547,7.77348446 C11.7364567,6.06766459 14.0509419,4.72227648 16.5836926,3.73459034 C17.2559577,3.47359729 17.9375406,3.23977573 18.6295817,3.03109259 C19.0506119,2.90551454 19.4766521,2.78989747 19.9033263,2.68501804 C20.6439502,2.5013123 21.3791648,2.35369996 22.095202,2.24168932 Z M30.768625,25.547175 C30.768625,25.3689171 30.7654978,25.1878718 30.7593134,25.0034161 C30.7088064,23.5766757 30.4944908,22.2243256 30.1163592,20.9532795 C29.7239419,19.6378132 29.1600954,18.4231039 28.4270817,17.321835 C28.3537182,17.2092245 28.2744073,17.0938957 28.1936279,16.9833114 C27.1903908,15.566086 25.8902197,14.3488121 24.3233965,13.3688471 C22.8650312,12.4565048 21.1822983,11.7565224 19.301118,11.283766 C19.5004097,6.87131474 22.6601901,3.1308973 26.9465352,2.19227832 C27.9271615,1.9775419 28.0152952,0.613348 27.0704516,0.274216626 C26.8620149,0.199402754 26.6243827,0.14092959 26.3640468,0.100037497 C25.4970198,-0.0403807462 24.2483087,-0.0338656086 22.8299591,0.12406733 C21.7312673,0.2501776 20.5821229,0.456041405 19.4238766,0.743337443 C18.9679161,0.855413356 18.5104539,0.979557603 18.0550441,1.11539493 C17.3113854,1.33963851 16.5809834,1.59020779 15.8584614,1.87071337 C13.1199678,2.93863098 10.607436,4.39914162 8.4667078,6.25934215 C4.79572226,9.40535308 2.03016582,13.7450567 0.864259761,18.5336082 C0.552024325,19.8137203 0.355595216,21.1359707 0.279226228,22.4838574 C0.273347877,22.5962845 0.269358636,22.6888092 0.266576335,22.7813839 C0.226845074,23.7204577 0.257593757,24.675849 0.358220543,25.6230648 C0.457194092,26.552993 0.623984564,27.4661162 0.857757065,28.3519612 C0.887301476,28.4771516 0.921853168,28.6045218 0.961739756,28.7375763 C1.40892171,30.3191992 2.07961431,31.8312332 2.95419182,33.2127969 C3.53802832,34.131373 4.21026586,34.9829317 4.97190363,35.7662776 C6.86865265,37.7227662 9.22044882,39.1474324 11.7797366,39.8957386 C12.574235,40.127695 13.3657961,40.2932197 14.1578048,40.3898189 C14.6898456,40.4555007 15.2153583,40.4923081 15.7334507,40.4983569 C17.1359911,40.5199249 18.5440207,40.3348734 19.9031538,39.9525666 C21.8273068,39.4187447 23.6297003,38.5018032 25.1846404,37.2584375 C25.6331541,36.9012356 26.0588929,36.5204876 26.4613694,36.1161404 C27.5588399,35.0061095 28.4657862,33.7441142 29.1563321,32.3700685 C30.2149896,30.2764005 30.768625,27.9323601 30.768625,25.547175 Z" id="Stroke-3" fill-rule="nonzero"></path>
              <path d="M15.998875,20.648175 C15.998875,20.6790839 16.0005835,20.7073779 16.0035768,20.7387295 C16.0052113,20.75513 16.0052113,20.75513 16.0066055,20.7679093 C16.0084217,20.784508 16.0088325,20.788604 16.0088191,20.7883861 C16.0226189,21.0126331 16.1842975,21.2001394 16.4040738,21.2467816 C16.9890584,21.3709306 17.4986613,21.5706514 17.9255041,21.8375982 C18.3173396,22.0826854 18.6382423,22.383164 18.8874325,22.7347821 C18.9074955,22.7625508 18.924092,22.7867399 18.9403052,22.8116529 C19.1232312,23.0863118 19.2627065,23.3868208 19.3610707,23.7158776 C19.4569843,24.0387597 19.5121664,24.3871841 19.5254447,24.7583032 C19.5270463,24.8068653 19.527875,24.8530517 19.527875,24.897425 C19.527875,25.5049816 19.3871027,26.1011273 19.1189564,26.6312402 C18.9437848,26.9793609 18.7144762,27.2984038 18.4373768,27.5785772 C18.3365866,27.6797988 18.2290455,27.7758982 18.1150745,27.8664565 C17.7216913,28.1812907 17.2658451,28.4132794 16.7775531,28.548916 C16.4327264,28.6460344 16.0777793,28.6926649 15.7241487,28.6869894 C15.5916256,28.6854535 15.4601398,28.6762687 15.3279054,28.6596005 C15.1263932,28.6352211 14.9261115,28.5934362 14.7232487,28.5342111 C14.0712556,28.3433783 13.4696348,27.9789722 12.9827724,27.4770477 C12.7871266,27.2754194 12.6143379,27.0566169 12.464573,26.8215288 C12.238717,26.464361 12.0642166,26.0707022 11.9462319,25.6537775 C11.9362962,25.6203812 11.9291864,25.5941079 11.9229432,25.5682171 C11.8585102,25.32385 11.8143386,25.0822122 11.7880695,24.835282 C11.7612614,24.5832404 11.7530392,24.3297239 11.7636806,24.0775014 C11.7646685,24.0499176 11.7657571,24.0258599 11.7671461,24.0001626 C11.7873956,23.6370506 11.8405749,23.2792461 11.9251663,22.9320255 C12.2425027,21.6287342 13.00001,20.4399949 14.0051704,19.5788892 C14.5922546,19.0687095 15.2847634,18.6660922 16.0438331,18.3699885 C16.2473486,18.2911652 16.4524433,18.220815 16.6580558,18.159011 C16.7755229,18.123963 16.8938641,18.0916345 17.0117007,18.0623222 C16.380166,18.7462546 15.998875,19.6590157 15.998875,20.648175 Z M20.527875,24.897425 C20.527875,24.8415316 20.5268504,24.7844278 20.5248527,24.7239246 C20.5085672,24.2687068 20.4401452,23.8366845 20.3194247,23.4302958 C20.1928151,23.0067475 20.0113691,22.6158098 19.7755019,22.2617276 C19.7532966,22.2275548 19.7273756,22.1897755 19.7004539,22.1525691 C19.3768728,21.6959404 18.9585695,21.3042602 18.4557722,20.9897682 C18.0305984,20.7238651 17.5474936,20.5150231 17.012961,20.3665836 C17.1337045,19.16485 18.0186512,18.1637122 19.2013809,17.9045905 C19.69178,17.7971501 19.7356577,17.1148592 19.2630602,16.945489 C19.1868486,16.9181762 19.1022577,16.8974962 19.0105634,16.883169 C18.7258636,16.8369758 18.3252584,16.8389707 17.8731275,16.8892367 C17.5263017,16.9291409 17.1648495,16.9939826 16.8006426,17.0844081 C16.6589668,17.1190906 16.5150207,17.1581257 16.3711666,17.2010478 C16.1399307,17.2705527 15.9103799,17.3492917 15.6815391,17.4379254 C14.8192013,17.7743111 14.0276922,18.2344862 13.3518997,18.8217731 C12.1944662,19.8133123 11.3219195,21.1825804 10.9535686,22.6953867 C10.8545393,23.1018704 10.7923543,23.5202674 10.7686506,23.945336 C10.7668887,23.9779172 10.7655205,24.0081549 10.764438,24.038737 C10.7518383,24.3371019 10.7616639,24.6400571 10.7936795,24.9410585 C10.8252762,25.2380676 10.8785907,25.5297211 10.9534583,25.8131288 C10.961329,25.8462693 10.9731544,25.8899684 10.9861157,25.9332781 C11.1279653,26.4347415 11.3416399,26.9167741 11.62028,27.357408 C11.8072877,27.6509621 12.0221812,27.9230818 12.2650383,28.1733649 C12.8717814,28.798879 13.6237485,29.2543509 14.4426719,29.4940426 C14.6972036,29.5683523 14.9509208,29.6212856 15.2053374,29.6520574 C15.3723259,29.6731127 15.5416877,29.6849434 15.7103498,29.6868916 C16.159222,29.6941008 16.6108748,29.6347658 17.0469278,29.5119498 C17.6629754,29.3408288 18.2404599,29.0469362 18.7385522,28.6482957 C18.881406,28.5347918 19.0178436,28.4128703 19.1471895,28.2829656 C19.49899,27.9272664 19.7897433,27.5227815 20.011531,27.0821404 C20.3506576,26.4115155 20.527875,25.6608537 20.527875,24.897425 Z" id="Stroke-5" fill-rule="nonzero"></path>
              <path d="M16.53535,18.254425 C16.53535,18.2938257 16.537668,18.3312746 16.5418364,18.3739147 C16.5442385,18.3974719 16.5442385,18.3974719 16.5464498,18.4173092 C16.5501216,18.4501265 16.550978,18.4584255 16.5514367,18.4653721 C16.5661807,18.6886388 16.7274634,18.8749288 16.9463197,18.921483 C17.9331445,19.1313961 18.7967098,19.4698706 19.5230756,19.9239086 C20.1956952,20.3446965 20.7486387,20.8624647 21.1778286,21.4684207 C21.2128993,21.5166287 21.2422817,21.5593813 21.2700416,21.6023778 C21.5846589,22.074971 21.8248632,22.5923032 21.9932526,23.1562333 C22.1575306,23.7090174 22.2513815,24.301634 22.2736624,24.9315982 C22.2764563,25.0114559 22.27785,25.0903765 22.27785,25.168925 C22.27785,26.2066804 22.0373505,27.2250742 21.5786917,28.13172 C21.5785937,28.1319137 21.5784959,28.1321073 21.5783982,28.132301 C21.2797696,28.7262989 20.887339,29.2723122 20.4129125,29.7525187 C20.2404411,29.9259021 20.0561953,30.0906348 19.860413,30.2465139 C19.1877567,30.7843611 18.407808,31.181145 17.5728754,31.412889 C16.9836739,31.5787228 16.3755787,31.6586646 15.769123,31.6492354 C15.5456729,31.6465104 15.3194424,31.6307268 15.0891077,31.6024109 C14.7466043,31.5605644 14.4034509,31.4888737 14.05804,31.3879805 C12.9446682,31.0622637 11.9186362,30.4406779 11.0890635,29.5851158 C10.7552933,29.2416035 10.4614286,28.8694332 10.206502,28.4685993 C9.8218164,27.8607473 9.52541163,27.1925226 9.32518309,26.4854434 C9.30748083,26.4252639 9.29534824,26.3802 9.28583128,26.3389 C9.17705339,25.9279288 9.10223105,25.5189158 9.05807476,25.1015676 C9.01279345,24.6772016 8.99898764,24.2489251 9.01691175,23.8211048 C9.01866466,23.7685364 9.02028749,23.7295887 9.02234696,23.6921062 C9.0570331,23.0795662 9.146355,22.4783152 9.28812029,21.8968616 C9.82040561,19.7106092 11.0890038,17.71994 12.7735004,16.2760492 C13.7557549,15.4226482 14.9135739,14.749673 16.1807609,14.2555069 C16.5182188,14.1245608 16.8595853,14.0074158 17.2046558,13.9033981 C17.414725,13.8407771 17.6278625,13.7829392 17.8421502,13.7301724 C18.2128303,13.638208 18.5811322,13.5642953 18.9401159,13.50817 C17.472496,14.5876199 16.53535,16.3273058 16.53535,18.254425 Z M23.27785,25.168925 C23.27785,25.078661 23.2762504,24.9880852 23.2730443,24.896443 C23.2478231,24.1833471 23.1407039,23.5069487 22.951633,22.8707399 C22.75504,22.2123552 22.47283,21.6045547 22.1062815,21.0540595 C22.0720843,21.0010003 22.0320572,20.9427594 21.9899544,20.884977 C21.4873865,20.1753436 20.8369982,19.5663294 20.053281,19.0760394 C19.3231004,18.6196169 18.4811388,18.269382 17.540344,18.0328403 C17.6400075,15.8250676 19.221183,13.9534117 21.366083,13.4835956 C21.8570672,13.376051 21.9002699,12.6926317 21.4267371,12.5241147 C21.322644,12.4870709 21.2044664,12.4580122 21.0748313,12.4375435 C20.6407819,12.3672735 20.0159359,12.3705312 19.3063062,12.4494918 C18.7559469,12.5127867 18.1811108,12.615761 17.6022011,12.7593874 C17.3733228,12.8157462 17.1446595,12.8777971 16.9175075,12.9455132 C16.5465542,13.0573305 16.1807928,13.182847 15.8182211,13.323539 C14.4481065,13.8578431 13.1912848,14.588363 12.1201679,15.5189856 C10.2833943,17.093388 8.89980913,19.2644934 8.31654143,21.6601455 C8.16035842,22.3007336 8.06206856,22.9623505 8.02389969,23.6364075 C8.02134355,23.6829165 8.01943007,23.7288399 8.01762149,23.7837004 C7.99779556,24.2564392 8.01319562,24.7341716 8.06367235,25.2072258 C8.1131339,25.6747191 8.19720717,26.1343019 8.31532645,26.5794196 C8.32595306,26.6267405 8.34303674,26.6901942 8.36448549,26.76299 C8.58923878,27.5567777 8.92486437,28.3134232 9.36210069,29.0043092 C9.65418053,29.4635634 9.99044596,29.8894329 10.3714983,30.281607 C11.3206911,31.2605371 12.4971591,31.9732592 13.7774595,32.3478109 C14.1741826,32.4636923 14.5704367,32.5464767 14.9674619,32.5949844 C15.2331146,32.6276423 15.495936,32.6459786 15.7552591,32.6491379 C16.4572705,32.6600556 17.1618416,32.5674308 17.8420668,32.375974 C18.8047264,32.1087815 19.7062466,31.6501504 20.4840996,31.0281877 C20.709055,30.8490827 20.9220637,30.6586334 21.1230887,30.4565406 C21.6720217,29.900924 22.125843,29.2695505 22.471291,28.5825711 C23.000915,27.5354237 23.27785,26.3625317 23.27785,25.168925 Z" id="Stroke-7" fill-rule="nonzero"></path>
              <path d="M22.5564866,32.1746442 C22.3061442,32.4263556 22.0391,32.6652108 21.7554372,32.8911637 C20.7811023,33.6704 19.6506465,34.2455669 18.4399634,34.5819195 C17.5870153,34.8217855 16.7059095,34.9374321 15.8265241,34.9238889 C15.5032815,34.9202706 15.1760234,34.8973677 14.8412743,34.8559702 C14.3449532,34.7956572 13.8483104,34.6918242 13.3470113,34.5452066 C11.7326921,34.0731494 10.245447,33.1722261 9.04293378,31.9319752 C8.55868355,31.4335907 8.13259766,30.8940021 7.76372323,30.3135398 C7.20584822,29.4324514 6.77637682,28.4639905 6.48613694,27.4383343 C6.46004395,27.3498252 6.4423236,27.2844381 6.42832364,27.2244895 C6.27124538,26.6296651 6.1627365,26.03655 6.0982608,25.4309052 C6.03295609,24.8157155 6.01294921,24.1941408 6.03882135,23.5748558 C6.04108843,23.5083219 6.0436249,23.448023 6.04681044,23.383577 C6.09670088,22.5001634 6.22634845,21.6279184 6.43216402,20.7830671 C7.20463565,17.6111322 9.04523548,14.722978 11.4889706,12.6290763 C12.9134333,11.3908069 14.5934079,10.414212 16.4327616,9.69678012 C16.9216477,9.50721845 17.4168427,9.33735643 17.9183124,9.18609589 C18.2238395,9.09500231 18.5329179,9.01115691 18.8432623,8.93486698 C19.348986,8.80939336 19.8513513,8.70712326 20.3421555,8.62770966 C18.2482832,10.2042394 16.915725,12.7115867 16.915725,15.48555 C16.915725,15.5442168 16.9191903,15.5994972 16.9254326,15.6631107 C16.9272088,15.6812111 16.9286774,15.6949641 16.931646,15.721879 C16.9368257,15.7686883 16.9380901,15.7811849 16.938648,15.7902285 C16.9593873,16.1264237 17.2017153,16.4075541 17.5311783,16.4776367 C18.9636153,16.7823411 20.2158406,17.2729912 21.2677702,17.9309202 C22.2429472,18.5410626 23.0438974,19.2910192 23.6653871,20.1687148 C23.7148993,20.2369487 23.7584628,20.3002208 23.8016462,20.366214 C24.2550715,21.0477654 24.6029431,21.7972658 24.8468032,22.6143015 C25.0849332,23.4156445 25.2211741,24.2749065 25.2537007,25.187757 C25.2573567,25.3019272 25.259225,25.4174138 25.259225,25.53205 C25.259225,27.0358424 24.9106958,28.5116383 24.2459197,29.8263766 C24.2457774,29.8266581 24.2456352,29.8269396 24.2454933,29.8272211 C24.0594788,30.1974382 24.2077342,30.6474923 24.5768016,30.8341053 C24.9464487,31.0210114 25.3976242,30.8728705 25.5845303,30.5032234 C25.7713645,30.131664 25.6222163,29.6808205 25.2521527,29.4947405 C24.8823062,29.3087697 24.4317746,29.4576337 24.2454934,29.827221 C23.812202,30.6888573 23.243664,31.4798674 22.5564866,32.1746442 Z M26.759225,25.53205 C26.759225,25.4013112 26.7570974,25.2698001 26.7528398,25.1370143 C26.7157938,24.0971955 26.5596491,23.1124007 26.2844034,22.1861601 C25.9982985,21.2275847 25.5874891,20.3424827 25.0536498,19.5401061 C25.000465,19.4587888 24.9430398,19.3753839 24.8842086,19.2944209 C24.1520937,18.2603981 23.2049485,17.3735542 22.0632821,16.6592438 C21.0058711,15.9978865 19.7864997,15.4897759 18.4238511,15.145415 C18.5764682,11.9564503 20.863219,9.25549435 23.9629163,8.57668811 C24.6984495,8.41561285 24.7644582,7.39233912 24.055716,7.13809744 C23.902754,7.08322655 23.7284422,7.04046274 23.5374438,7.01057009 C22.9066889,6.9079512 21.9971231,6.9127761 20.9625305,7.02790064 C20.1621324,7.1198505 19.3260214,7.26961249 18.4836189,7.47862045 C18.1514235,7.56028006 17.8188362,7.65050285 17.4874243,7.74931834 C16.9472901,7.91223745 16.4157112,8.09457987 15.889085,8.29877672 C13.8950662,9.07653347 12.0665197,10.1394954 10.5089243,11.4935234 C7.83690837,13.783001 5.82378172,16.9418736 4.97477286,20.4280868 C4.74733584,21.3616919 4.60423066,22.3244772 4.54891729,23.304277 C4.54507806,23.3815748 4.54221312,23.4496823 4.53990072,23.5182835 C4.51117284,24.2053412 4.53355678,24.9007665 4.60666536,25.5894706 C4.67917361,26.2705686 4.80143941,26.9388797 4.97293321,27.5869208 C4.98904814,27.6573396 5.01394866,27.7492211 5.04519805,27.8550133 C5.37205771,29.0102578 5.86042891,30.1115382 6.4970631,31.1170139 C6.92155807,31.7850028 7.41136133,32.4052821 7.9665726,32.9766981 C9.34854518,34.4020408 11.0615158,35.4397011 12.9259761,35.9849043 C13.5042469,36.1540341 14.0810093,36.2746177 14.658753,36.3448232 C15.0461496,36.3927332 15.4291283,36.4195357 15.8065956,36.4237532 C16.8283961,36.4394963 17.854037,36.3048792 18.843767,36.026543 C20.2462344,35.6369126 21.5589781,34.9689992 22.691162,34.063519 C23.0186062,33.8026937 23.3287354,33.5253014 23.6215034,33.2309278 C24.4205341,32.4230647 25.0813629,31.503697 25.5849082,30.5024759 C26.3560486,28.9770822 26.759225,27.2696068 26.759225,25.53205 Z" id="Stroke-9" fill-rule="nonzero"></path>
            </g>
          </g>
        </g>
      </g>
    </g>
  </g>
</svg>
