<svg data-name="7fe0e893-843d-4e61-935c-9f3233d59817" xmlns="http://www.w3.org/2000/svg" width="160" height="160" viewBox="0 0 160 160"><path d="M82.86 25.17A4 4 0 0 0 80 24a4 4 0 0 0-3 1.34L59.72 42.62a4 4 0 0 0 5.65 5.66L76 37.68V84a4 4 0 0 0 8 0V37.64l10.62 10.64a4 4 0 1 0 5.66-5.65zM92 136H68a4 4 0 0 0 0 8h24a4 4 0 0 0 0-8z"/><path d="M112 0H48a16 16 0 0 0-16 16v128a16 16 0 0 0 16 16h64a16 16 0 0 0 16-16V16a16 16 0 0 0-16-16zm8 144a8 8 0 0 1-8 8H48a8 8 0 0 1-8-8V16a8 8 0 0 1 8-8h64a8 8 0 0 1 8 8z"/></svg>