<svg data-name="75dfbaf3-2379-4004-910a-4689a4751cfb" xmlns="http://www.w3.org/2000/svg" width="160" height="160" viewBox="0 0 160 160"><path d="M156 112a4 4 0 0 0-4 4v20a16 16 0 0 1-16 16H24a16 16 0 0 1-16-16v-20a4 4 0 0 0-8 0v20a24 24 0 0 0 24 24h112a24 24 0 0 0 24-24v-20a4 4 0 0 0-4-4z"/><path d="M56.93 66.72L76 46.19V132a4 4 0 0 0 8 0V46.19l19.07 20.54a4 4 0 0 0 5.86-5.44l-26-28h-.05a4 4 0 0 0-.37-.32c-.08-.06-.15-.14-.23-.19a4 4 0 0 0-.49-.28l-.2-.11a4 4 0 0 0-.67-.21h-.1a4 4 0 0 0-1.63 0h-.09a4 4 0 0 0-.67.21l-.19.11a4 4 0 0 0-.5.28c-.08.06-.15.13-.23.19a4 4 0 0 0-.38.33h-.05l-26 28a4 4 0 1 0 5.86 5.44z"/></svg>