<svg data-name="63fd6c6a-94b1-47aa-9237-c712dae67c4b" xmlns="http://www.w3.org/2000/svg" width="160" height="160" viewBox="0 0 160 160"><path d="M70.9 54.16a31.66 31.66 0 0 0-12.34 4.18c-2.17 1.25-7.33 1.85-15.34-.22a28.54 28.54 0 0 0-30 10.11c-7.26 9.56-7.48 22.4-.6 34.31a28.82 28.82 0 0 0 14 12.43 75.31 75.31 0 0 0 7.18 2.36c2.63.75 3.87 1.13 5 2.05l1.91 1.88c.9 1.08 1.25 2.23 2 4.85a73.39 73.39 0 0 0 2.4 7.29 28.72 28.72 0 0 0 12.35 13.92 35.24 35.24 0 0 0 17.59 5 27.39 27.39 0 0 0 16.75-5.59 28.52 28.52 0 0 0 10.1-30c-2.07-8-1.47-13.16-.24-15.29a31.77 31.77 0 0 0 4.21-12.42c1.59-14.4-9-25.06-9.4-25.48S85.33 52.56 70.9 54.16zm27 34a23.82 23.82 0 0 1-3.17 9.32c-2.72 4.72-2.93 12.3-.6 21.33a20.54 20.54 0 0 1-7.19 21.63c-3.32 2.52-12.44 7.56-25.54 0a20.67 20.67 0 0 1-8.9-10 65.4 65.4 0 0 1-2.12-6.48c-.84-3-1.56-5.52-3.74-8l-.22-.23-2.13-2.09-.16-.15c-2.5-2.19-5.09-2.93-8.1-3.79-1.8-.52-3.85-1.1-6.39-2.09a20.76 20.76 0 0 1-10.07-9c-7.54-13.06-2.5-22.19 0-25.51a20.23 20.23 0 0 1 16.21-7.89 21.77 21.77 0 0 1 5.43.69c9 2.33 16.61 2.12 21.36-.62a23.72 23.72 0 0 1 9.23-3.15c10.49-1.16 18.86 7 19 7.14s8.27 8.31 7.1 18.87zm26.35-9.41a19.49 19.49 0 0 0 13.59-5.9c7.07-7.07 7.9-17.74 1.86-23.78s-16.7-5.21-23.78 1.86a19.82 19.82 0 0 0-5.83 11.87 14.39 14.39 0 0 0 4 11.91 14.19 14.19 0 0 0 10.16 4.04zM118 63.61a11.82 11.82 0 0 1 3.53-7c3.88-3.88 9.59-4.74 12.47-1.86s2 8.58-1.86 12.47-9.59 4.73-12.47 1.86a6.56 6.56 0 0 1-1.67-5.47zm-8.06-43.32c-6-6-16.71-5.21-23.78 1.86A19.81 19.81 0 0 0 80.33 34a14.39 14.39 0 0 0 4 11.91 14.19 14.19 0 0 0 10.19 4 19.48 19.48 0 0 0 13.59-5.9c7.04-7.01 7.89-17.67 1.83-23.72zm-7.52 18.12c-3.88 3.89-9.59 4.74-12.42 1.87a6.56 6.56 0 0 1-1.67-5.44 11.81 11.81 0 0 1 3.53-7 11.62 11.62 0 0 1 7.95-3.56 6.26 6.26 0 0 1 4.47 1.72c2.88 2.83 2.03 8.54-1.86 12.42zM55.25 49a19.48 19.48 0 0 0 13.59-5.9c7.07-7.07 7.9-17.74 1.86-23.78S54 14.1 46.93 21.16 39 38.9 45.07 44.94A14.2 14.2 0 0 0 55.25 49zm-2.67-22.18a11.62 11.62 0 0 1 7.95-3.57A6.26 6.26 0 0 1 65 25c2.88 2.87 2 8.58-1.86 12.47s-9.59 4.73-12.47 1.86-1.97-8.63 1.91-12.51zm88.33 63.47c-6-6-16.71-5.21-23.78 1.86s-7.9 17.74-1.86 23.78a14.19 14.19 0 0 0 10.19 4 19.48 19.48 0 0 0 13.59-5.9c7.07-7.03 7.95-17.69 1.86-23.74zm-7.52 18.12c-3.88 3.88-9.59 4.73-12.47 1.86s-2-8.58 1.86-12.47a11.63 11.63 0 0 1 7.95-3.56 6.26 6.26 0 0 1 4.52 1.76c2.88 2.83 2.02 8.53-1.86 12.42z"/></svg>