<svg data-name="ac8745a2-a6e7-4e06-9818-b8101ae2f1e3" xmlns="http://www.w3.org/2000/svg" width="160" height="160" viewBox="0 0 160 160"><path d="M150.83 89.17l-16-16A4 4 0 0 0 132 72h-20V54a22 22 0 0 0-20.8-22L88.36 8.77A10 10 0 0 0 78.47 0H41.72a10.05 10.05 0 0 0-10 8.76L28.81 32A22 22 0 0 0 8 54v52a22 22 0 0 0 20.81 22l2.91 23.27a10 10 0 0 0 9.89 8.73h36.83a10 10 0 0 0 9.92-8.78L91.2 128a21.86 21.86 0 0 0 4.8-.78V150a10 10 0 0 0 10 10h36a10 10 0 0 0 10-10V92a4 4 0 0 0-1.17-2.83zM41.69 8h36.73a2 2 0 0 1 2 1.74L83.13 32H36.88l2.78-22.25A2 2 0 0 1 41.69 8zm36.72 144H41.64a2 2 0 0 1-2-1.76L36.88 128h46.25l-2.71 22.25a2 2 0 0 1-2.01 1.75zM90 120H30a14 14 0 0 1-14-14V54a14 14 0 0 1 14-14h60a14 14 0 0 1 14 14v18.2a10 10 0 0 0-8 9.8v36.68a13.62 13.62 0 0 1-6 1.32zm54 30a2 2 0 0 1-2 2h-36a2 2 0 0 1-2-2V82a2 2 0 0 1 2-2h24.34L144 93.66z"/><path d="M120 104a8 8 0 0 0-8 8v24a8 8 0 0 0 8 8h8a8 8 0 0 0 8-8v-24a8 8 0 0 0-8-8zm8 32h-8v-24h8z"/></svg>