<svg data-name="0f219111-1644-41ed-b19e-89316a84ac07" xmlns="http://www.w3.org/2000/svg" width="160" height="160" viewBox="0 0 160 160"><path d="M159.45 76.92l-.08-.2c-.05-.13-6-13.64-19.75-27.28C122.86 32.8 102.24 24 80 24 28 24 3.42 70.64.76 76a4.07 4.07 0 0 0-.2.49 10.25 10.25 0 0 0 0 6.58l.08.2c.05.13 6 13.64 19.75 27.28C37.14 127.2 57.76 136 80 136c52 0 76.58-46.64 79.24-52a4.07 4.07 0 0 0 .21-.49 10.25 10.25 0 0 0 0-6.59zm-7.52 3.81C149 86.56 126.5 128 80 128 31.27 128 9.15 82.67 8.09 80.38a2.22 2.22 0 0 1 0-1.11C11 73.43 33.5 32 80 32c48.72 0 70.84 45.33 71.91 47.62a2.21 2.21 0 0 1 .02 1.11z"/><path d="M80 48a32 32 0 0 0 0 64h.26A31.88 31.88 0 0 0 112 80a32 32 0 0 0-32-32zm17.08 48.93A23.71 23.71 0 0 1 80.24 104H80a24 24 0 1 1 24-24 23.72 23.72 0 0 1-6.92 16.93z"/></svg>