<svg data-name="ef37a9e9-9231-4867-99c5-0150cc3a82f6" xmlns="http://www.w3.org/2000/svg" width="160" height="160" viewBox="0 0 160 160"><path d="M138.83 133.17l-37-37A44 44 0 0 0 40 34.08V16a8 8 0 0 1 8-8h64a8 8 0 0 1 8 8v84a4 4 0 0 0 8 0V16a16 16 0 0 0-16-16H48a16 16 0 0 0-16 16v26.75a43.85 43.85 0 0 0 0 50.5V144a16 16 0 0 0 16 16h64a16 16 0 0 0 16-16 4 4 0 0 0-8 0 8 8 0 0 1-8 8H48a8 8 0 0 1-8-8v-42.08a43.91 43.91 0 0 0 56.14-.12l37 37a4 4 0 0 0 5.66-5.66zM32 68a36 36 0 1 1 36 36 36 36 0 0 1-36-36z"/><path d="M68 136a4 4 0 0 0 0 8h24a4 4 0 0 0 0-8z"/></svg>