<svg data-name="ac7f80ab-da07-4650-b340-0adfe2e6bdd7" xmlns="http://www.w3.org/2000/svg" width="160" height="160" viewBox="0 0 160 160"><path d="M155.93 118.34L98.7 13.2C94 4.82 87.51.17 80.34.11s-14.15 4.69-19 13l-.05.1-57.2 105.1c-4.83 8.53-5.4 17.19-1.57 23.76 3.67 6.31 11.06 9.93 20.25 9.93h114.46c9.34 0 16.53-3.52 20.26-9.91 3.83-6.56 3.26-15.21-1.56-23.75zm-5.35 19.72c-2.24 3.83-7 5.94-13.35 5.94H22.77c-6.37 0-11.1-2.12-13.35-6-2.36-4-1.76-9.8 1.66-15.85L68.29 17.11c3.36-5.76 7.73-9 12-9s8.25 3.23 11.43 9l57.22 105.13v.06c3.4 5.96 4 11.7 1.64 15.76z"/><path d="M80 104.5a4 4 0 0 0 4-4V44a4 4 0 0 0-8 0v56.5a4 4 0 0 0 4 4zm0 9.5a6 6 0 1 0 6 6 6 6 0 0 0-6-6"/></svg>