<svg data-name="6c9f2019-e37d-46ba-8d14-e350e6db567e" xmlns="http://www.w3.org/2000/svg" width="160" height="160" viewBox="0 0 160 160"><path d="M151.52 130.21c-4.68-14-11.53-33.65-17.57-51-3.76-10.81-7.31-21-9.64-27.84A16.72 16.72 0 0 0 108.47 40H88.8a21 21 0 1 0-17.6 0H52a16.73 16.73 0 0 0-15.78 11.29L8.68 130.16a16.72 16.72 0 0 0 15.78 22.13H57.3c26.22-.06 58.86-.06 78.36-.06a16.72 16.72 0 0 0 15.85-22zM67 21a13 13 0 1 1 13 13 13 13 0 0 1-13-13zm76.44 118.42a8.72 8.72 0 0 1-7.81 4.83c-19.51 0-52.16 0-78.37.06H24.47a8.72 8.72 0 0 1-8.23-11.52L43.78 53.9A8.73 8.73 0 0 1 52 48h56.47a8.73 8.73 0 0 1 8.27 5.93c2.34 6.86 5.9 17.08 9.66 27.89 6 17.34 12.88 37 17.54 50.92a8.66 8.66 0 0 1-.47 6.67z"/></svg>